<?xml version="1.0" standalone="no"?>
<!DOCTYPE svg PUBLIC "-//W3C//DTD SVG 1.1//EN" "http://www.w3.org/Graphics/SVG/1.1/DTD/svg11.dtd" >
<svg xmlns="http://www.w3.org/2000/svg" xmlns:xlink="http://www.w3.org/1999/xlink" version="1.1">
<metadata>
Created by FontForge 20161003 at Tue Jan 22 23:22:57 2019
 By www-data
Copyright (c) 2012 by Commercial Type, Georgian by BPG-InfoTech. All rights reserved.
</metadata>
<defs>
<font id="BPGGuardianEgypBldExp" horiz-adv-x="498" >
  <font-face 
    font-family="BPGGuardianEgypBldExp"
    font-weight="700"
    font-stretch="expanded"
    units-per-em="1000"
    panose-1="2 6 8 3 5 5 3 6 8 3"
    ascent="790"
    descent="-210"
    x-height="534"
    cap-height="693"
    bbox="-180 -221 1312 1115"
    underline-thickness="50"
    underline-position="-150"
    unicode-range="U+0020-FB04"
  />
<missing-glyph horiz-adv-x="499" 
 />
    <glyph glyph-name=".notdef" horiz-adv-x="499" 
 />
    <glyph glyph-name=".null" horiz-adv-x="0" 
 />
    <glyph glyph-name="nonmarkingreturn" horiz-adv-x="174" 
 />
    <glyph glyph-name="space" unicode=" " horiz-adv-x="174" 
 />
    <glyph glyph-name="exclam" unicode="!" horiz-adv-x="275" 
d="M144 -12q-35 0 -58 21.5t-23 51.5t23 52.5t58 22.5q34 0 55.5 -22.5t21.5 -52.5t-21.5 -51.5t-55.5 -21.5zM61 705h165q-5 -63 -10 -121t-10 -121q-5 -58 -9.5 -114t-9.5 -115h-94z" />
    <glyph glyph-name="quotedbl" unicode="&#x22;" horiz-adv-x="455" 
d="M61 705h134q-6 -56 -11.5 -103t-11.5 -102h-89zM278 705h135q-6 -56 -11 -103t-12 -102h-90z" />
    <glyph glyph-name="numbersign" unicode="#" horiz-adv-x="539" 
d="M72 538h103q6 37 12 82.5t12 84.5h66l-28 -167h144q5 35 12 80t13 83q0 1 0.5 2t0.5 2h61l-25 -167h87v-113h-105l-22 -133h86v-113h-105q-5 -38 -12 -86.5t-15 -88.5q0 -1 -0.5 -2t-0.5 -2h-63l30 179h-143q-4 -25 -8 -55.5t-9 -57.5q-2 -16 -5.5 -33t-5.5 -33h-65
l30 179h-85v113h104l21 133h-85v113zM197 292h144l21 133h-144z" />
    <glyph glyph-name="dollar" unicode="$" horiz-adv-x="574" 
d="M221 -11q-52 5 -98.5 11t-78.5 17q-2 22 -2 42.5t-2 40.5q-2 19 -3 36.5t-2 35.5h90l29 -83q14 -7 34.5 -13t43.5 -11l29 233l-47 13q-89 21 -132 67t-43 134q0 90 67 146.5t209 61.5q1 5 2 14.5t2 15.5q2 7 3 16t2 17h53l-9 -64q52 -5 89 -12t60 -14q2 -21 2 -39t2 -37
q1 -13 2 -29t2 -30h-86l-18 67l-65 15l-26 -213q4 -1 7.5 -2t20.5 -4q5 -2 9 -2.5t8 -1.5h-1q46 -13 81.5 -30t58.5 -41t35 -57.5t12 -79.5q0 -100 -73 -158t-215 -63q-1 -10 -2 -24t-3 -24q-3 -16 -4.5 -33.5t-3.5 -33.5h-54zM414 171q0 37 -23 63t-81 50l-25 -221
q65 9 97 38t32 70zM176 549q0 -36 23 -60.5t80 -46.5l27 202q-59 -5 -94.5 -29.5t-35.5 -65.5z" />
    <glyph glyph-name="percent" unicode="%" horiz-adv-x="917" 
d="M210 372q23 0 37.5 8.5t22 26.5t10 46t2.5 66q0 39 -2.5 68.5t-10 48.5t-22 28.5t-37.5 9.5q-44 0 -57.5 -36.5t-13.5 -113.5q0 -76 13.5 -114t57.5 -38zM209 329q-36 0 -69 11t-59 34t-41.5 59t-15.5 86q0 52 16 90t42.5 62.5t59.5 36t68 11.5t68.5 -11t60 -35t43 -60.5
t16.5 -87.5t-16 -88t-42 -61t-60.5 -35.5t-70.5 -11.5zM681 727h66q-29 -45 -55.5 -88t-53 -85l-53 -84t-54.5 -87q-67 -107 -133.5 -212t-134.5 -215h-66zM741 31q23 0 37.5 8.5t22 26.5t10 46t2.5 67t-2.5 67.5t-10 48t-22 29t-37.5 9.5t-37 -9t-21.5 -27.5t-10 -47
t-2.5 -66.5t2.5 -66.5t10 -47.5t21.5 -28.5t37 -9.5zM740 -12q-36 0 -69.5 11t-59 34t-41 59.5t-15.5 86.5q0 52 16 89.5t42.5 61.5t59.5 35t68 11q34 0 67.5 -11t60.5 -34t43.5 -59.5t16.5 -87.5t-16 -88t-42 -61t-60.5 -35.5t-70.5 -11.5z" />
    <glyph glyph-name="ampersand" unicode="&#x26;" horiz-adv-x="756" 
d="M288 -12q-128 0 -196 49t-68 144q0 70 47 118t124 83q-35 48 -48.5 85t-13.5 72q0 39 15 72t43.5 57t69.5 37.5t94 13.5q95 0 144 -42t49 -108q0 -31 -12.5 -55.5t-35.5 -45.5t-54.5 -39t-68.5 -35l189 -203q17 32 31 63t22 60q-8 2 -26.5 7t-32.5 9v61h201v-62l-52 -12
q-14 -48 -39 -93t-57 -85l52 -54q11 -2 24.5 -6t26.5 -7q11 -2 18 -6v-66h-194l-44 48q-51 -29 -104 -44.5t-104 -15.5zM337 71q25 0 54.5 6t63.5 15l-219 241q-26 -31 -36 -60.5t-10 -60.5q0 -63 38 -102t109 -39zM278 555q0 -35 18 -63.5t47 -60.5q26 17 43 32.5
t26.5 31.5t13 32.5t3.5 36.5q0 45 -20.5 65.5t-52.5 20.5q-36 0 -57 -25t-21 -70z" />
    <glyph glyph-name="quotesingle" unicode="'" horiz-adv-x="253" 
d="M65 705h134q-6 -56 -11.5 -103t-11.5 -102h-89z" />
    <glyph glyph-name="parenleft" unicode="(" horiz-adv-x="361" 
d="M292 -156q-50 37 -95 81.5t-79.5 100t-54.5 124t-20 154.5q0 79 21 146.5t55.5 125t79.5 104.5t94 85q3 -2 2 -2t2 -3q10 -8 19.5 -16t18.5 -17q-32 -41 -59.5 -84.5t-47.5 -92t-31 -105t-11 -123.5q0 -80 10 -142.5t29.5 -114.5t46.5 -96t62 -87zM262 -186l29 29
q5 -3 10 -5q3 -1 4 -2l35 -18z" />
    <glyph glyph-name="parenright" unicode=")" horiz-adv-x="361" 
d="M83 -156q49 38 94.5 85.5t79.5 104.5t54.5 124.5t20.5 145.5q0 86 -20.5 155t-55 125t-80 100t-94.5 81q-13 -11 -22 -19t-21 -19q35 -43 63 -87t47.5 -96t29.5 -114.5t10 -141.5q0 -69 -11 -125t-30.5 -104.5t-47 -91t-60.5 -84.5zM83 766l-1 -1h-1zM80 765h1v1z" />
    <glyph glyph-name="asterisk" unicode="*" horiz-adv-x="393" 
d="M198 498l-30 14q-14 -13 -33 -32t-35 -33l-8 -8t-9 -8q-5 11 -7.5 14.5t-7.5 12.5q-7 11 -12.5 19.5t-10.5 19.5l111 28v35q-6 2 -16.5 4.5t-17.5 4.5q-18 5 -38.5 10.5t-38.5 9.5q6 13 9 16.5t10 13.5q3 5 9.5 16.5t9.5 17.5l86 -83l29 18q-6 18 -12.5 41.5t-11.5 43.5
q-2 9 -5.5 16.5t-5.5 15.5h82l-34 -117l29 -18q19 19 41 42t43 43q8 -15 12 -21.5t11 -19.5q4 -7 8 -13t8 -13l-110 -28v-35q24 -7 54 -14.5t56 -13.5q-8 -14 -12.5 -21.5t-10.5 -18.5q-4 -7 -7.5 -13.5t-8.5 -13.5l-83 82l-30 -14q3 -12 8 -28.5t8 -29.5q5 -15 8.5 -30
t8.5 -30h-81z" />
    <glyph glyph-name="plus" unicode="+" horiz-adv-x="540" 
d="M59 389h177v183h89v-183h178v-86h-178v-185h-89v185h-177v86z" />
    <glyph glyph-name="comma" unicode="," horiz-adv-x="257" 
d="M59 -87q5 51 7 102.5t2 115.5h144q-8 -60 -22 -115t-34 -103h-97zM14 -87h46q-3 -10 -3.5 -22.5t-0.5 -29.5z" />
    <glyph glyph-name="hyphen" unicode="-" horiz-adv-x="329" 
d="M50 338h242v-105h-242v105z" />
    <glyph glyph-name="period" unicode="." horiz-adv-x="257" 
d="M133 -15q-36 0 -60 24t-24 56q0 33 24 56.5t60 23.5q38 0 61 -23.5t23 -56.5q0 -32 -23 -56t-61 -24z" />
    <glyph glyph-name="slash" unicode="/" horiz-adv-x="384" 
d="M265 749h93q-32 -115 -62 -220t-61 -216q-30 -110 -61 -220.5t-62 -222.5h-93z" />
    <glyph glyph-name="zero" unicode="0" horiz-adv-x="663" 
d="M345 71q63 0 93 64.5t30 210.5q0 81 -6.5 136.5t-21 89t-38 48t-57.5 14.5q-64 0 -94.5 -65.5t-30.5 -211.5q0 -80 6.5 -134.5t21.5 -88.5t38.5 -48.5t58.5 -14.5zM342 -12q-66 0 -122 21.5t-97 65.5t-64.5 112.5t-23.5 161.5q0 97 25.5 167t68.5 115t99.5 66.5
t119.5 21.5q64 0 120 -21.5t97.5 -65.5t65 -113t23.5 -163q0 -97 -25 -166.5t-68 -114.5t-99.5 -66t-119.5 -21z" />
    <glyph glyph-name="one" unicode="1" horiz-adv-x="425" 
d="M41 64l97 19v474q-10 -1 -28 -2.5t-31 -2.5q-11 -2 -23 -2.5t-23 -1.5v70q27 12 51 23t48 23q26 11 51 23t53 26h80v-630q19 -2 33 -5l28 -6q8 -2 16.5 -4t15.5 -4v-64h-368v64z" />
    <glyph glyph-name="two" unicode="2" horiz-adv-x="540" 
d="M24 88l163 157q32 31 57.5 59t43.5 55t27.5 55t9.5 58q0 126 -142 126q-33 0 -69 -4.5t-66 -12.5v81q40 22 98 39t124 17q118 0 179 -55.5t61 -155.5q0 -84 -57 -154t-156 -140l-147 -108l260 -3q6 11 13.5 27t13.5 29q2 5 5 10t5 10h76q-2 -25 -4 -42.5t-4 -40.5
t-3.5 -47.5t-3.5 -47.5h-484v88z" />
    <glyph glyph-name="three" unicode="3" horiz-adv-x="530" 
d="M228 -10q-75 0 -121 12t-79 29v77q29 -8 64.5 -12.5t72.5 -4.5q81 0 120.5 26.5t39.5 88.5q0 67 -35 92t-107 25h-50v79h36q74 0 109 25t35 81q0 55 -33 81t-108 26q-35 0 -63 -3t-53 -8v72q35 17 86.5 29.5t111.5 12.5q110 0 170 -43t60 -126q0 -60 -40 -98.5
t-103 -56.5v-41q35 -5 66 -17t54.5 -32.5t37.5 -49.5t14 -67q0 -94 -74 -145.5t-211 -51.5z" />
    <glyph glyph-name="four" unicode="4" horiz-adv-x="603" 
d="M264 65l80 17v135h-317v73q43 54 84.5 104.5t85.5 104.5q42 52 84 103.5t85 103.5h147v-417h79v-72h-79v-134q15 -5 36.5 -9t38.5 -9v-65h-324v65zM588 74l11 -11q-1 0 -3.5 0.5t-3.5 0.5q-3 0 -4 1v9zM344 289v250h-36l-196 -247z" />
    <glyph glyph-name="five" unicode="5" horiz-adv-x="536" 
d="M232 -10q-74 0 -120.5 12t-80.5 30v74q29 -8 64.5 -12.5t74.5 -4.5q76 0 119 31t43 101t-47.5 97.5t-127.5 27.5q-25 0 -48 -2t-43 -5v9.5t1 9.5q6 88 11 173.5t10 173.5h393q-2 -19 -2 -29.5t-2 -27.5q-2 -13 -3 -27l-2 -28h-299l-14 -172q30 6 60 9t50 3
q54 0 99.5 -12.5t78.5 -38.5t51.5 -65.5t18.5 -92.5q0 -48 -18 -91t-53.5 -74.5t-89 -50t-124.5 -18.5z" />
    <glyph glyph-name="six" unicode="6" horiz-adv-x="620" 
d="M331 -12q-71 0 -126.5 24.5t-93 69.5t-57 108t-19.5 140q0 102 28 175.5t75 121t109 69.5t131 22q63 0 108 -10.5t72 -25.5v-78q-26 5 -60 7t-67 2q-42 0 -79.5 -10.5t-66 -37t-47.5 -73t-25 -118.5q40 26 89.5 43.5t93.5 17.5q52 0 92.5 -15t67.5 -42t41 -64.5t14 -83.5
q0 -49 -17 -93t-51.5 -77t-87 -52.5t-124.5 -19.5zM329 72q55 0 79 35.5t24 110.5q0 76 -26.5 104t-81.5 28q-31 0 -58.5 -7.5t-48.5 -19.5q-1 -10 -1 -18v-26q0 -110 27 -158.5t86 -48.5z" />
    <glyph glyph-name="seven" unicode="7" horiz-adv-x="544" 
d="M431 561v32h-291q-5 -15 -13 -37t-15 -39h-81q1 28 2 47.5t3 45.5q2 23 2 46.5t2 48.5h495v-99q-57 -155 -111 -303t-110 -303h-193z" />
    <glyph glyph-name="eight" unicode="8" horiz-adv-x="623" 
d="M321 -15q-145 0 -216.5 50t-71.5 136q0 26 13.5 50.5t38 46.5t58 41t73.5 35q-81 38 -119 81t-38 103q0 42 18 77.5t53 60.5t86 39t117 14q63 0 111 -12t79.5 -34t47.5 -52.5t16 -67.5q0 -26 -14 -49t-38 -43t-56.5 -36.5t-69.5 -30.5q47 -17 85 -36.5t64.5 -43t41 -53
t14.5 -65.5q0 -103 -76.5 -157t-216.5 -54zM307 65q72 0 105.5 28.5t33.5 79.5q0 26 -12 45.5t-36 35t-59.5 29.5t-82.5 29q-45 -27 -65 -61t-20 -76q0 -53 35.5 -81.5t100.5 -28.5zM373 425q32 18 54.5 45t22.5 72q0 52 -30.5 75t-80.5 23q-52 0 -83.5 -24.5t-31.5 -65.5
q0 -26 7.5 -44t24 -32t42.5 -25.5t63 -23.5h12z" />
    <glyph glyph-name="nine" unicode="9" horiz-adv-x="620" 
d="M265 -12q-61 0 -107 11.5t-81 28.5v77q29 -6 64.5 -10t70.5 -4q49 0 87 11t66 38t44.5 73t22.5 117q-41 -25 -90.5 -43t-94.5 -18q-52 0 -92 15t-67 42t-41 65t-14 85q0 49 17 93t51.5 77t87.5 52.5t124 19.5q143 0 219.5 -89.5t76.5 -254.5q0 -101 -25 -174t-70 -120
t-108.5 -69.5t-140.5 -22.5zM320 355q31 0 57 7t49 18q1 7 1.5 11.5l1 9t0.5 10v14.5q0 111 -27 159.5t-87 48.5q-55 0 -79 -36t-24 -111t26 -103t82 -28z" />
    <glyph glyph-name="colon" unicode=":" horiz-adv-x="262" 
d="M137 -15q-19 0 -35 6.5t-27.5 17.5t-18 25.5t-6.5 30.5q0 33 24.5 56.5t62.5 23.5q37 0 60.5 -23.5t23.5 -56.5q0 -32 -23.5 -56t-60.5 -24zM137 301q-19 0 -35 6.5t-27.5 17.5t-18 25.5t-6.5 30.5q0 33 24.5 56.5t62.5 23.5q37 0 60.5 -23.5t23.5 -56.5q0 -32 -23.5 -56
t-60.5 -24z" />
    <glyph glyph-name="semicolon" unicode=";" horiz-adv-x="262" 
d="M57 -87q5 51 7 102.5t2 115.5h144q-8 -60 -22 -115.5t-35 -102.5h-96zM12 -87h46q-3 -10 -3.5 -22.5t-0.5 -29.5zM137 301q-38 0 -61 24t-23 56q0 33 23 56.5t61 23.5t60.5 -23.5t22.5 -56.5q0 -32 -22.5 -56t-60.5 -24z" />
    <glyph glyph-name="less" unicode="&#x3c;" horiz-adv-x="500" 
d="M60 285v94q50 22 101 43.5t99 42.5q48 20 96 41t97 43v-99l-312 -119q16 -6 38 -14.5t46 -17.5t47.5 -18t43.5 -17q36 -14 70.5 -28t66.5 -25v-96z" />
    <glyph glyph-name="equal" unicode="=" horiz-adv-x="538" 
d="M60 239h441v-84h-441v84zM60 457h441v-85h-441v85z" />
    <glyph glyph-name="greater" unicode="&#x3e;" horiz-adv-x="500" 
d="M65 212l315 118q-15 6 -36 14t-44 17t-46 17.5t-42 16.5q-37 14 -75.5 29t-71.5 27v98q52 -23 101 -44.5t97 -42.5l96 -42t100 -43v-93q-55 -24 -109.5 -47t-108.5 -46q-45 -19 -88 -38t-88 -38v97z" />
    <glyph glyph-name="question" unicode="?" horiz-adv-x="447" 
d="M131 234q-7 10 -9 22.5t-2 32.5q0 18 4.5 32t13.5 26t21.5 23.5t27.5 24.5q16 14 29 26.5t22 27t14 32t5 41.5q0 49 -28.5 79t-93.5 30q-32 0 -56 -2t-47 -9v63q29 14 72 24.5t92 10.5q51 0 93.5 -9.5t73 -31t47.5 -56.5t17 -85q0 -32 -8.5 -57.5t-24 -46t-36 -38
t-44.5 -33.5q-9 -7 -12 -9t-5 -3q-6 -5 -12 -7q-19 -13 -34 -23.5t-25.5 -21.5t-16 -23.5t-5.5 -28.5v-11h-73zM112 215l3 19h17q2 -3 3 -6t3 -5l-10 -15zM181 -12q-35 0 -58 21.5t-23 51.5t23 52.5t58 22.5q33 0 54.5 -22.5t21.5 -52.5t-21.5 -51.5t-54.5 -21.5z" />
    <glyph glyph-name="at" unicode="@" horiz-adv-x="894" 
d="M456 -167q-98 0 -175 26.5t-130 75.5t-81.5 119.5t-28.5 159.5q0 98 33.5 185t94.5 152t146.5 103t190.5 38q87 0 157.5 -25.5t121 -72.5t77.5 -114.5t27 -152.5q0 -73 -19 -128t-51 -92t-76 -55.5t-93 -18.5q-54 0 -82.5 20.5t-42.5 53.5h-29q-58 -64 -139 -64
q-49 0 -83.5 39t-34.5 114q0 62 17.5 113t48.5 87t73 56t91 20q45 0 76 -12.5t57 -29.5q6 6 13.5 15t15.5 16h63l-59 -298q-8 -45 4 -63t50 -18q27 0 54 13.5t48.5 42.5t35.5 75.5t14 111.5q0 77 -20.5 138t-62.5 104t-105 65.5t-147 22.5q-96 0 -172.5 -34.5t-129.5 -93.5
t-81.5 -138.5t-28.5 -170.5q0 -168 91.5 -258t276.5 -90q67 0 124 9t98 20v-30q-45 -17 -103.5 -26.5t-124.5 -9.5zM435 111q25 0 44 12t36 29l41 219q-10 20 -26 37t-46 17q-26 0 -47.5 -16.5t-38 -46t-25.5 -70.5t-9 -90q0 -48 19 -69.5t52 -21.5z" />
    <glyph glyph-name="A" unicode="A" horiz-adv-x="733" 
d="M7 97l56 17l210 579h191l205 -579l56 -17v-97h-341v97l67 17l-29 91h-189l-30 -91l68 -17v-97h-264v97zM263 301h129l-61 193h-5z" />
    <glyph glyph-name="B" unicode="B" horiz-adv-x="661" 
d="M17 97l69 17v465l-69 17v97h349q121 0 185 -43t64 -131q0 -63 -27.5 -102t-99.5 -58v-5q85 -11 122.5 -51t37.5 -116q0 -89 -63 -138t-202 -49h-366v97zM344 111q46 0 69 22t23 73q0 52 -23.5 74.5t-69.5 22.5h-58v-192h59zM336 402q38 0 60.5 19.5t22.5 69.5
q0 52 -21.5 71.5t-62.5 19.5h-50v-180h51z" />
    <glyph glyph-name="C" unicode="C" horiz-adv-x="651" 
d="M368 -12q-75 0 -138.5 19.5t-110 62t-72.5 109.5t-26 162q0 102 31 171.5t82.5 112t117 61.5t134.5 19q34 0 66 -2.5t60.5 -6.5t52 -10t39.5 -12l6 -206h-121l-31 95q-15 7 -33 11.5t-44 4.5q-40 0 -67.5 -14.5t-45 -42.5t-25 -68.5t-7.5 -92.5q0 -72 8.5 -119.5
t26.5 -76t46.5 -40t69.5 -11.5q26 0 46 5.5t33 13.5l32 99h120l-9 -205q-38 -17 -97 -28t-144 -11z" />
    <glyph glyph-name="D" unicode="D" horiz-adv-x="721" 
d="M17 97l69 17v465l-68 17v97h337q80 0 144 -18.5t109 -59t69 -104t24 -153.5q0 -93 -25 -161t-70.5 -111.5t-108.5 -64.5t-139 -21h-341v97zM345 117q35 0 62 10t45 35.5t27.5 69.5t9.5 112q0 75 -10 120.5t-29.5 70t-48 33t-65.5 8.5h-47v-459h56z" />
    <glyph glyph-name="E" unicode="E" horiz-adv-x="641" 
d="M17 97l69 17v465l-69 17v97h581l9 -210h-111l-36 99h-175v-176h62l18 65h90v-237h-90l-18 67h-62v-190h178l48 122h113l-10 -233h-597v97z" />
    <glyph glyph-name="F" unicode="F" horiz-adv-x="636" 
d="M17 97l69 17v465l-69 17v97h591l9 -226h-112l-37 109h-179v-181h66l16 66h91v-237h-91l-16 65h-66v-176l77 -16v-97h-349v97z" />
    <glyph glyph-name="G" unicode="G" horiz-adv-x="705" 
d="M392 -12q-86 0 -154.5 19.5t-116.5 62t-74 109.5t-26 162q0 102 31 171.5t83 112t121 61.5t145 19q68 0 126.5 -9t92.5 -23l8 -204h-121l-34 95q-16 7 -35 11t-50 4q-81 0 -117.5 -55.5t-36.5 -162.5q0 -71 8 -119t26.5 -77.5t47.5 -42t71 -12.5q18 0 34.5 3t26.5 7v111
l-62 16v97h306v-97l-54 -16v-205q-40 -14 -105.5 -26t-140.5 -12z" />
    <glyph glyph-name="H" unicode="H" horiz-adv-x="770" 
d="M17 97l69 17v465l-69 17v97h330v-97l-58 -16v-170h194v170l-60 16v97h330v-97l-68 -17v-465l69 -17v-97h-331v97l60 16v187h-194v-187l58 -16v-97h-330v97z" />
    <glyph glyph-name="I" unicode="I" horiz-adv-x="377" 
d="M17 97l70 17v465l-70 17v97h343v-97l-70 -17v-465l70 -17v-97h-343v97z" />
    <glyph glyph-name="J" unicode="J" horiz-adv-x="474" 
d="M165 -8q-62 0 -95.5 10t-56.5 21v118q18 -5 36 -9t50 -4q43 0 68 20t25 73v358l-69 17v97h338v-97l-66 -17v-370q0 -104 -56 -160.5t-174 -56.5z" />
    <glyph glyph-name="K" unicode="K" horiz-adv-x="739" 
d="M17 97l69 17v465l-69 17v97h332v-97l-60 -16v-207l189 208l-53 15v97h283v-97l-59 -19l-174 -175l191 -289l59 -16v-97h-222l-167 267l-47 -43v-111l60 -16v-97h-332v97z" />
    <glyph glyph-name="L" unicode="L" horiz-adv-x="605" 
d="M17 97l69 17v465l-69 17v97h345v-97l-73 -16v-466h147l49 144h112l-13 -258h-567v97z" />
    <glyph glyph-name="M" unicode="M" horiz-adv-x="946" 
d="M17 97l69 17v465l-69 17v97h337l111 -402h4l115 402h345v-97l-71 -17v-465l71 -17v-97h-326v97l58 16v415h-4l-150 -521h-136l-151 516h-4v-410l59 -16v-97h-258v97z" />
    <glyph glyph-name="N" unicode="N" horiz-adv-x="736" 
d="M17 97l69 17v465l-69 17v97h283l225 -393h5v278l-70 18v97h263v-97l-61 -17v-579h-180l-259 462h-5v-349l71 -16v-97h-272v97z" />
    <glyph glyph-name="O" unicode="O" horiz-adv-x="713" 
d="M356 111q60 0 92.5 52.5t32.5 175.5q0 70 -7.5 117t-23 75t-39 40t-54.5 12q-59 0 -92 -53.5t-33 -174.5q0 -69 7 -115.5t22 -75t38.5 -41t56.5 -12.5zM354 -12q-72 0 -133 21.5t-105.5 65.5t-69.5 110.5t-25 156.5q0 95 28.5 163.5t75.5 113t108 65.5t127 21
q72 0 132.5 -21.5t105 -65.5t69.5 -110.5t25 -156.5q0 -95 -28 -163.5t-75 -112.5t-108 -65.5t-127 -21.5z" />
    <glyph glyph-name="P" unicode="P" horiz-adv-x="643" 
d="M17 97l69 17v465l-69 17v97h337q73 0 125 -14.5t85 -42t48 -67t15 -88.5q0 -112 -62.5 -164.5t-176.5 -52.5q-53 0 -99 8v-159l80 -16v-97h-352v97zM289 371q22 -3 54 -3q46 0 64.5 26.5t18.5 79.5q0 101 -83 101h-54v-204z" />
    <glyph glyph-name="Q" unicode="Q" horiz-adv-x="713" 
d="M273 -12q-45 14 -90 37.5t-81 64t-58.5 101.5t-22.5 151q0 95 28.5 163.5t75.5 113t108 65.5t127 21q72 0 132.5 -21.5t105 -65.5t69.5 -110.5t25 -156.5q0 -68 -15.5 -118.5t-43 -86t-64 -57.5t-78.5 -34v-4l208 -32l-41 -151zM360 111q64 0 92.5 52.5t28.5 175.5
q0 70 -8 117t-23.5 75t-38.5 40t-54 12q-60 0 -92.5 -53t-32.5 -175q0 -69 7.5 -115.5t23 -75t39.5 -41t58 -12.5z" />
    <glyph glyph-name="R" unicode="R" horiz-adv-x="707" 
d="M17 97l70 17v464l-69 18v97h356q71 0 122 -14t83.5 -40.5t48 -64.5t15.5 -86q0 -35 -9 -61t-25 -45.5t-37.5 -33t-46.5 -23.5v-4l123 -210l51 -14v-97h-210l-151 276h-48v-164l58 -15v-97h-331v97zM353 381q48 0 67.5 28t19.5 77q0 48 -22.5 69.5t-71.5 21.5h-56v-196h63
z" />
    <glyph glyph-name="S" unicode="S" horiz-adv-x="566" 
d="M262 -12q-31 0 -63 2.5t-62 7t-56.5 10.5t-46.5 14l-10 188h124l25 -86q17 -8 36 -12t47 -4q47 0 70 19.5t23 51.5q0 34 -29.5 53t-80.5 37l-40 15q-41 14 -72.5 30.5t-53 40t-33 56t-11.5 78.5q0 48 15 87.5t48 68.5t85 45t125 16q75 0 122.5 -9t76.5 -19l10 -171h-122
l-19 66q-14 7 -31.5 11.5t-42.5 4.5q-38 0 -61 -15.5t-23 -45.5t24.5 -46.5t72.5 -33.5l41 -15q47 -16 83 -33t61 -40.5t37.5 -57t12.5 -83.5q0 -108 -71.5 -169.5t-210.5 -61.5z" />
    <glyph glyph-name="T" unicode="T" horiz-adv-x="666" 
d="M157 97l75 17v465h-73l-30 -121h-118l9 235h626l8 -235h-117l-30 121h-73v-465l74 -17v-97h-351v97z" />
    <glyph glyph-name="U" unicode="U" horiz-adv-x="718" 
d="M372 -12q-77 0 -133 16.5t-92 46.5t-53.5 73t-17.5 97v358l-65 17v97h331v-97l-63 -16v-345q0 -70 32 -98t88 -28q57 0 86.5 28t29.5 98v345l-63 16v97h255v-97l-61 -17v-345q0 -54 -15 -99t-47.5 -77.5t-84.5 -51t-127 -18.5z" />
    <glyph glyph-name="V" unicode="V" horiz-adv-x="722" 
d="M65 579l-53 17v97h333v-97l-67 -17l116 -377h5l117 377l-67 17v97h261v-97l-53 -17l-200 -579h-192z" />
    <glyph glyph-name="W" unicode="W" horiz-adv-x="1010" 
d="M62 579l-50 17v97h317v-97l-59 -17l76 -348h5l116 462h144l116 -448h5l73 334l-64 17v97h257v-97l-52 -17l-142 -579h-195l-100 412h-4l-103 -412h-195z" />
    <glyph glyph-name="X" unicode="X" horiz-adv-x="720" 
d="M17 97l52 14l164 243l-154 225l-58 17v97h344v-97l-47 -14l88 -142l82 142l-50 14v97h258v-97l-52 -17l-156 -234l158 -231l57 -17v-97h-341v97l51 13l-96 156l-92 -156l50 -13v-97h-258v97z" />
    <glyph glyph-name="Y" unicode="Y" horiz-adv-x="675" 
d="M170 97l73 17v164l-180 301l-53 17v97h318v-97l-53 -15l101 -187h4l97 187l-53 15v97h241v-97l-54 -17l-166 -296v-169l72 -17v-97h-347v97z" />
    <glyph glyph-name="Z" unicode="Z" horiz-adv-x="600" 
d="M18 119l332 455v4h-160l-42 -111h-118l12 226h538v-119l-332 -455v-4h175l46 130h115l-11 -245h-555v119z" />
    <glyph glyph-name="bracketleft" unicode="[" horiz-adv-x="352" 
d="M67 749h258v-64l-113 -19v-713q20 -2 49 -7t52 -9q2 -1 5 -1t7 -1v-65h-258v879z" />
    <glyph glyph-name="backslash" unicode="\" horiz-adv-x="384" 
d="M29 741h111q62 -218 122 -433t122 -433h-112z" />
    <glyph glyph-name="bracketright" unicode="]" horiz-adv-x="352" 
d="M40 -65l114 18v713q-14 2 -34.5 5t-37.5 6q-11 2 -21.5 4t-20.5 4v64h259v-879h-259v65z" />
    <glyph glyph-name="asciicircum" unicode="^" horiz-adv-x="434" 
d="M164 693h106l144 -254h-102l-95 113l-95 -113h-102z" />
    <glyph glyph-name="underscore" unicode="_" horiz-adv-x="344" 
d="M-5 -47h354v-108h-354v108z" />
    <glyph glyph-name="grave" unicode="`" 
d="M109 645l59 127l212 -120l-33 -76z" />
    <glyph glyph-name="a" unicode="a" horiz-adv-x="546" 
d="M170 -13q-36 0 -65 10.5t-50 30t-32 46.5t-11 59q0 39 13.5 66t38.5 45.5t61.5 30t81.5 19.5l93 18v26q0 40 -20 57t-80 17q-35 0 -72.5 -2.5t-64.5 -7.5v106q38 14 96.5 25.5t127.5 11.5q102 0 149 -42.5t47 -132.5v-238q0 -19 10.5 -25.5t25.5 -6.5h16v-87
q-14 -9 -44 -17t-63 -8q-44 0 -70.5 14.5t-37.5 47.5h-5q-20 -26 -57 -44.5t-88 -18.5zM248 93q17 0 30.5 6t21.5 14v115l-47 -2q-59 -4 -59 -67q0 -34 12.5 -50t41.5 -16z" />
    <glyph glyph-name="b" unicode="b" horiz-adv-x="600" 
d="M289 -13q-78 0 -140 14t-98 34v579l-57 16v97l223 23l17 -8v-251h6q23 20 58 37.5t89 17.5q36 0 70.5 -12t62 -42t44 -79.5t16.5 -124.5q0 -82 -21.5 -139.5t-59.5 -93.5t-92 -52t-118 -16zM294 96q22 0 39.5 7t29.5 26t18 52t6 84q0 85 -21 117.5t-64 32.5
q-23 0 -39.5 -4.5t-28.5 -10.5v-286q10 -7 22.5 -12.5t37.5 -5.5z" />
    <glyph glyph-name="c" unicode="c" horiz-adv-x="507" 
d="M296 -13q-71 0 -123.5 19t-87.5 55t-52 87t-17 115q0 73 21.5 126.5t60.5 88t93.5 51t121.5 16.5q50 0 94.5 -6.5t69.5 -14.5v-168h-117l-14 73q-7 2 -15 4.5t-26 2.5q-45 0 -70 -35t-25 -123q0 -47 10 -79t28.5 -51t45.5 -27t61 -8q38 0 71.5 7t53.5 15v-99
q-24 -17 -69.5 -33t-114.5 -16z" />
    <glyph glyph-name="d" unicode="d" horiz-adv-x="620" 
d="M229 -12q-38 0 -75 13t-67 43.5t-48.5 81.5t-18.5 128q0 80 20 135.5t55.5 90t82.5 50t101 15.5q32 0 51 -4t36 -11v87l-62 16v93l229 24l17 -9v-620l57 -16v-91l-206 -24l-16 7v52h-6q-21 -28 -60 -44.5t-90 -16.5zM300 116q21 0 37.5 5t28.5 12v282q-11 8 -23.5 13.5
t-36.5 5.5q-21 0 -38 -7t-29.5 -25t-19 -49t-6.5 -80q0 -44 5.5 -74t17 -48.5t27.5 -26.5t37 -8z" />
    <glyph glyph-name="e" unicode="e" horiz-adv-x="548" 
d="M301 -13q-141 0 -213 72.5t-72 208.5q0 66 19.5 117.5t55 87t85 54t110.5 18.5q62 0 107.5 -16.5t75.5 -52.5t45 -94.5t15 -142.5h-323q8 -71 44.5 -99t100.5 -28q53 0 88.5 8t64.5 17v-97q-29 -20 -77.5 -36.5t-125.5 -16.5zM351 330q0 62 -19 85t-48 23
q-15 0 -28.5 -5.5t-23.5 -18.5t-16.5 -35t-9.5 -55z" />
    <glyph glyph-name="f" unicode="f" horiz-adv-x="365" 
d="M15 91l57 14v320h-59v83l59 23v47q0 48 16.5 81t44 53t63 28.5t73.5 8.5q42 0 71 -6.5t45 -12.5v-109q-14 3 -27.5 4.5t-31.5 1.5q-35 0 -52.5 -13t-17.5 -54v-26h97v-109h-97v-320l68 -14v-91h-309v91z" />
    <glyph glyph-name="g" unicode="g" horiz-adv-x="568" 
d="M253 -204q-128 0 -190.5 34t-62.5 88q0 22 9 39.5t24.5 30.5t35.5 22.5t43 15.5v5q-70 21 -70 86q0 32 22.5 62t54.5 51q-37 20 -59.5 54t-22.5 81q0 43 17 77t48 56.5t74.5 34.5t95.5 12q65 0 113 -17l171 24v-108l-72 3q11 -16 17 -33t6 -38q0 -44 -17 -77.5t-47.5 -56
t-74 -34.5t-96.5 -12q-42 0 -74 7q-12 -14 -12 -30q0 -10 8 -18.5t29 -8.5h173q34 0 64.5 -8t52.5 -25.5t35 -45t13 -67.5q0 -42 -17.5 -79t-55 -64.5t-95.5 -44t-140 -16.5zM267 -102q70 0 98 18t28 43q0 22 -14 30t-49 8h-126q-16 -7 -25.5 -18.5t-9.5 -30.5q0 -22 22 -36
t76 -14zM272 285q27 0 45.5 18t18.5 66q0 26 -5 43t-13.5 26.5t-20.5 13t-25 3.5q-27 0 -44.5 -17.5t-17.5 -65.5q0 -50 18 -68.5t44 -18.5z" />
    <glyph glyph-name="h" unicode="h" horiz-adv-x="632" 
d="M14 91l57 14v513l-60 16v92l227 24l17 -9v-259h5q36 28 74.5 45.5t94.5 17.5q31 0 56.5 -7.5t44 -23t28.5 -40.5t10 -61v-308l53 -14v-91h-279v91l42 11v247q0 32 -15 45t-47 13q-20 0 -35.5 -4.5t-31.5 -9.5v-291l42 -11v-91h-283v91z" />
    <glyph glyph-name="i" unicode="i" horiz-adv-x="322" 
d="M14 91l57 14v307l-62 16v93l229 23l17 -7v-432l54 -14v-91h-295v91zM158 577q-42 0 -71.5 24t-29.5 66t29.5 65.5t71.5 23.5t71.5 -23.5t29.5 -65.5t-29.5 -66t-71.5 -24z" />
    <glyph glyph-name="j" unicode="j" horiz-adv-x="306" 
d="M52 -198q-32 0 -55 5t-40 12v106q20 -4 45 -4q35 0 53 15t18 55v421l-63 16v93l229 23l17 -7v-543q0 -94 -47 -143t-157 -49zM159 577q-42 0 -71.5 24t-29.5 66t29.5 65.5t71.5 23.5t71.5 -23.5t29.5 -65.5t-29.5 -66t-71.5 -24z" />
    <glyph glyph-name="k" unicode="k" horiz-adv-x="607" 
d="M14 91l57 14v513l-60 16v92l227 24l17 -8v-440l19 13l111 115l-51 13v91h245v-91l-52 -15l-111 -118l142 -209l39 -10v-91h-182l-132 206l-28 -5v-99l46 -11v-91h-287v91z" />
    <glyph glyph-name="l" unicode="l" horiz-adv-x="326" 
d="M14 91l59 14v512l-64 17v92l231 23l16 -8v-636l57 -14v-91h-299v91z" />
    <glyph glyph-name="m" unicode="m" horiz-adv-x="930" 
d="M14 91l57 14v307l-60 16v93l220 23l16 -7v-55h6q35 28 74 45.5t96 17.5q42 0 74 -16.5t48 -51.5h5q33 29 77 48.5t100 19.5q29 0 54.5 -7.5t44 -24t29 -42t10.5 -60.5v-306l53 -14v-91h-276v91l40 11v244q0 35 -14.5 48t-46.5 13q-17 0 -32 -4t-31 -10q2 -8 2 -24v-267
l41 -11v-91h-265v91l41 11v244q0 35 -14 48t-44 13q-21 0 -34.5 -4t-29.5 -10v-291l41 -11v-91h-282v91z" />
    <glyph glyph-name="n" unicode="n" horiz-adv-x="633" 
d="M14 91l57 14v307l-60 16v93l220 23l16 -7v-57h6q38 29 79 47t97 18q31 0 56.5 -7.5t44 -23t28.5 -40.5t10 -61v-308l53 -14v-91h-279v91l42 11v247q0 32 -15 44.5t-47 12.5q-20 0 -35.5 -4t-31.5 -9v-291l42 -11v-91h-283v91z" />
    <glyph glyph-name="o" unicode="o" horiz-adv-x="585" 
d="M294 97q18 0 33 7.5t25.5 26.5t16.5 51t6 81q0 52 -6 85.5t-17 53t-26.5 27t-34.5 7.5q-18 0 -33.5 -7t-26 -25.5t-16.5 -50.5t-6 -83q0 -52 6 -85.5t17.5 -53t27 -27t34.5 -7.5zM293 -13q-67 0 -118.5 19.5t-87 55.5t-53.5 87t-18 114q0 69 21.5 121.5t59 88.5t87.5 54
t108 18q134 0 205.5 -71.5t71.5 -203.5q0 -69 -21.5 -121.5t-59 -88.5t-88 -54.5t-107.5 -18.5z" />
    <glyph glyph-name="p" unicode="p" horiz-adv-x="619" 
d="M13 -111l57 13v510l-60 16v93l220 23l15 -7v-52h6q23 21 62 41t93 20q36 0 70.5 -12t62 -42t44 -79.5t16.5 -124.5q0 -82 -21 -139.5t-57.5 -93.5t-86 -52t-107.5 -16q-29 0 -44.5 1.5t-29.5 4.5v-92l66 -12v-89h-306v89zM313 96q22 0 39.5 7t29.5 26t18.5 52t6.5 84
q0 85 -21.5 117.5t-64.5 32.5q-23 0 -39.5 -4.5t-28.5 -10.5v-286q10 -7 23 -12.5t37 -5.5z" />
    <glyph glyph-name="q" unicode="q" horiz-adv-x="606" 
d="M299 -106l67 15v129h-6q-25 -25 -52.5 -37.5t-72.5 -12.5q-39 0 -77.5 12.5t-69 43t-49.5 81t-19 127.5q0 80 22 136t61 91t93 50.5t119 15.5q40 0 73 -2t60.5 -6.5t52.5 -11.5t49 -17v-601l54 -13v-94h-305v94zM300 116q21 0 37.5 5t28.5 12v282q-11 8 -23.5 13.5
t-38.5 5.5q-20 0 -36.5 -7t-28.5 -25t-19 -49t-7 -80q0 -44 5.5 -74t17 -48.5t27.5 -26.5t37 -8z" />
    <glyph glyph-name="r" unicode="r" horiz-adv-x="425" 
d="M14 91l57 14v307l-60 16v93l220 23l16 -7v-80h6q21 36 55 61t80 25q16 0 27 -3v-162q-20 5 -47 5q-37 0 -63.5 -4.5t-49.5 -15.5v-258l74 -14v-91h-315v91z" />
    <glyph glyph-name="s" unicode="s" horiz-adv-x="485" 
d="M215 -13q-45 0 -95.5 8t-91.5 25l-9 146h113l20 -59q10 -5 28 -10.5t42 -5.5q32 0 51 12t19 35t-14.5 33t-49.5 19l-58 14q-75 17 -113.5 54t-38.5 109q0 39 14 72t43 56.5t74 37t107 13.5q50 0 97.5 -7.5t79.5 -21.5v-139h-110l-13 53q-9 5 -23.5 9t-36.5 4
q-29 0 -49 -9.5t-20 -32.5q0 -21 15.5 -32t56.5 -20l65 -15q81 -18 115 -58t34 -101q0 -42 -14.5 -77t-45 -60t-78 -38.5t-114.5 -13.5z" />
    <glyph glyph-name="t" unicode="t" horiz-adv-x="387" 
d="M236 -11q-41 0 -72 7t-52.5 24.5t-32.5 46t-11 70.5v288h-57v83l73 27l23 124h144v-125h108v-109h-108v-258q0 -35 16 -48t49 -13q13 0 25.5 2t23.5 5v-95q-18 -11 -51.5 -20t-77.5 -9z" />
    <glyph glyph-name="u" unicode="u" horiz-adv-x="633" 
d="M217 -12q-83 0 -118.5 39t-35.5 109v278l-56 17v92l223 21l16 -8v-347q0 -33 12.5 -48t47.5 -15q25 0 41 5t30 10v273l-53 17v92l219 21l17 -8v-415l57 -16v-91l-217 -24l-16 7v58h-6q-27 -27 -66 -47t-95 -20z" />
    <glyph glyph-name="v" unicode="v" horiz-adv-x="599" 
d="M48 429l-43 14v91h282v-91l-46 -11l83 -252h4l85 252l-48 11v91h225v-91l-43 -14l-163 -429h-173z" />
    <glyph glyph-name="w" unicode="w" horiz-adv-x="848" 
d="M46 429l-41 14v91h268v-91l-44 -12l56 -216h4l94 319h128l94 -319h4l55 216l-43 12v91h219v-91l-41 -14l-128 -429h-158l-87 300h-3l-90 -300h-159z" />
    <glyph glyph-name="x" unicode="x" horiz-adv-x="608" 
d="M15 91l48 13l128 167l-119 157l-48 15v91h305v-91l-42 -11l64 -100h4l64 100l-42 11v91h214v-91l-38 -13l-121 -170l117 -156l47 -13v-91h-301v91l42 10l-67 98h-3l-67 -98l43 -10v-91h-228v91z" />
    <glyph glyph-name="y" unicode="y" horiz-adv-x="604" 
d="M173 -203q-26 0 -55 4.5t-45 11.5v115q31 -7 54 -7q32 0 54 10t33 38l15 39l-178 421l-46 14v91h287v-91l-49 -12l89 -240h4l78 240l-49 12v91h230v-91l-43 -14l-185 -485q-14 -37 -31 -64.5t-40 -46t-53 -27.5t-70 -9z" />
    <glyph glyph-name="z" unicode="z" horiz-adv-x="507" 
d="M18 97l254 331v4h-126l-27 -82h-92l10 184h443v-100l-245 -325v-4h126l33 93h95l-14 -198h-457v97z" />
    <glyph glyph-name="braceleft" unicode="{" horiz-adv-x="398" 
d="M373 -124q-73 3 -123 14t-81 29.5t-44.5 44.5t-13.5 59q0 18 7 41t14 45h-1q7 20 11.5 36.5t4.5 27.5q0 17 -4.5 30.5t-16 24t-32.5 18t-54 12.5v100q63 11 85 31.5t22 53.5q0 11 -4.5 27.5t-11.5 36.5h1q-7 22 -14 45t-7 41q0 34 13.5 60t44.5 44.5t81 29.5t123 14v-81
q-56 -10 -75 -29t-19 -50q0 -14 2 -33t5 -40t5.5 -41t2.5 -34q0 -44 -30 -70t-102 -44v-22q72 -18 102 -44t30 -70q0 -14 -2.5 -34t-5.5 -41t-5 -40t-2 -33q0 -32 19 -50.5t75 -28.5v-80zM373 -135v11q2 0 4.5 -0.5t5.5 -0.5z" />
    <glyph glyph-name="bar" unicode="|" horiz-adv-x="251" 
d="M66 733h118v-853h-118v853z" />
    <glyph glyph-name="braceright" unicode="}" horiz-adv-x="398" 
d="M32 -44q55 10 74.5 28.5t19.5 50.5q0 15 -2.5 33.5t-4.5 39.5q-3 21 -5 41t-2 34q0 44 29.5 70t101.5 44v22q-72 18 -101.5 44t-29.5 70q0 14 2 34t5 41q2 21 4.5 39.5t2.5 33.5q0 31 -19.5 50t-74.5 29v81q73 -3 123 -14t81 -29.5t44.5 -44.5t13.5 -60q0 -18 -6.5 -41
t-13.5 -45h1q-8 -20 -12 -36.5t-4 -27.5q0 -17 4 -30t15.5 -23.5t32.5 -18.5t55 -13v-100q-33 -6 -54 -13.5t-33 -18t-16 -23.5t-4 -30q0 -11 4 -27.5t12 -36.5h-1q7 -22 13.5 -45t6.5 -41q0 -33 -13.5 -59.5t-44.5 -45t-81 -29.5t-123 -14v81z" />
    <glyph glyph-name="asciitilde" unicode="~" horiz-adv-x="480" 
d="M14 271q26 58 63.5 92.5t88.5 34.5q23 0 43.5 -6.5t38.5 -14.5t34.5 -14.5t30.5 -6.5q21 0 38 12.5t31 34.5l84 -61q-26 -58 -63.5 -92.5t-88.5 -34.5q-23 0 -43.5 6.5t-38.5 14.5t-34.5 14.5t-30.5 6.5q-21 0 -38 -13t-31 -35z" />
    <glyph glyph-name="Zcaron" horiz-adv-x="600" 
d="M475 845l-120 -119h-86l-121 119l34 50l130 -51l130 51zM18 119l332 455v4h-160l-42 -111h-118l12 226h538v-119l-332 -455v-4h175l46 130h115l-11 -245h-555v119z" />
    <glyph glyph-name="Zcaron" unicode="&#x17d;" horiz-adv-x="600" 
d="M475 845l-120 -119h-86l-121 119l34 50l130 -51l130 51zM18 119l332 455v4h-160l-42 -111h-118l12 226h538v-119l-332 -455v-4h175l46 130h115l-11 -245h-555v119z" />
    <glyph glyph-name="zcaron" horiz-adv-x="507" 
d="M96 716l36 50l127 -65l126 65l37 -50l-120 -134h-86zM18 97l254 331v4h-126l-27 -82h-92l10 184h443v-100l-245 -325v-4h126l33 93h95l-14 -198h-457v97z" />
    <glyph glyph-name="zcaron" unicode="&#x17e;" horiz-adv-x="507" 
d="M96 716l36 50l127 -65l126 65l37 -50l-120 -134h-86zM18 97l254 331v4h-126l-27 -82h-92l10 184h443v-100l-245 -325v-4h126l33 93h95l-14 -198h-457v97z" />
    <glyph glyph-name="uni00A0" unicode="&#xa0;" horiz-adv-x="174" 
 />
    <glyph glyph-name="exclamdown" unicode="&#xa1;" horiz-adv-x="275" 
d="M78 356h124l34 -476h-196zM138 408q-21 0 -38 7.5t-29 19.5t-18.5 28t-6.5 34q0 36 25 62t67 26q41 0 67 -26t26 -62q0 -18 -7 -34t-19.5 -28t-29.5 -19.5t-37 -7.5z" />
    <glyph glyph-name="cent" unicode="&#xa2;" horiz-adv-x="530" 
d="M238 -7q-108 17 -163.5 87.5t-55.5 182.5q0 70 20.5 121.5t57.5 86t89 52.5t114 21l7 65h88l-8 -67q35 -3 64.5 -8.5t48.5 -11.5v-166h-95l-14 76q-3 1 -6.5 2t-8.5 2l-37 -333h18q19 0 40.5 3t41.5 7.5t37 9.5t27 9v-96q-23 -17 -69.5 -31.5t-107.5 -16.5l-12 -108h-88z
M199 278q0 -59 12.5 -96t41.5 -56l35 310q-41 -10 -65 -46.5t-24 -111.5z" />
    <glyph glyph-name="sterling" unicode="&#xa3;" horiz-adv-x="554" 
d="M37 388h61v76q0 60 17 105t48.5 75t75.5 45t99 15q65 0 109 -13t74 -36v-115q-24 9 -50.5 14t-58.5 5q-26 0 -47 -5.5t-37 -19t-25.5 -36.5t-12.5 -59l-4 -51h156v-107h-165v-9q-5 -55 -24.5 -84t-53.5 -50v-3h333l-16 -135h-491v103q35 17 54 45.5t19 87.5v45h-61v107z
" />
    <glyph glyph-name="yen" unicode="&#xa5;" horiz-adv-x="654" 
d="M78 388h111l-127 191l-51 17v97h317v-97l-50 -13l90 -161h4l84 161l-50 13v97h236v-97l-51 -17l-120 -191h117v-84h-156v-54h156v-84h-156v-52l73 -17v-97h-344v97l73 17v52h-156v84h156v54h-156v84z" />
    <glyph glyph-name="brokenbar" unicode="&#xa6;" horiz-adv-x="251" 
d="M66 279h118v-399h-118v399zM66 733h118v-362h-118v362z" />
    <glyph glyph-name="section" unicode="&#xa7;" horiz-adv-x="565" 
d="M261 -132q-54 0 -100.5 8.5t-80.5 23.5l-8 143h112l20 -57q11 -5 24 -9t37 -4q33 0 53 11.5t20 34.5t-16.5 36.5t-58.5 26.5l-75 22q-83 25 -124 62.5t-41 103.5q0 51 28 82.5t81 47.5q-32 22 -49.5 53t-17.5 78q0 80 58 127t183 47q53 0 100 -8t79 -22v-139h-110l-14 52
q-10 5 -24 9t-37 4q-71 0 -71 -47q0 -23 15 -35t58 -25l75 -23q79 -23 122 -61.5t43 -103.5q0 -51 -28.5 -82.5t-81.5 -48.5q34 -22 53 -52.5t19 -76.5q0 -80 -58 -129t-185 -49zM240 354q-51 -9 -51 -48q0 -23 16.5 -36.5t53.5 -26.5l66 -22q24 5 37.5 16.5t13.5 32.5
t-13 34t-46 24z" />
    <glyph glyph-name="dieresis" unicode="&#xa8;" 
d="M144 581q-36 0 -62 22t-26 60q0 39 26 60.5t62 21.5q37 0 63.5 -21.5t26.5 -60.5q0 -38 -26.5 -60t-63.5 -22zM353 581q-36 0 -62.5 22t-26.5 60q0 39 26.5 60.5t62.5 21.5q37 0 63 -21.5t26 -60.5q0 -38 -26 -60t-63 -22z" />
    <glyph glyph-name="copyright" unicode="&#xa9;" horiz-adv-x="770" 
d="M391 158q-41 0 -75.5 11t-59.5 33.5t-39.5 58t-14.5 84.5q0 52 16 88t43.5 58.5t63.5 33t76 10.5q36 0 69 -4.5t50 -11.5l4 -115h-76l-17 48q-8 3 -14.5 5t-19.5 2q-38 0 -49.5 -27t-11.5 -77q0 -36 3 -59.5t10.5 -37t20 -18.5t31.5 -5q24 0 35 8l17 50h75l-5 -114
q-20 -8 -53 -14.5t-79 -6.5zM384 55q61 0 112 23t87.5 62t56.5 91.5t20 112.5q0 59 -20 111.5t-56.5 91.5t-87.5 62t-112 23q-62 0 -112.5 -23t-86.5 -62t-56 -91.5t-20 -111.5q0 -60 20 -112.5t56 -91.5t86.5 -62t112.5 -23zM384 -14q-75 0 -140 28t-112.5 77t-74.5 114
t-27 139t27 139t74.5 113t112.5 76t140 28t140 -28t113 -76t75.5 -113t27.5 -139t-27.5 -139t-75.5 -114t-113 -77t-140 -28z" />
    <glyph glyph-name="ordfeminine" unicode="&#xaa;" horiz-adv-x="496" 
d="M157 218q-63 0 -99.5 35.5t-36.5 91.5q0 34 12 58t34.5 40.5t54.5 27t73 18.5l73 13v17q0 31 -18 45.5t-66 14.5q-31 0 -60 -2.5t-53 -6.5v101q35 13 82.5 22.5t110.5 9.5q91 0 133 -38.5t42 -117.5v-192q0 -15 8 -20.5t20 -5.5h12v-86q-12 -9 -36.5 -16.5t-54.5 -7.5
q-40 0 -64.5 12.5t-35.5 42.5h-5q-17 -23 -49.5 -39.5t-76.5 -16.5zM227 317q13 0 24.5 4.5t16.5 9.5v94l-35 -1q-21 -1 -32.5 -13.5t-11.5 -41.5q0 -52 38 -52z" />
    <glyph glyph-name="guillemotleft" unicode="&#xab;" horiz-adv-x="490" 
d="M28 229v47l107 170h118l-77 -193l77 -194h-118zM235 229v47l107 170h117l-77 -193l77 -194h-117z" />
    <glyph glyph-name="registered" unicode="&#xae;" horiz-adv-x="475" 
d="M135 428l17 6v113l-17 5v37h113q42 0 62.5 -17.5t20.5 -43.5q0 -20 -8 -29t-22 -14v-2l32 -51l13 -4v-36h-68l-40 73h-13v-32l12 -5v-36h-102v36zM240 502q21 0 21 21q0 23 -22 23h-14v-44h15zM237 321q37 0 67 13t52 35.5t34 53t12 65.5q0 34 -12 64.5t-34 53t-52 35.5
t-67 13t-67.5 -13t-52 -35.5t-33.5 -53t-12 -64.5q0 -35 12 -65.5t33.5 -53t52 -35.5t67.5 -13zM237 273q-47 0 -86.5 17t-69 46t-46 68t-16.5 84q0 44 16.5 83t46 68t69 45.5t86.5 16.5q46 0 86 -16.5t69.5 -45.5t46.5 -68t17 -83q0 -45 -17 -84t-46.5 -68t-69.5 -46
t-86 -17z" />
    <glyph glyph-name="macron" unicode="&#xaf;" 
d="M104 706h289v-110h-289v110z" />
    <glyph glyph-name="degree" unicode="&#xb0;" horiz-adv-x="375" 
d="M188 462q37 0 56 25.5t19 58.5q0 35 -19 59.5t-56 24.5t-56 -24.5t-19 -59.5q0 -33 19 -58.5t56 -25.5zM188 391q-35 0 -64 12.5t-50.5 33.5t-33.5 49t-12 60t12 60.5t33.5 49.5t50.5 33.5t64 12.5q34 0 63.5 -12.5t51 -33.5t33.5 -49.5t12 -60.5t-12 -60t-33.5 -49
t-51 -33.5t-63.5 -12.5z" />
    <glyph glyph-name="acute" unicode="&#xb4;" 
d="M118 652l212 120l59 -127l-239 -69z" />
    <glyph glyph-name="paragraph" unicode="&#xb6;" horiz-adv-x="613" 
d="M254 318q-3 0 -10 -0.5t-16 -0.5q-41 0 -77.5 11.5t-65 35t-45 59.5t-16.5 86q0 94 58.5 139t170.5 45h349v-97l-66 -17v-699h-106v704h-70v-704h-106v438z" />
    <glyph glyph-name="periodcentered" unicode="&#xb7;" horiz-adv-x="257" 
d="M129 242q-43 0 -70.5 27.5t-27.5 65.5q0 19 7.5 36t20.5 30t31 20.5t39 7.5q22 0 40 -7.5t31 -20.5t20 -30t7 -36q0 -38 -27 -65.5t-71 -27.5z" />
    <glyph glyph-name="cedilla" unicode="&#xb8;" 
d="M189 -165q58 5 79 14.5t21 25.5q0 14 -17 22t-58 10v93h70v-40q68 -4 95.5 -22t27.5 -56q0 -44 -51 -70.5t-167 -32.5v56z" />
    <glyph glyph-name="ordmasculine" unicode="&#xba;" horiz-adv-x="522" 
d="M261 324q14 0 25.5 6t19.5 21t12.5 41t4.5 66q0 43 -4.5 70t-13 42.5t-20 21.5t-25.5 6t-25.5 -5.5t-19.5 -20t-12 -40.5t-4 -68q0 -43 4.5 -70t12.5 -42.5t19.5 -21.5t25.5 -6zM261 218q-116 0 -177.5 64t-61.5 176q0 61 19 107t51 76.5t75.5 46t93.5 15.5
q115 0 177 -62t62 -177q0 -61 -19 -107t-51.5 -77t-76 -46.5t-92.5 -15.5z" />
    <glyph glyph-name="guillemotright" unicode="&#xbb;" horiz-adv-x="490" 
d="M107 252l-77 194h118l107 -170v-47l-107 -170h-118zM314 252l-77 194h118l106 -170v-47l-106 -170h-118z" />
    <glyph glyph-name="onequarter" unicode="&#xbc;" horiz-adv-x="872" 
d="M32 350l60 10v210l-63 -3v67l135 70h75v-344l61 -10v-68h-268v68zM626 713h105l-488 -753h-105zM614 68l43 10v42h-180v66l202 232h115v-226h46v-72h-46v-42l47 -10v-68h-227v68zM657 192v98h-3l-81 -95v-3h84z" />
    <glyph glyph-name="onehalf" unicode="&#xbd;" horiz-adv-x="914" 
d="M629 713h105l-488 -753h-105zM32 350l60 10v210l-63 -3v67l135 70h75v-344l61 -10v-68h-268v68zM559 81l93 85q28 25 48.5 50.5t20.5 51.5q0 27 -17 40.5t-45 13.5q-22 0 -45.5 -3.5t-41.5 -10.5v80q26 15 61 26t86 11q77 0 116.5 -35.5t39.5 -93.5q0 -54 -33 -90.5
t-91 -74.5l-53 -36v-2h92l22 38l71 1l-11 -132h-313v81z" />
    <glyph glyph-name="threequarters" unicode="&#xbe;" horiz-adv-x="890" 
d="M160 276q-51 0 -82.5 8.5t-49.5 17.5v75q17 -5 40.5 -8.5t50.5 -3.5q73 0 73 47q0 26 -16 35.5t-46 9.5h-46v77h39q64 0 64 41q0 43 -62 43q-26 0 -45 -3t-35 -8v75q19 11 54.5 18t77.5 7q72 0 111 -26.5t39 -77.5q0 -41 -24.5 -64t-61.5 -34v-3q43 -6 72 -30.5t29 -71.5
q0 -58 -46.5 -91t-135.5 -33zM639 712h105l-488 -753h-105zM632 67l43 10v42h-180v66l202 232h115v-226h46v-72h-46v-42l47 -10v-68h-227v68zM675 191v98h-3l-81 -95v-3h84z" />
    <glyph glyph-name="questiondown" unicode="&#xbf;" horiz-adv-x="447" 
d="M257 -131q-52 0 -95 10t-73.5 32.5t-47.5 58t-17 87.5q0 33 8.5 59t23.5 46.5t36 38t46 34.5q45 29 68.5 47t23.5 44q0 14 -4 30h104q7 -14 12 -29.5t5 -40.5q0 -38 -18.5 -62.5t-50.5 -51.5q-27 -23 -42 -44t-15 -58t21.5 -59t71.5 -22q35 0 61 4.5t54 12.5v-98
q-29 -17 -74 -28t-98 -11zM273 408q-21 0 -38 7.5t-29 19.5t-18.5 28t-6.5 34q0 36 25 62t67 26q41 0 67 -26t26 -62q0 -18 -7 -34t-19.5 -28t-29.5 -19.5t-37 -7.5z" />
    <glyph glyph-name="Agrave" unicode="&#xc0;" horiz-adv-x="733" 
d="M7 97l56 17l210 579h191l205 -579l56 -17v-97h-341v97l67 17l-29 91h-189l-30 -91l68 -17v-97h-264v97zM263 301h129l-61 193h-5zM226 774l50 130l218 -104l-28 -78z" />
    <glyph glyph-name="Aacute" unicode="&#xc1;" horiz-adv-x="733" 
d="M7 97l56 17l210 579h191l205 -579l56 -17v-97h-341v97l67 17l-29 91h-189l-30 -91l68 -17v-97h-264v97zM263 301h129l-61 193h-5zM264 722l-28 78l218 104l50 -130z" />
    <glyph glyph-name="Acircumflex" unicode="&#xc2;" horiz-adv-x="733" 
d="M7 97l56 17l210 579h191l205 -579l56 -17v-97h-341v97l67 17l-29 91h-189l-30 -91l68 -17v-97h-264v97zM263 301h129l-61 193h-5zM201 773l121 118h86l120 -118l-33 -51l-130 52l-130 -52z" />
    <glyph glyph-name="Atilde" unicode="&#xc3;" horiz-adv-x="733" 
d="M7 97l56 17l210 579h191l205 -579l56 -17v-97h-341v97l67 17l-29 91h-189l-30 -91l68 -17v-97h-264v97zM263 301h129l-61 193h-5zM181 772q21 45 53.5 75t74.5 30q17 0 33 -4t31 -9t28 -9t24 -4q33 0 55 33l68 -46q-20 -45 -53 -75.5t-75 -30.5q-17 0 -33 4t-31 9t-28 9
t-24 4q-33 0 -55 -32z" />
    <glyph glyph-name="Adieresis" unicode="&#xc4;" horiz-adv-x="733" 
d="M7 97l56 17l210 579h191l205 -579l56 -17v-97h-341v97l67 17l-29 91h-189l-30 -91l68 -17v-97h-264v97zM263 301h129l-61 193h-5zM260 727q-36 0 -62 21.5t-26 60.5q0 38 26 60t62 22q37 0 63.5 -22t26.5 -60q0 -39 -26.5 -60.5t-63.5 -21.5zM469 727q-36 0 -62.5 21.5
t-26.5 60.5q0 38 26.5 60t62.5 22q37 0 63 -22t26 -60q0 -39 -26 -60.5t-63 -21.5z" />
    <glyph glyph-name="Aring" unicode="&#xc5;" horiz-adv-x="733" 
d="M7 97l56 17l210 579h191l205 -579l56 -17v-97h-341v97l67 17l-29 91h-189l-30 -91l68 -17v-97h-264v97zM263 301h129l-61 193h-5zM365 775q22 0 34 13t12 36q0 21 -12 35t-34 14t-34.5 -14t-12.5 -35q0 -23 12.5 -36t34.5 -13zM365 713q-26 0 -47 9t-37 24t-24.5 35
t-8.5 43q0 22 8.5 42t24.5 35t37 24t47 9q25 0 46.5 -9t37 -24t24.5 -35t9 -42q0 -23 -9 -43t-24.5 -35t-37 -24t-46.5 -9z" />
    <glyph glyph-name="AE" unicode="&#xc6;" horiz-adv-x="999" 
d="M286 97v-97h-279v97l56 18l299 473l-57 8v97h652l9 -210h-112l-35 99h-172v-176h57l17 65h90v-237h-90l-17 67h-57v-190h175l48 122h113l-10 -233h-594v97l69 17v84h-192l-49 -83zM448 295v225h-3l-132 -225h135z" />
    <glyph glyph-name="Ccedilla" unicode="&#xc7;" horiz-adv-x="651" 
d="M250 -165q58 5 79 14.5t21 25.5q0 14 -17 22t-58 10v90q-57 10 -103.5 35.5t-80 67.5t-52 101.5t-18.5 139.5q0 102 31 171.5t82.5 112t117 61.5t134.5 19q34 0 66 -2.5t60.5 -6.5t52 -10t39.5 -12l6 -206h-121l-31 95q-15 7 -33 11.5t-44 4.5q-40 0 -67.5 -14.5
t-45 -42.5t-25 -68.5t-7.5 -92.5q0 -72 8.5 -119.5t26.5 -76t46.5 -40t69.5 -11.5q26 0 46 5.5t33 13.5l32 99h120l-9 -205q-38 -17 -97 -28t-144 -11h-10.5t-12.5 1v-29q68 -4 95.5 -22t27.5 -56q0 -44 -51 -70.5t-167 -32.5v56z" />
    <glyph glyph-name="Egrave" unicode="&#xc8;" horiz-adv-x="641" 
d="M189 774l50 130l218 -104l-28 -78zM17 97l69 17v465l-69 17v97h581l9 -210h-111l-36 99h-175v-176h62l18 65h90v-237h-90l-18 67h-62v-190h178l48 122h113l-10 -233h-597v97z" />
    <glyph glyph-name="Eacute" unicode="&#xc9;" horiz-adv-x="641" 
d="M227 722l-28 78l218 104l50 -130zM17 97l69 17v465l-69 17v97h581l9 -210h-111l-36 99h-175v-176h62l18 65h90v-237h-90l-18 67h-62v-190h178l48 122h113l-10 -233h-597v97z" />
    <glyph glyph-name="Ecircumflex" unicode="&#xca;" horiz-adv-x="641" 
d="M164 773l121 118h86l120 -118l-33 -51l-130 52l-130 -52zM17 97l69 17v465l-69 17v97h581l9 -210h-111l-36 99h-175v-176h62l18 65h90v-237h-90l-18 67h-62v-190h178l48 122h113l-10 -233h-597v97z" />
    <glyph glyph-name="Edieresis" unicode="&#xcb;" horiz-adv-x="641" 
d="M17 97l69 17v465l-69 17v97h581l9 -210h-111l-36 99h-175v-176h62l18 65h90v-237h-90l-18 67h-62v-190h178l48 122h113l-10 -233h-597v97zM223 727q-36 0 -62 21.5t-26 60.5q0 38 26 60t62 22q37 0 63.5 -22t26.5 -60q0 -39 -26.5 -60.5t-63.5 -21.5zM432 727
q-36 0 -62.5 21.5t-26.5 60.5q0 38 26.5 60t62.5 22q37 0 63 -22t26 -60q0 -39 -26 -60.5t-63 -21.5z" />
    <glyph glyph-name="Igrave" unicode="&#xcc;" horiz-adv-x="377" 
d="M17 97l70 17v465l-70 17v97h343v-97l-70 -17v-465l70 -17v-97h-343v97zM50 774l50 130l218 -104l-28 -78z" />
    <glyph glyph-name="Iacute" unicode="&#xcd;" horiz-adv-x="377" 
d="M17 97l70 17v465l-70 17v97h343v-97l-70 -17v-465l70 -17v-97h-343v97zM86 722l-28 78l218 104l50 -130z" />
    <glyph glyph-name="Icircumflex" unicode="&#xce;" horiz-adv-x="377" 
d="M17 97l70 17v465l-70 17v97h343v-97l-70 -17v-465l70 -17v-97h-343v97zM24 773l121 118h86l120 -118l-33 -51l-130 52l-130 -52z" />
    <glyph glyph-name="Idieresis" unicode="&#xcf;" horiz-adv-x="377" 
d="M17 97l70 17v465l-70 17v97h343v-97l-70 -17v-465l70 -17v-97h-343v97zM83 727q-36 0 -62 21.5t-26 60.5q0 38 26 60t62 22q37 0 63.5 -22t26.5 -60q0 -39 -26.5 -60.5t-63.5 -21.5zM292 727q-36 0 -62.5 21.5t-26.5 60.5q0 38 26.5 60t62.5 22q37 0 63 -22t26 -60
q0 -39 -26 -60.5t-63 -21.5z" />
    <glyph glyph-name="Eth" unicode="&#xd0;" horiz-adv-x="721" 
d="M25 414h61v165l-68 17v97h337q80 0 144 -18.5t109 -59t69 -104t24 -153.5q0 -93 -25 -161t-70.5 -111.5t-108.5 -64.5t-139 -21h-341v97l69 17v181h-61v119zM345 117q35 0 62 10t45 35.5t27.5 69.5t9.5 112q0 75 -10 120.5t-29.5 70t-48 33t-65.5 8.5h-47v-162h116v-119
h-116v-178h56z" />
    <glyph glyph-name="Ntilde" unicode="&#xd1;" horiz-adv-x="736" 
d="M208 772q21 45 53.5 75t74.5 30q17 0 33 -4t31 -9t28 -9t24 -4q33 0 55 33l68 -46q-20 -45 -53 -75.5t-75 -30.5q-17 0 -33 4t-31 9t-28 9t-24 4q-33 0 -55 -32zM17 97l69 17v465l-69 17v97h283l225 -393h5v278l-70 18v97h263v-97l-61 -17v-579h-180l-259 462h-5v-349
l71 -16v-97h-272v97z" />
    <glyph glyph-name="Ograve" unicode="&#xd2;" horiz-adv-x="713" 
d="M218 774l50 130l218 -104l-28 -78zM356 111q60 0 92.5 52.5t32.5 175.5q0 70 -7.5 117t-23 75t-39 40t-54.5 12q-59 0 -92 -53.5t-33 -174.5q0 -69 7 -115.5t22 -75t38.5 -41t56.5 -12.5zM354 -12q-72 0 -133 21.5t-105.5 65.5t-69.5 110.5t-25 156.5q0 95 28.5 163.5
t75.5 113t108 65.5t127 21q72 0 132.5 -21.5t105 -65.5t69.5 -110.5t25 -156.5q0 -95 -28 -163.5t-75 -112.5t-108 -65.5t-127 -21.5z" />
    <glyph glyph-name="Oacute" unicode="&#xd3;" horiz-adv-x="713" 
d="M256 722l-28 78l218 104l50 -130zM356 111q60 0 92.5 52.5t32.5 175.5q0 70 -7.5 117t-23 75t-39 40t-54.5 12q-59 0 -92 -53.5t-33 -174.5q0 -69 7 -115.5t22 -75t38.5 -41t56.5 -12.5zM354 -12q-72 0 -133 21.5t-105.5 65.5t-69.5 110.5t-25 156.5q0 95 28.5 163.5
t75.5 113t108 65.5t127 21q72 0 132.5 -21.5t105 -65.5t69.5 -110.5t25 -156.5q0 -95 -28 -163.5t-75 -112.5t-108 -65.5t-127 -21.5z" />
    <glyph glyph-name="Ocircumflex" unicode="&#xd4;" horiz-adv-x="713" 
d="M192 773l121 118h86l120 -118l-33 -51l-130 52l-130 -52zM356 111q60 0 92.5 52.5t32.5 175.5q0 70 -7.5 117t-23 75t-39 40t-54.5 12q-59 0 -92 -53.5t-33 -174.5q0 -69 7 -115.5t22 -75t38.5 -41t56.5 -12.5zM354 -12q-72 0 -133 21.5t-105.5 65.5t-69.5 110.5
t-25 156.5q0 95 28.5 163.5t75.5 113t108 65.5t127 21q72 0 132.5 -21.5t105 -65.5t69.5 -110.5t25 -156.5q0 -95 -28 -163.5t-75 -112.5t-108 -65.5t-127 -21.5z" />
    <glyph glyph-name="Otilde" unicode="&#xd5;" horiz-adv-x="713" 
d="M173 772q21 45 53.5 75t74.5 30q17 0 33 -4t31 -9t28 -9t24 -4q33 0 55 33l68 -46q-20 -45 -53 -75.5t-75 -30.5q-17 0 -33 4t-31 9t-28 9t-24 4q-33 0 -55 -32zM356 111q60 0 92.5 52.5t32.5 175.5q0 70 -7.5 117t-23 75t-39 40t-54.5 12q-59 0 -92 -53.5t-33 -174.5
q0 -69 7 -115.5t22 -75t38.5 -41t56.5 -12.5zM354 -12q-72 0 -133 21.5t-105.5 65.5t-69.5 110.5t-25 156.5q0 95 28.5 163.5t75.5 113t108 65.5t127 21q72 0 132.5 -21.5t105 -65.5t69.5 -110.5t25 -156.5q0 -95 -28 -163.5t-75 -112.5t-108 -65.5t-127 -21.5z" />
    <glyph glyph-name="Odieresis" unicode="&#xd6;" horiz-adv-x="713" 
d="M251 727q-36 0 -62 21.5t-26 60.5q0 38 26 60t62 22q37 0 63.5 -22t26.5 -60q0 -39 -26.5 -60.5t-63.5 -21.5zM460 727q-36 0 -62.5 21.5t-26.5 60.5q0 38 26.5 60t62.5 22q37 0 63 -22t26 -60q0 -39 -26 -60.5t-63 -21.5zM356 111q60 0 92.5 52.5t32.5 175.5
q0 70 -7.5 117t-23 75t-39 40t-54.5 12q-59 0 -92 -53.5t-33 -174.5q0 -69 7 -115.5t22 -75t38.5 -41t56.5 -12.5zM354 -12q-72 0 -133 21.5t-105.5 65.5t-69.5 110.5t-25 156.5q0 95 28.5 163.5t75.5 113t108 65.5t127 21q72 0 132.5 -21.5t105 -65.5t69.5 -110.5
t25 -156.5q0 -95 -28 -163.5t-75 -112.5t-108 -65.5t-127 -21.5z" />
    <glyph glyph-name="multiply" unicode="&#xd7;" horiz-adv-x="540" 
d="M489 474l-140 -143l141 -143l-80 -79l-140 142l-140 -142l-79 79l141 143l-141 143l79 80l140 -143l140 142z" />
    <glyph glyph-name="Oslash" unicode="&#xd8;" horiz-adv-x="713" 
d="M39 15l60 77q-37 44 -57.5 106t-20.5 144q0 95 28.5 163.5t75.5 113t108 65.5t127 21q105 0 183 -45l47 60l69 -51l-50 -64q39 -44 61 -106.5t22 -147.5q0 -95 -28 -163.5t-75 -112.5t-108 -65.5t-127 -21.5q-54 0 -102 12t-88 37l-56 -72zM356 111q63 0 98 52.5
t35 175.5q0 61 -6 105l-224 -287q16 -25 40 -35.5t57 -10.5zM224 355q0 -29 1 -53t3 -44l222 283q-17 23 -40 32.5t-53 9.5q-63 0 -98 -53t-35 -175z" />
    <glyph glyph-name="Ugrave" unicode="&#xd9;" horiz-adv-x="718" 
d="M246 774l50 130l218 -104l-28 -78zM372 -12q-77 0 -133 16.5t-92 46.5t-53.5 73t-17.5 97v358l-65 17v97h331v-97l-63 -16v-345q0 -70 32 -98t88 -28q57 0 86.5 28t29.5 98v345l-63 16v97h255v-97l-61 -17v-345q0 -54 -15 -99t-47.5 -77.5t-84.5 -51t-127 -18.5z" />
    <glyph glyph-name="Uacute" unicode="&#xda;" horiz-adv-x="718" 
d="M284 722l-28 78l218 104l50 -130zM372 -12q-77 0 -133 16.5t-92 46.5t-53.5 73t-17.5 97v358l-65 17v97h331v-97l-63 -16v-345q0 -70 32 -98t88 -28q57 0 86.5 28t29.5 98v345l-63 16v97h255v-97l-61 -17v-345q0 -54 -15 -99t-47.5 -77.5t-84.5 -51t-127 -18.5z" />
    <glyph glyph-name="Ucircumflex" unicode="&#xdb;" horiz-adv-x="718" 
d="M221 773l121 118h86l120 -118l-33 -51l-130 52l-130 -52zM372 -12q-77 0 -133 16.5t-92 46.5t-53.5 73t-17.5 97v358l-65 17v97h331v-97l-63 -16v-345q0 -70 32 -98t88 -28q57 0 86.5 28t29.5 98v345l-63 16v97h255v-97l-61 -17v-345q0 -54 -15 -99t-47.5 -77.5
t-84.5 -51t-127 -18.5z" />
    <glyph glyph-name="Udieresis" unicode="&#xdc;" horiz-adv-x="718" 
d="M372 -12q-77 0 -133 16.5t-92 46.5t-53.5 73t-17.5 97v358l-65 17v97h331v-97l-63 -16v-345q0 -70 32 -98t88 -28q57 0 86.5 28t29.5 98v345l-63 16v97h255v-97l-61 -17v-345q0 -54 -15 -99t-47.5 -77.5t-84.5 -51t-127 -18.5zM280 727q-36 0 -62 21.5t-26 60.5
q0 38 26 60t62 22q37 0 63.5 -22t26.5 -60q0 -39 -26.5 -60.5t-63.5 -21.5zM489 727q-36 0 -62.5 21.5t-26.5 60.5q0 38 26.5 60t62.5 22q37 0 63 -22t26 -60q0 -39 -26 -60.5t-63 -21.5z" />
    <glyph glyph-name="Yacute" unicode="&#xdd;" horiz-adv-x="675" 
d="M170 97l73 17v164l-180 301l-53 17v97h318v-97l-53 -15l101 -187h4l97 187l-53 15v97h241v-97l-54 -17l-166 -296v-169l72 -17v-97h-347v97zM265 722l-28 78l218 104l50 -130z" />
    <glyph glyph-name="Thorn" unicode="&#xde;" horiz-adv-x="644" 
d="M17 97l69 17v465l-69 17v97h330v-97l-58 -16v-39h66q76 0 128 -14t84 -38.5t46 -59t14 -76.5q0 -91 -60.5 -140t-178.5 -49q-30 0 -54.5 2t-44.5 6v-59l80 -16v-97h-352v97zM289 272q21 -3 54 -3q46 0 64.5 18.5t18.5 64.5t-20 62.5t-63 16.5h-54v-159z" />
    <glyph glyph-name="germandbls" unicode="&#xdf;" horiz-adv-x="671" 
d="M454 -13q-48 0 -86.5 8t-61.5 17l-8 141h104l14 -56q5 -2 12.5 -4t18.5 -2q19 0 32 9t13 28q0 23 -20.5 38.5t-49.5 35.5l-39 26q-33 22 -54.5 50t-21.5 73q0 32 15 61t32.5 55.5t32.5 52.5t15 52q0 28 -14 47.5t-48 19.5q-40 0 -62 -27.5t-22 -88.5v-523h-241v91l57 14
v320h-59v83l59 23v7q0 47 18.5 85.5t54.5 66.5t88 43t118 15q61 0 105.5 -13t73.5 -34.5t42.5 -50.5t13.5 -60q0 -34 -19.5 -60.5t-43 -48t-43 -40t-19.5 -36.5q0 -19 14.5 -31t46.5 -32l39 -26q17 -11 34.5 -25.5t31 -33.5t22 -43.5t8.5 -55.5q0 -77 -48.5 -124t-154.5 -47
z" />
    <glyph glyph-name="agrave" unicode="&#xe0;" horiz-adv-x="546" 
d="M170 -13q-36 0 -65 10.5t-50 30t-32 46.5t-11 59q0 39 13.5 66t38.5 45.5t61.5 30t81.5 19.5l93 18v26q0 40 -20 57t-80 17q-35 0 -72.5 -2.5t-64.5 -7.5v106q38 14 96.5 25.5t127.5 11.5q102 0 149 -42.5t47 -132.5v-238q0 -19 10.5 -25.5t25.5 -6.5h16v-87
q-14 -9 -44 -17t-63 -8q-44 0 -70.5 14.5t-37.5 47.5h-5q-20 -26 -57 -44.5t-88 -18.5zM248 93q17 0 30.5 6t21.5 14v115l-47 -2q-59 -4 -59 -67q0 -34 12.5 -50t41.5 -16zM130 645l59 127l212 -120l-33 -76z" />
    <glyph glyph-name="aacute" unicode="&#xe1;" horiz-adv-x="546" 
d="M170 -13q-36 0 -65 10.5t-50 30t-32 46.5t-11 59q0 39 13.5 66t38.5 45.5t61.5 30t81.5 19.5l93 18v26q0 40 -20 57t-80 17q-35 0 -72.5 -2.5t-64.5 -7.5v106q38 14 96.5 25.5t127.5 11.5q102 0 149 -42.5t47 -132.5v-238q0 -19 10.5 -25.5t25.5 -6.5h16v-87
q-14 -9 -44 -17t-63 -8q-44 0 -70.5 14.5t-37.5 47.5h-5q-20 -26 -57 -44.5t-88 -18.5zM248 93q17 0 30.5 6t21.5 14v115l-47 -2q-59 -4 -59 -67q0 -34 12.5 -50t41.5 -16zM147 652l212 120l59 -127l-239 -69z" />
    <glyph glyph-name="acircumflex" unicode="&#xe2;" horiz-adv-x="546" 
d="M170 -13q-36 0 -65 10.5t-50 30t-32 46.5t-11 59q0 39 13.5 66t38.5 45.5t61.5 30t81.5 19.5l93 18v26q0 40 -20 57t-80 17q-35 0 -72.5 -2.5t-64.5 -7.5v106q38 14 96.5 25.5t127.5 11.5q102 0 149 -42.5t47 -132.5v-238q0 -19 10.5 -25.5t25.5 -6.5h16v-87
q-14 -9 -44 -17t-63 -8q-44 0 -70.5 14.5t-37.5 47.5h-5q-20 -26 -57 -44.5t-88 -18.5zM248 93q17 0 30.5 6t21.5 14v115l-47 -2q-59 -4 -59 -67q0 -34 12.5 -50t41.5 -16zM110 625l120 135h86l120 -135l-37 -50l-126 66l-127 -66z" />
    <glyph glyph-name="atilde" unicode="&#xe3;" horiz-adv-x="546" 
d="M170 -13q-36 0 -65 10.5t-50 30t-32 46.5t-11 59q0 39 13.5 66t38.5 45.5t61.5 30t81.5 19.5l93 18v26q0 40 -20 57t-80 17q-35 0 -72.5 -2.5t-64.5 -7.5v106q38 14 96.5 25.5t127.5 11.5q102 0 149 -42.5t47 -132.5v-238q0 -19 10.5 -25.5t25.5 -6.5h16v-87
q-14 -9 -44 -17t-63 -8q-44 0 -70.5 14.5t-37.5 47.5h-5q-20 -26 -57 -44.5t-88 -18.5zM248 93q17 0 30.5 6t21.5 14v115l-47 -2q-59 -4 -59 -67q0 -34 12.5 -50t41.5 -16zM93 628q21 45 53.5 75.5t74.5 30.5q17 0 32 -4.5t28 -9.5t25 -9.5t23 -4.5q33 0 55 33l68 -46
q-20 -45 -53 -75.5t-75 -30.5q-17 0 -32 4t-28 9.5t-25 9.5t-23 4q-33 0 -55 -32z" />
    <glyph glyph-name="adieresis" unicode="&#xe4;" horiz-adv-x="546" 
d="M170 -13q-36 0 -65 10.5t-50 30t-32 46.5t-11 59q0 39 13.5 66t38.5 45.5t61.5 30t81.5 19.5l93 18v26q0 40 -20 57t-80 17q-35 0 -72.5 -2.5t-64.5 -7.5v106q38 14 96.5 25.5t127.5 11.5q102 0 149 -42.5t47 -132.5v-238q0 -19 10.5 -25.5t25.5 -6.5h16v-87
q-14 -9 -44 -17t-63 -8q-44 0 -70.5 14.5t-37.5 47.5h-5q-20 -26 -57 -44.5t-88 -18.5zM248 93q17 0 30.5 6t21.5 14v115l-47 -2q-59 -4 -59 -67q0 -34 12.5 -50t41.5 -16zM168 581q-36 0 -62 22t-26 60q0 39 26 60.5t62 21.5q37 0 63.5 -21.5t26.5 -60.5q0 -38 -26.5 -60
t-63.5 -22zM377 581q-36 0 -62.5 22t-26.5 60q0 39 26.5 60.5t62.5 21.5q37 0 63 -21.5t26 -60.5q0 -38 -26 -60t-63 -22z" />
    <glyph glyph-name="aring" unicode="&#xe5;" horiz-adv-x="546" 
d="M170 -13q-36 0 -65 10.5t-50 30t-32 46.5t-11 59q0 39 13.5 66t38.5 45.5t61.5 30t81.5 19.5l93 18v26q0 40 -20 57t-80 17q-35 0 -72.5 -2.5t-64.5 -7.5v106q38 14 96.5 25.5t127.5 11.5q102 0 149 -42.5t47 -132.5v-238q0 -19 10.5 -25.5t25.5 -6.5h16v-87
q-14 -9 -44 -17t-63 -8q-44 0 -70.5 14.5t-37.5 47.5h-5q-20 -26 -57 -44.5t-88 -18.5zM248 93q17 0 30.5 6t21.5 14v115l-47 -2q-59 -4 -59 -67q0 -34 12.5 -50t41.5 -16zM273 638q22 0 34 13t12 36q0 21 -12 35t-34 14t-34.5 -14t-12.5 -35q0 -23 12.5 -36t34.5 -13z
M273 576q-26 0 -47 9t-37 24t-24.5 35t-8.5 43q0 22 8.5 42t24.5 35t37 23.5t47 8.5q25 0 46.5 -8.5t37 -23.5t24.5 -35t9 -42q0 -23 -9 -43t-24.5 -35t-37 -24t-46.5 -9z" />
    <glyph glyph-name="ae" unicode="&#xe6;" horiz-adv-x="826" 
d="M181 -13q-81 0 -125 40.5t-44 105.5q0 39 13.5 66.5t38.5 46t61 30t82 19.5l93 18v25q0 40 -20 57t-80 17q-35 0 -72.5 -2.5t-64.5 -7.5v106q38 14 94 25.5t119 11.5q98 0 141 -49q60 49 152 49q60 0 105 -16.5t74.5 -53t44 -95t14.5 -142.5h-321q8 -71 44 -98.5
t100 -27.5q53 0 88 8t64 17v-97q-29 -20 -77 -36.5t-125 -16.5q-154 0 -225 89q-32 -43 -77.5 -66t-96.5 -23zM323 132q-10 21 -15.5 45.5t-7.5 53.5l-47 -4q-59 -3 -59 -68q0 -66 57 -66q17 0 34.5 9t37.5 30zM630 329q0 62 -19 85.5t-48 23.5q-31 0 -51.5 -24t-25.5 -91z
" />
    <glyph glyph-name="ccedilla" unicode="&#xe7;" horiz-adv-x="507" 
d="M174 -165q58 5 79 14.5t21 25.5q0 14 -17 22t-58 10v91q-94 23 -138.5 92t-44.5 173q0 73 21.5 126.5t60.5 88t93.5 51t121.5 16.5q50 0 94.5 -6.5t69.5 -14.5v-168h-117l-14 73q-7 2 -15 4.5t-26 2.5q-45 0 -70 -35t-25 -123q0 -47 10 -79t28.5 -51t45.5 -27t61 -8
q38 0 71.5 7t53.5 15v-99q-24 -17 -69.5 -33t-114.5 -16h-13t-14 1v-28q68 -4 95.5 -22t27.5 -56q0 -44 -51 -70.5t-167 -32.5v56z" />
    <glyph glyph-name="egrave" unicode="&#xe8;" horiz-adv-x="548" 
d="M301 -13q-141 0 -213 72.5t-72 208.5q0 66 19.5 117.5t55 87t85 54t110.5 18.5q62 0 107.5 -16.5t75.5 -52.5t45 -94.5t15 -142.5h-323q8 -71 44.5 -99t100.5 -28q53 0 88.5 8t64.5 17v-97q-29 -20 -77.5 -36.5t-125.5 -16.5zM351 330q0 62 -19 85t-48 23
q-15 0 -28.5 -5.5t-23.5 -18.5t-16.5 -35t-9.5 -55zM141 645l59 127l212 -120l-33 -76z" />
    <glyph glyph-name="eacute" unicode="&#xe9;" horiz-adv-x="548" 
d="M158 652l212 120l59 -127l-239 -69zM301 -13q-141 0 -213 72.5t-72 208.5q0 66 19.5 117.5t55 87t85 54t110.5 18.5q62 0 107.5 -16.5t75.5 -52.5t45 -94.5t15 -142.5h-323q8 -71 44.5 -99t100.5 -28q53 0 88.5 8t64.5 17v-97q-29 -20 -77.5 -36.5t-125.5 -16.5zM351 330
q0 62 -19 85t-48 23q-15 0 -28.5 -5.5t-23.5 -18.5t-16.5 -35t-9.5 -55z" />
    <glyph glyph-name="ecircumflex" unicode="&#xea;" horiz-adv-x="548" 
d="M120 625l120 135h86l120 -135l-37 -50l-126 66l-127 -66zM301 -13q-141 0 -213 72.5t-72 208.5q0 66 19.5 117.5t55 87t85 54t110.5 18.5q62 0 107.5 -16.5t75.5 -52.5t45 -94.5t15 -142.5h-323q8 -71 44.5 -99t100.5 -28q53 0 88.5 8t64.5 17v-97q-29 -20 -77.5 -36.5
t-125.5 -16.5zM351 330q0 62 -19 85t-48 23q-15 0 -28.5 -5.5t-23.5 -18.5t-16.5 -35t-9.5 -55z" />
    <glyph glyph-name="edieresis" unicode="&#xeb;" horiz-adv-x="548" 
d="M178 581q-36 0 -62 22t-26 60q0 39 26 60.5t62 21.5q37 0 63.5 -21.5t26.5 -60.5q0 -38 -26.5 -60t-63.5 -22zM387 581q-36 0 -62.5 22t-26.5 60q0 39 26.5 60.5t62.5 21.5q37 0 63 -21.5t26 -60.5q0 -38 -26 -60t-63 -22zM301 -13q-141 0 -213 72.5t-72 208.5
q0 66 19.5 117.5t55 87t85 54t110.5 18.5q62 0 107.5 -16.5t75.5 -52.5t45 -94.5t15 -142.5h-323q8 -71 44.5 -99t100.5 -28q53 0 88.5 8t64.5 17v-97q-29 -20 -77.5 -36.5t-125.5 -16.5zM351 330q0 62 -19 85t-48 23q-15 0 -28.5 -5.5t-23.5 -18.5t-16.5 -35t-9.5 -55z" />
    <glyph glyph-name="igrave" unicode="&#xec;" horiz-adv-x="322" 
d="M14 91l57 14v307l-62 16v93l229 23l17 -7v-432l54 -14v-91h-295v91zM13 645l59 127l212 -120l-33 -76z" />
    <glyph glyph-name="iacute" unicode="&#xed;" horiz-adv-x="322" 
d="M30 652l212 120l59 -127l-239 -69zM14 91l57 14v307l-62 16v93l229 23l17 -7v-432l54 -14v-91h-295v91z" />
    <glyph glyph-name="icircumflex" unicode="&#xee;" horiz-adv-x="322" 
d="M-8 625l120 135h86l120 -135l-37 -50l-126 66l-127 -66zM14 91l57 14v307l-62 16v93l229 23l17 -7v-432l54 -14v-91h-295v91z" />
    <glyph glyph-name="idieresis" unicode="&#xef;" horiz-adv-x="322" 
d="M50 581q-36 0 -62 22t-26 60q0 39 26 60.5t62 21.5q37 0 63.5 -21.5t26.5 -60.5q0 -38 -26.5 -60t-63.5 -22zM259 581q-36 0 -62.5 22t-26.5 60q0 39 26.5 60.5t62.5 21.5q37 0 63 -21.5t26 -60.5q0 -38 -26 -60t-63 -22zM14 91l57 14v307l-62 16v93l229 23l17 -7v-432
l54 -14v-91h-295v91z" />
    <glyph glyph-name="eth" unicode="&#xf0;" horiz-adv-x="584" 
d="M393 645q80 -60 127 -142.5t47 -195.5q0 -81 -20.5 -141t-57 -99.5t-87 -59.5t-110.5 -20q-67 0 -118.5 19.5t-86.5 55t-53 85t-18 108.5q0 69 20 118t52 80.5t71.5 46t78.5 14.5q29 0 46 -5t29 -11h6q-15 22 -35 41.5t-43 36.5l-122 -56l-28 60l84 38l-74 40l85 94
q38 -14 73.5 -30t68.5 -35l104 48l28 -59zM293 96q19 0 34 6.5t25.5 24t16 49.5t5.5 83q0 55 -6 87t-15 55q-11 7 -25.5 11t-32.5 4q-20 0 -36 -7t-27 -24.5t-17 -47.5t-6 -75q0 -51 6 -83.5t17 -51t26.5 -25t34.5 -6.5z" />
    <glyph glyph-name="ntilde" unicode="&#xf1;" horiz-adv-x="633" 
d="M14 91l57 14v307l-60 16v93l220 23l16 -7v-57h6q38 29 79 47t97 18q31 0 56.5 -7.5t44 -23t28.5 -40.5t10 -61v-308l53 -14v-91h-279v91l42 11v247q0 32 -15 44.5t-47 12.5q-20 0 -35.5 -4t-31.5 -9v-291l42 -11v-91h-283v91zM142 628q21 45 53.5 75.5t74.5 30.5
q17 0 32 -4.5t28 -9.5t25 -9.5t23 -4.5q33 0 55 33l68 -46q-20 -45 -53 -75.5t-75 -30.5q-17 0 -32 4t-28 9.5t-25 9.5t-23 4q-33 0 -55 -32z" />
    <glyph glyph-name="ograve" unicode="&#xf2;" horiz-adv-x="585" 
d="M294 97q18 0 33 7.5t25.5 26.5t16.5 51t6 81q0 52 -6 85.5t-17 53t-26.5 27t-34.5 7.5q-18 0 -33.5 -7t-26 -25.5t-16.5 -50.5t-6 -83q0 -52 6 -85.5t17.5 -53t27 -27t34.5 -7.5zM293 -13q-67 0 -118.5 19.5t-87 55.5t-53.5 87t-18 114q0 69 21.5 121.5t59 88.5t87.5 54
t108 18q134 0 205.5 -71.5t71.5 -203.5q0 -69 -21.5 -121.5t-59 -88.5t-88 -54.5t-107.5 -18.5zM150 645l59 127l212 -120l-33 -76z" />
    <glyph glyph-name="oacute" unicode="&#xf3;" horiz-adv-x="585" 
d="M167 652l212 120l59 -127l-239 -69zM294 97q18 0 33 7.5t25.5 26.5t16.5 51t6 81q0 52 -6 85.5t-17 53t-26.5 27t-34.5 7.5q-18 0 -33.5 -7t-26 -25.5t-16.5 -50.5t-6 -83q0 -52 6 -85.5t17.5 -53t27 -27t34.5 -7.5zM293 -13q-67 0 -118.5 19.5t-87 55.5t-53.5 87
t-18 114q0 69 21.5 121.5t59 88.5t87.5 54t108 18q134 0 205.5 -71.5t71.5 -203.5q0 -69 -21.5 -121.5t-59 -88.5t-88 -54.5t-107.5 -18.5z" />
    <glyph glyph-name="ocircumflex" unicode="&#xf4;" horiz-adv-x="585" 
d="M130 625l120 135h86l120 -135l-37 -50l-126 66l-127 -66zM294 97q18 0 33 7.5t25.5 26.5t16.5 51t6 81q0 52 -6 85.5t-17 53t-26.5 27t-34.5 7.5q-18 0 -33.5 -7t-26 -25.5t-16.5 -50.5t-6 -83q0 -52 6 -85.5t17.5 -53t27 -27t34.5 -7.5zM293 -13q-67 0 -118.5 19.5
t-87 55.5t-53.5 87t-18 114q0 69 21.5 121.5t59 88.5t87.5 54t108 18q134 0 205.5 -71.5t71.5 -203.5q0 -69 -21.5 -121.5t-59 -88.5t-88 -54.5t-107.5 -18.5z" />
    <glyph glyph-name="otilde" unicode="&#xf5;" horiz-adv-x="585" 
d="M294 97q18 0 33 7.5t25.5 26.5t16.5 51t6 81q0 52 -6 85.5t-17 53t-26.5 27t-34.5 7.5q-18 0 -33.5 -7t-26 -25.5t-16.5 -50.5t-6 -83q0 -52 6 -85.5t17.5 -53t27 -27t34.5 -7.5zM293 -13q-67 0 -118.5 19.5t-87 55.5t-53.5 87t-18 114q0 69 21.5 121.5t59 88.5t87.5 54
t108 18q134 0 205.5 -71.5t71.5 -203.5q0 -69 -21.5 -121.5t-59 -88.5t-88 -54.5t-107.5 -18.5zM113 628q21 45 53.5 75.5t74.5 30.5q17 0 32 -4.5t28 -9.5t25 -9.5t23 -4.5q33 0 55 33l68 -46q-20 -45 -53 -75.5t-75 -30.5q-17 0 -32 4t-28 9.5t-25 9.5t-23 4
q-33 0 -55 -32z" />
    <glyph glyph-name="odieresis" unicode="&#xf6;" horiz-adv-x="585" 
d="M188 581q-36 0 -62 22t-26 60q0 39 26 60.5t62 21.5q37 0 63.5 -21.5t26.5 -60.5q0 -38 -26.5 -60t-63.5 -22zM397 581q-36 0 -62.5 22t-26.5 60q0 39 26.5 60.5t62.5 21.5q37 0 63 -21.5t26 -60.5q0 -38 -26 -60t-63 -22zM294 97q18 0 33 7.5t25.5 26.5t16.5 51t6 81
q0 52 -6 85.5t-17 53t-26.5 27t-34.5 7.5q-18 0 -33.5 -7t-26 -25.5t-16.5 -50.5t-6 -83q0 -52 6 -85.5t17.5 -53t27 -27t34.5 -7.5zM293 -13q-67 0 -118.5 19.5t-87 55.5t-53.5 87t-18 114q0 69 21.5 121.5t59 88.5t87.5 54t108 18q134 0 205.5 -71.5t71.5 -203.5
q0 -69 -21.5 -121.5t-59 -88.5t-88 -54.5t-107.5 -18.5z" />
    <glyph glyph-name="divide" unicode="&#xf7;" horiz-adv-x="540" 
d="M270 51q-41 0 -67 26.5t-26 61.5q0 37 26 63t67 26q42 0 67.5 -26t25.5 -63q0 -35 -25.5 -61.5t-67.5 -26.5zM45 399h450v-118h-450v118zM270 452q-20 0 -37 7t-29.5 19t-19.5 28t-7 34q0 36 26 62.5t67 26.5q42 0 67.5 -26.5t25.5 -62.5q0 -35 -26 -61.5t-67 -26.5z" />
    <glyph glyph-name="oslash" unicode="&#xf8;" horiz-adv-x="585" 
d="M25 9l53 63q-62 71 -62 191q0 69 21.5 121.5t59 88.5t87.5 54t108 18q88 0 153 -34l44 53l64 -46l-46 -56q62 -71 62 -192q0 -69 -21.5 -121.5t-59 -88.5t-88 -54.5t-107.5 -18.5q-46 0 -84.5 9t-69.5 26l-50 -59zM294 96q20 0 37 7.5t29 26t19 51t7 82.5q0 14 -0.5 27.5
t-1.5 24.5l-159 -190q11 -17 28 -23t41 -6zM199 271q0 -15 0.5 -28t1.5 -24l159 190q-12 17 -29 23t-40 6q-20 0 -37 -7t-29 -25.5t-19 -51t-7 -83.5z" />
    <glyph glyph-name="ugrave" unicode="&#xf9;" horiz-adv-x="633" 
d="M217 -12q-83 0 -118.5 39t-35.5 109v278l-56 17v92l223 21l16 -8v-347q0 -33 12.5 -48t47.5 -15q25 0 41 5t30 10v273l-53 17v92l219 21l17 -8v-415l57 -16v-91l-217 -24l-16 7v58h-6q-27 -27 -66 -47t-95 -20zM169 645l59 127l212 -120l-33 -76z" />
    <glyph glyph-name="uacute" unicode="&#xfa;" horiz-adv-x="633" 
d="M187 652l212 120l59 -127l-239 -69zM217 -12q-83 0 -118.5 39t-35.5 109v278l-56 17v92l223 21l16 -8v-347q0 -33 12.5 -48t47.5 -15q25 0 41 5t30 10v273l-53 17v92l219 21l17 -8v-415l57 -16v-91l-217 -24l-16 7v58h-6q-27 -27 -66 -47t-95 -20z" />
    <glyph glyph-name="ucircumflex" unicode="&#xfb;" horiz-adv-x="633" 
d="M149 625l120 135h86l120 -135l-37 -50l-126 66l-127 -66zM217 -12q-83 0 -118.5 39t-35.5 109v278l-56 17v92l223 21l16 -8v-347q0 -33 12.5 -48t47.5 -15q25 0 41 5t30 10v273l-53 17v92l219 21l17 -8v-415l57 -16v-91l-217 -24l-16 7v58h-6q-27 -27 -66 -47t-95 -20z
" />
    <glyph glyph-name="udieresis" unicode="&#xfc;" horiz-adv-x="633" 
d="M207 581q-36 0 -62 22t-26 60q0 39 26 60.5t62 21.5q37 0 63.5 -21.5t26.5 -60.5q0 -38 -26.5 -60t-63.5 -22zM416 581q-36 0 -62.5 22t-26.5 60q0 39 26.5 60.5t62.5 21.5q37 0 63 -21.5t26 -60.5q0 -38 -26 -60t-63 -22zM217 -12q-83 0 -118.5 39t-35.5 109v278l-56 17
v92l223 21l16 -8v-347q0 -33 12.5 -48t47.5 -15q25 0 41 5t30 10v273l-53 17v92l219 21l17 -8v-415l57 -16v-91l-217 -24l-16 7v58h-6q-27 -27 -66 -47t-95 -20z" />
    <glyph glyph-name="yacute" unicode="&#xfd;" horiz-adv-x="604" 
d="M173 -203q-26 0 -55 4.5t-45 11.5v115q31 -7 54 -7q32 0 54 10t33 38l15 39l-178 421l-46 14v91h287v-91l-49 -12l89 -240h4l78 240l-49 12v91h230v-91l-43 -14l-185 -485q-14 -37 -31 -64.5t-40 -46t-53 -27.5t-70 -9zM198 652l212 120l59 -127l-239 -69z" />
    <glyph glyph-name="thorn" unicode="&#xfe;" horiz-adv-x="609" 
d="M2 -111l58 13v712l-57 16v97l223 23l17 -8v-251h5q24 20 59 37.5t89 17.5q36 0 70.5 -12t62 -42t44 -79.5t16.5 -124.5q0 -82 -21 -139.5t-57.5 -93.5t-86 -52t-107.5 -16q-29 0 -44.5 1.5t-29.5 4.5v-92l66 -12v-89h-307v89zM303 96q22 0 39.5 7t29.5 26t18 52t6 84
q0 85 -21 117.5t-64 32.5q-23 0 -40 -4.5t-28 -10.5v-286q10 -7 22.5 -12.5t37.5 -5.5z" />
    <glyph glyph-name="ydieresis" unicode="&#xff;" horiz-adv-x="604" 
d="M173 -203q-26 0 -55 4.5t-45 11.5v115q31 -7 54 -7q32 0 54 10t33 38l15 39l-178 421l-46 14v91h287v-91l-49 -12l89 -240h4l78 240l-49 12v91h230v-91l-43 -14l-185 -485q-14 -37 -31 -64.5t-40 -46t-53 -27.5t-70 -9zM218 581q-36 0 -62 22t-26 60q0 39 26 60.5
t62 21.5q37 0 63.5 -21.5t26.5 -60.5q0 -38 -26.5 -60t-63.5 -22zM427 581q-36 0 -62.5 22t-26.5 60q0 39 26.5 60.5t62.5 21.5q37 0 63 -21.5t26 -60.5q0 -38 -26 -60t-63 -22z" />
    <glyph glyph-name="Amacron" unicode="&#x100;" horiz-adv-x="733" 
d="M7 97l56 17l210 579h191l205 -579l56 -17v-97h-341v97l67 17l-29 91h-189l-30 -91l68 -17v-97h-264v97zM263 301h129l-61 193h-5zM220 847h289v-110h-289v110z" />
    <glyph glyph-name="amacron" unicode="&#x101;" horiz-adv-x="546" 
d="M170 -13q-36 0 -65 10.5t-50 30t-32 46.5t-11 59q0 39 13.5 66t38.5 45.5t61.5 30t81.5 19.5l93 18v26q0 40 -20 57t-80 17q-35 0 -72.5 -2.5t-64.5 -7.5v106q38 14 96.5 25.5t127.5 11.5q102 0 149 -42.5t47 -132.5v-238q0 -19 10.5 -25.5t25.5 -6.5h16v-87
q-14 -9 -44 -17t-63 -8q-44 0 -70.5 14.5t-37.5 47.5h-5q-20 -26 -57 -44.5t-88 -18.5zM248 93q17 0 30.5 6t21.5 14v115l-47 -2q-59 -4 -59 -67q0 -34 12.5 -50t41.5 -16zM128 706h289v-110h-289v110z" />
    <glyph glyph-name="Abreve" unicode="&#x102;" horiz-adv-x="733" 
d="M7 97l56 17l210 579h191l205 -579l56 -17v-97h-341v97l67 17l-29 91h-189l-30 -91l68 -17v-97h-264v97zM263 301h129l-61 193h-5zM365 725q-37 0 -65.5 11t-48.5 30t-31.5 44.5t-12.5 55.5h104q3 -15 17.5 -24.5t36.5 -9.5t36 9.5t17 24.5h105q-2 -30 -13 -55.5
t-31 -44.5t-49 -30t-65 -11z" />
    <glyph glyph-name="abreve" unicode="&#x103;" horiz-adv-x="546" 
d="M170 -13q-36 0 -65 10.5t-50 30t-32 46.5t-11 59q0 39 13.5 66t38.5 45.5t61.5 30t81.5 19.5l93 18v26q0 40 -20 57t-80 17q-35 0 -72.5 -2.5t-64.5 -7.5v106q38 14 96.5 25.5t127.5 11.5q102 0 149 -42.5t47 -132.5v-238q0 -19 10.5 -25.5t25.5 -6.5h16v-87
q-14 -9 -44 -17t-63 -8q-44 0 -70.5 14.5t-37.5 47.5h-5q-20 -26 -57 -44.5t-88 -18.5zM248 93q17 0 30.5 6t21.5 14v115l-47 -2q-59 -4 -59 -67q0 -34 12.5 -50t41.5 -16zM271 585q-36 0 -65 11.5t-49.5 32t-32 47.5t-12.5 58h105q3 -18 17.5 -28.5t36.5 -10.5t36.5 10.5
t17.5 28.5h104q-1 -31 -12.5 -58t-31.5 -47.5t-49 -32t-65 -11.5z" />
    <glyph glyph-name="Aogonek" unicode="&#x104;" horiz-adv-x="733" 
d="M605 -197q-66 0 -96 25t-30 61q0 38 22.5 65t62.5 46h-180v97l67 17l-29 91h-189l-30 -91l68 -17v-97h-264v97l56 17l210 579h191l205 -579l56 -17v-97h-55q-24 -26 -36 -43.5t-12 -37.5q0 -17 11.5 -25t29.5 -8q8 0 14 0.5t12 1.5v-71q-14 -6 -34.5 -10t-49.5 -4z
M392 301l-61 193h-5l-63 -193h129z" />
    <glyph glyph-name="aogonek" unicode="&#x105;" horiz-adv-x="546" 
d="M433 -197q-66 0 -96 25t-30 61q0 33 22 59t62 43q-55 11 -71 59h-5q-20 -26 -57 -44.5t-88 -18.5q-36 0 -65 10.5t-50 30t-32 46.5t-11 59q0 39 13.5 66t38.5 45.5t61.5 30t81.5 19.5l93 18v26q0 40 -20 57t-80 17q-35 0 -72.5 -2.5t-64.5 -7.5v106q38 14 96.5 25.5
t127.5 11.5q102 0 149 -42.5t47 -132.5v-238q0 -19 10.5 -25.5t25.5 -6.5h16v-87q-35 -16 -60 -40.5t-25 -53.5q0 -17 11.5 -25t28.5 -8q8 0 14.5 0.5t12.5 1.5v-71q-14 -6 -34.5 -10t-49.5 -4zM248 93q17 0 30.5 6t21.5 14v115l-47 -2q-59 -4 -59 -67q0 -34 12.5 -50
t41.5 -16z" />
    <glyph glyph-name="Cacute" unicode="&#x106;" horiz-adv-x="651" 
d="M368 -12q-75 0 -138.5 19.5t-110 62t-72.5 109.5t-26 162q0 102 31 171.5t82.5 112t117 61.5t134.5 19q34 0 66 -2.5t60.5 -6.5t52 -10t39.5 -12l6 -206h-121l-31 95q-15 7 -33 11.5t-44 4.5q-40 0 -67.5 -14.5t-45 -42.5t-25 -68.5t-7.5 -92.5q0 -72 8.5 -119.5
t26.5 -76t46.5 -40t69.5 -11.5q26 0 46 5.5t33 13.5l32 99h120l-9 -205q-38 -17 -97 -28t-144 -11zM264 722l-28 78l218 104l50 -130z" />
    <glyph glyph-name="cacute" unicode="&#x107;" horiz-adv-x="507" 
d="M166 652l212 120l59 -127l-239 -69zM296 -13q-71 0 -123.5 19t-87.5 55t-52 87t-17 115q0 73 21.5 126.5t60.5 88t93.5 51t121.5 16.5q50 0 94.5 -6.5t69.5 -14.5v-168h-117l-14 73q-7 2 -15 4.5t-26 2.5q-45 0 -70 -35t-25 -123q0 -47 10 -79t28.5 -51t45.5 -27t61 -8
q38 0 71.5 7t53.5 15v-99q-24 -17 -69.5 -33t-114.5 -16z" />
    <glyph glyph-name="Ccircumflex" unicode="&#x108;" horiz-adv-x="651" 
d="M204 773l121 118h86l120 -118l-33 -51l-130 52l-130 -52zM368 -12q-75 0 -138.5 19.5t-110 62t-72.5 109.5t-26 162q0 102 31 171.5t82.5 112t117 61.5t134.5 19q34 0 66 -2.5t60.5 -6.5t52 -10t39.5 -12l6 -206h-121l-31 95q-15 7 -33 11.5t-44 4.5q-40 0 -67.5 -14.5
t-45 -42.5t-25 -68.5t-7.5 -92.5q0 -72 8.5 -119.5t26.5 -76t46.5 -40t69.5 -11.5q26 0 46 5.5t33 13.5l32 99h120l-9 -205q-38 -17 -97 -28t-144 -11z" />
    <glyph glyph-name="ccircumflex" unicode="&#x109;" horiz-adv-x="507" 
d="M128 625l120 135h86l120 -135l-37 -50l-126 66l-127 -66zM296 -13q-71 0 -123.5 19t-87.5 55t-52 87t-17 115q0 73 21.5 126.5t60.5 88t93.5 51t121.5 16.5q50 0 94.5 -6.5t69.5 -14.5v-168h-117l-14 73q-7 2 -15 4.5t-26 2.5q-45 0 -70 -35t-25 -123q0 -47 10 -79
t28.5 -51t45.5 -27t61 -8q38 0 71.5 7t53.5 15v-99q-24 -17 -69.5 -33t-114.5 -16z" />
    <glyph glyph-name="Cdotaccent" unicode="&#x10a;" horiz-adv-x="651" 
d="M368 -12q-75 0 -138.5 19.5t-110 62t-72.5 109.5t-26 162q0 102 31 171.5t82.5 112t117 61.5t134.5 19q34 0 66 -2.5t60.5 -6.5t52 -10t39.5 -12l6 -206h-121l-31 95q-15 7 -33 11.5t-44 4.5q-40 0 -67.5 -14.5t-45 -42.5t-25 -68.5t-7.5 -92.5q0 -72 8.5 -119.5
t26.5 -76t46.5 -40t69.5 -11.5q26 0 46 5.5t33 13.5l32 99h120l-9 -205q-38 -17 -97 -28t-144 -11zM366 725q-40 0 -69 24t-29 66t29 65.5t69 23.5q41 0 69.5 -23.5t28.5 -65.5t-28.5 -66t-69.5 -24z" />
    <glyph glyph-name="cdotaccent" unicode="&#x10b;" horiz-adv-x="507" 
d="M296 -13q-71 0 -123.5 19t-87.5 55t-52 87t-17 115q0 73 21.5 126.5t60.5 88t93.5 51t121.5 16.5q50 0 94.5 -6.5t69.5 -14.5v-168h-117l-14 73q-7 2 -15 4.5t-26 2.5q-45 0 -70 -35t-25 -123q0 -47 10 -79t28.5 -51t45.5 -27t61 -8q38 0 71.5 7t53.5 15v-99
q-24 -17 -69.5 -33t-114.5 -16zM291 577q-40 0 -69 24t-29 66t29 65.5t69 23.5q41 0 69.5 -23.5t28.5 -65.5t-28.5 -66t-69.5 -24z" />
    <glyph glyph-name="Ccaron" unicode="&#x10c;" horiz-adv-x="651" 
d="M530 845l-120 -119h-86l-121 119l34 50l130 -51l130 51zM368 -12q-75 0 -138.5 19.5t-110 62t-72.5 109.5t-26 162q0 102 31 171.5t82.5 112t117 61.5t134.5 19q34 0 66 -2.5t60.5 -6.5t52 -10t39.5 -12l6 -206h-121l-31 95q-15 7 -33 11.5t-44 4.5q-40 0 -67.5 -14.5
t-45 -42.5t-25 -68.5t-7.5 -92.5q0 -72 8.5 -119.5t26.5 -76t46.5 -40t69.5 -11.5q26 0 46 5.5t33 13.5l32 99h120l-9 -205q-38 -17 -97 -28t-144 -11z" />
    <glyph glyph-name="ccaron" unicode="&#x10d;" horiz-adv-x="507" 
d="M129 716l36 50l127 -65l126 65l37 -50l-120 -134h-86zM296 -13q-71 0 -123.5 19t-87.5 55t-52 87t-17 115q0 73 21.5 126.5t60.5 88t93.5 51t121.5 16.5q50 0 94.5 -6.5t69.5 -14.5v-168h-117l-14 73q-7 2 -15 4.5t-26 2.5q-45 0 -70 -35t-25 -123q0 -47 10 -79t28.5 -51
t45.5 -27t61 -8q38 0 71.5 7t53.5 15v-99q-24 -17 -69.5 -33t-114.5 -16z" />
    <glyph glyph-name="Dcaron" unicode="&#x10e;" horiz-adv-x="721" 
d="M504 845l-120 -119h-86l-121 119l34 50l130 -51l130 51zM17 97l69 17v465l-68 17v97h337q80 0 144 -18.5t109 -59t69 -104t24 -153.5q0 -93 -25 -161t-70.5 -111.5t-108.5 -64.5t-139 -21h-341v97zM345 117q35 0 62 10t45 35.5t27.5 69.5t9.5 112q0 75 -10 120.5
t-29.5 70t-48 33t-65.5 8.5h-47v-459h56z" />
    <glyph glyph-name="dcaron" unicode="&#x10f;" horiz-adv-x="620" 
d="M576 572l14 178l140 -18l-63 -173zM229 -12q-38 0 -75 13t-67 43.5t-48.5 81.5t-18.5 128q0 80 20 135.5t55.5 90t82.5 50t101 15.5q32 0 51 -4t36 -11v87l-62 16v93l229 24l17 -9v-620l57 -16v-91l-206 -24l-16 7v52h-6q-21 -28 -60 -44.5t-90 -16.5zM300 116
q21 0 37.5 5t28.5 12v282q-11 8 -23.5 13.5t-36.5 5.5q-21 0 -38 -7t-29.5 -25t-19 -49t-6.5 -80q0 -44 5.5 -74t17 -48.5t27.5 -26.5t37 -8z" />
    <glyph glyph-name="Dcroat" unicode="&#x110;" horiz-adv-x="721" 
d="M25 414h61v165l-68 17v97h337q80 0 144 -18.5t109 -59t69 -104t24 -153.5q0 -93 -25 -161t-70.5 -111.5t-108.5 -64.5t-139 -21h-341v97l69 17v181h-61v119zM345 117q35 0 62 10t45 35.5t27.5 69.5t9.5 112q0 75 -10 120.5t-29.5 70t-48 33t-65.5 8.5h-47v-162h116v-119
h-116v-178h56z" />
    <glyph glyph-name="dcroat" unicode="&#x111;" horiz-adv-x="620" 
d="M234 626h132v18l-62 16v66l229 24l17 -9v-115h58v-52h-58v-453l57 -16v-91l-206 -24l-16 7v52h-6q-21 -28 -60 -44.5t-90 -16.5q-38 0 -75 13t-67 43.5t-48.5 81.5t-18.5 128q0 80 20 135.5t55.5 90t82.5 50t101 15.5q32 0 51 -4t36 -11v44h-132v52zM300 116q21 0 37.5 5
t28.5 12v282q-11 8 -23.5 13.5t-36.5 5.5q-21 0 -38 -7t-29.5 -25t-19 -49t-6.5 -80q0 -44 5.5 -74t17 -48.5t27.5 -26.5t37 -8z" />
    <glyph glyph-name="Emacron" unicode="&#x112;" horiz-adv-x="641" 
d="M17 97l69 17v465l-69 17v97h581l9 -210h-111l-36 99h-175v-176h62l18 65h90v-237h-90l-18 67h-62v-190h178l48 122h113l-10 -233h-597v97zM183 847h289v-110h-289v110z" />
    <glyph glyph-name="emacron" unicode="&#x113;" horiz-adv-x="548" 
d="M301 -13q-141 0 -213 72.5t-72 208.5q0 66 19.5 117.5t55 87t85 54t110.5 18.5q62 0 107.5 -16.5t75.5 -52.5t45 -94.5t15 -142.5h-323q8 -71 44.5 -99t100.5 -28q53 0 88.5 8t64.5 17v-97q-29 -20 -77.5 -36.5t-125.5 -16.5zM351 330q0 62 -19 85t-48 23
q-15 0 -28.5 -5.5t-23.5 -18.5t-16.5 -35t-9.5 -55zM138 706h289v-110h-289v110z" />
    <glyph glyph-name="Ebreve" unicode="&#x114;" horiz-adv-x="641" 
d="M17 97l69 17v465l-69 17v97h581l9 -210h-111l-36 99h-175v-176h62l18 65h90v-237h-90l-18 67h-62v-190h178l48 122h113l-10 -233h-597v97zM328 725q-37 0 -65.5 11t-48.5 30t-31.5 44.5t-12.5 55.5h104q3 -15 17.5 -24.5t36.5 -9.5t36 9.5t17 24.5h105q-2 -30 -13 -55.5
t-31 -44.5t-49 -30t-65 -11z" />
    <glyph glyph-name="ebreve" unicode="&#x115;" horiz-adv-x="548" 
d="M301 -13q-141 0 -213 72.5t-72 208.5q0 66 19.5 117.5t55 87t85 54t110.5 18.5q62 0 107.5 -16.5t75.5 -52.5t45 -94.5t15 -142.5h-323q8 -71 44.5 -99t100.5 -28q53 0 88.5 8t64.5 17v-97q-29 -20 -77.5 -36.5t-125.5 -16.5zM351 330q0 62 -19 85t-48 23
q-15 0 -28.5 -5.5t-23.5 -18.5t-16.5 -35t-9.5 -55zM283 585q-36 0 -65 11.5t-49.5 32t-32 47.5t-12.5 58h105q3 -18 17.5 -28.5t36.5 -10.5t36.5 10.5t17.5 28.5h104q-1 -31 -12.5 -58t-31.5 -47.5t-49 -32t-65 -11.5z" />
    <glyph glyph-name="Edotaccent" unicode="&#x116;" horiz-adv-x="641" 
d="M327 725q-40 0 -69 24t-29 66t29 65.5t69 23.5q41 0 69.5 -23.5t28.5 -65.5t-28.5 -66t-69.5 -24zM17 97l69 17v465l-69 17v97h581l9 -210h-111l-36 99h-175v-176h62l18 65h90v-237h-90l-18 67h-62v-190h178l48 122h113l-10 -233h-597v97z" />
    <glyph glyph-name="edotaccent" unicode="&#x117;" horiz-adv-x="548" 
d="M301 -13q-141 0 -213 72.5t-72 208.5q0 66 19.5 117.5t55 87t85 54t110.5 18.5q62 0 107.5 -16.5t75.5 -52.5t45 -94.5t15 -142.5h-323q8 -71 44.5 -99t100.5 -28q53 0 88.5 8t64.5 17v-97q-29 -20 -77.5 -36.5t-125.5 -16.5zM351 330q0 62 -19 85t-48 23
q-15 0 -28.5 -5.5t-23.5 -18.5t-16.5 -35t-9.5 -55zM283 577q-40 0 -69 24t-29 66t29 65.5t69 23.5q41 0 69.5 -23.5t28.5 -65.5t-28.5 -66t-69.5 -24z" />
    <glyph glyph-name="Eogonek" unicode="&#x118;" horiz-adv-x="641" 
d="M17 97l69 17v465l-69 17v97h581l9 -210h-111l-36 99h-175v-176h62l18 65h90v-237h-90l-18 67h-62v-190h178l48 122h113l-10 -233h-66q-25 -26 -36.5 -43.5t-11.5 -37.5q0 -17 11 -25t29 -8q8 0 14.5 0.5t12.5 1.5v-71q-14 -6 -35 -10t-49 -4q-67 0 -97 25t-30 61t24.5 65
t68.5 46h-432v97z" />
    <glyph glyph-name="eogonek" unicode="&#x119;" horiz-adv-x="548" 
d="M451 -183q-14 -6 -35 -10t-49 -4q-67 0 -97 25t-30 61q0 32 22 57t58 42q-2 -1 -9.5 -1h-9.5q-141 0 -213 72.5t-72 208.5q0 66 19.5 117.5t55 87t85 54t110.5 18.5q62 0 107.5 -16.5t75.5 -52.5t45 -94.5t15 -142.5h-323q8 -71 44.5 -99t100.5 -28q53 0 88.5 8t64.5 17
v-97q-23 -12 -45 -26t-38.5 -30t-26.5 -32.5t-10 -32.5q0 -17 11 -25t29 -8q8 0 14.5 0.5t12.5 1.5v-71zM284 438q-15 0 -28.5 -5.5t-23.5 -18.5t-16.5 -35t-9.5 -55l145 6q0 62 -19 85t-48 23z" />
    <glyph glyph-name="Ecaron" unicode="&#x11a;" horiz-adv-x="641" 
d="M491 845l-120 -119h-86l-121 119l34 50l130 -51l130 51zM17 97l69 17v465l-69 17v97h581l9 -210h-111l-36 99h-175v-176h62l18 65h90v-237h-90l-18 67h-62v-190h178l48 122h113l-10 -233h-597v97z" />
    <glyph glyph-name="ecaron" unicode="&#x11b;" horiz-adv-x="548" 
d="M120 716l36 50l127 -65l126 65l37 -50l-120 -134h-86zM301 -13q-141 0 -213 72.5t-72 208.5q0 66 19.5 117.5t55 87t85 54t110.5 18.5q62 0 107.5 -16.5t75.5 -52.5t45 -94.5t15 -142.5h-323q8 -71 44.5 -99t100.5 -28q53 0 88.5 8t64.5 17v-97q-29 -20 -77.5 -36.5
t-125.5 -16.5zM351 330q0 62 -19 85t-48 23q-15 0 -28.5 -5.5t-23.5 -18.5t-16.5 -35t-9.5 -55z" />
    <glyph glyph-name="Gcircumflex" unicode="&#x11c;" horiz-adv-x="705" 
d="M212 773l121 118h86l120 -118l-33 -51l-130 52l-130 -52zM392 -12q-86 0 -154.5 19.5t-116.5 62t-74 109.5t-26 162q0 102 31 171.5t83 112t121 61.5t145 19q68 0 126.5 -9t92.5 -23l8 -204h-121l-34 95q-16 7 -35 11t-50 4q-81 0 -117.5 -55.5t-36.5 -162.5
q0 -71 8 -119t26.5 -77.5t47.5 -42t71 -12.5q18 0 34.5 3t26.5 7v111l-62 16v97h306v-97l-54 -16v-205q-40 -14 -105.5 -26t-140.5 -12z" />
    <glyph glyph-name="gcircumflex" unicode="&#x11d;" horiz-adv-x="568" 
d="M119 625l120 135h86l120 -135l-37 -50l-126 66l-127 -66zM253 -204q-128 0 -190.5 34t-62.5 88q0 22 9 39.5t24.5 30.5t35.5 22.5t43 15.5v5q-70 21 -70 86q0 32 22.5 62t54.5 51q-37 20 -59.5 54t-22.5 81q0 43 17 77t48 56.5t74.5 34.5t95.5 12q65 0 113 -17l171 24
v-108l-72 3q11 -16 17 -33t6 -38q0 -44 -17 -77.5t-47.5 -56t-74 -34.5t-96.5 -12q-42 0 -74 7q-12 -14 -12 -30q0 -10 8 -18.5t29 -8.5h173q34 0 64.5 -8t52.5 -25.5t35 -45t13 -67.5q0 -42 -17.5 -79t-55 -64.5t-95.5 -44t-140 -16.5zM267 -102q70 0 98 18t28 43
q0 22 -14 30t-49 8h-126q-16 -7 -25.5 -18.5t-9.5 -30.5q0 -22 22 -36t76 -14zM272 285q27 0 45.5 18t18.5 66q0 26 -5 43t-13.5 26.5t-20.5 13t-25 3.5q-27 0 -44.5 -17.5t-17.5 -65.5q0 -50 18 -68.5t44 -18.5z" />
    <glyph glyph-name="Gbreve" unicode="&#x11e;" horiz-adv-x="705" 
d="M375 725q-37 0 -65.5 11t-48.5 30t-31.5 44.5t-12.5 55.5h104q3 -15 17.5 -24.5t36.5 -9.5t36 9.5t17 24.5h105q-2 -30 -13 -55.5t-31 -44.5t-49 -30t-65 -11zM392 -12q-86 0 -154.5 19.5t-116.5 62t-74 109.5t-26 162q0 102 31 171.5t83 112t121 61.5t145 19
q68 0 126.5 -9t92.5 -23l8 -204h-121l-34 95q-16 7 -35 11t-50 4q-81 0 -117.5 -55.5t-36.5 -162.5q0 -71 8 -119t26.5 -77.5t47.5 -42t71 -12.5q18 0 34.5 3t26.5 7v111l-62 16v97h306v-97l-54 -16v-205q-40 -14 -105.5 -26t-140.5 -12z" />
    <glyph glyph-name="gbreve" unicode="&#x11f;" horiz-adv-x="568" 
d="M253 -204q-128 0 -190.5 34t-62.5 88q0 22 9 39.5t24.5 30.5t35.5 22.5t43 15.5v5q-70 21 -70 86q0 32 22.5 62t54.5 51q-37 20 -59.5 54t-22.5 81q0 43 17 77t48 56.5t74.5 34.5t95.5 12q65 0 113 -17l171 24v-108l-72 3q11 -16 17 -33t6 -38q0 -44 -17 -77.5t-47.5 -56
t-74 -34.5t-96.5 -12q-42 0 -74 7q-12 -14 -12 -30q0 -10 8 -18.5t29 -8.5h173q34 0 64.5 -8t52.5 -25.5t35 -45t13 -67.5q0 -42 -17.5 -79t-55 -64.5t-95.5 -44t-140 -16.5zM267 -102q70 0 98 18t28 43q0 22 -14 30t-49 8h-126q-16 -7 -25.5 -18.5t-9.5 -30.5q0 -22 22 -36
t76 -14zM272 285q27 0 45.5 18t18.5 66q0 26 -5 43t-13.5 26.5t-20.5 13t-25 3.5q-27 0 -44.5 -17.5t-17.5 -65.5q0 -50 18 -68.5t44 -18.5zM282 585q-36 0 -65 11.5t-49.5 32t-32 47.5t-12.5 58h105q3 -18 17.5 -28.5t36.5 -10.5t36.5 10.5t17.5 28.5h104q-1 -31 -12.5 -58
t-31.5 -47.5t-49 -32t-65 -11.5z" />
    <glyph glyph-name="Gdotaccent" unicode="&#x120;" horiz-adv-x="705" 
d="M374 725q-40 0 -69 24t-29 66t29 65.5t69 23.5q41 0 69.5 -23.5t28.5 -65.5t-28.5 -66t-69.5 -24zM392 -12q-86 0 -154.5 19.5t-116.5 62t-74 109.5t-26 162q0 102 31 171.5t83 112t121 61.5t145 19q68 0 126.5 -9t92.5 -23l8 -204h-121l-34 95q-16 7 -35 11t-50 4
q-81 0 -117.5 -55.5t-36.5 -162.5q0 -71 8 -119t26.5 -77.5t47.5 -42t71 -12.5q18 0 34.5 3t26.5 7v111l-62 16v97h306v-97l-54 -16v-205q-40 -14 -105.5 -26t-140.5 -12z" />
    <glyph glyph-name="gdotaccent" unicode="&#x121;" horiz-adv-x="568" 
d="M253 -204q-128 0 -190.5 34t-62.5 88q0 22 9 39.5t24.5 30.5t35.5 22.5t43 15.5v5q-70 21 -70 86q0 32 22.5 62t54.5 51q-37 20 -59.5 54t-22.5 81q0 43 17 77t48 56.5t74.5 34.5t95.5 12q65 0 113 -17l171 24v-108l-72 3q11 -16 17 -33t6 -38q0 -44 -17 -77.5t-47.5 -56
t-74 -34.5t-96.5 -12q-42 0 -74 7q-12 -14 -12 -30q0 -10 8 -18.5t29 -8.5h173q34 0 64.5 -8t52.5 -25.5t35 -45t13 -67.5q0 -42 -17.5 -79t-55 -64.5t-95.5 -44t-140 -16.5zM267 -102q70 0 98 18t28 43q0 22 -14 30t-49 8h-126q-16 -7 -25.5 -18.5t-9.5 -30.5q0 -22 22 -36
t76 -14zM272 285q27 0 45.5 18t18.5 66q0 26 -5 43t-13.5 26.5t-20.5 13t-25 3.5q-27 0 -44.5 -17.5t-17.5 -65.5q0 -50 18 -68.5t44 -18.5zM281 577q-40 0 -69 24t-29 66t29 65.5t69 23.5q41 0 69.5 -23.5t28.5 -65.5t-28.5 -66t-69.5 -24z" />
    <glyph glyph-name="Gcommaaccent" unicode="&#x122;" horiz-adv-x="705" 
d="M282 -189q5 34 7 70.5t2 82.5h174q-5 -42 -16.5 -82t-32.5 -71h-134zM392 -12q-86 0 -154.5 19.5t-116.5 62t-74 109.5t-26 162q0 102 31 171.5t83 112t121 61.5t145 19q68 0 126.5 -9t92.5 -23l8 -204h-121l-34 95q-16 7 -35 11t-50 4q-81 0 -117.5 -55.5t-36.5 -162.5
q0 -71 8 -119t26.5 -77.5t47.5 -42t71 -12.5q18 0 34.5 3t26.5 7v111l-62 16v97h306v-97l-54 -16v-205q-40 -14 -105.5 -26t-140.5 -12z" />
    <glyph glyph-name="gcommaaccent" unicode="&#x123;" horiz-adv-x="568" 
d="M376 746q-5 -34 -7.5 -71t-2.5 -82h-174q5 42 17 82t33 71h134zM253 -204q-128 0 -190.5 34t-62.5 88q0 22 9 39.5t24.5 30.5t35.5 22.5t43 15.5v5q-70 21 -70 86q0 32 22.5 62t54.5 51q-37 20 -59.5 54t-22.5 81q0 43 17 77t48 56.5t74.5 34.5t95.5 12q65 0 113 -17
l171 24v-108l-72 3q11 -16 17 -33t6 -38q0 -44 -17 -77.5t-47.5 -56t-74 -34.5t-96.5 -12q-42 0 -74 7q-12 -14 -12 -30q0 -10 8 -18.5t29 -8.5h173q34 0 64.5 -8t52.5 -25.5t35 -45t13 -67.5q0 -42 -17.5 -79t-55 -64.5t-95.5 -44t-140 -16.5zM267 -102q70 0 98 18t28 43
q0 22 -14 30t-49 8h-126q-16 -7 -25.5 -18.5t-9.5 -30.5q0 -22 22 -36t76 -14zM272 285q27 0 45.5 18t18.5 66q0 26 -5 43t-13.5 26.5t-20.5 13t-25 3.5q-27 0 -44.5 -17.5t-17.5 -65.5q0 -50 18 -68.5t44 -18.5z" />
    <glyph glyph-name="Hcircumflex" unicode="&#x124;" horiz-adv-x="770" 
d="M17 97l69 17v465l-69 17v97h330v-97l-58 -16v-170h194v170l-60 16v97h330v-97l-68 -17v-465l69 -17v-97h-331v97l60 16v187h-194v-187l58 -16v-97h-330v97zM221 773l121 118h86l120 -118l-33 -51l-130 52l-130 -52z" />
    <glyph glyph-name="hcircumflex" unicode="&#x125;" horiz-adv-x="632" 
d="M14 91l57 14v513l-60 16v92l227 24l17 -9v-259h5q36 28 74.5 45.5t94.5 17.5q31 0 56.5 -7.5t44 -23t28.5 -40.5t10 -61v-308l53 -14v-91h-279v91l42 11v247q0 32 -15 45t-47 13q-20 0 -35.5 -4.5t-31.5 -9.5v-291l42 -11v-91h-283v91zM159 818l121 118h86l120 -118
l-33 -51l-130 52l-130 -52z" />
    <glyph glyph-name="Hbar" unicode="&#x126;" horiz-adv-x="770" 
d="M12 528h74v51l-69 17v97h330v-95l-58 -16v-54h194v54l-60 16v95h330v-97l-68 -17v-51h73v-70h-73v-344l69 -17v-97h-331v97l60 16v187h-194v-187l58 -16v-97h-330v97l69 17v344h-74v70zM483 400v58h-194v-58h194z" />
    <glyph glyph-name="hbar" unicode="&#x127;" horiz-adv-x="632" 
d="M1 626h70v18l-60 16v66l227 24l17 -9v-115h128v-52h-128v-92h5q36 28 74.5 45.5t94.5 17.5q31 0 56.5 -7.5t44 -23t28.5 -40.5t10 -61v-308l53 -14v-91h-279v91l42 11v247q0 32 -15 45t-47 13q-20 0 -35.5 -4.5t-31.5 -9.5v-291l42 -11v-91h-283v91l57 14v469h-70v52z
" />
    <glyph glyph-name="Itilde" unicode="&#x128;" horiz-adv-x="377" 
d="M17 97l70 17v465l-70 17v97h343v-97l-70 -17v-465l70 -17v-97h-343v97zM5 772q21 45 53.5 75t74.5 30q17 0 33 -4t31 -9t28 -9t24 -4q33 0 55 33l68 -46q-20 -45 -53 -75.5t-75 -30.5q-17 0 -33 4t-31 9t-28 9t-24 4q-33 0 -55 -32z" />
    <glyph glyph-name="itilde" unicode="&#x129;" horiz-adv-x="322" 
d="M14 91l57 14v307l-62 16v93l229 23l17 -7v-432l54 -14v-91h-295v91zM-24 628q21 45 53.5 75.5t74.5 30.5q17 0 32 -4.5t28 -9.5t25 -9.5t23 -4.5q33 0 55 33l68 -46q-20 -45 -53 -75.5t-75 -30.5q-17 0 -32 4t-28 9.5t-25 9.5t-23 4q-33 0 -55 -32z" />
    <glyph glyph-name="Imacron" unicode="&#x12a;" horiz-adv-x="377" 
d="M17 97l70 17v465l-70 17v97h343v-97l-70 -17v-465l70 -17v-97h-343v97zM43 847h289v-110h-289v110z" />
    <glyph glyph-name="imacron" unicode="&#x12b;" horiz-adv-x="322" 
d="M14 91l57 14v307l-62 16v93l229 23l17 -7v-432l54 -14v-91h-295v91zM11 706h272v-110h-272v110z" />
    <glyph glyph-name="Ibreve" unicode="&#x12c;" horiz-adv-x="377" 
d="M17 97l70 17v465l-70 17v97h343v-97l-70 -17v-465l70 -17v-97h-343v97zM189 725q-37 0 -65.5 11t-48.5 30t-31.5 44.5t-12.5 55.5h104q3 -15 17.5 -24.5t36.5 -9.5t36 9.5t17 24.5h105q-2 -30 -13 -55.5t-31 -44.5t-49 -30t-65 -11z" />
    <glyph glyph-name="ibreve" unicode="&#x12d;" horiz-adv-x="322" 
d="M14 91l57 14v307l-62 16v93l229 23l17 -7v-432l54 -14v-91h-295v91zM155 585q-36 0 -65 11.5t-49.5 32t-32 47.5t-12.5 58h105q3 -18 17.5 -28.5t36.5 -10.5t36.5 10.5t17.5 28.5h104q-1 -31 -12.5 -58t-31.5 -47.5t-49 -32t-65 -11.5z" />
    <glyph glyph-name="Iogonek" unicode="&#x12e;" horiz-adv-x="377" 
d="M17 97l70 17v465l-70 17v97h343v-97l-70 -17v-465l70 -17v-97h-76q-23 -26 -32.5 -43.5t-9.5 -37.5q0 -17 11 -25t29 -8q8 0 14.5 0.5t12.5 1.5v-71q-14 -6 -35 -10t-50 -4q-66 0 -96 25t-30 61q0 35 23 63.5t60 47.5h-164v97z" />
    <glyph glyph-name="iogonek" unicode="&#x12f;" horiz-adv-x="322" 
d="M14 91l57 14v307l-62 16v93l229 23l17 -7v-432l54 -14v-91h-54q-22 -26 -32 -43.5t-10 -37.5q0 -17 11.5 -25t28.5 -8q8 0 14.5 0.5t12.5 1.5v-71q-14 -6 -34.5 -10t-49.5 -4q-66 0 -96 25t-30 61t25 65t66 46h-147v91zM158 577q-42 0 -71.5 24t-29.5 66t29.5 65.5
t71.5 23.5t71.5 -23.5t29.5 -65.5t-29.5 -66t-71.5 -24z" />
    <glyph glyph-name="Idotaccent" unicode="&#x130;" horiz-adv-x="377" 
d="M17 97l70 17v465l-70 17v97h343v-97l-70 -17v-465l70 -17v-97h-343v97zM188 725q-40 0 -69 24t-29 66t29 65.5t69 23.5q41 0 69.5 -23.5t28.5 -65.5t-28.5 -66t-69.5 -24z" />
    <glyph glyph-name="dotlessi" unicode="&#x131;" horiz-adv-x="322" 
d="M14 91l57 14v307l-62 16v93l229 23l17 -7v-432l54 -14v-91h-295v91z" />
    <glyph glyph-name="IJ" unicode="&#x132;" horiz-adv-x="836" 
d="M17 97l70 17v465l-70 17v97h343v-97l-70 -17v-465l70 -17v-97h-343v97zM528 -8q-29 0 -50.5 2.5t-38 7t-29 10t-22.5 10.5v119q16 -5 33 -9t46 -4q40 0 63.5 20t23.5 73v358l-69 17v97h337v-97l-65 -17v-370q0 -104 -55.5 -160.5t-173.5 -56.5z" />
    <glyph glyph-name="ij" unicode="&#x133;" horiz-adv-x="601" 
d="M14 91l57 14v307l-62 16v93l229 23l17 -7v-432l54 -14v-91h-295v91zM158 577q-42 0 -71.5 24t-29.5 66t29.5 65.5t71.5 23.5t71.5 -23.5t29.5 -65.5t-29.5 -66t-71.5 -24zM347 -198q-32 0 -55 5t-40 12v106q20 -4 45 -4q35 0 53 15t18 55v421l-63 16v93l229 23l17 -7
v-543q0 -94 -47 -143t-157 -49zM454 577q-42 0 -71.5 24t-29.5 66t29.5 65.5t71.5 23.5t71.5 -23.5t29.5 -65.5t-29.5 -66t-71.5 -24z" />
    <glyph glyph-name="Jcircumflex" unicode="&#x134;" horiz-adv-x="474" 
d="M125 773l121 118h86l120 -118l-33 -51l-130 52l-130 -52zM165 -8q-62 0 -95.5 10t-56.5 21v118q18 -5 36 -9t50 -4q43 0 68 20t25 73v358l-69 17v97h338v-97l-66 -17v-370q0 -104 -56 -160.5t-174 -56.5z" />
    <glyph glyph-name="jcircumflex" unicode="&#x135;" horiz-adv-x="306" 
d="M52 -198q-32 0 -55 5t-40 12v106q20 -4 45 -4q35 0 53 15t18 55v421l-63 16v93l229 23l17 -7v-543q0 -94 -47 -143t-157 -49zM-13 625l120 135h86l120 -135l-37 -50l-126 66l-127 -66z" />
    <glyph glyph-name="Kcommaaccent" unicode="&#x136;" horiz-adv-x="739" 
d="M17 97l69 17v465l-69 17v97h332v-97l-60 -16v-207l189 208l-53 15v97h283v-97l-59 -19l-174 -175l191 -289l59 -16v-97h-222l-167 267l-47 -43v-111l60 -16v-97h-332v97zM287 -189q5 34 7 70.5t2 82.5h174q-5 -42 -16.5 -82t-32.5 -71h-134z" />
    <glyph glyph-name="kcommaaccent" unicode="&#x137;" horiz-adv-x="607" 
d="M14 91l57 14v513l-60 16v92l227 24l17 -8v-440l19 13l111 115l-51 13v91h245v-91l-52 -15l-111 -118l142 -209l39 -10v-91h-182l-132 206l-28 -5v-99l46 -11v-91h-287v91zM212 -189q5 34 7 70.5t2 82.5h174q-5 -42 -16.5 -82t-32.5 -71h-134z" />
    <glyph glyph-name="Lacute" unicode="&#x139;" horiz-adv-x="605" 
d="M87 722l-28 78l218 104l50 -130zM17 97l69 17v465l-69 17v97h345v-97l-73 -16v-466h147l49 144h112l-13 -258h-567v97z" />
    <glyph glyph-name="lacute" unicode="&#x13a;" horiz-adv-x="326" 
d="M60 765l-28 78l218 104l50 -130zM14 91l59 14v512l-64 17v92l231 23l16 -8v-636l57 -14v-91h-299v91z" />
    <glyph glyph-name="Lcommaaccent" unicode="&#x13b;" horiz-adv-x="605" 
d="M217 -189q5 34 7 70.5t2 82.5h174q-5 -42 -16.5 -82t-32.5 -71h-134zM17 97l69 17v465l-69 17v97h345v-97l-73 -16v-466h147l49 144h112l-13 -258h-567v97z" />
    <glyph glyph-name="lcommaaccent" unicode="&#x13c;" horiz-adv-x="326" 
d="M69 -189q5 34 7 70.5t2 82.5h174q-5 -42 -16.5 -82t-32.5 -71h-134zM14 91l59 14v512l-64 17v92l231 23l16 -8v-636l57 -14v-91h-299v91z" />
    <glyph glyph-name="Lcaron" unicode="&#x13d;" horiz-adv-x="605" 
d="M413 713l141 -17l-63 -180l-93 14zM17 97l69 17v465l-69 17v97h345v-97l-73 -16v-466h147l49 144h112l-13 -258h-567v97z" />
    <glyph glyph-name="lcaron" unicode="&#x13e;" horiz-adv-x="326" 
d="M283 572l14 178l140 -18l-63 -173zM14 91l59 14v512l-64 17v92l231 23l16 -8v-636l57 -14v-91h-299v91z" />
    <glyph glyph-name="Ldot" unicode="&#x13f;" horiz-adv-x="605" 
d="M17 97l69 17v465l-69 17v97h345v-97l-73 -16v-466h147l49 134h112l-13 -248h-567v97zM507 303q-40 0 -65.5 25.5t-25.5 59.5q0 35 25.5 60.5t65.5 25.5q39 0 64 -25.5t25 -60.5q0 -34 -25 -59.5t-64 -25.5z" />
    <glyph glyph-name="ldot" unicode="&#x140;" horiz-adv-x="420" 
d="M14 91l59 14v512l-64 17v92l231 23l16 -8v-636l57 -14v-91h-299v91zM373 285q-38 0 -63 24.5t-25 58.5q0 17 6.5 32.5t18.5 27t28 18.5t35 7q39 0 63.5 -25t24.5 -60q0 -34 -24.5 -58.5t-63.5 -24.5z" />
    <glyph glyph-name="Lslash" unicode="&#x141;" horiz-adv-x="605" 
d="M17 326l69 23v230l-69 17v97h343v-97l-71 -16v-165l148 51v-118l-148 -51v-183h147l49 144h112l-13 -258h-567v97l69 17v117l-69 -23v118z" />
    <glyph glyph-name="lslash" unicode="&#x142;" horiz-adv-x="326" 
d="M9 365l64 32v220l-64 17v92l231 23l16 -8v-251l68 35v-110l-68 -35v-275l57 -14v-91h-299v91l59 14v182l-64 -32v110z" />
    <glyph glyph-name="Nacute" unicode="&#x143;" horiz-adv-x="736" 
d="M294 722l-28 78l218 104l50 -130zM17 97l69 17v465l-69 17v97h283l225 -393h5v278l-70 18v97h263v-97l-61 -17v-579h-180l-259 462h-5v-349l71 -16v-97h-272v97z" />
    <glyph glyph-name="nacute" unicode="&#x144;" horiz-adv-x="633" 
d="M196 652l212 120l59 -127l-239 -69zM14 91l57 14v307l-60 16v93l220 23l16 -7v-57h6q38 29 79 47t97 18q31 0 56.5 -7.5t44 -23t28.5 -40.5t10 -61v-308l53 -14v-91h-279v91l42 11v247q0 32 -15 44.5t-47 12.5q-20 0 -35.5 -4t-31.5 -9v-291l42 -11v-91h-283v91z" />
    <glyph glyph-name="Ncommaaccent" unicode="&#x145;" horiz-adv-x="736" 
d="M293 -189q5 34 7 70.5t2 82.5h174q-5 -42 -16.5 -82t-32.5 -71h-134zM17 97l69 17v465l-69 17v97h283l225 -393h5v278l-70 18v97h263v-97l-61 -17v-579h-180l-259 462h-5v-349l71 -16v-97h-272v97z" />
    <glyph glyph-name="ncommaaccent" unicode="&#x146;" horiz-adv-x="633" 
d="M229 -189q5 34 7 70.5t2 82.5h174q-5 -42 -16.5 -82t-32.5 -71h-134zM14 91l57 14v307l-60 16v93l220 23l16 -7v-57h6q38 29 79 47t97 18q31 0 56.5 -7.5t44 -23t28.5 -40.5t10 -61v-308l53 -14v-91h-279v91l42 11v247q0 32 -15 44.5t-47 12.5q-20 0 -35.5 -4t-31.5 -9
v-291l42 -11v-91h-283v91z" />
    <glyph glyph-name="Ncaron" unicode="&#x147;" horiz-adv-x="736" 
d="M557 845l-120 -119h-86l-121 119l34 50l130 -51l130 51zM17 97l69 17v465l-69 17v97h283l225 -393h5v278l-70 18v97h263v-97l-61 -17v-579h-180l-259 462h-5v-349l71 -16v-97h-272v97z" />
    <glyph glyph-name="ncaron" unicode="&#x148;" horiz-adv-x="633" 
d="M158 716l36 50l127 -65l126 65l37 -50l-120 -134h-86zM14 91l57 14v307l-60 16v93l220 23l16 -7v-57h6q38 29 79 47t97 18q31 0 56.5 -7.5t44 -23t28.5 -40.5t10 -61v-308l53 -14v-91h-279v91l42 11v247q0 32 -15 44.5t-47 12.5q-20 0 -35.5 -4t-31.5 -9v-291l42 -11v-91
h-283v91z" />
    <glyph glyph-name="napostrophe" unicode="&#x149;" horiz-adv-x="742" 
d="M-46 469q5 53 8.5 105.5t3.5 118.5h168q-6 -61 -21.5 -118t-40.5 -106h-118zM122 91l57 14v307l-60 16v93l220 23l16 -7v-57h6q38 29 79 47t97 18q31 0 56.5 -7.5t44 -23t28.5 -40.5t10 -61v-308l53 -14v-91h-279v91l42 11v247q0 32 -15 44.5t-47 12.5q-20 0 -35.5 -4
t-31.5 -9v-291l42 -11v-91h-283v91z" />
    <glyph glyph-name="Eng" unicode="&#x14a;" horiz-adv-x="736" 
d="M469 -183q-38 0 -65 6.5t-46 14.5v109q16 -3 31.5 -4.5t36.5 -1.5q32 0 52 6.5t27 26.5l-282 488h-5v-349l71 -16v-97h-272v97l69 17v465l-69 17v97h283l225 -393h5v278l-70 18v97h263v-97l-61 -17v-563q0 -97 -45 -148t-148 -51z" />
    <glyph glyph-name="eng" unicode="&#x14b;" horiz-adv-x="613" 
d="M568 -6q0 -94 -47 -143t-156 -49q-32 0 -55 5t-40 12v106q20 -4 44 -4q34 0 52 15t18 55v358q0 32 -15 44.5t-47 12.5q-20 0 -35.5 -4t-31.5 -9v-291l50 -11v-91h-291v91l57 14v307l-60 16v93l220 23l16 -7v-57h6q38 29 79 47t97 18q31 0 56.5 -7.5t44 -23t28.5 -40.5
t10 -61v-419z" />
    <glyph glyph-name="Omacron" unicode="&#x14c;" horiz-adv-x="713" 
d="M211 847h289v-110h-289v110zM356 111q60 0 92.5 52.5t32.5 175.5q0 70 -7.5 117t-23 75t-39 40t-54.5 12q-59 0 -92 -53.5t-33 -174.5q0 -69 7 -115.5t22 -75t38.5 -41t56.5 -12.5zM354 -12q-72 0 -133 21.5t-105.5 65.5t-69.5 110.5t-25 156.5q0 95 28.5 163.5t75.5 113
t108 65.5t127 21q72 0 132.5 -21.5t105 -65.5t69.5 -110.5t25 -156.5q0 -95 -28 -163.5t-75 -112.5t-108 -65.5t-127 -21.5z" />
    <glyph glyph-name="omacron" unicode="&#x14d;" horiz-adv-x="585" 
d="M148 706h289v-110h-289v110zM294 97q18 0 33 7.5t25.5 26.5t16.5 51t6 81q0 52 -6 85.5t-17 53t-26.5 27t-34.5 7.5q-18 0 -33.5 -7t-26 -25.5t-16.5 -50.5t-6 -83q0 -52 6 -85.5t17.5 -53t27 -27t34.5 -7.5zM293 -13q-67 0 -118.5 19.5t-87 55.5t-53.5 87t-18 114
q0 69 21.5 121.5t59 88.5t87.5 54t108 18q134 0 205.5 -71.5t71.5 -203.5q0 -69 -21.5 -121.5t-59 -88.5t-88 -54.5t-107.5 -18.5z" />
    <glyph glyph-name="Obreve" unicode="&#x14e;" horiz-adv-x="713" 
d="M357 725q-37 0 -65.5 11t-48.5 30t-31.5 44.5t-12.5 55.5h104q3 -15 17.5 -24.5t36.5 -9.5t36 9.5t17 24.5h105q-2 -30 -13 -55.5t-31 -44.5t-49 -30t-65 -11zM356 111q60 0 92.5 52.5t32.5 175.5q0 70 -7.5 117t-23 75t-39 40t-54.5 12q-59 0 -92 -53.5t-33 -174.5
q0 -69 7 -115.5t22 -75t38.5 -41t56.5 -12.5zM354 -12q-72 0 -133 21.5t-105.5 65.5t-69.5 110.5t-25 156.5q0 95 28.5 163.5t75.5 113t108 65.5t127 21q72 0 132.5 -21.5t105 -65.5t69.5 -110.5t25 -156.5q0 -95 -28 -163.5t-75 -112.5t-108 -65.5t-127 -21.5z" />
    <glyph glyph-name="obreve" unicode="&#x14f;" horiz-adv-x="585" 
d="M294 97q18 0 33 7.5t25.5 26.5t16.5 51t6 81q0 52 -6 85.5t-17 53t-26.5 27t-34.5 7.5q-18 0 -33.5 -7t-26 -25.5t-16.5 -50.5t-6 -83q0 -52 6 -85.5t17.5 -53t27 -27t34.5 -7.5zM293 -13q-67 0 -118.5 19.5t-87 55.5t-53.5 87t-18 114q0 69 21.5 121.5t59 88.5t87.5 54
t108 18q134 0 205.5 -71.5t71.5 -203.5q0 -69 -21.5 -121.5t-59 -88.5t-88 -54.5t-107.5 -18.5zM293 585q-36 0 -65 11.5t-49.5 32t-32 47.5t-12.5 58h105q3 -18 17.5 -28.5t36.5 -10.5t36.5 10.5t17.5 28.5h104q-1 -31 -12.5 -58t-31.5 -47.5t-49 -32t-65 -11.5z" />
    <glyph glyph-name="Ohungarumlaut" unicode="&#x150;" horiz-adv-x="713" 
d="M209 763l79 157l119 -70l-126 -127zM394 769l93 152l113 -80l-137 -117zM356 111q60 0 92.5 52.5t32.5 175.5q0 70 -7.5 117t-23 75t-39 40t-54.5 12q-59 0 -92 -53.5t-33 -174.5q0 -69 7 -115.5t22 -75t38.5 -41t56.5 -12.5zM354 -12q-72 0 -133 21.5t-105.5 65.5
t-69.5 110.5t-25 156.5q0 95 28.5 163.5t75.5 113t108 65.5t127 21q72 0 132.5 -21.5t105 -65.5t69.5 -110.5t25 -156.5q0 -95 -28 -163.5t-75 -112.5t-108 -65.5t-127 -21.5z" />
    <glyph glyph-name="ohungarumlaut" unicode="&#x151;" horiz-adv-x="585" 
d="M132 612l113 174l105 -79l-161 -137zM328 619l126 167l99 -87l-170 -127zM294 97q18 0 33 7.5t25.5 26.5t16.5 51t6 81q0 52 -6 85.5t-17 53t-26.5 27t-34.5 7.5q-18 0 -33.5 -7t-26 -25.5t-16.5 -50.5t-6 -83q0 -52 6 -85.5t17.5 -53t27 -27t34.5 -7.5zM293 -13
q-67 0 -118.5 19.5t-87 55.5t-53.5 87t-18 114q0 69 21.5 121.5t59 88.5t87.5 54t108 18q134 0 205.5 -71.5t71.5 -203.5q0 -69 -21.5 -121.5t-59 -88.5t-88 -54.5t-107.5 -18.5z" />
    <glyph glyph-name="OE" unicode="&#x152;" horiz-adv-x="985" 
d="M369 0q-81 0 -145.5 18.5t-109.5 59t-69 104t-24 153.5q0 93 25.5 161t71 111.5t109 64.5t139.5 21h577l9 -210h-112l-35 99h-176v-176h61l17 65h90v-237h-90l-17 67h-61v-190h179l48 122h113l-10 -233h-590zM379 576q-36 0 -63 -10t-46 -35.5t-28.5 -69.5t-9.5 -112
q0 -75 10.5 -120.5t30.5 -70t49 -33t66 -8.5h41v459h-50z" />
    <glyph glyph-name="oe" unicode="&#x153;" horiz-adv-x="907" 
d="M660 -13q-68 0 -115.5 19t-76.5 56q-32 -37 -76.5 -56t-98.5 -19q-67 0 -118.5 19.5t-87 55.5t-53.5 87t-18 114q0 69 21.5 121.5t59 88.5t87.5 54t108 18q121 0 182 -72q58 72 171 72q62 0 107.5 -16.5t75.5 -52.5t45 -94.5t15 -142.5h-323q8 -71 44.5 -99t100.5 -28
q53 0 88.5 8t64.5 17v-97q-29 -20 -77.5 -36.5t-125.5 -16.5zM294 97q18 0 33 7.5t25.5 26.5t16.5 51t6 81q0 52 -6 85.5t-17 53t-26.5 27t-34.5 7.5q-18 0 -33.5 -7t-26 -25.5t-16.5 -50.5t-6 -83q0 -52 6 -85.5t17.5 -53t27 -27t34.5 -7.5zM643 438q-15 0 -28.5 -5.5
t-23.5 -18.5t-16.5 -35t-9.5 -55l145 6q0 62 -19 85t-48 23z" />
    <glyph glyph-name="Racute" unicode="&#x154;" horiz-adv-x="707" 
d="M240 722l-28 78l218 104l50 -130zM17 97l70 17v464l-69 18v97h356q71 0 122 -14t83.5 -40.5t48 -64.5t15.5 -86q0 -35 -9 -61t-25 -45.5t-37.5 -33t-46.5 -23.5v-4l123 -210l51 -14v-97h-210l-151 276h-48v-164l58 -15v-97h-331v97zM353 381q48 0 67.5 28t19.5 77
q0 48 -22.5 69.5t-71.5 21.5h-56v-196h63z" />
    <glyph glyph-name="racute" unicode="&#x155;" horiz-adv-x="425" 
d="M111 652l212 120l59 -127l-239 -69zM14 91l57 14v307l-60 16v93l220 23l16 -7v-80h6q21 36 55 61t80 25q16 0 27 -3v-162q-20 5 -47 5q-37 0 -63.5 -4.5t-49.5 -15.5v-258l74 -14v-91h-315v91z" />
    <glyph glyph-name="Rcommaaccent" unicode="&#x156;" horiz-adv-x="707" 
d="M288 -189q5 34 7 70.5t2 82.5h174q-5 -42 -16.5 -82t-32.5 -71h-134zM17 97l70 17v464l-69 18v97h356q71 0 122 -14t83.5 -40.5t48 -64.5t15.5 -86q0 -35 -9 -61t-25 -45.5t-37.5 -33t-46.5 -23.5v-4l123 -210l51 -14v-97h-210l-151 276h-48v-164l58 -15v-97h-331v97z
M353 381q48 0 67.5 28t19.5 77q0 48 -22.5 69.5t-71.5 21.5h-56v-196h63z" />
    <glyph glyph-name="rcommaaccent" unicode="&#x157;" horiz-adv-x="425" 
d="M67 -189q5 34 7 70.5t2 82.5h174q-5 -42 -16.5 -82t-32.5 -71h-134zM14 91l57 14v307l-60 16v93l220 23l16 -7v-80h6q21 36 55 61t80 25q16 0 27 -3v-162q-20 5 -47 5q-37 0 -63.5 -4.5t-49.5 -15.5v-258l74 -14v-91h-315v91z" />
    <glyph glyph-name="Rcaron" unicode="&#x158;" horiz-adv-x="707" 
d="M498 845l-120 -119h-86l-121 119l34 50l130 -51l130 51zM17 97l70 17v464l-69 18v97h356q71 0 122 -14t83.5 -40.5t48 -64.5t15.5 -86q0 -35 -9 -61t-25 -45.5t-37.5 -33t-46.5 -23.5v-4l123 -210l51 -14v-97h-210l-151 276h-48v-164l58 -15v-97h-331v97zM353 381
q48 0 67.5 28t19.5 77q0 48 -22.5 69.5t-71.5 21.5h-56v-196h63z" />
    <glyph glyph-name="rcaron" unicode="&#x159;" horiz-adv-x="425" 
d="M73 716l36 50l127 -65l126 65l37 -50l-120 -134h-86zM14 91l57 14v307l-60 16v93l220 23l16 -7v-80h6q21 36 55 61t80 25q16 0 27 -3v-162q-20 5 -47 5q-37 0 -63.5 -4.5t-49.5 -15.5v-258l74 -14v-91h-315v91z" />
    <glyph glyph-name="Sacute" unicode="&#x15a;" horiz-adv-x="566" 
d="M262 -12q-31 0 -63 2.5t-62 7t-56.5 10.5t-46.5 14l-10 188h124l25 -86q17 -8 36 -12t47 -4q47 0 70 19.5t23 51.5q0 34 -29.5 53t-80.5 37l-40 15q-41 14 -72.5 30.5t-53 40t-33 56t-11.5 78.5q0 48 15 87.5t48 68.5t85 45t125 16q75 0 122.5 -9t76.5 -19l10 -171h-122
l-19 66q-14 7 -31.5 11.5t-42.5 4.5q-38 0 -61 -15.5t-23 -45.5t24.5 -46.5t72.5 -33.5l41 -15q47 -16 83 -33t61 -40.5t37.5 -57t12.5 -83.5q0 -108 -71.5 -169.5t-210.5 -61.5zM189 722l-28 78l218 104l50 -130z" />
    <glyph glyph-name="sacute" unicode="&#x15b;" horiz-adv-x="485" 
d="M122 652l212 120l59 -127l-239 -69zM215 -13q-45 0 -95.5 8t-91.5 25l-9 146h113l20 -59q10 -5 28 -10.5t42 -5.5q32 0 51 12t19 35t-14.5 33t-49.5 19l-58 14q-75 17 -113.5 54t-38.5 109q0 39 14 72t43 56.5t74 37t107 13.5q50 0 97.5 -7.5t79.5 -21.5v-139h-110
l-13 53q-9 5 -23.5 9t-36.5 4q-29 0 -49 -9.5t-20 -32.5q0 -21 15.5 -32t56.5 -20l65 -15q81 -18 115 -58t34 -101q0 -42 -14.5 -77t-45 -60t-78 -38.5t-114.5 -13.5z" />
    <glyph glyph-name="Scircumflex" unicode="&#x15c;" horiz-adv-x="566" 
d="M126 773l121 118h86l120 -118l-33 -51l-130 52l-130 -52zM262 -12q-31 0 -63 2.5t-62 7t-56.5 10.5t-46.5 14l-10 188h124l25 -86q17 -8 36 -12t47 -4q47 0 70 19.5t23 51.5q0 34 -29.5 53t-80.5 37l-40 15q-41 14 -72.5 30.5t-53 40t-33 56t-11.5 78.5q0 48 15 87.5
t48 68.5t85 45t125 16q75 0 122.5 -9t76.5 -19l10 -171h-122l-19 66q-14 7 -31.5 11.5t-42.5 4.5q-38 0 -61 -15.5t-23 -45.5t24.5 -46.5t72.5 -33.5l41 -15q47 -16 83 -33t61 -40.5t37.5 -57t12.5 -83.5q0 -108 -71.5 -169.5t-210.5 -61.5z" />
    <glyph glyph-name="scircumflex" unicode="&#x15d;" horiz-adv-x="485" 
d="M85 625l120 135h86l120 -135l-37 -50l-126 66l-127 -66zM215 -13q-45 0 -95.5 8t-91.5 25l-9 146h113l20 -59q10 -5 28 -10.5t42 -5.5q32 0 51 12t19 35t-14.5 33t-49.5 19l-58 14q-75 17 -113.5 54t-38.5 109q0 39 14 72t43 56.5t74 37t107 13.5q50 0 97.5 -7.5
t79.5 -21.5v-139h-110l-13 53q-9 5 -23.5 9t-36.5 4q-29 0 -49 -9.5t-20 -32.5q0 -21 15.5 -32t56.5 -20l65 -15q81 -18 115 -58t34 -101q0 -42 -14.5 -77t-45 -60t-78 -38.5t-114.5 -13.5z" />
    <glyph glyph-name="Scedilla" unicode="&#x15e;" horiz-adv-x="566" 
d="M176 -165q58 5 79 14.5t21 25.5q0 14 -17 22t-58 10v84q-48 3 -92.5 11t-74.5 20l-10 188h124l25 -86q17 -8 36 -12t47 -4q47 0 70 19.5t23 51.5q0 34 -29.5 53t-80.5 37l-40 15q-41 14 -72.5 30.5t-53 40t-33 56t-11.5 78.5q0 48 15 87.5t48 68.5t85 45t125 16
q75 0 122.5 -9t76.5 -19l10 -171h-122l-19 66q-14 7 -31.5 11.5t-42.5 4.5q-38 0 -61 -15.5t-23 -45.5t24.5 -46.5t72.5 -33.5l41 -15q47 -16 83 -33t61 -40.5t37.5 -57t12.5 -83.5q0 -106 -69.5 -167.5t-203.5 -63.5v-28q68 -4 95.5 -22t27.5 -56q0 -44 -51 -70.5
t-167 -32.5v56z" />
    <glyph glyph-name="scedilla" unicode="&#x15f;" horiz-adv-x="485" 
d="M136 -165q58 5 79 14.5t21 25.5q0 14 -17 22t-58 10v83q-35 3 -69.5 10.5t-63.5 19.5l-9 146h113l20 -59q10 -5 28 -10.5t42 -5.5q32 0 51 12t19 35t-14.5 33t-49.5 19l-58 14q-75 17 -113.5 54t-38.5 109q0 39 14 72t43 56.5t74 37t107 13.5q50 0 97.5 -7.5t79.5 -21.5
v-139h-110l-13 53q-9 5 -23.5 9t-36.5 4q-29 0 -49 -9.5t-20 -32.5q0 -21 15.5 -32t56.5 -20l65 -15q81 -18 115 -58t34 -101q0 -83 -56 -134t-180 -55v-27q68 -4 95.5 -22t27.5 -56q0 -44 -51 -70.5t-167 -32.5v56z" />
    <glyph glyph-name="Scaron" unicode="&#x160;" horiz-adv-x="566" 
d="M453 845l-120 -119h-86l-121 119l34 50l130 -51l130 51zM262 -12q-31 0 -63 2.5t-62 7t-56.5 10.5t-46.5 14l-10 188h124l25 -86q17 -8 36 -12t47 -4q47 0 70 19.5t23 51.5q0 34 -29.5 53t-80.5 37l-40 15q-41 14 -72.5 30.5t-53 40t-33 56t-11.5 78.5q0 48 15 87.5
t48 68.5t85 45t125 16q75 0 122.5 -9t76.5 -19l10 -171h-122l-19 66q-14 7 -31.5 11.5t-42.5 4.5q-38 0 -61 -15.5t-23 -45.5t24.5 -46.5t72.5 -33.5l41 -15q47 -16 83 -33t61 -40.5t37.5 -57t12.5 -83.5q0 -108 -71.5 -169.5t-210.5 -61.5z" />
    <glyph glyph-name="scaron" unicode="&#x161;" horiz-adv-x="485" 
d="M85 716l36 50l127 -65l126 65l37 -50l-120 -134h-86zM215 -13q-45 0 -95.5 8t-91.5 25l-9 146h113l20 -59q10 -5 28 -10.5t42 -5.5q32 0 51 12t19 35t-14.5 33t-49.5 19l-58 14q-75 17 -113.5 54t-38.5 109q0 39 14 72t43 56.5t74 37t107 13.5q50 0 97.5 -7.5t79.5 -21.5
v-139h-110l-13 53q-9 5 -23.5 9t-36.5 4q-29 0 -49 -9.5t-20 -32.5q0 -21 15.5 -32t56.5 -20l65 -15q81 -18 115 -58t34 -101q0 -42 -14.5 -77t-45 -60t-78 -38.5t-114.5 -13.5z" />
    <glyph glyph-name="Tcommaaccent" unicode="&#x162;" horiz-adv-x="666" 
d="M241 -189q5 34 7 70.5t2 82.5h174q-5 -42 -16.5 -82t-32.5 -71h-134zM157 97l75 17v465h-73l-30 -121h-118l9 235h626l8 -235h-117l-30 121h-73v-465l74 -17v-97h-351v97z" />
    <glyph glyph-name="tcommaaccent" unicode="&#x163;" horiz-adv-x="387" 
d="M110 -189q5 34 7 70.5t2 82.5h174q-5 -42 -16.5 -82t-32.5 -71h-134zM236 -11q-41 0 -72 7t-52.5 24.5t-32.5 46t-11 70.5v288h-57v83l73 27l23 124h144v-125h108v-109h-108v-258q0 -35 16 -48t49 -13q13 0 25.5 2t23.5 5v-95q-18 -11 -51.5 -20t-77.5 -9z" />
    <glyph glyph-name="Tcaron" unicode="&#x164;" horiz-adv-x="666" 
d="M496 845l-120 -119h-86l-121 119l34 50l130 -51l130 51zM157 97l75 17v465h-73l-30 -121h-118l9 235h626l8 -235h-117l-30 121h-73v-465l74 -17v-97h-351v97z" />
    <glyph glyph-name="tcaron" unicode="&#x165;" horiz-adv-x="387" 
d="M283 572l14 178l140 -18l-63 -173zM236 -11q-41 0 -72 7t-52.5 24.5t-32.5 46t-11 70.5v288h-57v83l73 27l23 124h144v-125h108v-109h-108v-258q0 -35 16 -48t49 -13q13 0 25.5 2t23.5 5v-95q-18 -11 -51.5 -20t-77.5 -9z" />
    <glyph glyph-name="Tbar" unicode="&#x166;" horiz-adv-x="666" 
d="M101 402h131v177h-73l-30 -121h-118l9 235h626l8 -235h-117l-30 121h-73v-177h131v-94h-131v-194l74 -17v-97h-351v97l75 17v194h-131v94z" />
    <glyph glyph-name="tbar" unicode="&#x167;" horiz-adv-x="387" 
d="M11 365h57v60h-57v83l73 27l23 124h144v-125h108v-109h-108v-60h108v-68h-108v-130q0 -35 16 -48t49 -13q13 0 25.5 2t23.5 5v-95q-18 -11 -51.5 -20t-77.5 -9q-41 0 -72 7t-52.5 24.5t-32.5 46t-11 70.5v160h-57v68z" />
    <glyph glyph-name="Utilde" unicode="&#x168;" horiz-adv-x="718" 
d="M372 -12q-77 0 -133 16.5t-92 46.5t-53.5 73t-17.5 97v358l-65 17v97h331v-97l-63 -16v-345q0 -70 32 -98t88 -28q57 0 86.5 28t29.5 98v345l-63 16v97h255v-97l-61 -17v-345q0 -54 -15 -99t-47.5 -77.5t-84.5 -51t-127 -18.5zM201 772q21 45 53.5 75t74.5 30q17 0 33 -4
t31 -9t28 -9t24 -4q33 0 55 33l68 -46q-20 -45 -53 -75.5t-75 -30.5q-17 0 -33 4t-31 9t-28 9t-24 4q-33 0 -55 -32z" />
    <glyph glyph-name="utilde" unicode="&#x169;" horiz-adv-x="633" 
d="M217 -12q-83 0 -118.5 39t-35.5 109v278l-56 17v92l223 21l16 -8v-347q0 -33 12.5 -48t47.5 -15q25 0 41 5t30 10v273l-53 17v92l219 21l17 -8v-415l57 -16v-91l-217 -24l-16 7v58h-6q-27 -27 -66 -47t-95 -20zM132 628q21 45 53.5 75.5t74.5 30.5q17 0 32 -4.5t28 -9.5
t25 -9.5t23 -4.5q33 0 55 33l68 -46q-20 -45 -53 -75.5t-75 -30.5q-17 0 -32 4t-28 9.5t-25 9.5t-23 4q-33 0 -55 -32z" />
    <glyph glyph-name="Umacron" unicode="&#x16a;" horiz-adv-x="718" 
d="M372 -12q-77 0 -133 16.5t-92 46.5t-53.5 73t-17.5 97v358l-65 17v97h331v-97l-63 -16v-345q0 -70 32 -98t88 -28q57 0 86.5 28t29.5 98v345l-63 16v97h255v-97l-61 -17v-345q0 -54 -15 -99t-47.5 -77.5t-84.5 -51t-127 -18.5zM240 847h289v-110h-289v110z" />
    <glyph glyph-name="umacron" unicode="&#x16b;" horiz-adv-x="633" 
d="M217 -12q-83 0 -118.5 39t-35.5 109v278l-56 17v92l223 21l16 -8v-347q0 -33 12.5 -48t47.5 -15q25 0 41 5t30 10v273l-53 17v92l219 21l17 -8v-415l57 -16v-91l-217 -24l-16 7v58h-6q-27 -27 -66 -47t-95 -20zM167 706h289v-110h-289v110z" />
    <glyph glyph-name="Ubreve" unicode="&#x16c;" horiz-adv-x="718" 
d="M372 -12q-77 0 -133 16.5t-92 46.5t-53.5 73t-17.5 97v358l-65 17v97h331v-97l-63 -16v-345q0 -70 32 -98t88 -28q57 0 86.5 28t29.5 98v345l-63 16v97h255v-97l-61 -17v-345q0 -54 -15 -99t-47.5 -77.5t-84.5 -51t-127 -18.5zM385 725q-37 0 -65.5 11t-48.5 30
t-31.5 44.5t-12.5 55.5h104q3 -15 17.5 -24.5t36.5 -9.5t36 9.5t17 24.5h105q-2 -30 -13 -55.5t-31 -44.5t-49 -30t-65 -11z" />
    <glyph glyph-name="ubreve" unicode="&#x16d;" horiz-adv-x="633" 
d="M217 -12q-83 0 -118.5 39t-35.5 109v278l-56 17v92l223 21l16 -8v-347q0 -33 12.5 -48t47.5 -15q25 0 41 5t30 10v273l-53 17v92l219 21l17 -8v-415l57 -16v-91l-217 -24l-16 7v58h-6q-27 -27 -66 -47t-95 -20zM312 585q-36 0 -65 11.5t-49.5 32t-32 47.5t-12.5 58h105
q3 -18 17.5 -28.5t36.5 -10.5t36.5 10.5t17.5 28.5h104q-1 -31 -12.5 -58t-31.5 -47.5t-49 -32t-65 -11.5z" />
    <glyph glyph-name="Uring" unicode="&#x16e;" horiz-adv-x="718" 
d="M372 -12q-77 0 -133 16.5t-92 46.5t-53.5 73t-17.5 97v358l-65 17v97h331v-97l-63 -16v-345q0 -70 32 -98t88 -28q57 0 86.5 28t29.5 98v345l-63 16v97h255v-97l-61 -17v-345q0 -54 -15 -99t-47.5 -77.5t-84.5 -51t-127 -18.5zM385 771q22 0 34 13t12 36q0 21 -12 35
t-34 14t-34.5 -14t-12.5 -35q0 -23 12.5 -36t34.5 -13zM385 709q-26 0 -47 9t-37 24t-24.5 35t-8.5 43q0 22 8.5 42t24.5 35t37 24t47 9q25 0 46.5 -9t37 -24t24.5 -35t9 -42q0 -23 -9 -43t-24.5 -35t-37 -24t-46.5 -9z" />
    <glyph glyph-name="uring" unicode="&#x16f;" horiz-adv-x="633" 
d="M310 638q22 0 34 13t12 36q0 21 -12 35t-34 14t-34.5 -14t-12.5 -35q0 -23 12.5 -36t34.5 -13zM310 576q-26 0 -47 9t-37 24t-24.5 35t-8.5 43q0 22 8.5 42t24.5 35t37 23.5t47 8.5q25 0 46.5 -8.5t37 -23.5t24.5 -35t9 -42q0 -23 -9 -43t-24.5 -35t-37 -24t-46.5 -9z
M217 -12q-83 0 -118.5 39t-35.5 109v278l-56 17v92l223 21l16 -8v-347q0 -33 12.5 -48t47.5 -15q25 0 41 5t30 10v273l-53 17v92l219 21l17 -8v-415l57 -16v-91l-217 -24l-16 7v58h-6q-27 -27 -66 -47t-95 -20z" />
    <glyph glyph-name="Uhungarumlaut" unicode="&#x170;" horiz-adv-x="718" 
d="M237 763l79 157l119 -70l-126 -127zM422 769l93 152l113 -80l-137 -117zM372 -12q-77 0 -133 16.5t-92 46.5t-53.5 73t-17.5 97v358l-65 17v97h331v-97l-63 -16v-345q0 -70 32 -98t88 -28q57 0 86.5 28t29.5 98v345l-63 16v97h255v-97l-61 -17v-345q0 -54 -15 -99
t-47.5 -77.5t-84.5 -51t-127 -18.5z" />
    <glyph glyph-name="uhungarumlaut" unicode="&#x171;" horiz-adv-x="633" 
d="M217 -12q-83 0 -118.5 39t-35.5 109v278l-56 17v92l223 21l16 -8v-347q0 -33 12.5 -48t47.5 -15q25 0 41 5t30 10v273l-53 17v92l219 21l17 -8v-415l57 -16v-91l-217 -24l-16 7v58h-6q-27 -27 -66 -47t-95 -20zM151 612l113 174l105 -79l-161 -137zM347 619l126 167
l99 -87l-170 -127z" />
    <glyph glyph-name="Uogonek" unicode="&#x172;" horiz-adv-x="718" 
d="M365 -12q-146 0 -217.5 63t-71.5 170v358l-65 17v97h331v-97l-63 -16v-345q0 -70 32 -98t88 -28q57 0 86.5 28t29.5 98v345l-63 16v97h255v-97l-61 -17v-345q0 -75 -27 -129t-90 -86q-18 -9 -34.5 -19.5t-29 -23t-20.5 -26.5t-8 -31t11 -25t29 -8q8 0 14.5 0.5t12.5 1.5
v-71q-14 -6 -35 -10t-50 -4q-66 0 -96 25t-30 61q0 33 21.5 57.5t59.5 41.5h-9v0z" />
    <glyph glyph-name="uogonek" unicode="&#x173;" horiz-adv-x="633" 
d="M429 -197q-66 0 -96 25t-30 61q0 33 21.5 58.5t59.5 44.5v63h-6q-27 -27 -66 -47t-95 -20q-83 0 -118.5 39t-35.5 109v278l-56 17v92l223 21l16 -8v-347q0 -33 12.5 -48t47.5 -15q25 0 41 5t30 10v273l-53 17v92l219 21l17 -8v-415l57 -16v-91l-123 -13q-24 -25 -36 -44
t-12 -38q0 -17 11.5 -25t28.5 -8q8 0 14.5 0.5t12.5 1.5v-71q-14 -6 -34.5 -10t-49.5 -4z" />
    <glyph glyph-name="Wcircumflex" unicode="&#x174;" horiz-adv-x="1010" 
d="M377 773l121 118h86l120 -118l-33 -51l-130 52l-130 -52zM62 579l-50 17v97h317v-97l-59 -17l76 -348h5l116 462h144l116 -448h5l73 334l-64 17v97h257v-97l-52 -17l-142 -579h-195l-100 412h-4l-103 -412h-195z" />
    <glyph glyph-name="wcircumflex" unicode="&#x175;" horiz-adv-x="848" 
d="M278 625l120 135h86l120 -135l-37 -50l-126 66l-127 -66zM46 429l-41 14v91h268v-91l-44 -12l56 -216h4l94 319h128l94 -319h4l55 216l-43 12v91h219v-91l-41 -14l-128 -429h-158l-87 300h-3l-90 -300h-159z" />
    <glyph glyph-name="Ycircumflex" unicode="&#x176;" horiz-adv-x="675" 
d="M170 97l73 17v164l-180 301l-53 17v97h318v-97l-53 -15l101 -187h4l97 187l-53 15v97h241v-97l-54 -17l-166 -296v-169l72 -17v-97h-347v97zM202 773l121 118h86l120 -118l-33 -51l-130 52l-130 -52z" />
    <glyph glyph-name="ycircumflex" unicode="&#x177;" horiz-adv-x="604" 
d="M173 -203q-26 0 -55 4.5t-45 11.5v115q31 -7 54 -7q32 0 54 10t33 38l15 39l-178 421l-46 14v91h287v-91l-49 -12l89 -240h4l78 240l-49 12v91h230v-91l-43 -14l-185 -485q-14 -37 -31 -64.5t-40 -46t-53 -27.5t-70 -9zM160 625l120 135h86l120 -135l-37 -50l-126 66
l-127 -66z" />
    <glyph glyph-name="Ydieresis" unicode="&#x178;" horiz-adv-x="675" 
d="M170 97l73 17v164l-180 301l-53 17v97h318v-97l-53 -15l101 -187h4l97 187l-53 15v97h241v-97l-54 -17l-166 -296v-169l72 -17v-97h-347v97zM261 727q-36 0 -62 21.5t-26 60.5q0 38 26 60t62 22q37 0 63.5 -22t26.5 -60q0 -39 -26.5 -60.5t-63.5 -21.5zM470 727
q-36 0 -62.5 21.5t-26.5 60.5q0 38 26.5 60t62.5 22q37 0 63 -22t26 -60q0 -39 -26 -60.5t-63 -21.5z" />
    <glyph glyph-name="Zacute" unicode="&#x179;" horiz-adv-x="600" 
d="M222 722l-28 78l218 104l50 -130zM18 119l332 455v4h-160l-42 -111h-118l12 226h538v-119l-332 -455v-4h175l46 130h115l-11 -245h-555v119z" />
    <glyph glyph-name="zacute" unicode="&#x17a;" horiz-adv-x="507" 
d="M134 652l212 120l59 -127l-239 -69zM18 97l254 331v4h-126l-27 -82h-92l10 184h443v-100l-245 -325v-4h126l33 93h95l-14 -198h-457v97z" />
    <glyph glyph-name="Zdotaccent" unicode="&#x17b;" horiz-adv-x="600" 
d="M18 119l332 455v4h-160l-42 -111h-118l12 226h538v-119l-332 -455v-4h175l46 130h115l-11 -245h-555v119zM312 725q-40 0 -69 24t-29 66t29 65.5t69 23.5q41 0 69.5 -23.5t28.5 -65.5t-28.5 -66t-69.5 -24z" />
    <glyph glyph-name="zdotaccent" unicode="&#x17c;" horiz-adv-x="507" 
d="M18 97l254 331v4h-126l-27 -82h-92l10 184h443v-100l-245 -325v-4h126l33 93h95l-14 -198h-457v97zM259 577q-40 0 -69 24t-29 66t29 65.5t69 23.5q41 0 69.5 -23.5t28.5 -65.5t-28.5 -66t-69.5 -24z" />
    <glyph glyph-name="florin" unicode="&#x192;" horiz-adv-x="494" 
d="M50 415h83l18 106q17 94 70.5 136.5t141.5 42.5q46 0 76.5 -7t47.5 -15v-110q-14 3 -26.5 5t-32.5 2q-40 0 -58.5 -16.5t-26.5 -59.5l-15 -84h102v-107h-121l-61 -342q-14 -80 -64 -114.5t-132 -34.5q-16 0 -32.5 2t-30.5 5t-24.5 6.5t-14.5 5.5v107q9 -2 19 -3t24 -1
q56 0 66 58l55 311h-64v107z" />
    <glyph glyph-name="Aringacute" unicode="&#x1fa;" horiz-adv-x="733" 
d="M7 97l56 17l210 579h191l205 -579l56 -17v-97h-341v97l67 17l-29 91h-189l-30 -91l68 -17v-97h-264v97zM263 301h129l-61 193h-5zM260 933l-28 78l218 104l50 -130zM364 772q22 0 34 13t12 36q0 21 -12 35t-34 14t-34.5 -14t-12.5 -35q0 -23 12.5 -36t34.5 -13zM364 710
q-26 0 -47 9t-37 24t-24.5 35t-8.5 43q0 22 8.5 42t24.5 35t37 24t47 9q25 0 46.5 -9t37 -24t24.5 -35t9 -42q0 -23 -9 -43t-24.5 -35t-37 -24t-46.5 -9z" />
    <glyph glyph-name="aringacute" unicode="&#x1fb;" horiz-adv-x="546" 
d="M170 -13q-36 0 -65 10.5t-50 30t-32 46.5t-11 59q0 39 13.5 66t38.5 45.5t61.5 30t81.5 19.5l93 18v26q0 40 -20 57t-80 17q-35 0 -72.5 -2.5t-64.5 -7.5v106q38 14 96.5 25.5t127.5 11.5q102 0 149 -42.5t47 -132.5v-238q0 -19 10.5 -25.5t25.5 -6.5h16v-87
q-14 -9 -44 -17t-63 -8q-44 0 -70.5 14.5t-37.5 47.5h-5q-20 -26 -57 -44.5t-88 -18.5zM248 93q17 0 30.5 6t21.5 14v115l-47 -2q-59 -4 -59 -67q0 -34 12.5 -50t41.5 -16zM273 634q22 0 34 13t12 36q0 21 -12 35t-34 14t-34.5 -14t-12.5 -35q0 -23 12.5 -36t34.5 -13z
M273 572q-26 0 -47 9t-37 24t-24.5 35t-8.5 43q0 22 8.5 42t24.5 35t37 23.5t47 8.5q25 0 46.5 -8.5t37 -23.5t24.5 -35t9 -42q0 -23 -9 -43t-24.5 -35t-37 -24t-46.5 -9zM166 797l-28 78l218 104l50 -130z" />
    <glyph glyph-name="AEacute" unicode="&#x1fc;" horiz-adv-x="999" 
d="M537 722l-28 78l218 104l50 -130zM286 97v-97h-279v97l56 18l299 473l-57 8v97h652l9 -210h-112l-35 99h-172v-176h57l17 65h90v-237h-90l-17 67h-57v-190h175l48 122h113l-10 -233h-594v97l69 17v84h-192l-49 -83zM448 295v225h-3l-132 -225h135z" />
    <glyph glyph-name="aeacute" unicode="&#x1fd;" horiz-adv-x="826" 
d="M309 652l212 120l59 -127l-239 -69zM181 -13q-81 0 -125 40.5t-44 105.5q0 39 13.5 66.5t38.5 46t61 30t82 19.5l93 18v25q0 40 -20 57t-80 17q-35 0 -72.5 -2.5t-64.5 -7.5v106q38 14 94 25.5t119 11.5q98 0 141 -49q60 49 152 49q60 0 105 -16.5t74.5 -53t44 -95
t14.5 -142.5h-321q8 -71 44 -98.5t100 -27.5q53 0 88 8t64 17v-97q-29 -20 -77 -36.5t-125 -16.5q-154 0 -225 89q-32 -43 -77.5 -66t-96.5 -23zM323 132q-10 21 -15.5 45.5t-7.5 53.5l-47 -4q-59 -3 -59 -68q0 -66 57 -66q17 0 34.5 9t37.5 30zM630 329q0 62 -19 85.5
t-48 23.5q-31 0 -51.5 -24t-25.5 -91z" />
    <glyph glyph-name="Oslashacute" unicode="&#x1fe;" horiz-adv-x="713" 
d="M256 722l-28 78l218 104l50 -130zM39 15l60 77q-37 44 -57.5 106t-20.5 144q0 95 28.5 163.5t75.5 113t108 65.5t127 21q105 0 183 -45l47 60l69 -51l-50 -64q39 -44 61 -106.5t22 -147.5q0 -95 -28 -163.5t-75 -112.5t-108 -65.5t-127 -21.5q-54 0 -102 12t-88 37
l-56 -72zM356 111q63 0 98 52.5t35 175.5q0 61 -6 105l-224 -287q16 -25 40 -35.5t57 -10.5zM224 355q0 -29 1 -53t3 -44l222 283q-17 23 -40 32.5t-53 9.5q-63 0 -98 -53t-35 -175z" />
    <glyph glyph-name="oslashacute" unicode="&#x1ff;" horiz-adv-x="585" 
d="M167 652l212 120l59 -127l-239 -69zM25 9l53 63q-62 71 -62 191q0 69 21.5 121.5t59 88.5t87.5 54t108 18q88 0 153 -34l44 53l64 -46l-46 -56q62 -71 62 -192q0 -69 -21.5 -121.5t-59 -88.5t-88 -54.5t-107.5 -18.5q-46 0 -84.5 9t-69.5 26l-50 -59zM294 96q20 0 37 7.5
t29 26t19 51t7 82.5q0 14 -0.5 27.5t-1.5 24.5l-159 -190q11 -17 28 -23t41 -6zM199 271q0 -15 0.5 -28t1.5 -24l159 190q-12 17 -29 23t-40 6q-20 0 -37 -7t-29 -25.5t-19 -51t-7 -83.5z" />
    <glyph glyph-name="Scommaaccent" unicode="&#x218;" horiz-adv-x="566" 
d="M187 -189q5 34 7 70.5t2 82.5h174q-5 -42 -16.5 -82t-32.5 -71h-134zM262 -12q-31 0 -63 2.5t-62 7t-56.5 10.5t-46.5 14l-10 188h124l25 -86q17 -8 36 -12t47 -4q47 0 70 19.5t23 51.5q0 34 -29.5 53t-80.5 37l-40 15q-41 14 -72.5 30.5t-53 40t-33 56t-11.5 78.5
q0 48 15 87.5t48 68.5t85 45t125 16q75 0 122.5 -9t76.5 -19l10 -171h-122l-19 66q-14 7 -31.5 11.5t-42.5 4.5q-38 0 -61 -15.5t-23 -45.5t24.5 -46.5t72.5 -33.5l41 -15q47 -16 83 -33t61 -40.5t37.5 -57t12.5 -83.5q0 -108 -71.5 -169.5t-210.5 -61.5z" />
    <glyph glyph-name="scommaaccent" unicode="&#x219;" horiz-adv-x="485" 
d="M154 -189q5 34 7 70.5t2 82.5h174q-5 -42 -16.5 -82t-32.5 -71h-134zM215 -13q-45 0 -95.5 8t-91.5 25l-9 146h113l20 -59q10 -5 28 -10.5t42 -5.5q32 0 51 12t19 35t-14.5 33t-49.5 19l-58 14q-75 17 -113.5 54t-38.5 109q0 39 14 72t43 56.5t74 37t107 13.5
q50 0 97.5 -7.5t79.5 -21.5v-139h-110l-13 53q-9 5 -23.5 9t-36.5 4q-29 0 -49 -9.5t-20 -32.5q0 -21 15.5 -32t56.5 -20l65 -15q81 -18 115 -58t34 -101q0 -42 -14.5 -77t-45 -60t-78 -38.5t-114.5 -13.5z" />
    <glyph glyph-name="uni0237" unicode="&#x237;" horiz-adv-x="306" 
d="M52 -198q-32 0 -55 5t-40 12v106q20 -4 45 -4q35 0 53 15t18 55v421l-63 16v93l229 23l17 -7v-543q0 -94 -47 -143t-157 -49z" />
    <glyph glyph-name="circumflex" unicode="&#x2c6;" 
d="M86 625l120 135h86l120 -135l-37 -50l-126 66l-127 -66z" />
    <glyph glyph-name="caron" unicode="&#x2c7;" 
d="M86 716l36 50l127 -65l126 65l37 -50l-120 -134h-86z" />
    <glyph glyph-name="breve" unicode="&#x2d8;" 
d="M254 585q-36 0 -65 11.5t-49.5 32t-32 47.5t-12.5 58h105q3 -18 17.5 -28.5t36.5 -10.5t36.5 10.5t17.5 28.5h104q-1 -31 -12.5 -58t-31.5 -47.5t-49 -32t-65 -11.5z" />
    <glyph glyph-name="dotaccent" unicode="&#x2d9;" 
d="M248 577q-40 0 -69 24t-29 66t29 65.5t69 23.5q41 0 69.5 -23.5t28.5 -65.5t-28.5 -66t-69.5 -24z" />
    <glyph glyph-name="ring" unicode="&#x2da;" 
d="M249 638q22 0 34 13t12 36q0 21 -12 35t-34 14t-34.5 -14t-12.5 -35q0 -23 12.5 -36t34.5 -13zM249 576q-26 0 -47 9t-37 24t-24.5 35t-8.5 43q0 22 8.5 42t24.5 35t37 23.5t47 8.5q25 0 46.5 -8.5t37 -23.5t24.5 -35t9 -42q0 -23 -9 -43t-24.5 -35t-37 -24t-46.5 -9z
" />
    <glyph glyph-name="ogonek" unicode="&#x2db;" horiz-adv-x="538" 
d="M262 -197q-67 0 -97 25t-30 61q0 38 28.5 66t78.5 45h85q-25 -26 -36.5 -43.5t-11.5 -37.5q0 -17 11 -25t29 -8q8 0 14.5 0.5t12.5 1.5v-71q-14 -6 -35 -10t-49 -4z" />
    <glyph glyph-name="tilde" unicode="&#x2dc;" 
d="M71 628q21 45 53.5 75.5t74.5 30.5q17 0 32 -4.5t28 -9.5t25 -9.5t23 -4.5q33 0 55 33l68 -46q-20 -45 -53 -75.5t-75 -30.5q-17 0 -32 4t-28 9.5t-25 9.5t-23 4q-33 0 -55 -32z" />
    <glyph glyph-name="hungarumlaut" unicode="&#x2dd;" 
d="M102 612l113 174l105 -79l-161 -137zM298 619l126 167l99 -87l-170 -127z" />
    <glyph glyph-name="uni10A0" unicode="&#x10a0;" horiz-adv-x="695" 
d="M365 744v-50q0 -61 141 -175.5t141 -225.5v-87q0 -69 -69.5 -147.5t-236.5 -78.5q-144 0 -218.5 75t-74.5 141v104q0 38 27 98h169q-32 -69 -32 -101v-96q0 -66 42 -105t87 -39q78 0 110.5 48.5t33.5 120.5v67q0 105 -134 224t-134 227h148z" />
    <glyph glyph-name="uni10A1" unicode="&#x10a1;" horiz-adv-x="695" 
d="M257 767v-38q156 0 187 -55t-23 -123q70 -9 148 -73.5t78 -182.5v-76q0 -100 -81.5 -169.5t-215.5 -69.5q-159 0 -230.5 69.5t-71.5 170.5v76q0 117 83.5 187.5t175.5 70.5q24 43 1.5 79.5t-115.5 37.5h-86l28 96h122zM212 296v-76q0 -84 39.5 -123.5t98.5 -39.5t97 39.5
t38 122.5v77q0 96 -44 145t-91 49q-57 0 -97.5 -49t-40.5 -145z" />
    <glyph glyph-name="uni10A2" unicode="&#x10a2;" horiz-adv-x="723" 
d="M343 748q104 0 166.5 -35t62.5 -80q0 -40 -37.5 -62.5t-108.5 -48.5v-23q84 -12 166 -66.5t82 -166.5v-66q0 -96 -91 -157.5t-227 -62.5q-127 1 -217.5 62.5t-90.5 158.5v65q0 99 70.5 150t139.5 83q66 27 109.5 57t43.5 60q0 26 -21 41.5t-47 15.5q-27 0 -64 -27
l-33 -49h-133l20 90q97 61 210 61zM512 199v66q0 91 -38 135t-109 45q-60 0 -106.5 -39t-46.5 -141v-65q0 -69 40.5 -106t100.5 -37q77 0 118 37t41 105z" />
    <glyph glyph-name="uni10A3" unicode="&#x10a3;" horiz-adv-x="1044" 
d="M788 -14h-219q0 57 -53 76.5t-198 68.5l-161 -136l-109 100l197 75q-63 34 -130 122t-67 178v57q0 105 68 161.5t188 56.5q90 0 167 -61q75 64 224 64q134 0 217.5 -66.5t83.5 -201.5v-40q0 -102 -80 -170.5t-205 -68.5q-143 0 -228 71t-85 169v39q0 88 30 139
q-42 49 -111 49q-48 0 -76.5 -38t-28.5 -102v-58q0 -102 63.5 -174.5t137.5 -99.5q93 -40 233.5 -85.5t141.5 -124.5zM834 440v40q0 98 -39 145t-93 47q-64 0 -101.5 -41.5t-37.5 -150.5v-39q0 -74 34 -120t109 -46q55 0 91.5 46t36.5 119z" />
    <glyph glyph-name="uni10A4" unicode="&#x10a4;" horiz-adv-x="695" 
d="M635 195q0 -123 -70.5 -169t-220.5 -46q-131 0 -213.5 45.5t-82.5 148.5v28q0 84 100 154h106q-42 -85 -42 -134v-48q0 -52 34 -84.5t100 -32.5q65 0 99 28t34 110v377q0 52 -34.5 76t-90.5 24q-53 0 -84 -17.5t-31 -43.5q0 -41 47 -41v-116q-168 8 -180 144
q0 65 63 107.5t197 42.5q120 0 194.5 -44t74.5 -133v-376z" />
    <glyph glyph-name="uni10A5" unicode="&#x10a5;" horiz-adv-x="707" 
d="M485 267q0 68 -32.5 94.5t-76.5 27.5h-46v72h51q61 0 76 31.5t15 78.5q0 46 -31 74.5t-95 28.5q-60 0 -94.5 -15t-34.5 -41q0 -47 47 -47v-96q-184 0 -187 139q3 46 64 90t205 44q145 0 216.5 -45.5t71.5 -120.5q0 -102 -151 -147q164 -65 164 -178v-84q0 -83 -70.5 -138
t-222.5 -55q-148 0 -227 50t-79 131v48q0 63 84 149h102q-24 -58 -24 -131v-49q0 -42 33 -82t113 -40q79 0 104 36.5t25 80.5v94z" />
    <glyph glyph-name="uni10A6" unicode="&#x10a6;" horiz-adv-x="695" 
d="M48 610q0 69 54 103.5t148 34.5q119 0 163.5 -41.5t44.5 -95.5q0 -46 -58 -94q58 -7 88 -20l65 150l123 -73l-141 -98q39 -28 75.5 -73t36.5 -120v-57q0 -117 -77 -181.5t-220 -64.5q-131 0 -216.5 65t-85.5 183v53q0 61 26 104t101 91q-127 51 -127 134zM485 227v55
q0 104 -40.5 134.5t-94.5 31.5q-64 -2 -101 -37.5t-37 -128.5v-55q0 -102 39.5 -136t98.5 -34q64 0 99.5 34t35.5 136zM332 600q-1 71 -80 72q-77 -1 -75 -62q1 -78 77 -78q78 0 78 68z" />
    <glyph glyph-name="uni10A7" unicode="&#x10a7;" horiz-adv-x="1056" 
d="M48 278v161q0 162 86.5 235.5t203.5 73.5q132 0 212 -78q74 74 177 74q146 0 213.5 -65t67.5 -189v-127q0 -197 -219 -312l165 16v-76h-255l1 78q145 81 145 296v125q0 101 -35.5 139.5t-88.5 38.5q-95 0 -129 -73q34 -43 34 -136v-181q0 -131 -77 -214.5t-211 -83.5
q-124 0 -207 83.5t-83 214.5zM211 439v-160q0 -111 32 -166.5t95 -55.5q70 0 104.5 56.5t34.5 164.5v181q0 127 -39 170t-100 43q-65 0 -96 -49t-31 -184z" />
    <glyph glyph-name="uni10A8" unicode="&#x10a8;" horiz-adv-x="674" 
d="M338 748q126 0 207 -68.5t81 -210.5v-149q0 -204 -147 -271l113 12v-71h-215v67q98 11 88 264v148q0 113 -33.5 158t-93.5 45q-50 0 -89 -45t-39 -158v-149q0 -85 24.5 -152.5t68.5 -67.5v-110h-71q-103 46 -143.5 125t-40.5 206v150q0 141 77.5 209t212.5 68z" />
    <glyph glyph-name="uni10A9" unicode="&#x10a9;" horiz-adv-x="700" 
d="M606 620q0 -98 -164 -139q209 -54 209 -182v-121q0 -92 -79.5 -145t-217.5 -53q-134 0 -220 51t-86 150v50q0 58 82 163h110q-28 -98 -28 -163v-49q0 -54 39 -89.5t102 -35.5q66 0 99 32t33 99v103q0 90 -45 122.5t-111 32.5l-50 -3l-6 72h66q121 0 121 70q0 60 -74 60
v103q71 0 145.5 -34t74.5 -94z" />
    <glyph glyph-name="uni10AA" unicode="&#x10aa;" horiz-adv-x="1141" 
d="M1092 515v-50q0 -132 -142 -229h-135q117 69 117 228v46q6 151 -60 151q-101 0 -101 -70v-127h38v-66h-191v66h39v125q0 83 -77 83q-84 0 -84 -83v-125h44v-66h-192l-2 66h40v125q0 72 -97 72q-84 0 -79 -126v-47q0 -134 124.5 -200.5t338.5 -132t222 -168.5h-181
q0 88 -322 174l-183 -129l-99 101l184 65q-51 13 -148.5 91.5t-97.5 200.5v46q0 114 69.5 158t168.5 44q114 0 154 -71q34 81 140 81q91 0 130 -81q39 71 162 71q95 0 157.5 -42.5t62.5 -180.5z" />
    <glyph glyph-name="uni10AB" unicode="&#x10ab;" horiz-adv-x="707" 
d="M210 310v-84q0 -75 56.5 -122t117.5 -47q55 0 81.5 38t26.5 110v247q-76 29 -111 29q-59 0 -115 -40.5t-56 -130.5zM492 603q0 25 -31 47t-80 22q-73 0 -104 -16l-37 -57h-139l11 93q125 56 253 56q133 0 207.5 -52.5t74.5 -114.5v-365q0 -106 -63.5 -171t-218.5 -65
q-169 0 -243 77.5t-74 158.5v95q0 104 87 173.5t260 69.5q29 0 97 -16v65z" />
    <glyph glyph-name="uni10AC" unicode="&#x10ac;" horiz-adv-x="709" 
d="M218 499q98 55 168 55q119 0 197 -64t78 -166v-73q0 -136 -87.5 -203.5t-222.5 -67.5q-123 0 -206.5 59.5t-83.5 157.5v423q0 128 193 128q69 0 182 -26l15 50h115l5 -114q-145 13 -270 13q-83 -2 -83 -71v-101zM497 251v48q0 83 -50.5 124.5t-137.5 42.5q-30 0 -91 -31
v-217q0 -61 28 -111t100 -50q67 0 109 45.5t42 148.5z" />
    <glyph glyph-name="uni10AD" unicode="&#x10ad;" horiz-adv-x="975" 
d="M927 483v-162q0 -199 -175 -276l131 2v-62h-267v72q150 18 150 264v162q0 109 -26.5 148.5t-92.5 39.5q-95 0 -95 -192v-124h44v-79h-205v79h38v124q0 192 -106 192q-54 0 -83.5 -40t-29.5 -148v-161q0 -118 45.5 -173.5t96.5 -55.5v-108h-81q-106 44 -164.5 115.5
t-58.5 221.5v161q0 138 70.5 201.5t204.5 63.5q130 0 169 -119q35 119 172 119q136 0 199.5 -63.5t63.5 -201.5z" />
    <glyph glyph-name="uni10AE" unicode="&#x10ae;" horiz-adv-x="695" 
d="M240 345q-30 -58 -30 -124v-34q0 -51 45.5 -90.5t103.5 -39.5q65 0 95.5 32.5t30.5 102.5v57q0 158 -155 158h-72v80h128q66 0 66 64q0 59 -135 73.5t-135 88.5v35h174v-35q0 -39 131.5 -57.5t131.5 -93.5q0 -89 -194 -112q222 -50 222 -200v-58q0 -109 -76 -160.5
t-209 -51.5q-154 0 -234 55t-80 140v46q0 65 98 124h94z" />
    <glyph glyph-name="uni10AF" unicode="&#x10af;" horiz-adv-x="707" 
d="M240 336q-30 -63 -30 -130v-30q0 -60 43 -89.5t101 -29.5q65 0 98 52t33 120v418q-74 -9 -216 -8q155 -31 155 -116q0 -127 -250 -127h-92v151q70 -68 115 -68q71 0 71 55q0 73 -53.5 88.5t-125.5 5.5l-1 91q163 -6 308 -0.5t145 35.5h106v-508q0 -134 -66 -200.5
t-225 -65.5q-138 0 -223 45t-85 142v38q0 70 99 131h93z" />
    <glyph glyph-name="uni10B0" unicode="&#x10b0;" horiz-adv-x="978" 
d="M930 336v-62q0 -164 -158 -222l134 -14v-53h-279v81q140 12 140 214v58q12 142 -105 142q-109 0 -109 -139v-71h35v-62h-186v62h29v71q0 139 -115 139q-50 0 -78 -38t-28 -111v-68q0 -95 38 -129.5t98 -34.5v-114h-77q-64 12 -142.5 80.5t-78.5 200.5v86q0 250 262 321
q178 50 178 70h234q0 -100 -326 -131q-196 -30 -235 -107q72 49 156 49q138 0 178 -99q34 99 187 99q117 0 182.5 -62t65.5 -156z" />
    <glyph glyph-name="uni10B1" unicode="&#x10b1;" horiz-adv-x="732" 
d="M683 281v-49q0 -133 -88 -192.5t-221 -59.5q-156 0 -228 58.5t-72 151.5v394q0 101 -41 101l-85 -15v73h94q191 0 191 -131v-411q0 -55 31.5 -99.5t109.5 -44.5q50 0 97.5 35.5t47.5 140.5v48q0 93 -90.5 150t-64.5 135l46 85l127 -34l-42 -69q-25 -47 81.5 -107.5
t106.5 -159.5z" />
    <glyph glyph-name="uni10B2" unicode="&#x10b2;" horiz-adv-x="807" 
d="M469 311h-143l35 382l-37 55h131l-11 -39q315 -73 315 -315v-100q0 -164 -97 -239t-256 -75q-168 0 -263 77t-95 238v99q0 209 203 280l-154 -37l-28 78l229 -20v-79q-88 -27 -88 -206v-100q0 -142 53.5 -197.5t145.5 -55.5q79 0 133 56t54 197v101q0 201 -152 213z" />
    <glyph glyph-name="uni10B3" unicode="&#x10b3;" horiz-adv-x="695" 
d="M491 619q0 54 -45 54q-51 0 -51 -42v-105h36v-58h-174v58h37v104q0 43 -37 43q-35 0 -65 -16.5t-61 -16.5q-54 0 -83.5 18t-29.5 76v19h130l-3 -19q0 -25 23 -25q26 0 44.5 19.5t63.5 19.5q42 0 68 -65q34 65 117 65q105 0 145.5 -45t40.5 -129v-365q0 -102 -60 -167
t-237 -62q-149 0 -226 56t-77 151v56q0 81 104 165h99q-41 -87 -41 -162v-57q0 -62 41 -97t92 -35q77 0 113 34.5t36 117.5v410z" />
    <glyph glyph-name="uni10B4" unicode="&#x10b4;" horiz-adv-x="980" 
d="M36 470v50q0 106 73.5 167t210.5 61q138 0 202 -64q92 59 169 59q134 0 187.5 -50.5t53.5 -108.5v-60q0 -105 -147 -162q136 -42 134 -137v-61q0 -85 -92 -134.5t-277 -49.5q-170 0 -252.5 44.5t-83.5 88.5q1 57 99 103h57v-72q0 -37 64 -62t128 -25q103 0 148.5 40.5
t45.5 86.5v41q0 106 -56 106h-63v70h63q70 0 70 124v59q0 32 -26.5 57t-65.5 25q-74 0 -110 -29q28 -40 28 -117v-50q0 -99 -76.5 -156t-197.5 -57q-135 0 -210.5 57t-75.5 156zM198 520v-50q0 -70 40 -103.5t82 -33.5q54 0 85 33.5t31 103.5v50q0 89 -32.5 120.5
t-83.5 31.5q-63 0 -92.5 -31.5t-29.5 -120.5z" />
    <glyph glyph-name="uni10B5" unicode="&#x10b5;" horiz-adv-x="707" 
d="M647 189q0 -95 -74.5 -152t-224.5 -57q-151 0 -225.5 47.5t-74.5 133.5v27q0 56 97 134h107q-40 -58 -40 -121v-40q0 -46 35 -75t101 -29q90 10 116.5 34t26.5 98v361q-59 31 -164 31q-44 0 -67 -13t-23 -41q0 -42 40 -42h21v-103h-35q-54 0 -103.5 26t-49.5 114
q0 74 62 102t130 28q109 0 189 -37v72l-126 -8l-38 64h320v-554z" />
    <glyph glyph-name="uni10B6" unicode="&#x10b6;" horiz-adv-x="922" 
d="M466 649q50 99 163 99q121 0 182.5 -40.5t61.5 -146.5v-59q0 -139 -132 -248h-118q90 100 90 234v73q0 59 -21.5 85t-68.5 26q-40 0 -67.5 -23.5t-27.5 -117.5v-91h42v-48h-199v48h40v91q0 86 -31 113.5t-86 27.5q-36 0 -60 -29t-24 -119v-31q0 -121 90.5 -196
t259.5 -146t168 -163h-187q0 45 -60.5 91t-156.5 86l-173 -150l-92 89l209 92q-89 42 -154.5 116.5t-65.5 181.5v35q0 127 62.5 173t183.5 46q115 0 172 -99z" />
    <glyph glyph-name="uni10B7" unicode="&#x10b7;" horiz-adv-x="707" 
d="M647 742v-530q0 -113 -71.5 -172.5t-221.5 -59.5q-154 0 -230 49t-76 150v37q0 51 75 121h98q-11 -53 -11 -120v-39q0 -58 39.5 -89.5t104.5 -31.5q76 0 107 42t31 113v248q-73 -70 -173 -68q-102 0 -166 45.5t-64 137.5v38q0 69 89 130h144q-73 -65 -73 -129v-39
q0 -44 17 -74.5t88 -30.5q73 0 138 81v191h155z" />
    <glyph glyph-name="uni10B8" unicode="&#x10b8;" horiz-adv-x="719" 
d="M503 449q-76 32 -100 32q-90 0 -134.5 -53t-44.5 -143v-45q0 -78 43.5 -130.5t105.5 -52.5q51 0 90.5 22.5t39.5 126.5v243zM222 673q-42 0 -61 -11l-17 -70h-123l-9 85q104 71 225 71q62 0 94 -64q93 64 184 64q76 0 110 -35.5t34 -117.5v-405q0 -112 -82 -161t-206 -49
q-145 0 -227 57t-82 198v51q0 138 90 203t239 65q42 0 112 -13v97q0 35 -53 35q-55 0 -91 -21v-30h30v-42h-151v43h31v20q0 30 -47 30z" />
    <glyph glyph-name="uni10B9" unicode="&#x10b9;" horiz-adv-x="710" 
d="M350 -13q146 139 146 304v51q0 67 -42.5 95t-100.5 28q-79 0 -132 -29l3 -439h-157l-6 569q0 95 59 138.5t175 43.5q92 0 142 -23.5t50 -74.5q0 -35 -49 -64l-63 2v51q0 34 -71 34q-31 0 -58.5 -20.5t-27.5 -88.5v-67q76 56 178 56q144 0 204.5 -53.5t60.5 -163.5v-50
q0 -151 -186 -299h-125z" />
    <glyph glyph-name="uni10BA" unicode="&#x10ba;" horiz-adv-x="739" 
d="M685 291v-72q0 -125 -85 -182t-211 -57q-177 0 -255.5 74t-78.5 227v157q0 158 87 207l-87 -2v96l118 -43l10 41h95v-80q-59 -16 -60 -194v-195q0 -112 43 -161.5t119 -49.5q46 0 95 29.5t49 132.5v70q0 78 -30.5 113t-91.5 35h-47v72h73q59 0 59 80q0 46 -64 59t-64 95
h124q0 -55 83.5 -74.5t83.5 -90.5q0 -83 -140 -110q175 -26 175 -177z" />
    <glyph glyph-name="uni10BB" unicode="&#x10bb;" horiz-adv-x="707" 
d="M492 451q-83 29 -115 29q-88 0 -127.5 -49t-39.5 -135v-49q0 -62 44.5 -126t110.5 -64q41 -1 84 22.5t43 125.5v246zM356 658l3 85h102q75 0 130.5 -46t55.5 -129v-358q0 -106 -70.5 -168t-224.5 -62q-166 0 -235 74.5t-69 196.5v56q0 121 86.5 184t271.5 63q16 0 86 -19
v55q0 39 -8 61t-36 22z" />
    <glyph glyph-name="uni10BC" unicode="&#x10bc;" horiz-adv-x="719" 
d="M218 199q0 -87 39 -114.5t91 -27.5q68 0 108 45t40 122v67q0 74 -50.5 124t-104.5 50q-48 0 -123 -35v-231zM521 672q-71 0 -71 -29v-10h33v-43h-153v42h32v20q-36 20 -93 20q-51 0 -51 -34v-137q69 52 165 52t185.5 -54.5t89.5 -171.5v-79q0 -131 -81.5 -199.5
t-226.5 -68.5q-124 0 -206.5 49t-82.5 181v385q0 82 34.5 117.5t110.5 35.5q90 0 182 -64q33 64 96 64q121 0 223 -71l-17 -95h-124l-7 80q-19 10 -38 10z" />
    <glyph glyph-name="uni10BD" unicode="&#x10bd;" horiz-adv-x="695" 
d="M268 525v23q-15 34 -39 34q-41 0 -41 -49q-1 -48 34 -49q31 1 46 41zM244 356q-34 -70 -34 -139v-38q0 -66 45 -94t87 -28q61 0 102 31.5t41 100.5v32q0 61 -92 124.5t-91 120.5l12 63q-25 -17 -44 -55.5t-64 -38.5q-155 0 -155 97q0 98 155 98q47 0 65 -33t43 -45
q25 75 5 146l-116 -16v58l145 12h46q88 -80 24 -182l162 102l39 -84l-201 -34v-19l201 -40l-39 -88l-162 110l7 -44q1 -54 111.5 -109t110.5 -143v-40q0 -88 -82.5 -144.5t-212.5 -56.5q-143 0 -223.5 55.5t-80.5 142.5v39q0 74 89 139h107z" />
    <glyph glyph-name="uni10BE" unicode="&#x10be;" horiz-adv-x="743" 
d="M377 553q85 0 105 -3l61 162l143 -90l-156 -91q95 -45 117.5 -98t22.5 -130v-47q0 -147 -88.5 -211.5t-247.5 -64.5q-122 0 -191 54t-69 156v432q0 50 -21 51l-89 -15l1 85h109q92 0 124.5 -29.5t32.5 -110.5v-102q68 52 146 52zM356 465q-87 0 -125 -24v-232
q0 -83 36.5 -117.5t105.5 -34.5q51 0 93.5 33.5t42.5 165.5v49q0 82 -53 121t-100 39z" />
    <glyph glyph-name="uni10BF" unicode="&#x10bf;" horiz-adv-x="825" 
d="M800 230q0 -115 -211 -115q-131 0 -272 261q-76 -30 -153 -77q235 -46 237 -186q-4 -144 -190 -148q-206 4 -211 117v52l174 1v-53q5 -28 59 -32q36 4 41 64q10 56 -62.5 91.5t-119.5 23.5l-44 74q89 114 225 163q-51 205 -98 205q-25 0 -25 -28l13 -63l-139 -4l-6 67
q0 99 184 99q147 0 242 -218q186 43 198 84q0 54 -48 44l-76 -41l-26 109l93 29q169 0 169 -125q12 -120 -270 -192q85 -237 142 -237q34 0 34 24l-9 75l113 20z" />
    <glyph glyph-name="uni10C0" unicode="&#x10c0;" horiz-adv-x="690" 
d="M217 323q-11 -72 -11 -137q0 -76 44.5 -102.5t99.5 -26.5q66 0 98 35.5t32 80.5q0 129 -109 129h-16v-33h-75v112h76v-22h15q76 -5 76 64q0 74 -72 69h-26v-29h-81v111h78v-28h31q39 -5 39 50q2 73 -227 73v75q393 0 396 -129q0 -60 -133 -94q165 -24 165 -93
q0 -70 -171 -97q195 -54 195 -160q0 -84 -72.5 -137.5t-218.5 -53.5q-129 0 -218.5 45.5t-89.5 150.5q0 62 81 147h94z" />
    <glyph glyph-name="uni10C1" unicode="&#x10c1;" horiz-adv-x="710" 
d="M232 748q-14 -45 -14 -118v-434q0 -72 31 -105.5t101 -33.5q83 0 115 33.5t32 73.5q0 126 -71 126h-22v-32h-77v108h79v-21h20q38 -5 38 71q0 81 -56 76h-13v-29h-79v108h76v-27h18q26 -4 26 49q0 54 -43 75q-45 19 -45 77h93q0 -38 85 -59q79 -23 79 -81q0 -53 -133 -85
q165 -23 165 -99q0 -78 -174 -103q198 -52 198 -165q0 -67 -73 -120t-238 -53q-157 0 -223 53t-66 158v376q0 89 73 181h98z" />
    <glyph glyph-name="uni10C2" unicode="&#x10c2;" horiz-adv-x="683" 
d="M342 748q134 0 216.5 -62.5t82.5 -197.5v-108q0 -251 -572 -448v126q411 42 411 321v89q0 120 -38.5 162t-99.5 42q-49 0 -93 -42t-44 -162v-88q0 -280 410 -323v-125q-573 197 -573 448v108q0 136 83 198t217 62z" />
    <glyph glyph-name="uni10C3" unicode="&#x10c3;" horiz-adv-x="695" 
d="M485 303q0 88 -32.5 111t-76.5 24h-58v76h63q61 0 82.5 40t21.5 106l-246 -1v-90h-140v164l548 5q0 -213 -166 -261q166 -72 166 -184v-119q0 -84 -70 -139t-222 -55q-150 0 -228.5 50t-78.5 164v40q0 74 84 160h102q-24 -58 -24 -145v-46q0 -63 39 -104.5t110 -41.5
q74 0 100 38t26 78v130z" />
    <glyph glyph-name="uni10C4" unicode="&#x10c4;" horiz-adv-x="695" 
d="M239 339q-29 -56 -29 -137v-23q0 -48 45.5 -85t103.5 -37q65 0 95.5 39.5t30.5 105.5v20q0 158 -154 158h-49v71h68q80 0 80 52q0 42 -124 54t-124 101q1 85 287 85v-71q-138 0 -139 -27q0 -25 132 -50t132 -84q0 -68 -142 -87q195 -40 195 -208v-22q0 -105 -76 -159.5
t-209 -54.5q-153 0 -233.5 49.5t-80.5 151.5v19q0 83 97 139h94z" />
    <glyph glyph-name="uni10C5" unicode="&#x10c5;" horiz-adv-x="729" 
d="M717 468q-236 -27 -380 -27q-133 0 -211 45.5t-78 115.5q0 72 76 109t228 37q166 0 233 -49.5t67 -106.5v-421q0 -94 -67 -142.5t-208 -48.5q-175 0 -252 53t-77 154q0 79 78 129.5t211 50.5q144 0 380 -71v-82q-226 84 -363 83q-46 0 -95 -21t-49 -88q0 -53 44 -92
t127 -39q47 0 78.5 30.5t31.5 109.5v367q0 42 -31.5 75t-105.5 33q-59 0 -101.5 -20t-42.5 -51q0 -60 49 -76.5t95 -16.5q133 0 363 12v-52z" />
    <glyph glyph-name="uni10D0" unicode="&#x10d0;" horiz-adv-x="618" 
d="M337 551v-41q0 -65 119.5 -132.5t119.5 -183.5q0 -91 -77 -149t-195 -58q-106 0 -184 63t-78 134q0 63 25 107h157q-30 -51 -30 -104q0 -49 25.5 -87.5t84.5 -38.5q79 0 100 33.5t21 101.5q0 110 -125 190.5t-125 164.5h162z" />
    <glyph glyph-name="uni10D1" unicode="&#x10d1;" horiz-adv-x="630" 
d="M42 255q0 115 76 191t159 76q21 53 -11 88.5t-92 36.5h-78l25 126h125v-88q106 0 141 -43.5t-15 -122.5q72 -9 144 -79t72 -185q0 -118 -85 -193t-187 -75q-121 0 -197.5 75t-76.5 193zM183 255q0 -91 35 -142.5t98 -51.5q67 0 100 51.5t33 142.5q0 96 -33 144t-100 48
q-85 0 -109 -48t-24 -144z" />
    <glyph glyph-name="uni10D2" unicode="&#x10d2;" horiz-adv-x="653" 
d="M320 530q96 0 153 -32t57 -95q0 -40 -34 -68.5t-125 -61.5q66 -5 149 -72t83 -184q0 -94 -84 -158.5t-197 -65.5q-116 1 -193.5 65.5t-77.5 158.5q0 114 66 174t125 82.5t104 53t45 53.5q0 67 -51 67q-66 0 -87 -26l-11 -66h-123l29 116q63 59 172 59zM452 22
q0 85 -28.5 132.5t-92.5 48.5q-53 0 -90.5 -43t-37.5 -138q0 -61 20 -107t96 -46q80 0 106.5 46t26.5 107z" />
    <glyph glyph-name="uni10D3" unicode="&#x10d3;" horiz-adv-x="950" 
d="M754 -197h-183q0 53 -75 76.5t-207 79.5l-116 -140l-100 83l173 81q-83 45 -143.5 118.5t-60.5 185.5q0 108 67.5 167.5t166.5 59.5q80 0 152 -69q79 79 206 79q121 0 197.5 -76.5t76.5 -183.5q0 -109 -79 -183t-182 -74q-119 0 -202 76.5t-83 181.5q0 89 38 126
q-49 46 -99 46q-55 0 -80.5 -47t-25.5 -103q0 -122 58 -191t124 -95q86 -37 230.5 -80t146.5 -118zM756 263q0 67 -22.5 125.5t-93.5 58.5q-82 0 -103.5 -53.5t-21.5 -128.5q0 -68 19 -125.5t109 -57.5q72 0 92.5 57.5t20.5 123.5z" />
    <glyph glyph-name="uni10D4" unicode="&#x10d4;" horiz-adv-x="613" 
d="M564 19q0 -117 -63 -171t-190 -54q-113 0 -196.5 53t-83.5 161q0 59 100 134h65q-13 -89 -13 -131q0 -50 27.5 -96t101.5 -46q50 0 75.5 41.5t25.5 108.5v309q0 60 -18 90t-88 30q-61 0 -82 -19t-21 -46q1 -48 62 -48v-113q-186 1 -186 158q0 62 63 103t176 41
q102 0 173.5 -56.5t71.5 -141.5v-307z" />
    <glyph glyph-name="uni10D5" unicode="&#x10d5;" horiz-adv-x="618" 
d="M425 34q0 65 -28 96.5t-68 32.5h-29v64h34q30 0 54.5 27t24.5 91q0 99 -112 102q-124 0 -123 -66q0 -46 39 -46v-113q-159 0 -160 145q1 63 62 110t182 47t192 -48.5t71 -120.5q0 -98 -137 -160q149 -82 149 -171v-35q0 -80 -69.5 -137.5t-196.5 -57.5
q-126 0 -202.5 57.5t-76.5 135.5q0 71 76 154h97q-22 -56 -22 -130q0 -44 28 -93t102 -49q69 0 91 41t22 78v46z" />
    <glyph glyph-name="uni10D6" unicode="&#x10d6;" horiz-adv-x="630" 
d="M42 600q0 79 54.5 113.5t129.5 34.5q97 0 143 -41.5t46 -105.5q0 -46 -52 -94q52 -7 80 -20l70 122l89 -85l-123 -55q43 -31 76 -86t33 -128q0 -119 -76 -193.5t-196 -74.5q-108 0 -191 75t-83 193q0 57 24 110t92 101q-116 41 -116 134zM437 255q0 101 -24.5 151.5
t-96.5 51.5q-79 -2 -100 -57.5t-21 -145.5q0 -85 29 -139t92 -54q70 0 95.5 54t25.5 139zM287 590q1 82 -57 82q-57 0 -57 -85q0 -75 57 -75t57 78z" />
    <glyph glyph-name="uni10D7" unicode="&#x10d7;" horiz-adv-x="978" 
d="M42 257q0 121 84 194t190 73q120 0 202 -83q78 73 162 73q122 0 188.5 -60t66.5 -173q0 -104 -167 -218l99 -9v-59h-218l1 68q135 60 135 218q0 105 -39.5 130.5t-81.5 25.5q-66 0 -118 -32q42 -69 42 -150q0 -113 -75.5 -190.5t-196.5 -77.5q-110 0 -192 77.5t-82 192.5
zM195 256q0 -85 27.5 -139.5t93.5 -54.5q72 0 96.5 55t24.5 138q0 93 -34 142.5t-87 49.5q-67 0 -94 -49.5t-27 -141.5z" />
    <glyph glyph-name="uni10D8" unicode="&#x10d8;" horiz-adv-x="630" 
d="M316 524q111 0 191.5 -68t80.5 -179q0 -156 -144 -215l104 -7v-55h-185v81q74 8 74 195q0 68 -21.5 119.5t-99.5 51.5q-67 0 -94.5 -51.5t-27.5 -111.5q0 -79 20 -124.5t51 -45.5v-114h-47q-85 42 -130.5 109.5t-45.5 168.5q0 111 81.5 178.5t192.5 67.5z" />
    <glyph glyph-name="uni10D9" unicode="&#x10d9;" horiz-adv-x="606" 
d="M535 363q0 -113 -137 -145q166 -79 166 -182v-33q0 -97 -76.5 -153t-183.5 -56q-109 0 -191 54t-82 161q0 65 83 147h82q-14 -76 -14 -149q0 -66 26 -102t94 -36q65 0 88 35.5t23 108.5v34q0 68 -28.5 106t-82.5 38l-45 -3l-5 63h59q89 0 89 98q0 66 -90 66v109
q103 0 164 -52t61 -109z" />
    <glyph glyph-name="uni10DA" unicode="&#x10da;" horiz-adv-x="1048" 
d="M1005 323q0 -115 -130 -225h-127q108 83 108 215q0 124 -78 124q-73 0 -73 -62v-80h35v-59h-170v59h35v79q0 73 -74 73q-77 0 -77 -73v-79h40v-59h-174l-1 59h37v79q0 63 -80 63q-82 0 -82 -123q0 -134 126 -196.5t313 -119.5t194 -192h-160q0 121 -291 195l-145 -124
l-95 96l183 48q-82 26 -179.5 104t-97.5 184q0 104 66.5 154.5t152.5 50.5q106 0 143 -70q32 80 127 80q86 0 121 -80q35 70 150 70q82 0 142.5 -49t60.5 -142z" />
    <glyph glyph-name="uni10DB" unicode="&#x10db;" horiz-adv-x="649" 
d="M194 255q0 -96 32 -144.5t120 -48.5q46 0 68.5 24t22.5 107v229q-27 29 -91 29q-88 0 -120 -50.5t-32 -145.5zM437 573q0 35 -13 67t-78 32q-53 0 -93 -15l-34 -88h-130l10 123q125 56 232 56q111 0 184 -52.5t73 -144.5v-358q0 -76 -68 -141t-189 -65q-151 0 -220 70.5
t-69 195.5q0 112 79.5 191.5t237.5 79.5q59 0 78 -16v65z" />
    <glyph glyph-name="uni10DC" unicode="&#x10dc;" horiz-adv-x="649" 
d="M207 469q55 55 148 55q124 0 188 -62.5t63 -186.5q0 -133 -84 -210.5t-226 -77.5q-88 0 -161 49t-74 148v398q0 149 214 149h26q26 0 98 -18l16 60h107l5 -124q-132 13 -236 13q-84 -2 -84 -80v-113zM455 275q0 55 -25.5 108t-121.5 53q-58 0 -101 -26v-219q0 -59 26 -94
t86 -35q85 0 110.5 55.5t25.5 157.5z" />
    <glyph glyph-name="uni10DD" unicode="&#x10dd;" horiz-adv-x="911" 
d="M869 286q0 -163 -159 -214l119 -21v-51h-247v81q136 43 136 202q0 89 -23.5 126.5t-81.5 37.5q-103 0 -103 -123v-45h41v-61h-179v61h35v45q0 123 -112 123q-46 0 -73.5 -38t-27.5 -126q0 -83 30.5 -125.5t101.5 -42.5v-115h-65q-100 34 -159.5 105t-59.5 174
q0 113 71 179t182 66q130 0 165 -98q33 98 167 98q114 0 178 -66t64 -172z" />
    <glyph glyph-name="uni10DE" unicode="&#x10de;" horiz-adv-x="630" 
d="M219 346q-25 -69 -25 -139q0 -66 28.5 -105.5t89.5 -39.5q71 0 98 37.5t27 125.5q0 197 -137 197h-67v65h80q73 -1 73 75q0 68 -108 77.5t-108 93.5v15h173v-15q0 -39 98.5 -57.5t98.5 -103.5q0 -89 -155 -113q203 -69 203 -229q0 -120 -75 -181.5t-185 -61.5
q-128 0 -207 55t-79 133q0 101 89 171h88z" />
    <glyph glyph-name="uni10DF" unicode="&#x10df;" horiz-adv-x="625" 
d="M207 95q-25 -70 -25 -135q0 -35 26 -63t102 -28q79 0 97 50t18 103v427q-64 -30 -216 -33q152 -25 152 -116q0 -131 -216 -131h-111v118q64 -38 132 -38q51 0 51 53q0 60 -55.5 74.5t-121.5 5.5l-2 97q177 -6 307 14.5t130 38.5h101v-494q0 -128 -66 -186.5t-198 -57.5
q-116 0 -198.5 52t-82.5 116q0 65 90 133h86z" />
    <glyph glyph-name="uni10E0" unicode="&#x10e0;" horiz-adv-x="893" 
d="M850 274q0 -129 -144 -207l123 -14v-53h-246v81q117 32 117 199t-94 167q-105 0 -105 -136v-36h32v-52h-162v52h27v36q0 136 -111 136q-67 0 -80 -46.5t-13 -119.5q0 -78 16.5 -122.5t96.5 -44.5v-114h-62q-60 12 -131.5 90.5t-71.5 185.5q0 296 216 360q197 77 197 112
h183q0 -85 -298 -153q-155 -45 -189 -118q58 47 137 47q128 0 163 -122q32 122 172 122q96 0 161.5 -72t65.5 -178z" />
    <glyph glyph-name="uni10E1" unicode="&#x10e1;" horiz-adv-x="670" 
d="M628 261q0 -136 -84 -205t-215 -69q-108 0 -177.5 58t-69.5 151v374q0 105 -36 105l-77 -15v83h86q174 0 174 -135v-406q0 -52 16 -96t84 -44q89 0 118 45t29 154q0 90 -80.5 127t-56.5 115l41 84l117 -34l-37 -68q-24 -47 72 -87t96 -137z" />
    <glyph glyph-name="uni10E2" unicode="&#x10e2;" horiz-adv-x="730" 
d="M422 107h-126l27 387l-34 138h126l-29 -120q315 -140 315 -381q0 -136 -90 -236.5t-228 -100.5q-149 0 -250.5 103t-101.5 236q0 196 174 314l-131 -63l-24 91l169 22h54l-1 -60q-87 -101 -87 -276q0 -137 45.5 -214.5t155.5 -77.5q97 0 128.5 78.5t31.5 204.5
q0 216 -160 302z" />
    <glyph glyph-name="uni10E3" unicode="&#x10e3;" horiz-adv-x="628" 
d="M428 356q0 91 -44 91q-50 0 -50 -79v-45h43v-58h-171v58h44v43q0 81 -37 81q-31 0 -53.5 -19.5t-60.5 -19.5q-40 0 -73 22t-33 80v39h128l-15 -39q0 -25 29 -25q23 0 33.5 19.5t50.5 19.5q48 0 74 -73q31 73 106 73q107 0 144 -45t37 -129v-337q0 -92 -61.5 -155.5
t-210.5 -63.5q-124 0 -199 66t-75 168q0 79 83 144h91q-23 -67 -23 -151q0 -62 24.5 -107t92.5 -45q92 0 109 34.5t17 109.5v343z" />
    <glyph glyph-name="uni10E4" unicode="&#x10e4;" horiz-adv-x="905" 
d="M42 303q0 85 72.5 153t187.5 68q116 0 185 -71q73 51 154 51q120 0 170.5 -48.5t50.5 -105.5q0 -122 -136 -182q128 -54 124 -146v-29q0 -101 -96 -150t-234 -49q-122 0 -214 44t-93 106q1 45 90 89h55v-79q0 -44 51 -64.5t123 -20.5q82 0 125 31t43 93v29q0 121 -50 121
h-57v58h57q62 0 62 147q0 46 -14.5 72.5t-68.5 26.5q-44 4 -98 -48q24 -42 24 -100q0 -99 -75.5 -163t-175.5 -64q-111 0 -186.5 64t-75.5 167zM194 299q0 -64 24 -108t84 -44q72 0 88 44t16 108t-17.5 106t-86.5 42q-80 0 -94 -42t-14 -106z" />
    <glyph glyph-name="uni10E5" unicode="&#x10e5;" horiz-adv-x="625" 
d="M564 22q0 -98 -71.5 -163t-194.5 -65q-125 0 -196 53t-71 140q0 79 83 155h98q-30 -62 -30 -142q0 -62 29 -96.5t87 -34.5q69 0 92 45.5t23 107.5v386q-41 39 -135 39q-38 0 -52 -16.5t-14 -37.5q0 -53 37 -53h26v-96h-43q-59 0 -102.5 32.5t-43.5 102.5q0 75 55.5 110
t114.5 35q97 0 157 -47v212l-106 -52l-33 71l227 40h63v-726z" />
    <glyph glyph-name="uni10E6" unicode="&#x10e6;" horiz-adv-x="844" 
d="M418 441q33 83 158 83q100 0 162.5 -47.5t62.5 -140.5q0 -139 -101 -238h-112q63 100 63 208q0 90 -25 115.5t-67 25.5q-86 0 -89 -90v-71h38v-60h-174v60h38v71q0 90 -88 90q-56 0 -73 -26t-17 -99q0 -134 83 -200.5t222 -138t138 -177.5h-164q0 80 -55.5 128t-140.5 76
l-137 -116l-85 94l173 50q-66 32 -126 107.5t-60 173.5q0 105 57.5 155t161.5 50t157 -83z" />
    <glyph glyph-name="uni10E7" unicode="&#x10e7;" horiz-adv-x="625" 
d="M576 511v-505q0 -107 -70.5 -159.5t-195.5 -52.5q-131 0 -205 47.5t-74 113.5q0 56 68 122h92q-9 -50 -9 -111q0 -34 23 -65.5t105 -31.5q65 0 90 36.5t25 100.5v168q-47 -66 -148 -64q-83 0 -146 52.5t-63 148.5q0 111 123 201h114q-89 -94 -89 -199q0 -128 94 -128
q76 0 115 76v250h151z" />
    <glyph glyph-name="uni10E8" unicode="&#x10e8;" horiz-adv-x="658" 
d="M451 406q-32 41 -88 41q-79 0 -119 -61t-40 -131q0 -90 41.5 -142t91.5 -52q59 1 86.5 30t27.5 116v199zM177 672q-26 0 -44 -30l-15 -80h-116l-9 115q107 71 217 71q57 0 89 -64q82 64 165 64q71 0 102 -35.5t31 -117.5v-385q0 -105 -69 -164t-194 -59q-122 0 -202 63.5
t-80 204.5q0 119 82.5 194t217.5 75q49 0 99 -22v135q0 35 -44 35q-40 0 -84 -40v-20h40v-32h-163v33h41v10q0 49 -64 49z" />
    <glyph glyph-name="uni10E9" unicode="&#x10e9;" horiz-adv-x="649" 
d="M319 -10q136 121 136 279q0 80 -32 129t-96 49q-73 0 -120 -29v-418h-146v567q0 94 59.5 137.5t153.5 43.5q82 0 128.5 -23.5t46.5 -74.5q0 -44 -71 -83l-36 2v50q0 53 -60 53q-51 0 -63 -30t-12 -77v-97q66 56 158 56q131 0 186 -68.5t55 -177.5q0 -160 -168 -288h-119z
" />
    <glyph glyph-name="uni10EA" unicode="&#x10ea;" horiz-adv-x="663" 
d="M620 12q0 -95 -84 -156.5t-186 -61.5q-152 0 -230 88t-78 216v75q0 173 80 260l-80 1v100l109 -71l8 40h93v-78q-70 -36 -58 -189v-150q0 -88 27.5 -152.5t118.5 -64.5q66 0 98.5 35.5t32.5 113.5q0 76 -10.5 110t-65.5 34h-76v70h64q54 0 54 98q0 64 -59.5 91.5
t-59.5 87.5h118q0 -54 76 -87.5t76 -102.5q0 -71 -127 -117q159 -25 159 -190z" />
    <glyph glyph-name="uni10EB" unicode="&#x10eb;" horiz-adv-x="642" 
d="M437 420q-33 28 -95 28q-66 0 -107 -46.5t-41 -138.5q0 -90 42.5 -145.5t92.5 -55.5q60 0 84 33t24 129v196zM323 663l1 80h95q67 0 118 -43t51 -156v-335q0 -99 -70 -160.5t-200 -61.5q-139 0 -207.5 75.5t-68.5 200.5q0 117 84 189t216 72q36 0 95 -17v59q0 44 -2.5 78
t-27.5 34z" />
    <glyph glyph-name="uni10EC" unicode="&#x10ec;" horiz-adv-x="629" 
d="M597 565h-100l-17 57q-12 50 -73 49q-34 1 -46 -38v-8h34v-34h-146v33h35v18q-26 30 -67 31q-37 -1 -42 -23.5t-5 -50.5q4 -77 14 -135q90 60 168 60q124 0 180 -45t56 -126q0 -29 -14.5 -82.5t-54.5 -112.5q-92 -116 -162 -219t-70 -133h-86q-48 304 -114 493
q-54 168 -56 295q0 90 40.5 122t105.5 32q80 0 130 -56q25 56 95 56q110 0 196 -75zM437 344q1 39 -16 71t-87 32q-85 0 -140 -45q79 -240 82 -426q39 55 100 150.5t61 217.5z" />
    <glyph glyph-name="uni10ED" unicode="&#x10ed;" horiz-adv-x="630" 
d="M250 392v29q-11 45 -44 45q-36 0 -36 -64q-1 -62 31 -63q38 1 49 53zM226 156q-32 -88 -32 -164q0 -40 28 -81.5t89 -41.5q76 0 101 39.5t25 101.5q0 66 -73 151.5t-71 132.5l12 103q-25 -21 -46.5 -69t-86.5 -48q-130 0 -130 121q0 123 130 123q67 0 87.5 -41t45.5 -57
q43 179 -14 264l-72 -78l-86 76l165 64h65q142 -150 39 -316l147 106l31 -120l-178 -6v-23l178 -32l-28 -112l-150 121l6 -68q1 -42 90.5 -129.5t89.5 -164.5q0 -98 -81 -156t-189 -58q-117 0 -196.5 63t-79.5 138q0 79 81 161h103z" />
    <glyph glyph-name="uni10EE" unicode="&#x10ee;" horiz-adv-x="661" 
d="M350 524q60 0 109 -10l56 151l125 -66l-125 -109q61 -33 82 -95.5t21 -124.5q0 -135 -87 -209t-221 -74q-119 0 -178 58.5t-59 130.5v457q0 49 -20 50l-82 -15l1 75h101q49 0 97.5 -29.5t48.5 -135.5v-111q77 57 131 57zM330 434q-43 0 -111 -22v-217q0 -55 31.5 -94
t80.5 -39q61 0 99 43t38 158q0 76 -30.5 123.5t-107.5 47.5z" />
    <glyph glyph-name="uni10EF" unicode="&#x10ef;" horiz-adv-x="761" 
d="M743 151q-1 -141 -186 -141q-113 0 -240 156q-87 -42 -120 -80q203 -43 205 -159q-4 -129 -176 -133q-197 4 -203 103v41l146 1v-42q6 -24 49 -28q49 4 54 59q0 55 -53 87q-78 30 -131 5l-30 44q75 128 222 186q-53 145 -114 155q-38 0 -26 -26l13 -62l-129 -3l-6 64
q0 96 137 96q156 0 273 -168q123 58 123 116q0 32 -49 34l-70 -42l-36 107l105 8q170 0 170 -92q0 -125 -202 -218q41 -121 112 -121q49 0 49 47l-30 50l138 5z" />
    <glyph glyph-name="uni10F0" unicode="&#x10f0;" horiz-adv-x="630" 
d="M202 293q-8 -47 -8 -123q0 -43 28.5 -75.5t99.5 -32.5q72 0 93.5 27t21.5 89q0 141 -96 141h-21v-33h-70v112h72v-22h19q66 -5 66 64q0 74 -73 69h-21v-29h-74v111h72v-28h26q63 -5 63 60q0 59 -101 59q-162 0 -162 80h206q0 -40 96 -41q118 0 118 -95q0 -54 -138 -88
q147 -24 147 -93q0 -70 -155 -97q177 -54 177 -182q0 -69 -72 -124t-194 -55q-105 0 -192.5 45.5t-87.5 122.5q0 63 68 138h92z" />
    <glyph glyph-name="uni10F1" unicode="&#x10f1;" horiz-adv-x="654" 
d="M220 748q-14 -45 -14 -117v-431q0 -70 34.5 -104.5t113.5 -34.5q74 0 90 34.5t16 73.5q0 125 -84 125h-21v-32h-45v108h46v-21h20q54 -5 54 70q0 80 -49 75h-32v-28h-50v107h47v-27h38q19 -4 19 48q0 54 -57 75q-40 19 -40 76h113q0 -38 76 -58q65 -23 65 -81
q0 -52 -106 -84q136 -23 136 -98q0 -77 -143 -102q163 -52 163 -164q0 -66 -71 -118.5t-229 -52.5q-119 0 -184 52.5t-63 158.5l-2 371q0 88 68 179h91z" />
    <glyph glyph-name="uni10F2" unicode="&#x10f2;" horiz-adv-x="618" 
d="M310 524q111 0 191.5 -58t80.5 -149q0 -264 -521 -438v121q370 30 370 296q0 68 -22 109.5t-99 41.5q-68 0 -95.5 -41.5t-27.5 -101.5q0 -274 371 -305v-120q-522 174 -522 439q0 91 81 148.5t193 57.5z" />
    <glyph glyph-name="uni10F3" unicode="&#x10f3;" horiz-adv-x="625" 
d="M431 34q0 65 -28 96.5t-68 32.5h-53v64h58q55 0 73 62t18 148l-229 -16v-99h-120v187l500 20q0 -301 -151 -334q151 -82 151 -171v-35q0 -80 -69.5 -137.5t-196.5 -57.5q-126 0 -203 57.5t-77 135.5q0 71 76 154h97q-22 -56 -22 -130q0 -44 28 -93t103 -49q69 0 91 36
t22 83v46z" />
    <glyph glyph-name="uni10F4" unicode="&#x10f4;" horiz-adv-x="630" 
d="M213 153q-26 -69 -26 -139q0 -66 28.5 -105.5t102.5 -39.5q73 0 93 42.5t20 120.5q0 187 -137 187h-66v65h79q73 0 93 85q0 102 -129.5 120t-129.5 128q0 38 25.5 63t67.5 40t96.5 21.5t112.5 6.5l36 -55q-103 0 -150.5 -17.5t-47.5 -61.5q0 -69 136 -99.5t136 -135.5
q-20 -99 -167 -126q196 -56 196 -216q0 -120 -75 -181.5t-185 -61.5q-128 0 -207 55t-79 133q0 101 88 171h89z" />
    <glyph glyph-name="uni10F5" unicode="&#x10f5;" horiz-adv-x="647" 
d="M641 477q-220 -33 -341 -33q-122 0 -193 45t-71 114q0 72 69 108.5t208 36.5q146 0 207.5 -49t61.5 -106v-407q0 -103 -61.5 -151t-182.5 -48q-140 0 -221 57.5t-81 157.5q0 78 71 128t193 50q121 0 341 -64v-81q-210 77 -325 76q-75 0 -102 -31t-27 -77q0 -72 33 -106.5
t120 -34.5q34 0 62.5 21t28.5 129v354q0 41 -28.5 73.5t-86.5 32.5q-87 0 -108 -19.5t-21 -50.5q0 -39 27 -65.5t102 -26.5q112 0 325 19v-52z" />
    <glyph glyph-name="uni10F6" unicode="&#x10f6;" horiz-adv-x="911" 
d="M869 286q0 -147 -159 -214l119 -21v-51h-211v81q100 43 100 202q0 69 -11.5 116.5t-93.5 47.5q-91 0 -91 -123v-470h41v-61h-203v61h35v470q0 123 -100 123q-71 0 -88.5 -48t-17.5 -116q0 -83 27 -120.5t73 -37.5v-125h-60q-88 34 -137.5 105t-49.5 174q0 113 71 179
t182 66q130 0 165 -98q33 98 167 98q114 0 178 -66t64 -172z" />
    <glyph glyph-name="uni10F7" unicode="&#x10f7;" horiz-adv-x="653" 
d="M527 176q138 -163 56 -272.5t-243 -110.5q-128 1 -216 65.5t-88 158.5q0 141 175.5 221.5t175.5 141.5q0 34 -6.5 52.5t-52.5 18.5q-34 0 -42 -26l-42 -70h-112l27 116q57 37 101 48t80 11q59 0 111 -37t52 -112q0 -97 -158 -163.5t-158 -197.5q2 -59 32.5 -105
t118.5 -46q92 0 116.5 81t-24.5 226h97z" />
    <glyph glyph-name="uni10F8" unicode="&#x10f8;" horiz-adv-x="625" 
d="M182 511v-250q38 -76 114 -76q66 0 80.5 38t14.5 80q0 115 -90 209h114q124 -90 124 -211q0 -86 -63 -138.5t-147 -52.5q-101 -2 -147 64v-168q0 -64 24.5 -100.5t89.5 -36.5q82 0 105.5 31.5t23.5 65.5q0 61 -10 111h92q69 -66 69 -122q0 -66 -74.5 -113.5t-205.5 -47.5
q-124 0 -194.5 52.5t-70.5 159.5v505h151z" />
    <glyph glyph-name="uni10F9" unicode="&#x10f9;" horiz-adv-x="653" 
d="M343 -207q-94 0 -152 32t-58 95q0 40 31.5 66.5t111.5 62.5q-59 6 -152 73t-93 184q0 94 94 158.5t206 65.5q117 -1 204.5 -65.5t87.5 -158.5q0 -114 -64 -168t-138 -86q-59 -25 -103.5 -55.5t-44.5 -53.5q0 -34 12.5 -52.5t57.5 -18.5q46 0 67 26l41 70h113l-28 -116
q-55 -37 -105.5 -48t-87.5 -11zM182 301q0 -85 38 -132.5t106 -48.5q69 0 107 43t38 138q0 61 -35 107t-111 46q-71 0 -107 -46t-36 -107z" />
    <glyph glyph-name="uni10FA" unicode="&#x10fa;" horiz-adv-x="618" 
d="M308 524q112 0 193 -47.5t81 -150.5q0 -90 -106 -155h-98q53 71 53 154q0 50 -22.5 86t-98.5 36q-73 0 -98 -41t-25 -76q0 -145 150 -210t172 -120l-110 -42q-44 84 -135 119l-134 -90l-66 89l143 35q-171 89 -171 216q0 87 84 142t188 55z" />
    <glyph glyph-name="uni10FB" unicode="&#x10fb;" horiz-adv-x="438" 
d="M119 261q-35 0 -59 22.5t-24 55.5q0 32 24 54.5t59 22.5q34 0 58 -22.5t24 -54.5q0 -33 -24 -55.5t-58 -22.5zM119 -14q-35 0 -59 22.5t-24 54.5q0 33 24 55t59 22q34 0 58 -22t24 -55q0 -32 -24 -54.5t-58 -22.5zM323 119q-34 0 -58 22.5t-24 54.5q0 33 24 55.5t58 22.5
q35 0 59 -22.5t24 -55.5q0 -32 -24 -54.5t-59 -22.5z" />
    <glyph glyph-name="uni10FC" unicode="&#x10fc;" horiz-adv-x="328" 
d="M109 615q18 6 37 6q75 0 117.5 -43.5t42.5 -122.5q0 -75 -42.5 -119.5t-117.5 -44.5q-66 0 -109 33q-50 35 -50 93v217q0 100 130 100h14q6 0 19 -2t31 -4q2 8 3.5 16t3.5 12h77l2 -106q-46 5 -81 8t-60 3q-17 0 -17 -36v-10zM184 455q0 40 -7.5 64t-33.5 24
q-22 0 -34 -8v-114q0 -25 6 -39.5t30 -14.5q30 0 33 15q6 25 6 73z" />
    <glyph glyph-name="Wgrave" unicode="&#x1e80;" horiz-adv-x="1010" 
d="M402 774l50 130l218 -104l-28 -78zM62 579l-50 17v97h317v-97l-59 -17l76 -348h5l116 462h144l116 -448h5l73 334l-64 17v97h257v-97l-52 -17l-142 -579h-195l-100 412h-4l-103 -412h-195z" />
    <glyph glyph-name="wgrave" unicode="&#x1e81;" horiz-adv-x="848" 
d="M46 429l-41 14v91h268v-91l-44 -12l56 -216h4l94 319h128l94 -319h4l55 216l-43 12v91h219v-91l-41 -14l-128 -429h-158l-87 300h-3l-90 -300h-159zM299 645l59 127l212 -120l-33 -76z" />
    <glyph glyph-name="Wacute" unicode="&#x1e82;" horiz-adv-x="1010" 
d="M440 722l-28 78l218 104l50 -130zM62 579l-50 17v97h317v-97l-59 -17l76 -348h5l116 462h144l116 -448h5l73 334l-64 17v97h257v-97l-52 -17l-142 -579h-195l-100 412h-4l-103 -412h-195z" />
    <glyph glyph-name="wacute" unicode="&#x1e83;" horiz-adv-x="848" 
d="M316 652l212 120l59 -127l-239 -69zM46 429l-41 14v91h268v-91l-44 -12l56 -216h4l94 319h128l94 -319h4l55 216l-43 12v91h219v-91l-41 -14l-128 -429h-158l-87 300h-3l-90 -300h-159z" />
    <glyph glyph-name="Wdieresis" unicode="&#x1e84;" horiz-adv-x="1010" 
d="M436 727q-36 0 -62 21.5t-26 60.5q0 38 26 60t62 22q37 0 63.5 -22t26.5 -60q0 -39 -26.5 -60.5t-63.5 -21.5zM645 727q-36 0 -62.5 21.5t-26.5 60.5q0 38 26.5 60t62.5 22q37 0 63 -22t26 -60q0 -39 -26 -60.5t-63 -21.5zM62 579l-50 17v97h317v-97l-59 -17l76 -348h5
l116 462h144l116 -448h5l73 334l-64 17v97h257v-97l-52 -17l-142 -579h-195l-100 412h-4l-103 -412h-195z" />
    <glyph glyph-name="wdieresis" unicode="&#x1e85;" horiz-adv-x="848" 
d="M336 581q-36 0 -62 22t-26 60q0 39 26 60.5t62 21.5q37 0 63.5 -21.5t26.5 -60.5q0 -38 -26.5 -60t-63.5 -22zM545 581q-36 0 -62.5 22t-26.5 60q0 39 26.5 60.5t62.5 21.5q37 0 63 -21.5t26 -60.5q0 -38 -26 -60t-63 -22zM46 429l-41 14v91h268v-91l-44 -12l56 -216h4
l94 319h128l94 -319h4l55 216l-43 12v91h219v-91l-41 -14l-128 -429h-158l-87 300h-3l-90 -300h-159z" />
    <glyph glyph-name="Ygrave" unicode="&#x1ef2;" horiz-adv-x="675" 
d="M170 97l73 17v164l-180 301l-53 17v97h318v-97l-53 -15l101 -187h4l97 187l-53 15v97h241v-97l-54 -17l-166 -296v-169l72 -17v-97h-347v97zM227 774l50 130l218 -104l-28 -78z" />
    <glyph glyph-name="ygrave" unicode="&#x1ef3;" horiz-adv-x="604" 
d="M173 -203q-26 0 -55 4.5t-45 11.5v115q31 -7 54 -7q32 0 54 10t33 38l15 39l-178 421l-46 14v91h287v-91l-49 -12l89 -240h4l78 240l-49 12v91h230v-91l-43 -14l-185 -485q-14 -37 -31 -64.5t-40 -46t-53 -27.5t-70 -9zM180 645l59 127l212 -120l-33 -76z" />
    <glyph glyph-name="uni2009" unicode="&#x2009;" horiz-adv-x="74" 
 />
    <glyph glyph-name="endash" unicode="&#x2013;" horiz-adv-x="410" 
d="M28 341h354v-108h-354v108z" />
    <glyph glyph-name="emdash" unicode="&#x2014;" horiz-adv-x="714" 
d="M28 341h658v-108h-658v108z" />
    <glyph glyph-name="quoteleft" unicode="&#x2018;" horiz-adv-x="252" 
d="M36 469q6 61 21.5 117.5t40.5 106.5h118q-5 -53 -8.5 -105.5t-3.5 -118.5h-168v0z" />
    <glyph glyph-name="quoteright" unicode="&#x2019;" horiz-adv-x="252" 
d="M36 469q5 53 8.5 105.5t3.5 118.5h168q-6 -61 -21.5 -118t-40.5 -106h-118v0z" />
    <glyph glyph-name="quotesinglbase" unicode="&#x201a;" horiz-adv-x="252" 
d="M36 -71q5 54 8.5 106t3.5 118h168q-6 -61 -21.5 -117.5t-40.5 -106.5h-118v0z" />
    <glyph glyph-name="quotedblleft" unicode="&#x201c;" horiz-adv-x="461" 
d="M36 469q6 61 21.5 117.5t40.5 106.5h118q-5 -53 -8.5 -105.5t-3.5 -118.5h-168zM245 469q6 61 21.5 117.5t40.5 106.5h118q-5 -53 -8.5 -105.5t-3.5 -118.5h-168z" />
    <glyph glyph-name="quotedblright" unicode="&#x201d;" horiz-adv-x="461" 
d="M36 469q5 53 8.5 105.5t3.5 118.5h168q-6 -61 -21.5 -118t-40.5 -106h-118zM245 469q5 53 8.5 105.5t3.5 118.5h168q-6 -61 -21.5 -118t-40.5 -106h-118z" />
    <glyph glyph-name="quotedblbase" unicode="&#x201e;" horiz-adv-x="461" 
d="M36 -71q5 54 8.5 106t3.5 118h168q-6 -61 -21.5 -117.5t-40.5 -106.5h-118zM245 -71q5 54 8.5 106t3.5 118h168q-6 -61 -21.5 -117.5t-40.5 -106.5h-118z" />
    <glyph glyph-name="dagger" unicode="&#x2020;" horiz-adv-x="449" 
d="M28 571l133 -28l-32 150h190l-31 -150l132 28v-166l-135 27l32 -107v-51l-43 -274h-99l-43 274v51l32 107l-136 -27v166z" />
    <glyph glyph-name="daggerdbl" unicode="&#x2021;" horiz-adv-x="451" 
d="M30 579l132 -28l-31 142h190l-31 -142l132 28v-166l-135 28l32 -73v-43l-32 -73l135 28v-166l-132 27l31 -141h-190l31 141l-132 -27v166l134 -28l-32 73v43l32 73l-134 -28v166z" />
    <glyph glyph-name="bullet" unicode="&#x2022;" horiz-adv-x="371" 
d="M184 163q-32 0 -60 12t-48.5 33t-32.5 48.5t-12 58.5q0 32 12 60t32.5 48.5t48.5 32t60 11.5q31 0 59.5 -11.5t50 -32t34 -48.5t12.5 -60q0 -31 -12.5 -58.5t-34 -48.5t-50 -33t-59.5 -12z" />
    <glyph glyph-name="ellipsis" unicode="&#x2026;" horiz-adv-x="779" 
d="M129 -13q-43 0 -70.5 27.5t-27.5 65.5q0 19 7.5 36t20.5 30t31 20.5t39 7.5q22 0 40 -7.5t31 -20.5t20 -30t7 -36q0 -38 -27 -65.5t-71 -27.5zM390 -13q-44 0 -71.5 27.5t-27.5 65.5q0 19 7.5 36t20.5 30t31 20.5t40 7.5t40 -7.5t31 -20.5t20 -30t7 -36q0 -38 -27 -65.5
t-71 -27.5zM650 -13q-43 0 -70.5 27.5t-27.5 65.5q0 19 7.5 36t20.5 30t31 20.5t39 7.5q44 0 71.5 -28t27.5 -66t-27 -65.5t-72 -27.5z" />
    <glyph glyph-name="perthousand" unicode="&#x2030;" horiz-adv-x="1332" 
d="M212 384q30 0 38 27.5t8 89.5q0 63 -8 93.5t-38 30.5q-29 0 -37.5 -29.5t-8.5 -90.5q0 -60 8.5 -90.5t37.5 -30.5zM211 305q-37 0 -71.5 11t-61 35t-42.5 61t-16 89q0 54 16.5 92.5t43.5 63t61.5 36.5t70.5 12t70.5 -11.5t62 -35.5t44.5 -62t17 -90q0 -53 -16.5 -91
t-44 -62.5t-62.5 -36t-72 -11.5zM634 713h105l-472 -753h-105zM696 68q30 0 38 27.5t8 89.5t-8 93t-38 31t-38 -29.5t-8 -90.5t8 -91t38 -30zM695 -12q-37 0 -71.5 11.5t-61 35.5t-42.5 61t-16 89q0 54 16.5 92t43.5 63t61.5 36.5t70.5 11.5q35 0 69.5 -11.5t62 -35.5
t44.5 -61.5t17 -89.5q0 -53 -16.5 -91t-43.5 -63t-62 -36.5t-72 -11.5zM1119 68q29 0 37.5 27.5t8.5 89.5t-8 93t-38 31t-38 -29.5t-8 -90.5t8 -91t38 -30zM1118 -12q-37 0 -71.5 11.5t-61.5 35.5t-43 61t-16 89q0 54 16.5 92t44 63t62 36.5t70.5 11.5q35 0 69.5 -11.5
t62 -35.5t44.5 -61.5t17 -89.5q0 -53 -16.5 -91t-43.5 -63t-62 -36.5t-72 -11.5z" />
    <glyph glyph-name="uni2032" unicode="&#x2032;" horiz-adv-x="251" 
d="M46 693h169l-56 -224h-124z" />
    <glyph glyph-name="uni2033" unicode="&#x2033;" horiz-adv-x="457" 
d="M46 693h169l-56 -224h-124zM252 693h170l-56 -224h-124z" />
    <glyph glyph-name="guilsinglleft" unicode="&#x2039;" horiz-adv-x="283" 
d="M28 229v47l107 170h118l-77 -193l77 -194h-118z" />
    <glyph glyph-name="guilsinglright" unicode="&#x203a;" horiz-adv-x="283" 
d="M107 252l-77 194h118l107 -170v-47l-107 -170h-118z" />
    <glyph glyph-name="fraction" unicode="&#x2044;" horiz-adv-x="234" 
d="M308 713h105l-488 -753h-105z" />
    <glyph glyph-name="Euro" unicode="&#x20ac;" horiz-adv-x="627" 
d="M24 450h65q12 70 40.5 118.5t69 79t91.5 44t109 13.5q66 0 110 -7t76 -20l7 -185h-120l-22 77q-20 12 -54 12q-48 0 -76 -31t-38 -101h148v-84h-153v-5v-26t1 -23h152v-84h-140q15 -57 49.5 -80t95.5 -23q49 0 88 10.5t68 21.5v-111q-15 -10 -34 -20t-43.5 -18.5
t-56.5 -14t-73 -5.5q-56 0 -104.5 13.5t-86.5 42.5t-64.5 74.5t-38.5 109.5h-66v84h56v54h-56v84z" />
    <glyph glyph-name="trademark" unicode="&#x2122;" horiz-adv-x="828" 
d="M361 443l30 7v181l-30 7v55h172l45 -152h4l45 152h182v-55l-30 -7v-181l30 -7v-55h-162v55l25 7v159h-4l-63 -218h-76l-63 215h-4v-156l25 -7v-55h-126v55zM89 443l32 7v183h-28l-14 -61h-63l3 121h315l4 -121h-64l-14 61h-28v-183l32 -7v-55h-175v55z" />
    <glyph glyph-name="onethird" unicode="&#x2153;" horiz-adv-x="905" 
d="M693 -6q-51 0 -82.5 8.5t-49.5 17.5v75q17 -5 40.5 -8.5t50.5 -3.5q73 0 73 47q0 26 -16 35.5t-46 9.5h-46v77h39q64 0 64 41q0 43 -62 43q-26 0 -45 -3t-35 -8v75q19 11 54.5 18t77.5 7q72 0 111 -26.5t39 -77.5q0 -41 -24.5 -64t-61.5 -34v-3q43 -6 72 -30.5t29 -71.5
q0 -58 -46.5 -91t-135.5 -33zM32 350l60 10v210l-63 -3v67l135 70h75v-344l61 -10v-68h-268v68zM628 713h105l-488 -753h-105z" />
    <glyph glyph-name="twothirds" unicode="&#x2154;" horiz-adv-x="940" 
d="M729 -6q-51 0 -82.5 8.5t-49.5 17.5v75q17 -5 40.5 -8.5t50.5 -3.5q73 0 73 47q0 26 -16 35.5t-46 9.5h-46v77h39q64 0 64 41q0 43 -62 43q-26 0 -45 -3t-35 -8v75q19 11 54.5 18t77.5 7q72 0 111 -26.5t39 -77.5q0 -41 -24.5 -64t-61.5 -34v-3q43 -6 72 -30.5t29 -71.5
q0 -58 -46.5 -91t-135.5 -33zM33 363l93 85q28 25 48.5 50.5t20.5 51.5q0 28 -17 41t-45 13q-22 0 -45.5 -3.5t-41.5 -10.5v80q26 16 61 26.5t86 10.5q77 0 116.5 -35t39.5 -93q0 -27 -8.5 -49.5t-24.5 -42t-39 -37.5t-52 -37l-53 -35v-3h92l22 38l71 1l-11 -132h-313v81z
M670 713h105l-488 -753h-105z" />
    <glyph glyph-name="oneeighth" unicode="&#x215b;" horiz-adv-x="925" 
d="M705 -8q-95 0 -138.5 31.5t-43.5 85.5q0 32 22 56t61 38q-36 17 -53 41t-17 60q0 55 45 88t131 33q82 0 122.5 -29.5t40.5 -75.5q0 -32 -20 -52.5t-55 -33.5q43 -14 68 -39.5t25 -70.5q0 -66 -50 -99t-138 -33zM699 67q61 0 61 42q0 21 -21.5 33.5t-69.5 25.5
q-31 -20 -31 -55q0 -46 61 -46zM729 266q14 8 23 19.5t9 28.5q0 18 -13.5 27t-33.5 9t-33.5 -7.5t-13.5 -24.5q0 -20 13.5 -30t48.5 -22zM32 350l60 10v210l-63 -3v67l135 70h75v-344l61 -10v-68h-268v68zM615 713h105l-488 -753h-105z" />
    <glyph glyph-name="threeeighths" unicode="&#x215c;" horiz-adv-x="946" 
d="M725 -8q-95 0 -138.5 31.5t-43.5 85.5q0 32 22 56t61 38q-36 17 -53 41t-17 60q0 55 45 88t131 33q82 0 122.5 -29.5t40.5 -75.5q0 -32 -20 -52.5t-55 -33.5q43 -14 68 -39.5t25 -70.5q0 -66 -50 -99t-138 -33zM719 67q61 0 61 42q0 21 -21.5 33.5t-69.5 25.5
q-31 -20 -31 -55q0 -46 61 -46zM749 266q14 8 23 19.5t9 28.5q0 18 -13.5 27t-33.5 9t-33.5 -7.5t-13.5 -24.5q0 -20 13.5 -30t48.5 -22zM634 713h105l-488 -753h-105zM160 276q-51 0 -82.5 8.5t-49.5 17.5v75q17 -5 40.5 -8.5t50.5 -3.5q73 0 73 47q0 26 -16 35.5t-46 9.5
h-46v77h39q64 0 64 41q0 43 -62 43q-26 0 -45 -3t-35 -8v75q19 11 54.5 18t77.5 7q72 0 111 -26.5t39 -77.5q0 -41 -24.5 -64t-61.5 -34v-3q43 -6 72 -30.5t29 -71.5q0 -58 -46.5 -91t-135.5 -33z" />
    <glyph glyph-name="fiveeighths" unicode="&#x215d;" horiz-adv-x="922" 
d="M701 -8q-95 0 -138.5 31.5t-43.5 85.5q0 32 22 56t61 38q-36 17 -53 41t-17 60q0 55 45 88t131 33q82 0 122.5 -29.5t40.5 -75.5q0 -32 -20 -52.5t-55 -33.5q43 -14 68 -39.5t25 -70.5q0 -66 -50 -99t-138 -33zM695 67q61 0 61 42q0 21 -21.5 33.5t-69.5 25.5
q-31 -20 -31 -55q0 -46 61 -46zM725 266q14 8 23 19.5t9 28.5q0 18 -13.5 27t-33.5 9t-33.5 -7.5t-13.5 -24.5q0 -20 13.5 -30t48.5 -22zM151 276q-51 0 -81 8.5t-51 19.5v73q19 -5 38.5 -9t43.5 -4q37 0 58 11.5t21 40.5t-20 40.5t-59 11.5q-21 0 -35 -2t-29 -5l13 239h259
l-7 -99h-175l-4 -61q11 3 25.5 5t32.5 2q66 0 107 -30t41 -97q0 -30 -10.5 -56t-32.5 -45.5t-55.5 -31t-79.5 -11.5zM612 713h105l-488 -753h-105z" />
    <glyph glyph-name="seveneighths" unicode="&#x215e;" horiz-adv-x="946" 
d="M725 -8q-95 0 -138.5 31.5t-43.5 85.5q0 32 22 56t61 38q-36 17 -53 41t-17 60q0 55 45 88t131 33q82 0 122.5 -29.5t40.5 -75.5q0 -32 -20 -52.5t-55 -33.5q43 -14 68 -39.5t25 -70.5q0 -66 -50 -99t-138 -33zM719 67q61 0 61 42q0 21 -21.5 33.5t-69.5 25.5
q-31 -20 -31 -55q0 -46 61 -46zM749 266q14 8 23 19.5t9 28.5q0 18 -13.5 27t-33.5 9t-33.5 -7.5t-13.5 -24.5q0 -20 13.5 -30t48.5 -22zM267 597v3h-136l-19 -49h-79l9 149h329v-83l-126 -335h-161zM619 713h105l-488 -753h-105z" />
    <glyph glyph-name="minus" unicode="&#x2212;" horiz-adv-x="540" 
d="M45 399h450v-118h-450v118z" />
    <glyph glyph-name="uni24C5" unicode="&#x24c5;" horiz-adv-x="772" 
d="M385 -14q-75 0 -140 28t-112.5 77t-74.5 114t-27 139t27 139t74.5 113t112.5 76t140 28t140 -28t113 -76t75.5 -113t27.5 -139t-27.5 -139t-75.5 -114t-113 -77t-140 -28zM385 55q61 0 112 23t87.5 62t57 91.5t20.5 112.5q0 59 -20.5 111.5t-57 91.5t-87.5 62t-112 23
q-62 0 -112.5 -23t-86.5 -62t-56 -91.5t-20 -111.5q0 -60 20 -112.5t56 -91.5t86.5 -62t112.5 -23zM232 228l31 10v212l-31 8v60h185q75 0 110.5 -29t35.5 -83q0 -36 -13 -58.5t-33 -35t-44 -17t-46 -4.5q-15 0 -26.5 1.5t-16.5 3.5v-60l34 -8v-60h-186v60zM384 354
q6 -2 22 -2q23 0 32 11.5t9 36.5t-11 35.5t-32 10.5h-20v-92z" />
    <glyph glyph-name="f_f" unicode="&#xfb00;" horiz-adv-x="679" 
d="M15 91l57 14v320h-59v83l59 23v39q0 48 14.5 80t39 51.5t56.5 28t66 8.5q38 0 64 -6t40 -11v-108q-8 2 -16 2.5t-20 0.5q-27 0 -43.5 -13.5t-16.5 -51.5v-17h130v44q0 48 16.5 81t44 53t63 28.5t73.5 8.5q42 0 71 -6.5t45 -12.5v-109q-14 3 -27.5 4.5t-31.5 1.5
q-35 0 -52.5 -13t-17.5 -54v-26h97v-109h-97v-320l68 -14v-91h-294v91l42 11v323h-130v-323l41 -11v-91h-282v91z" />
    <glyph glyph-name="f_i" unicode="&#xfb01;" horiz-adv-x="637" 
d="M15 91l57 14v320h-59v83l59 23v52q0 46 14.5 78t39 51.5t56.5 28t66 8.5q37 0 62 -6t38 -11v-108q-14 3 -33 3q-27 0 -43 -13t-16 -50v-30h298l16 -8v-421l54 -14v-91h-280v91l42 11v323h-130v-323l41 -11v-91h-282v91zM479 577q-40 0 -68 24t-28 66t28 65.5t68 23.5
t67.5 -23.5t27.5 -65.5t-27.5 -66t-67.5 -24z" />
    <glyph glyph-name="f_l" unicode="&#xfb02;" horiz-adv-x="639" 
d="M344 91l42 11v516q-14 4 -27.5 6.5t-31.5 2.5q-36 0 -53.5 -13t-17.5 -53v-27h81v-109h-81v-323l41 -11v-91h-282v91l57 14v320h-59v83l59 23v50q0 48 17 80t45.5 51.5t66 28t78.5 8.5q42 0 80.5 -8t64.5 -16l130 24l16 -7v-640l56 -11v-91h-282v91z" />
    <glyph glyph-name="f_f_i" unicode="&#xfb03;" horiz-adv-x="951" 
d="M15 91l57 14v320h-59v83l59 23v39q0 48 14.5 80t39 51.5t56.5 28t66 8.5q38 0 64 -6t40 -11v-108q-8 2 -16 2.5t-20 0.5q-27 0 -43.5 -13.5t-16.5 -51.5v-17h130v49q0 46 14.5 78t39 51.5t56.5 28t66 8.5q37 0 62 -6t38 -11v-108q-14 3 -33 3q-27 0 -43 -13t-16 -50v-30
h298l16 -8v-421l54 -14v-91h-280v91l42 11v323h-130v-323l41 -11v-91h-267v91l42 11v323h-130v-323l41 -11v-91h-282v91zM793 577q-40 0 -68 24t-28 66t28 65.5t68 23.5t67.5 -23.5t27.5 -65.5t-27.5 -66t-67.5 -24z" />
    <glyph glyph-name="f_f_l" unicode="&#xfb04;" horiz-adv-x="953" 
d="M15 91l57 14v320h-59v83l59 23v39q0 48 14.5 80t39 51.5t56.5 28t66 8.5q38 0 64 -6t40 -11v-108q-8 2 -16 2.5t-20 0.5q-27 0 -43.5 -13.5t-16.5 -51.5v-17h130v47q0 48 17 80t45.5 51.5t66 28t78.5 8.5q42 0 80.5 -8t64.5 -16l130 24l16 -7v-640l56 -11v-91h-282v91
l42 11v516q-14 4 -27.5 6.5t-31.5 2.5q-36 0 -53.5 -13t-17.5 -53v-27h81v-109h-81v-323l41 -11v-91h-267v91l42 11v323h-130v-323l41 -11v-91h-282v91z" />
    <glyph glyph-name="space_uni0326" 
d="M149 -189q5 34 7 70.5t2 82.5h174q-5 -42 -16.5 -82t-32.5 -71h-134v0z" />
    <glyph glyph-name="caron.alt" 
d="M175 572l14 178l140 -18l-63 -173z" />
    <glyph glyph-name="space_uni0326.alt" 
d="M336 746q-5 -34 -7.5 -71t-2.5 -82h-174q5 42 17 82t33 71h134v0z" />
    <glyph glyph-name="acute.pl" 
d="M199 585l49 186l166 -46l-117 -150z" />
    <glyph glyph-name="grave.uc" 
d="M112 774l50 130l218 -104l-28 -78z" />
    <glyph glyph-name="dieresis.uc" 
d="M144 727q-36 0 -62 21.5t-26 60.5q0 38 26 60t62 22q37 0 63.5 -22t26.5 -60q0 -39 -26.5 -60.5t-63.5 -21.5zM353 727q-36 0 -62.5 21.5t-26.5 60.5q0 38 26.5 60t62.5 22q37 0 63 -22t26 -60q0 -39 -26 -60.5t-63 -21.5z" />
    <glyph glyph-name="macron.uc" 
d="M104 847h289v-110h-289v110z" />
    <glyph glyph-name="acute.uc" 
d="M148 722l-28 78l218 104l50 -130z" />
    <glyph glyph-name="circumflex.uc" 
d="M85 773l121 118h86l120 -118l-33 -51l-130 52l-130 -52z" />
    <glyph glyph-name="caron.uc" 
d="M412 845l-120 -119h-86l-121 119l34 50l130 -51l130 51z" />
    <glyph glyph-name="breve.uc" 
d="M254 725q-37 0 -65.5 11t-48.5 30t-31.5 44.5t-12.5 55.5h104q3 -15 17.5 -24.5t36.5 -9.5t36 9.5t17 24.5h105q-2 -30 -13 -55.5t-31 -44.5t-49 -30t-65 -11z" />
    <glyph glyph-name="dotaccent.uc" 
d="M248 725q-40 0 -69 24t-29 66t29 65.5t69 23.5q41 0 69.5 -23.5t28.5 -65.5t-28.5 -66t-69.5 -24z" />
    <glyph glyph-name="ring.uc" 
d="M249 775q22 0 34 13t12 36q0 21 -12 35t-34 14t-34.5 -14t-12.5 -35q0 -23 12.5 -36t34.5 -13zM249 713q-26 0 -47 9t-37 24t-24.5 35t-8.5 43q0 22 8.5 42t24.5 35t37 24t47 9q25 0 46.5 -9t37 -24t24.5 -35t9 -42q0 -23 -9 -43t-24.5 -35t-37 -24t-46.5 -9z" />
    <glyph glyph-name="tilde.uc" 
d="M66 772q21 45 53.5 75t74.5 30q17 0 33 -4t31 -9t28 -9t24 -4q33 0 55 33l68 -46q-20 -45 -53 -75.5t-75 -30.5q-17 0 -33 4t-31 9t-28 9t-24 4q-33 0 -55 -32z" />
    <glyph glyph-name="hungarumlaut.uc" 
d="M100 763l79 157l119 -70l-126 -127zM285 769l93 152l113 -80l-137 -117z" />
    <glyph glyph-name="acute.ucpl" 
d="M195 737l51 182l173 -43l-121 -150z" />
    <glyph glyph-name="Cacute.pl" horiz-adv-x="651" 
d="M368 -12q-75 0 -138.5 19.5t-110 62t-72.5 109.5t-26 162q0 102 31 171.5t82.5 112t117 61.5t134.5 19q34 0 66 -2.5t60.5 -6.5t52 -10t39.5 -12l6 -206h-121l-31 95q-15 7 -33 11.5t-44 4.5q-40 0 -67.5 -14.5t-45 -42.5t-25 -68.5t-7.5 -92.5q0 -72 8.5 -119.5
t26.5 -76t46.5 -40t69.5 -11.5q26 0 46 5.5t33 13.5l32 99h120l-9 -205q-38 -17 -97 -28t-144 -11zM307 737l51 182l173 -43l-121 -150z" />
    <glyph glyph-name="Nacute.pl" horiz-adv-x="736" 
d="M332 737l51 182l173 -43l-121 -150zM17 97l69 17v465l-69 17v97h283l225 -393h5v278l-70 18v97h263v-97l-61 -17v-579h-180l-259 462h-5v-349l71 -16v-97h-272v97z" />
    <glyph glyph-name="Oacute.pl" horiz-adv-x="713" 
d="M295 737l51 182l173 -43l-121 -150zM356 111q60 0 92.5 52.5t32.5 175.5q0 70 -7.5 117t-23 75t-39 40t-54.5 12q-59 0 -92 -53.5t-33 -174.5q0 -69 7 -115.5t22 -75t38.5 -41t56.5 -12.5zM354 -12q-72 0 -133 21.5t-105.5 65.5t-69.5 110.5t-25 156.5q0 95 28.5 163.5
t75.5 113t108 65.5t127 21q72 0 132.5 -21.5t105 -65.5t69.5 -110.5t25 -156.5q0 -95 -28 -163.5t-75 -112.5t-108 -65.5t-127 -21.5z" />
    <glyph glyph-name="Sacute.pl" horiz-adv-x="566" 
d="M262 -12q-31 0 -63 2.5t-62 7t-56.5 10.5t-46.5 14l-10 188h124l25 -86q17 -8 36 -12t47 -4q47 0 70 19.5t23 51.5q0 34 -29.5 53t-80.5 37l-40 15q-41 14 -72.5 30.5t-53 40t-33 56t-11.5 78.5q0 48 15 87.5t48 68.5t85 45t125 16q75 0 122.5 -9t76.5 -19l10 -171h-122
l-19 66q-14 7 -31.5 11.5t-42.5 4.5q-38 0 -61 -15.5t-23 -45.5t24.5 -46.5t72.5 -33.5l41 -15q47 -16 83 -33t61 -40.5t37.5 -57t12.5 -83.5q0 -108 -71.5 -169.5t-210.5 -61.5zM230 737l51 182l173 -43l-121 -150z" />
    <glyph glyph-name="Zacute.pl" horiz-adv-x="600" 
d="M18 119l332 455v4h-160l-42 -111h-118l12 226h538v-119l-332 -455v-4h175l46 130h115l-11 -245h-555v119zM251 737l51 182l173 -43l-121 -150z" />
    <glyph glyph-name="cacute.pl" horiz-adv-x="507" 
d="M296 -13q-71 0 -123.5 19t-87.5 55t-52 87t-17 115q0 73 21.5 126.5t60.5 88t93.5 51t121.5 16.5q50 0 94.5 -6.5t69.5 -14.5v-168h-117l-14 73q-7 2 -15 4.5t-26 2.5q-45 0 -70 -35t-25 -123q0 -47 10 -79t28.5 -51t45.5 -27t61 -8q38 0 71.5 7t53.5 15v-99
q-24 -17 -69.5 -33t-114.5 -16zM242 585l49 186l166 -46l-117 -150z" />
    <glyph glyph-name="idotaccent" horiz-adv-x="322" 
d="M14 91l57 14v307l-62 16v93l229 23l17 -7v-432l54 -14v-91h-295v91zM158 577q-42 0 -71.5 24t-29.5 66t29.5 65.5t71.5 23.5t71.5 -23.5t29.5 -65.5t-29.5 -66t-71.5 -24z" />
    <glyph glyph-name="nacute.pl" horiz-adv-x="633" 
d="M269 585l49 186l166 -46l-117 -150zM14 91l57 14v307l-60 16v93l220 23l16 -7v-57h6q38 29 79 47t97 18q31 0 56.5 -7.5t44 -23t28.5 -40.5t10 -61v-308l53 -14v-91h-279v91l42 11v247q0 32 -15 44.5t-47 12.5q-20 0 -35.5 -4t-31.5 -9v-291l42 -11v-91h-283v91z" />
    <glyph glyph-name="oacute.pl" horiz-adv-x="585" 
d="M294 97q18 0 33 7.5t25.5 26.5t16.5 51t6 81q0 52 -6 85.5t-17 53t-26.5 27t-34.5 7.5q-18 0 -33.5 -7t-26 -25.5t-16.5 -50.5t-6 -83q0 -52 6 -85.5t17.5 -53t27 -27t34.5 -7.5zM293 -13q-67 0 -118.5 19.5t-87 55.5t-53.5 87t-18 114q0 69 21.5 121.5t59 88.5t87.5 54
t108 18q134 0 205.5 -71.5t71.5 -203.5q0 -69 -21.5 -121.5t-59 -88.5t-88 -54.5t-107.5 -18.5zM243 585l49 186l166 -46l-117 -150z" />
    <glyph glyph-name="sacute.pl" horiz-adv-x="485" 
d="M215 -13q-45 0 -95.5 8t-91.5 25l-9 146h113l20 -59q10 -5 28 -10.5t42 -5.5q32 0 51 12t19 35t-14.5 33t-49.5 19l-58 14q-75 17 -113.5 54t-38.5 109q0 39 14 72t43 56.5t74 37t107 13.5q50 0 97.5 -7.5t79.5 -21.5v-139h-110l-13 53q-9 5 -23.5 9t-36.5 4
q-29 0 -49 -9.5t-20 -32.5q0 -21 15.5 -32t56.5 -20l65 -15q81 -18 115 -58t34 -101q0 -42 -14.5 -77t-45 -60t-78 -38.5t-114.5 -13.5zM198 585l49 186l166 -46l-117 -150z" />
    <glyph glyph-name="zacute.pl" horiz-adv-x="507" 
d="M18 97l254 331v4h-126l-27 -82h-92l10 184h443v-100l-245 -325v-4h126l33 93h95l-14 -198h-457v97zM205 585l49 186l166 -46l-117 -150z" />
    <glyph glyph-name="f_b" horiz-adv-x="936" 
d="M569 491h6q12 10 26.5 19.5t32.5 17.5t39.5 13t48.5 5q36 0 71 -12t62 -42t44 -79.5t17 -124.5q0 -82 -21.5 -139.5t-60 -93.5t-92 -52t-118.5 -16q-78 0 -140 14t-98 34v583q-14 4 -27.5 6.5t-31.5 2.5q-36 0 -53.5 -13t-17.5 -53v-27h81v-109h-81v-323l61 -11v-91h-302
v91l57 14v320h-59v83l59 23v50q0 48 17 80t45.5 51.5t66 28t78.5 8.5q42 0 80.5 -8t64.5 -16l129 24l16 -7v-251zM630 96q22 0 39 7t29 26t18.5 52t6.5 84q0 85 -21.5 117.5t-63.5 32.5q-23 0 -40 -4.5t-29 -10.5v-286q11 -7 23.5 -12.5t37.5 -5.5z" />
    <glyph glyph-name="f_f_b" horiz-adv-x="1250" 
d="M15 91l57 14v320h-59v83l59 23v39q0 48 14.5 80t39 51.5t56.5 28t66 8.5q38 0 64 -6t40 -11v-108q-8 2 -16 2.5t-20 0.5q-27 0 -43.5 -13.5t-16.5 -51.5v-17h130v47q0 48 17 80t45.5 51.5t66 28t78.5 8.5q42 0 80.5 -8t64.5 -16l129 24l16 -7v-251h6q12 10 26.5 19.5
t32.5 17.5t39.5 13t48.5 5q36 0 71 -12t62 -42t44 -79.5t17 -124.5q0 -82 -21.5 -139.5t-60 -93.5t-92 -52t-118.5 -16q-78 0 -140 14t-98 34v583q-14 4 -27.5 6.5t-31.5 2.5q-36 0 -53.5 -13t-17.5 -53v-27h81v-109h-81v-323l61 -11v-91h-287v91l42 11v323h-130v-323
l41 -11v-91h-282v91zM944 96q22 0 39 7t29 26t18.5 52t6.5 84q0 85 -21.5 117.5t-63.5 32.5q-23 0 -40 -4.5t-29 -10.5v-286q11 -7 23.5 -12.5t37.5 -5.5z" />
    <glyph glyph-name="f_f_h" horiz-adv-x="1261" 
d="M15 91l57 14v320h-59v83l59 23v39q0 48 14.5 80t39 51.5t56.5 28t66 8.5q38 0 64 -6t40 -11v-108q-8 2 -16 2.5t-20 0.5q-27 0 -43.5 -13.5t-16.5 -51.5v-17h130v47q0 48 17 80t45.5 51.5t66 28t78.5 8.5q42 0 80.5 -8t64.5 -16l130 24l16 -7v-260h5q36 28 74.5 45.5
t94.5 17.5q31 0 56.5 -7.5t44 -23t28.5 -40.5t10 -61v-308l53 -14v-91h-279v91l42 11v247q0 32 -15 45t-47 13q-20 0 -35.5 -4.5t-31.5 -9.5v-291l42 -11v-91h-268v91l42 11v516q-14 4 -27.5 6.5t-31.5 2.5q-36 0 -53.5 -13t-17.5 -53v-27h81v-109h-81v-323l41 -11v-91h-267
v91l42 11v323h-130v-323l41 -11v-91h-282v91z" />
    <glyph glyph-name="f_f_j" horiz-adv-x="934" 
d="M15 91l57 14v320h-59v83l59 23v39q0 48 14.5 80t39 51.5t56.5 28t66 8.5q38 0 64 -6t40 -11v-108q-8 2 -16 2.5t-20 0.5q-27 0 -43.5 -13.5t-16.5 -51.5v-17h130v49q0 46 14.5 78t39 51.5t56.5 28t66 8.5q37 0 62 -6t38 -11v-108q-14 3 -33 3q-27 0 -43 -13t-16 -50v-30
h298l16 -8v-532q0 -94 -47 -143t-158 -49q-31 0 -54 5t-40 12v106q11 -2 22.5 -3t22.5 -1q34 0 52 15t18 55v434h-130v-320l68 -14v-91h-294v91l42 11v323h-130v-323l41 -11v-91h-282v91zM793 577q-40 0 -68 24t-28 66t28 65.5t68 23.5t67.5 -23.5t27.5 -65.5t-27.5 -66
t-67.5 -24z" />
    <glyph glyph-name="f_f_k" horiz-adv-x="1236" 
d="M912 206l-28 -5v-99l46 -11v-91h-272v91l42 11v516q-14 4 -27.5 6.5t-31.5 2.5q-36 0 -53.5 -13t-17.5 -53v-27h81v-109h-81v-323l41 -11v-91h-267v91l42 11v323h-130v-323l41 -11v-91h-282v91l57 14v320h-59v83l59 23v39q0 48 14.5 80t39 51.5t56.5 28t66 8.5
q38 0 64 -6t40 -11v-108q-8 2 -16 2.5t-20 0.5q-27 0 -43.5 -13.5t-16.5 -51.5v-17h130v47q0 48 17 80t45.5 51.5t66 28t78.5 8.5q42 0 80.5 -8t64.5 -16l130 24l16 -7v-441l14 9l116 120l-51 13v91h245v-91l-52 -15l-111 -118l142 -209l39 -10v-91h-182z" />
    <glyph glyph-name="f_h" horiz-adv-x="947" 
d="M15 91l57 14v320h-59v83l59 23v50q0 48 17 80t45.5 51.5t66 28t78.5 8.5q42 0 80.5 -8t64.5 -16l130 24l16 -7v-260h5q36 28 74.5 45.5t94.5 17.5q31 0 56.5 -7.5t44 -23t28.5 -40.5t10 -61v-308l53 -14v-91h-279v91l42 11v247q0 32 -15 45t-47 13q-20 0 -35.5 -4.5
t-31.5 -9.5v-291l42 -11v-91h-268v91l42 11v516q-14 4 -27.5 6.5t-31.5 2.5q-36 0 -53.5 -13t-17.5 -53v-27h81v-109h-81v-323l41 -11v-91h-282v91z" />
    <glyph glyph-name="f_j" horiz-adv-x="620" 
d="M365 -198q-31 0 -54 5t-40 12v106q11 -2 22.5 -3t22.5 -1q34 0 52 15t18 55v434h-130v-320l68 -14v-91h-309v91l57 14v320h-59v83l59 23v52q0 46 14.5 78t39 51.5t56.5 28t66 8.5q37 0 62 -6t38 -11v-108q-14 3 -33 3q-27 0 -43 -13t-16 -50v-30h298l16 -8v-532
q0 -94 -47 -143t-158 -49zM479 577q-40 0 -68 24t-28 66t28 65.5t68 23.5t67.5 -23.5t27.5 -65.5t-27.5 -66t-67.5 -24z" />
    <glyph glyph-name="f_k" horiz-adv-x="922" 
d="M598 206l-28 -5v-99l46 -11v-91h-272v91l42 11v516q-14 4 -27.5 6.5t-31.5 2.5q-36 0 -53.5 -13t-17.5 -53v-27h81v-109h-81v-323l41 -11v-91h-282v91l57 14v320h-59v83l59 23v50q0 48 17 80t45.5 51.5t66 28t78.5 8.5q42 0 80.5 -8t64.5 -16l130 24l16 -7v-441l17 12
l113 117l-51 13v91h245v-91l-52 -15l-111 -118l142 -209l39 -10v-91h-182z" />
    <glyph glyph-name="dollar.old" horiz-adv-x="559" 
d="M182 -8q-44 4 -83 10.5t-66 17.5l-10 165h113l29 -78q6 -2 14.5 -4.5t17.5 -4.5l24 164l-20 5q-87 20 -130.5 64.5t-43.5 127.5q0 88 61 141.5t191 56.5l9 62h85l-10 -65q46 -4 78 -11t52 -14l10 -149h-112l-18 60q-5 2 -11 3.5l-14 3.5l-21 -144l25 -7q47 -12 81.5 -28
t57 -39t33.5 -55t11 -76q0 -97 -67.5 -152t-200.5 -57l-14 -98h-86zM364 166q0 26 -13.5 43t-47.5 30l-21 -145q42 4 62 23t20 49zM189 491q0 -25 12 -39.5t44 -25.5l19 127q-34 -3 -54.5 -19.5t-20.5 -42.5z" />
    <glyph glyph-name="Euro.old" horiz-adv-x="613" 
d="M24 420h64q12 65 39.5 110t67.5 73t89.5 40.5t105.5 12.5q63 0 106.5 -7t74.5 -18l7 -174h-117l-21 73q-20 10 -53 10q-46 0 -73.5 -28t-37.5 -92h144v-78h-149v-4v-25.5t1 -22.5h148v-79h-136q15 -52 49 -73t92 -21q48 0 86 10t66 20v-103q-15 -9 -33.5 -19t-42.5 -18
t-55 -13t-71 -5q-54 0 -101 12.5t-84 39.5t-63 69t-38 101h-65v79h55v52h-55v78z" />
    <glyph glyph-name="sterling.old" horiz-adv-x="539" 
d="M37 362h59v66q0 56 17 98.5t48.5 71t75 43t96.5 14.5q63 0 104 -12t69 -32v-109q-23 9 -49 13.5t-58 4.5q-51 0 -82.5 -25t-37.5 -90l-4 -43h154v-101h-163v-4q-2 -26 -7.5 -45.5t-14.5 -34.5t-21.5 -26.5t-28.5 -21.5v-3h323l-16 -126h-476v96q34 16 52.5 44t18.5 82v39
h-59v101z" />
    <glyph glyph-name="yen.old" horiz-adv-x="635" 
d="M75 353h111l-125 180l-50 17v94h308v-94l-49 -13l87 -150h3l83 150l-49 13v94h230v-94l-50 -17l-119 -180h117v-75h-153v-49h153v-75h-153v-44l71 -16v-94h-334v94l72 16v44h-153v75h153v49h-153v75z" />
    <glyph glyph-name="zero.old" horiz-adv-x="640" 
d="M321 102q22 0 39.5 9.5t29 32t17.5 58.5t6 90q0 60 -5.5 98.5t-16.5 61t-28.5 31.5t-42.5 9q-23 0 -40.5 -10t-29.5 -32.5t-18 -58.5t-6 -89q0 -60 5.5 -98.5t17 -61t29.5 -31.5t43 -9zM319 -11q-63 0 -117 18t-93.5 55.5t-62 95t-22.5 136.5q0 82 24.5 141t65.5 97
t95 56t113 18q62 0 115.5 -18t93.5 -55.5t62.5 -95.5t22.5 -137q0 -82 -24.5 -140.5t-65.5 -96.5t-94.5 -56t-112.5 -18z" />
    <glyph glyph-name="one.old" horiz-adv-x="441" 
d="M28 93l100 17v310l-101 -9v92l200 96h97v-489l95 -17v-93h-391v93z" />
    <glyph glyph-name="two.old" horiz-adv-x="519" 
d="M15 107l152 125q56 47 83 84t27 74q0 38 -25.5 58t-71.5 20q-41 0 -77.5 -7.5t-67.5 -16.5v107q40 22 96.5 38t124.5 16q116 0 174.5 -49t58.5 -134q0 -38 -12 -68.5t-36.5 -58.5t-61.5 -56t-86 -59l-81 -52v-2h158l33 54h94l-10 -180h-472v107z" />
    <glyph glyph-name="three.old" horiz-adv-x="522" 
d="M218 -109q-77 0 -124.5 14.5t-79.5 32.5v104q29 -10 66 -16.5t81 -6.5q128 0 128 91q0 51 -27.5 72t-84.5 21h-66v107h54q113 0 113 82q0 41 -25.5 62.5t-85.5 21.5q-38 0 -68 -5t-59 -13v100q32 20 86 33.5t117 13.5q111 0 169.5 -44.5t58.5 -132.5q0 -63 -37 -102
t-97 -56v-4q33 -5 62.5 -18t51 -34t34 -51.5t12.5 -69.5q0 -94 -71.5 -148t-207.5 -54z" />
    <glyph glyph-name="four.old" horiz-adv-x="606" 
d="M313 74h-297v97l327 422h166v-410h73v-109h-73v-176h-196v176zM313 183v210h-4l-160 -207v-3h164z" />
    <glyph glyph-name="five.old" horiz-adv-x="526" 
d="M223 -110q-76 0 -123 14.5t-81 33.5v101q31 -10 67.5 -16.5t80.5 -6.5q60 0 95 27.5t35 82.5q0 27 -10 45.5t-28.5 29.5t-45 15.5t-58.5 4.5q-29 0 -55 -3.5t-51 -8.5l22 384h398l-11 -140h-271l-9 -123q14 3 35 4.5t43 1.5q54 0 99.5 -12.5t77.5 -38t50 -64.5t18 -93
q0 -50 -17.5 -93t-52 -75.5t-86.5 -51t-122 -18.5z" />
    <glyph glyph-name="six.old" horiz-adv-x="605" 
d="M311 -12q-69 0 -122.5 24.5t-89.5 69t-55 106.5t-19 138q0 99 27 170.5t72.5 117.5t105 68t125.5 22q65 0 110.5 -12.5t72.5 -29.5v-105q-23 8 -60 11t-75 3q-34 0 -65 -7.5t-55 -26.5t-39.5 -52t-18.5 -85q25 17 64 29t80 12q52 0 92.5 -15t67.5 -42.5t41 -66t14 -85.5
q0 -49 -16.5 -93.5t-50.5 -78t-85 -53t-121 -19.5zM310 98q75 0 75 121q0 58 -20 83.5t-61 25.5q-47 0 -79 -19q-1 -9 -1 -15.5v-17.5q0 -94 20.5 -136t65.5 -42z" />
    <glyph glyph-name="seven.old" horiz-adv-x="536" 
d="M388 451v4h-240l-26 -71h-104l9 209h494v-107l-217 -586h-216z" />
    <glyph glyph-name="eight.old" horiz-adv-x="611" 
d="M304 -13q-142 0 -211 51.5t-69 139.5q0 57 38.5 98t98.5 64q-60 28 -87 68t-27 101q0 43 18 79.5t52 62t83.5 40t112.5 14.5q125 0 187.5 -48t62.5 -125q0 -56 -36.5 -92t-89.5 -56q34 -12 62 -28.5t48 -38t30.5 -50t10.5 -65.5q0 -104 -74.5 -159.5t-209.5 -55.5z
M291 97q55 0 80.5 22.5t25.5 60.5q0 21 -9.5 36t-28.5 27.5t-47.5 24t-66.5 23.5q-32 -20 -45.5 -47t-13.5 -62q0 -41 27 -63t78 -22zM342 428q26 16 43 37t17 56q0 38 -24 56t-60 18q-37 0 -60 -18.5t-23 -48.5q0 -20 5.5 -34t18.5 -25t33.5 -21t49.5 -20z" />
    <glyph glyph-name="nine.old" horiz-adv-x="605" 
d="M245 -111q-64 0 -111.5 12.5t-74.5 29.5v106q23 -8 61.5 -12.5t75.5 -4.5q40 0 72.5 7.5t56 27t38 53t17.5 85.5q-25 -17 -63.5 -29t-80.5 -12q-105 0 -159.5 57t-54.5 152q0 49 16.5 93.5t50 78t84.5 53t121 19.5q139 0 212.5 -89t73.5 -250q0 -99 -25.5 -170t-70 -117
t-106 -68t-133.5 -22zM301 263q24 0 44 5.5t35 14.5q1 8 1 15.5v18.5q0 94 -20.5 135.5t-65.5 41.5q-75 0 -75 -120q0 -58 20.5 -84.5t60.5 -26.5z" />
    <glyph glyph-name="percent.old" horiz-adv-x="888" 
d="M206 355q29 0 37 25.5t8 82.5t-8 85.5t-37 28.5t-36.5 -27t-7.5 -83q0 -57 7.5 -84.5t36.5 -27.5zM206 281q-36 0 -69.5 10.5t-59.5 32.5t-41.5 56.5t-15.5 82.5q0 50 16 85.5t42 58.5t59.5 34t68.5 11q34 0 68 -10.5t60 -33t42.5 -57t16.5 -83.5t-16 -84.5t-42 -58
t-59.5 -33.5t-69.5 -11zM618 659h102l-457 -695h-102zM681 64q29 0 37 25.5t8 82.5t-8 85.5t-37 28.5t-36.5 -27t-7.5 -83q0 -57 7.5 -84.5t36.5 -27.5zM680 -11q-36 0 -69.5 10.5t-59 33t-41 57t-15.5 82.5q0 50 16 85.5t42 58.5t59.5 33.5t68.5 10.5q34 0 68 -10.5t60 -33
t42.5 -57t16.5 -83.5t-16 -84t-42 -58t-60 -34t-70 -11z" />
    <glyph glyph-name="perthousand.old" horiz-adv-x="1288" 
d="M206 355q29 0 37 25.5t8 82.5t-8 85.5t-37 28.5t-36.5 -27t-7.5 -83q0 -57 7.5 -84.5t36.5 -27.5zM206 281q-36 0 -69.5 10.5t-59.5 32.5t-41.5 56.5t-15.5 82.5q0 50 16 85.5t42 58.5t59.5 34t68.5 11q34 0 68 -10.5t60 -33t42.5 -57t16.5 -83.5t-16 -84.5t-42 -58
t-59.5 -33.5t-69.5 -11zM613 659h102l-456 -695h-102zM672 64q29 0 37 25.5t8 82.5t-7.5 85.5t-36.5 28.5t-37 -27t-8 -83q0 -57 7.5 -84.5t36.5 -27.5zM672 -11q-36 0 -69.5 10.5t-59.5 33t-41.5 57t-15.5 82.5q0 50 16 85.5t42.5 58.5t60 33.5t68.5 10.5q34 0 67.5 -10.5
t60 -33t43 -57t16.5 -83.5t-16 -84t-42.5 -58t-60 -34t-69.5 -11zM1081 64q29 0 37 25.5t8 82.5t-8 85.5t-37 28.5t-37 -27t-8 -83q0 -57 8 -84.5t37 -27.5zM1080 -11q-36 0 -69.5 10.5t-59 33t-41 57t-15.5 82.5q0 50 16 85.5t42 58.5t59.5 33.5t68.5 10.5q34 0 67.5 -10.5
t60 -33t43 -57t16.5 -83.5t-16 -84t-42.5 -58t-60 -34t-69.5 -11z" />
    <glyph glyph-name="plus.old" horiz-adv-x="540" 
d="M331 542v-171h164v-118h-164v-171h-122v171h-164v118h164v171h122z" />
    <glyph glyph-name="minus.old" horiz-adv-x="540" 
d="M45 371h450v-118h-450v118z" />
    <glyph glyph-name="multiply.old" horiz-adv-x="540" 
d="M51 160l141 143l-141 143l79 80l140 -143l140 142l79 -79l-140 -143l141 -143l-80 -79l-140 142l-140 -142z" />
    <glyph glyph-name="divide.old" horiz-adv-x="540" 
d="M270 23q-41 0 -67 26.5t-26 61.5q0 37 26 63t67 26q42 0 67.5 -26t25.5 -63q0 -35 -25.5 -61.5t-67.5 -26.5zM45 371h450v-118h-450v118zM270 424q-20 0 -37 7t-29.5 19t-19.5 28t-7 34q0 36 26 62.5t67 26.5q42 0 67.5 -26.5t25.5 -62.5q0 -35 -26 -61.5t-67 -26.5z" />
    <glyph glyph-name="equal.old" horiz-adv-x="538" 
d="M46 233h447v-118h-447v118zM46 435h447v-118h-447v118z" />
    <glyph glyph-name="less.old" horiz-adv-x="500" 
d="M449 529v-133l-256 -97l256 -98v-132l-404 173v113z" />
    <glyph glyph-name="greater.old" horiz-adv-x="500" 
d="M50 69v132l257 97l-257 98v133l405 -174v-113z" />
    <glyph glyph-name="numbersign.old" horiz-adv-x="527" 
d="M55 503h97l23 141h96l-23 -141h89l23 141h96l-23 -141h74v-135h-96l-14 -81h74v-135h-95l-25 -152h-96l25 152h-90l-25 -152h-96l25 152h-74v135h96l13 81h-74v135zM212 287h89l14 81h-90z" />
    <glyph glyph-name="zero.num" horiz-adv-x="446" 
d="M223 356q12 0 22 6.5t17 22t11 40.5t4 62q0 40 -3 67t-9.5 42.5t-17 22t-24.5 6.5q-28 0 -41 -30.5t-13 -100.5q0 -79 12.5 -108.5t41.5 -29.5zM223 275q-43 0 -79.5 12.5t-63 39t-41.5 66.5t-15 95q0 58 16 99.5t43.5 68t63.5 39t76 12.5q42 0 78.5 -12.5t63.5 -39
t42.5 -67t15.5 -95.5q0 -58 -16.5 -99t-44 -67.5t-64 -39t-75.5 -12.5z" />
    <glyph glyph-name="one.num" horiz-adv-x="312" 
d="M29 350l60 10v210l-63 -3v67l135 70h75v-344l61 -10v-68h-268v68z" />
    <glyph glyph-name="two.num" horiz-adv-x="382" 
d="M30 363l93 85q28 25 48.5 50.5t20.5 51.5q0 28 -17 41t-45 13q-22 0 -45.5 -3.5t-41.5 -10.5v80q26 16 61 26.5t86 10.5q77 0 116.5 -35t39.5 -93q0 -27 -8.5 -49.5t-24.5 -42t-39 -37.5t-52 -37l-53 -35v-3h92l22 38l71 1l-11 -132h-313v81z" />
    <glyph glyph-name="three.num" horiz-adv-x="366" 
d="M157 276q-51 0 -82.5 8.5t-49.5 17.5v75q17 -5 40.5 -8.5t50.5 -3.5q73 0 73 47q0 26 -16 35.5t-46 9.5h-46v77h39q64 0 64 41q0 43 -62 43q-26 0 -45 -3t-35 -8v75q19 11 54.5 18t77.5 7q72 0 111 -26.5t39 -77.5q0 -41 -24.5 -64t-61.5 -34v-3q43 -6 72 -30.5t29 -71.5
q0 -58 -46.5 -91t-135.5 -33z" />
    <glyph glyph-name="four.num" horiz-adv-x="416" 
d="M161 350l43 10v42h-180v66l202 232h115v-225h46v-73h-46v-42l47 -10v-68h-227v68zM204 475v97h-3l-81 -95v-2h84z" />
    <glyph glyph-name="five.num" horiz-adv-x="352" 
d="M148 276q-51 0 -81 8.5t-51 19.5v73q19 -5 38.5 -9t43.5 -4q37 0 58 11.5t21 40.5t-20 40.5t-59 11.5q-21 0 -35 -2t-29 -5l13 239h259l-7 -99h-175l-4 -61q11 3 25.5 5t32.5 2q66 0 107 -30t41 -97q0 -30 -10.5 -56t-32.5 -45.5t-55.5 -31t-79.5 -11.5z" />
    <glyph glyph-name="six.num" horiz-adv-x="412" 
d="M212 275q-46 0 -81 15t-59 42t-36 65t-12 84q0 59 17 101.5t45.5 70.5t66.5 41t81 13q45 0 76.5 -7t49.5 -18v-79q-14 5 -39.5 7t-50.5 2q-20 0 -38.5 -3.5t-33 -13t-24 -25.5t-10.5 -41q15 9 40 15.5t54 6.5q68 0 99.5 -35t31.5 -92q0 -30 -10 -57t-31.5 -47.5
t-55 -32.5t-80.5 -12zM212 354q20 0 32 15.5t12 49.5q0 31 -12.5 44t-34.5 13q-11 0 -24 -2t-21 -7v-21q0 -53 13 -72.5t35 -19.5z" />
    <glyph glyph-name="seven.num" horiz-adv-x="391" 
d="M264 597v3h-136l-19 -49h-79l9 149h329v-83l-126 -335h-161z" />
    <glyph glyph-name="eight.num" horiz-adv-x="431" 
d="M213 274q-95 0 -138.5 31.5t-43.5 85.5q0 32 22 56t61 38q-36 17 -53 41t-17 60q0 55 45 88t131 33q82 0 122.5 -29.5t40.5 -75.5q0 -32 -20 -52.5t-55 -33.5q43 -14 68 -39.5t25 -70.5q0 -66 -50 -99t-138 -33zM207 349q61 0 61 42q0 21 -21.5 33.5t-69.5 26.5
q-31 -22 -31 -56q0 -46 61 -46zM237 548q14 8 23 19.5t9 29.5t-13.5 26.5t-33.5 8.5t-33.5 -7.5t-13.5 -24.5q0 -20 13.5 -30t48.5 -22z" />
    <glyph glyph-name="nine.num" horiz-adv-x="415" 
d="M178 275q-44 0 -76.5 7.5t-49.5 17.5v79q15 -4 40.5 -6.5t49.5 -2.5q51 0 78.5 17t30.5 67q-15 -9 -40.5 -16.5t-55.5 -7.5q-69 0 -100.5 35.5t-31.5 92.5q0 30 10 57t32 47.5t55 32.5t80 12q46 0 81.5 -15t60 -42t37 -65t12.5 -84q0 -117 -58.5 -171.5t-154.5 -54.5z
M204 505q13 0 26 2.5t21 7.5v20q0 54 -14 73.5t-37 19.5q-19 0 -31.5 -15.5t-12.5 -49.5q0 -31 13 -44.5t35 -13.5z" />
    <glyph glyph-name="zero.den" horiz-adv-x="446" 
d="M223 74q12 0 22 6.5t17 22t11 40.5t4 62q0 40 -3 67t-9.5 42.5t-17 22t-24.5 6.5q-28 0 -41 -30.5t-13 -100.5q0 -79 12.5 -108.5t41.5 -29.5zM223 -7q-43 0 -79.5 12.5t-63 39t-41.5 66.5t-15 95q0 58 16 99.5t43.5 68t63.5 39t76 12.5q42 0 78.5 -12.5t63.5 -39
t42.5 -67t15.5 -95.5q0 -58 -16.5 -99t-44 -67.5t-64 -39t-75.5 -12.5z" />
    <glyph glyph-name="one.den" horiz-adv-x="312" 
d="M29 68l60 10v210l-63 -3v67l135 70h75v-344l61 -10v-68h-268v68z" />
    <glyph glyph-name="two.den" horiz-adv-x="382" 
d="M30 81l93 85q28 25 48.5 50.5t20.5 51.5q0 27 -17 40.5t-45 13.5q-22 0 -45.5 -3.5t-41.5 -10.5v80q26 15 61 26t86 11q77 0 116.5 -35.5t39.5 -93.5q0 -54 -33 -90.5t-91 -74.5l-53 -36v-2h92l22 38l71 1l-11 -132h-313v81z" />
    <glyph glyph-name="three.den" horiz-adv-x="366" 
d="M157 -6q-51 0 -82.5 8.5t-49.5 17.5v75q17 -5 40.5 -8.5t50.5 -3.5q73 0 73 47q0 26 -16 35.5t-46 9.5h-46v77h39q64 0 64 41q0 43 -62 43q-26 0 -45 -3t-35 -8v75q19 11 54.5 18t77.5 7q72 0 111 -26.5t39 -77.5q0 -41 -24.5 -64t-61.5 -34v-3q43 -6 72 -30.5t29 -71.5
q0 -58 -46.5 -91t-135.5 -33z" />
    <glyph glyph-name="four.den" horiz-adv-x="416" 
d="M161 68l43 10v42h-180v66l202 232h115v-226h46v-72h-46v-42l47 -10v-68h-227v68zM204 192v98h-3l-81 -95v-3h84z" />
    <glyph glyph-name="five.den" horiz-adv-x="352" 
d="M148 -6q-51 0 -81 8.5t-51 19.5v73q19 -5 38.5 -9t43.5 -4q37 0 58 11.5t21 40.5t-20 40.5t-59 11.5q-21 0 -35 -2t-29 -5l13 239h255l-6 -96h-172l-4 -64q11 3 25.5 5t32.5 2q66 0 107 -30t41 -97q0 -30 -10.5 -56t-32.5 -45.5t-55.5 -31t-79.5 -11.5z" />
    <glyph glyph-name="six.den" horiz-adv-x="412" 
d="M212 -7q-46 0 -81 15t-59 42t-36 65t-12 84q0 59 17 101.5t45.5 70.5t66.5 41t81 13q45 0 76.5 -7t49.5 -18v-79q-14 5 -39.5 7t-50.5 2q-20 0 -38.5 -3.5t-33 -13t-24 -25.5t-10.5 -41q15 9 40 15.5t54 6.5q68 0 99.5 -35t31.5 -92q0 -30 -10 -57t-31.5 -47.5t-55 -32.5
t-80.5 -12zM212 72q20 0 32 15.5t12 49.5q0 31 -12.5 44t-34.5 13q-11 0 -24 -2t-21 -7v-21q0 -53 13 -72.5t35 -19.5z" />
    <glyph glyph-name="seven.den" horiz-adv-x="391" 
d="M264 315v3h-136l-19 -49h-79l9 149h329v-83l-126 -335h-161z" />
    <glyph glyph-name="eight.den" horiz-adv-x="431" 
d="M213 -8q-95 0 -138.5 31.5t-43.5 85.5q0 32 22 56t61 38q-36 17 -53 41t-17 60q0 55 45 88t131 33q82 0 122.5 -29.5t40.5 -75.5q0 -32 -20 -52.5t-55 -33.5q43 -14 68 -39.5t25 -70.5q0 -66 -50 -99t-138 -33zM207 67q61 0 61 42q0 21 -21.5 33.5t-69.5 25.5
q-31 -20 -31 -55q0 -46 61 -46zM237 266q14 8 23 19.5t9 28.5q0 18 -13.5 27t-33.5 9t-33.5 -7.5t-13.5 -24.5q0 -20 13.5 -30t48.5 -22z" />
    <glyph glyph-name="nine.den" horiz-adv-x="415" 
d="M178 -7q-44 0 -76.5 7.5t-49.5 17.5v79q15 -4 40.5 -6.5t49.5 -2.5q51 0 78.5 17t30.5 67q-15 -9 -40.5 -16.5t-55.5 -7.5q-69 0 -100.5 35.5t-31.5 92.5q0 30 10 57t32 47.5t55 32.5t80 12q46 0 81.5 -15t60 -42t37 -65t12.5 -84q0 -117 -58.5 -171.5t-154.5 -54.5z
M204 223q13 0 26 2.5t21 7.5v20q0 54 -14 73.5t-37 19.5q-19 0 -31.5 -15.5t-12.5 -49.5q0 -31 13 -44.5t35 -13.5z" />
    <glyph glyph-name="zero.sub" horiz-adv-x="446" 
d="M223 -46q12 0 22 6.5t17 22t11 40.5t4 62q0 40 -3 67t-9.5 42.5t-17 22t-24.5 6.5q-28 0 -41 -30.5t-13 -100.5q0 -79 12.5 -108.5t41.5 -29.5zM223 -127q-43 0 -79.5 12.5t-63 39t-41.5 66.5t-15 95q0 58 16 99.5t43.5 68t63.5 39t76 12.5q42 0 78.5 -12.5t63.5 -39
t42.5 -67t15.5 -95.5q0 -58 -16.5 -99t-44 -67.5t-64 -39t-75.5 -12.5z" />
    <glyph glyph-name="one.sub" horiz-adv-x="312" 
d="M29 -52l60 10v210l-63 -3v67l135 70h75v-344l61 -10v-68h-268v68z" />
    <glyph glyph-name="two.sub" horiz-adv-x="382" 
d="M30 -39l93 85q28 25 48.5 50.5t20.5 51.5q0 27 -17 40.5t-45 13.5q-22 0 -45.5 -3.5t-41.5 -10.5v80q26 15 61 26t86 11q77 0 116.5 -35.5t39.5 -93.5q0 -54 -33 -90.5t-91 -74.5l-53 -36v-2h92l22 38l71 1l-11 -132h-313v81z" />
    <glyph glyph-name="three.sub" horiz-adv-x="366" 
d="M157 -126q-51 0 -82.5 8.5t-49.5 17.5v75q17 -5 40.5 -8.5t50.5 -3.5q73 0 73 47q0 26 -16 35.5t-46 9.5h-46v77h39q64 0 64 41q0 43 -62 43q-26 0 -45 -3t-35 -8v75q19 11 54.5 18t77.5 7q72 0 111 -26.5t39 -77.5q0 -41 -24.5 -64t-61.5 -34v-3q43 -6 72 -30.5
t29 -71.5q0 -58 -46.5 -91t-135.5 -33z" />
    <glyph glyph-name="four.sub" horiz-adv-x="416" 
d="M161 -52l43 10v42h-180v66l202 232h115v-226h46v-72h-46v-42l47 -10v-68h-227v68zM204 72v98h-3l-81 -95v-3h84z" />
    <glyph glyph-name="five.sub" horiz-adv-x="352" 
d="M148 -126q-51 0 -81 8.5t-51 19.5v73q19 -5 38.5 -9t43.5 -4q37 0 58 11.5t21 40.5t-20 40.5t-59 11.5q-21 0 -35 -2t-29 -5l13 239h255l-6 -96h-172l-4 -64q11 3 25.5 5t32.5 2q66 0 107 -30t41 -97q0 -30 -10.5 -56t-32.5 -45.5t-55.5 -31t-79.5 -11.5z" />
    <glyph glyph-name="six.sub" horiz-adv-x="412" 
d="M212 -127q-46 0 -81 15t-59 42t-36 65t-12 84q0 59 17 101.5t45.5 70.5t66.5 41t81 13q45 0 76.5 -7t49.5 -18v-79q-14 5 -39.5 7t-50.5 2q-20 0 -38.5 -3.5t-33 -13t-24 -25.5t-10.5 -41q15 9 40 15.5t54 6.5q68 0 99.5 -35t31.5 -92q0 -30 -10 -57t-31.5 -47.5
t-55 -32.5t-80.5 -12zM212 -48q20 0 32 15.5t12 49.5q0 31 -12.5 44t-34.5 13q-11 0 -24 -2t-21 -7v-21q0 -53 13 -72.5t35 -19.5z" />
    <glyph glyph-name="seven.sub" horiz-adv-x="391" 
d="M264 195v3h-136l-19 -49h-79l9 149h329v-83l-126 -335h-161z" />
    <glyph glyph-name="eight.sub" horiz-adv-x="431" 
d="M213 -128q-95 0 -138.5 31.5t-43.5 85.5q0 32 22 56t61 38q-36 17 -53 41t-17 60q0 55 45 88t131 33q82 0 122.5 -29.5t40.5 -75.5q0 -32 -20 -52.5t-55 -33.5q43 -14 68 -39.5t25 -70.5q0 -66 -50 -99t-138 -33zM207 -53q61 0 61 42q0 21 -21.5 33.5t-69.5 25.5
q-31 -20 -31 -55q0 -46 61 -46zM237 146q14 8 23 19.5t9 28.5q0 18 -13.5 27t-33.5 9t-33.5 -7.5t-13.5 -24.5q0 -20 13.5 -30t48.5 -22z" />
    <glyph glyph-name="nine.sub" horiz-adv-x="415" 
d="M178 -127q-44 0 -76.5 7.5t-49.5 17.5v79q15 -4 40.5 -6.5t49.5 -2.5q51 0 78.5 17t30.5 67q-15 -9 -40.5 -16.5t-55.5 -7.5q-69 0 -100.5 35.5t-31.5 92.5q0 30 10 57t32 47.5t55 32.5t80 12q46 0 81.5 -15t60 -42t37 -65t12.5 -84q0 -117 -58.5 -171.5t-154.5 -54.5z
M204 103q13 0 26 2.5t21 7.5v20q0 54 -14 73.5t-37 19.5q-19 0 -31.5 -15.5t-12.5 -49.5q0 -31 13 -44.5t35 -13.5z" />
    <glyph glyph-name="zero.sup" horiz-adv-x="446" 
d="M223 396q12 0 22 6.5t17 22t11 40.5t4 62q0 40 -3 67t-9.5 42.5t-17 22t-24.5 6.5q-28 0 -41 -30.5t-13 -100.5q0 -79 12.5 -108.5t41.5 -29.5zM223 315q-43 0 -79.5 12.5t-63 39t-41.5 66.5t-15 95q0 58 16 99.5t43.5 68t63.5 39t76 12.5q42 0 78.5 -12.5t63.5 -39
t42.5 -67t15.5 -95.5q0 -58 -16.5 -99t-44 -67.5t-64 -39t-75.5 -12.5z" />
    <glyph glyph-name="one.sup" horiz-adv-x="312" 
d="M29 390l60 10v210l-63 -3v67l135 70h75v-344l61 -10v-68h-268v68z" />
    <glyph glyph-name="two.sup" horiz-adv-x="382" 
d="M30 403l93 85q28 25 48.5 50.5t20.5 51.5q0 28 -17 41t-45 13q-22 0 -45.5 -3.5t-41.5 -10.5v80q26 16 61 26.5t86 10.5q77 0 116.5 -35t39.5 -93q0 -27 -8.5 -49.5t-24.5 -42t-39 -37.5t-52 -37l-53 -35v-3h92l22 38l71 1l-11 -132h-313v81z" />
    <glyph glyph-name="three.sup" horiz-adv-x="366" 
d="M157 316q-51 0 -82.5 8.5t-49.5 17.5v75q17 -5 40.5 -8.5t50.5 -3.5q73 0 73 47q0 26 -16 35.5t-46 9.5h-46v77h39q64 0 64 41q0 43 -62 43q-26 0 -45 -3t-35 -8v75q19 11 54.5 18t77.5 7q72 0 111 -26.5t39 -77.5q0 -41 -24.5 -64t-61.5 -34v-3q43 -6 72 -30.5t29 -71.5
q0 -58 -46.5 -91t-135.5 -33z" />
    <glyph glyph-name="four.sup" horiz-adv-x="416" 
d="M161 390l43 10v42h-180v66l202 232h115v-225h46v-73h-46v-42l47 -10v-68h-227v68zM204 515v97h-3l-81 -95v-2h84z" />
    <glyph glyph-name="five.sup" horiz-adv-x="352" 
d="M148 316q-51 0 -81 8.5t-51 19.5v73q19 -5 38.5 -9t43.5 -4q37 0 58 11.5t21 40.5t-20 40.5t-59 11.5q-21 0 -35 -2t-29 -5l13 239h255l-6 -96h-172l-4 -64q11 3 25.5 5t32.5 2q66 0 107 -30t41 -97q0 -30 -10.5 -56t-32.5 -45.5t-55.5 -31t-79.5 -11.5z" />
    <glyph glyph-name="six.sup" horiz-adv-x="412" 
d="M212 315q-46 0 -81 15t-59 42t-36 65t-12 84q0 59 17 101.5t45.5 70.5t66.5 41t81 13q45 0 76.5 -7t49.5 -18v-79q-14 5 -39.5 7t-50.5 2q-20 0 -38.5 -3.5t-33 -13t-24 -25.5t-10.5 -41q15 9 40 15.5t54 6.5q68 0 99.5 -35t31.5 -92q0 -30 -10 -57t-31.5 -47.5
t-55 -32.5t-80.5 -12zM212 394q20 0 32 15.5t12 49.5q0 31 -12.5 44t-34.5 13q-11 0 -24 -2t-21 -7v-21q0 -53 13 -72.5t35 -19.5z" />
    <glyph glyph-name="seven.sup" horiz-adv-x="391" 
d="M264 637v3h-136l-19 -49h-79l9 149h329v-83l-126 -335h-161z" />
    <glyph glyph-name="eight.sup" horiz-adv-x="431" 
d="M213 314q-95 0 -138.5 31.5t-43.5 85.5q0 32 22 56t61 38q-36 17 -53 41t-17 60q0 55 45 88t131 33q82 0 122.5 -29.5t40.5 -75.5q0 -32 -20 -52.5t-55 -33.5q43 -14 68 -39.5t25 -70.5q0 -66 -50 -99t-138 -33zM207 389q61 0 61 42q0 21 -21.5 33.5t-69.5 26.5
q-31 -22 -31 -56q0 -46 61 -46zM237 588q14 8 23 19.5t9 29.5t-13.5 26.5t-33.5 8.5t-33.5 -7.5t-13.5 -24.5q0 -20 13.5 -30t48.5 -22z" />
    <glyph glyph-name="nine.sup" horiz-adv-x="415" 
d="M178 315q-44 0 -76.5 7.5t-49.5 17.5v79q15 -4 40.5 -6.5t49.5 -2.5q51 0 78.5 17t30.5 67q-15 -9 -40.5 -16.5t-55.5 -7.5q-69 0 -100.5 35.5t-31.5 92.5q0 30 10 57t32 47.5t55 32.5t80 12q46 0 81.5 -15t60 -42t37 -65t12.5 -84q0 -117 -58.5 -171.5t-154.5 -54.5z
M204 545q13 0 26 2.5t21 7.5v20q0 54 -14 73.5t-37 19.5q-19 0 -31.5 -15.5t-12.5 -49.5q0 -31 13 -44.5t35 -13.5z" />
    <glyph glyph-name="K.alt" horiz-adv-x="738" 
d="M316 281v87l175 211l-64 17v97h281v-97l-59 -19l-172 -200l191 -264l56 -16v-97h-213zM17 97l69 17v465l-69 17v97h332v-97l-60 -16v-467l60 -16v-97h-332v97z" />
    <glyph glyph-name="P.alt" horiz-adv-x="647" 
d="M17 97l69 17v465l-69 17v97h341q73 0 125.5 -14t85.5 -40.5t48.5 -64t15.5 -85.5q0 -57 -17 -98.5t-47.5 -68.5t-74 -39.5t-96.5 -12.5q-15 0 -29 1.5t-25.5 3t-18.5 3l-7 1.5v96q1 0 12.5 -1t22.5 -1q78 0 78 103q0 52 -20 75.5t-64 23.5h-58v-462l80 -16v-97h-352v97z
" />
    <glyph glyph-name="R.alt" horiz-adv-x="705" 
d="M518 336q54 -13 82.5 -42.5t28.5 -91.5v-59q0 -23 10.5 -32t36.5 -9h17v-91q-20 -11 -47.5 -17t-61.5 -6q-85 0 -121.5 34.5t-36.5 114.5v72q0 40 -17 53.5t-64 13.5h-55v-164l58 -15v-97h-331v97l70 17v464l-69 18v97h352q72 0 123.5 -14t83.5 -39.5t47 -62t15 -80.5
q0 -71 -31.5 -106t-89.5 -51v-4zM354 381q48 0 66.5 27.5t18.5 78.5q0 48 -22.5 69t-71.5 21h-55v-196h64z" />
    <glyph glyph-name="a.alt" horiz-adv-x="546" 
d="M170 -13q-36 0 -65 10.5t-50 30t-32 46.5t-11 59q0 39 13.5 66t38.5 45.5t61.5 30t81.5 19.5l93 18v37q0 46 -17.5 65t-64.5 19h-20t-15 -2l-15 -69h-117v149q42 14 101 24t125 10q112 0 159 -42.5t47 -132.5v-238q0 -19 10.5 -25.5t25.5 -6.5h16v-87q-14 -9 -44 -17
t-63 -8q-44 0 -70.5 14.5t-37.5 47.5h-5q-20 -26 -57 -44.5t-88 -18.5zM248 93q17 0 30.5 6t21.5 14v115l-47 -2q-59 -4 -59 -67q0 -34 12.5 -50t41.5 -16z" />
    <glyph glyph-name="k.alt" horiz-adv-x="607" 
d="M276 212v66l116 152l-56 13v91h252v-91l-60 -15l-105 -131l133 -192l42 -14v-91h-175zM14 91l57 13v514l-60 16v92l227 24l17 -9v-639l46 -11v-91h-287v91z" />
    <glyph glyph-name="Kcommaaccent.alt" horiz-adv-x="738" 
d="M305 -189q5 34 7 70.5t2 82.5h174q-5 -42 -16.5 -82t-32.5 -71h-134zM316 281v87l175 211l-64 17v97h281v-97l-59 -19l-172 -200l191 -264l56 -16v-97h-213zM17 97l69 17v465l-69 17v97h332v-97l-60 -16v-467l60 -16v-97h-332v97z" />
    <glyph glyph-name="Racute.alt" horiz-adv-x="705" 
d="M244 722l-28 78l218 104l50 -130zM518 336q54 -13 82.5 -42.5t28.5 -91.5v-59q0 -23 10.5 -32t36.5 -9h17v-91q-20 -11 -47.5 -17t-61.5 -6q-85 0 -121.5 34.5t-36.5 114.5v72q0 40 -17 53.5t-64 13.5h-55v-164l58 -15v-97h-331v97l70 17v464l-69 18v97h352
q72 0 123.5 -14t83.5 -39.5t47 -62t15 -80.5q0 -71 -31.5 -106t-89.5 -51v-4zM354 381q48 0 66.5 27.5t18.5 78.5q0 48 -22.5 69t-71.5 21h-55v-196h64z" />
    <glyph glyph-name="Rcaron.alt" horiz-adv-x="705" 
d="M501 845l-120 -119h-86l-121 119l34 50l130 -51l130 51zM518 336q54 -13 82.5 -42.5t28.5 -91.5v-59q0 -23 10.5 -32t36.5 -9h17v-91q-20 -11 -47.5 -17t-61.5 -6q-85 0 -121.5 34.5t-36.5 114.5v72q0 40 -17 53.5t-64 13.5h-55v-164l58 -15v-97h-331v97l70 17v464
l-69 18v97h352q72 0 123.5 -14t83.5 -39.5t47 -62t15 -80.5q0 -71 -31.5 -106t-89.5 -51v-4zM354 381q48 0 66.5 27.5t18.5 78.5q0 48 -22.5 69t-71.5 21h-55v-196h64z" />
    <glyph glyph-name="Rcommaaccent.alt" horiz-adv-x="705" 
d="M266 -189q5 34 7 70.5t2 82.5h174q-5 -42 -16.5 -82t-32.5 -71h-134zM518 336q54 -13 82.5 -42.5t28.5 -91.5v-59q0 -23 10.5 -32t36.5 -9h17v-91q-20 -11 -47.5 -17t-61.5 -6q-85 0 -121.5 34.5t-36.5 114.5v72q0 40 -17 53.5t-64 13.5h-55v-164l58 -15v-97h-331v97
l70 17v464l-69 18v97h352q72 0 123.5 -14t83.5 -39.5t47 -62t15 -80.5q0 -71 -31.5 -106t-89.5 -51v-4zM354 381q48 0 66.5 27.5t18.5 78.5q0 48 -22.5 69t-71.5 21h-55v-196h64z" />
    <glyph glyph-name="Thorn.alt" horiz-adv-x="646" 
d="M17 97l69 17v465l-69 17v97h330v-97l-58 -16v-38h69q76 0 127.5 -14t83.5 -39.5t46 -60.5t14 -78q0 -89 -60 -138t-163 -49q-33 0 -53.5 2.5t-34.5 5.5v94q10 -2 29 -2q42 0 61.5 20t19.5 65q0 47 -20 63.5t-63 16.5h-56v-315l80 -16v-97h-352v97z" />
    <glyph glyph-name="aacute.alt" horiz-adv-x="546" 
d="M140 652l212 120l59 -127l-239 -69zM170 -13q-36 0 -65 10.5t-50 30t-32 46.5t-11 59q0 39 13.5 66t38.5 45.5t61.5 30t81.5 19.5l93 18v37q0 46 -17.5 65t-64.5 19h-20t-15 -2l-15 -69h-117v149q42 14 101 24t125 10q112 0 159 -42.5t47 -132.5v-238q0 -19 10.5 -25.5
t25.5 -6.5h16v-87q-14 -9 -44 -17t-63 -8q-44 0 -70.5 14.5t-37.5 47.5h-5q-20 -26 -57 -44.5t-88 -18.5zM248 93q17 0 30.5 6t21.5 14v115l-47 -2q-59 -4 -59 -67q0 -34 12.5 -50t41.5 -16z" />
    <glyph glyph-name="abreve.alt" horiz-adv-x="546" 
d="M170 -13q-36 0 -65 10.5t-50 30t-32 46.5t-11 59q0 39 13.5 66t38.5 45.5t61.5 30t81.5 19.5l93 18v37q0 46 -17.5 65t-64.5 19h-20t-15 -2l-15 -69h-117v149q42 14 101 24t125 10q112 0 159 -42.5t47 -132.5v-238q0 -19 10.5 -25.5t25.5 -6.5h16v-87q-14 -9 -44 -17
t-63 -8q-44 0 -70.5 14.5t-37.5 47.5h-5q-20 -26 -57 -44.5t-88 -18.5zM248 93q17 0 30.5 6t21.5 14v115l-47 -2q-59 -4 -59 -67q0 -34 12.5 -50t41.5 -16zM264 585q-36 0 -65 11.5t-49.5 32t-32 47.5t-12.5 58h105q3 -18 17.5 -28.5t36.5 -10.5t36.5 10.5t17.5 28.5h104
q-1 -31 -12.5 -58t-31.5 -47.5t-49 -32t-65 -11.5z" />
    <glyph glyph-name="acircumflex.alt" horiz-adv-x="546" 
d="M102 625l120 135h86l120 -135l-37 -50l-126 66l-127 -66zM170 -13q-36 0 -65 10.5t-50 30t-32 46.5t-11 59q0 39 13.5 66t38.5 45.5t61.5 30t81.5 19.5l93 18v37q0 46 -17.5 65t-64.5 19h-20t-15 -2l-15 -69h-117v149q42 14 101 24t125 10q112 0 159 -42.5t47 -132.5
v-238q0 -19 10.5 -25.5t25.5 -6.5h16v-87q-14 -9 -44 -17t-63 -8q-44 0 -70.5 14.5t-37.5 47.5h-5q-20 -26 -57 -44.5t-88 -18.5zM248 93q17 0 30.5 6t21.5 14v115l-47 -2q-59 -4 -59 -67q0 -34 12.5 -50t41.5 -16z" />
    <glyph glyph-name="adieresis.alt" horiz-adv-x="546" 
d="M160 581q-36 0 -62 22t-26 60q0 39 26 60.5t62 21.5q37 0 63.5 -21.5t26.5 -60.5q0 -38 -26.5 -60t-63.5 -22zM369 581q-36 0 -62.5 22t-26.5 60q0 39 26.5 60.5t62.5 21.5q37 0 63 -21.5t26 -60.5q0 -38 -26 -60t-63 -22zM170 -13q-36 0 -65 10.5t-50 30t-32 46.5
t-11 59q0 39 13.5 66t38.5 45.5t61.5 30t81.5 19.5l93 18v37q0 46 -17.5 65t-64.5 19h-20t-15 -2l-15 -69h-117v149q42 14 101 24t125 10q112 0 159 -42.5t47 -132.5v-238q0 -19 10.5 -25.5t25.5 -6.5h16v-87q-14 -9 -44 -17t-63 -8q-44 0 -70.5 14.5t-37.5 47.5h-5
q-20 -26 -57 -44.5t-88 -18.5zM248 93q17 0 30.5 6t21.5 14v115l-47 -2q-59 -4 -59 -67q0 -34 12.5 -50t41.5 -16z" />
    <glyph glyph-name="agrave.alt" horiz-adv-x="546" 
d="M170 -13q-36 0 -65 10.5t-50 30t-32 46.5t-11 59q0 39 13.5 66t38.5 45.5t61.5 30t81.5 19.5l93 18v37q0 46 -17.5 65t-64.5 19h-20t-15 -2l-15 -69h-117v149q42 14 101 24t125 10q112 0 159 -42.5t47 -132.5v-238q0 -19 10.5 -25.5t25.5 -6.5h16v-87q-14 -9 -44 -17
t-63 -8q-44 0 -70.5 14.5t-37.5 47.5h-5q-20 -26 -57 -44.5t-88 -18.5zM248 93q17 0 30.5 6t21.5 14v115l-47 -2q-59 -4 -59 -67q0 -34 12.5 -50t41.5 -16zM122 645l59 127l212 -120l-33 -76z" />
    <glyph glyph-name="amacron.alt" horiz-adv-x="546" 
d="M170 -13q-36 0 -65 10.5t-50 30t-32 46.5t-11 59q0 39 13.5 66t38.5 45.5t61.5 30t81.5 19.5l93 18v37q0 46 -17.5 65t-64.5 19h-20t-15 -2l-15 -69h-117v149q42 14 101 24t125 10q112 0 159 -42.5t47 -132.5v-238q0 -19 10.5 -25.5t25.5 -6.5h16v-87q-14 -9 -44 -17
t-63 -8q-44 0 -70.5 14.5t-37.5 47.5h-5q-20 -26 -57 -44.5t-88 -18.5zM248 93q17 0 30.5 6t21.5 14v115l-47 -2q-59 -4 -59 -67q0 -34 12.5 -50t41.5 -16zM120 706h289v-110h-289v110z" />
    <glyph glyph-name="aogonek.alt" horiz-adv-x="546" 
d="M433 -197q-66 0 -96 25t-30 61q0 33 22 59t62 43q-55 11 -71 59h-5q-20 -26 -57 -44.5t-88 -18.5q-36 0 -65 10.5t-50 30t-32 46.5t-11 59q0 39 13.5 66t38.5 45.5t61.5 30t81.5 19.5l93 18v37q0 46 -17.5 65t-64.5 19h-20t-15 -2l-15 -69h-117v149q42 14 101 24t125 10
q112 0 159 -42.5t47 -132.5v-238q0 -19 10.5 -25.5t25.5 -6.5h16v-87q-35 -16 -60 -40.5t-25 -53.5q0 -17 11.5 -25t28.5 -8q8 0 14.5 0.5t12.5 1.5v-71q-14 -6 -34.5 -10t-49.5 -4zM248 93q17 0 30.5 6t21.5 14v115l-47 -2q-59 -4 -59 -67q0 -34 12.5 -50t41.5 -16z" />
    </font>
</defs>
</svg>
