<?xml version="1.0" standalone="no"?>
<!DOCTYPE svg PUBLIC "-//W3C//DTD SVG 1.1//EN" "http://www.w3.org/Graphics/SVG/1.1/DTD/svg11.dtd" >
<svg xmlns="http://www.w3.org/2000/svg" xmlns:xlink="http://www.w3.org/1999/xlink" version="1.1">
<metadata>
Created by FontForge 20161003 at Tue Jan 22 23:25:51 2019
 By www-data
Copyright (c) 2009 by Commercial Type, Georgian by BPG-InfoTech. All rights reserved.
</metadata>
<defs>
<font id="BPGGuardianEgypCond" horiz-adv-x="488" >
  <font-face 
    font-family="BPGGuardianEgypCond"
    font-weight="400"
    font-stretch="normal"
    units-per-em="1000"
    panose-1="2 6 5 3 5 5 3 6 8 3"
    ascent="790"
    descent="-210"
    x-height="513"
    cap-height="693"
    bbox="-170 -213 1185 1033"
    underline-thickness="50"
    underline-position="-150"
    unicode-range="U+0020-FB04"
  />
<missing-glyph horiz-adv-x="494" 
 />
    <glyph glyph-name=".notdef" horiz-adv-x="494" 
 />
    <glyph glyph-name=".null" horiz-adv-x="0" 
 />
    <glyph glyph-name="nonmarkingreturn" horiz-adv-x="190" 
 />
    <glyph glyph-name="space" unicode=" " horiz-adv-x="190" 
 />
    <glyph glyph-name="exclam" unicode="!" horiz-adv-x="249" 
d="M70 693h105l-25 -503h-55zM124 -13q-25 0 -41.5 17.5t-16.5 40.5q0 24 16.5 41t41.5 17t42 -17t17 -41q0 -23 -17 -40.5t-42 -17.5z" />
    <glyph glyph-name="quotedbl" unicode="&#x22;" horiz-adv-x="373" 
d="M214 693h104l-23 -205h-60zM55 693h104l-23 -205h-60z" />
    <glyph glyph-name="numbersign" unicode="#" horiz-adv-x="504" 
d="M64 496h94l31 197h60l-31 -197h116l31 197h60l-31 -197h80v-88h-94l-18 -112h81v-88h-95l-33 -208h-60l33 208h-116l-33 -208h-60l33 208h-79v88h93l18 112h-80v88zM186 296h116l18 112h-116z" />
    <glyph glyph-name="dollar" unicode="$" horiz-adv-x="503" 
d="M174 -117l11 107q-44 3 -78.5 12t-63.5 20l-7 155h48l32 -103q17 -9 35 -15t40 -10l29 275l-44 19q-28 12 -52.5 27.5t-42.5 37t-28 49.5t-10 66q0 37 13 70.5t40 58.5t67.5 39.5t96.5 14.5l6 59h59l-7 -63q39 -5 65.5 -13t46.5 -15l7 -135h-47l-27 89l-21 7t-30 8
l-26 -245l26 -11q31 -13 59.5 -28.5t51 -37t36 -51.5t13.5 -73q0 -40 -12.5 -77t-40 -65.5t-71 -46.5t-104.5 -20l-11 -105h-59zM386 168q0 50 -27.5 78.5t-82.5 53.5l-26 -254q34 1 59.5 11.5t42.5 27t25.5 38t8.5 45.5zM124 545q0 -46 27.5 -73.5t78.5 -49.5l24 226h-2
q-54 0 -91 -26t-37 -77z" />
    <glyph glyph-name="percent" unicode="%" horiz-adv-x="826" 
d="M193 323q-35 0 -65 12t-52.5 36t-35.5 59t-13 81q0 47 13.5 83.5t36.5 61t53.5 37t63.5 12.5t63 -12.5t53 -36.5t36.5 -59.5t13.5 -81.5q0 -47 -13 -82.5t-36 -60t-53.5 -37t-64.5 -12.5zM632 -12q-35 0 -65 12t-52.5 36t-35.5 59t-13 81q0 47 13.5 83.5t36.5 61t53.5 37
t63.5 12.5t63 -12.5t53 -36.5t36.5 -59.5t13.5 -81.5q0 -47 -13 -82.5t-36 -60t-53.5 -37t-64.5 -12.5zM614 713h69l-480 -753h-69zM632 35q44 0 62.5 35t18.5 106q0 70 -18 108.5t-62 38.5q-45 0 -63.5 -37t-18.5 -106t18.5 -107t62.5 -38zM193 370q44 0 62.5 35t18.5 106
q0 70 -18 108.5t-62 38.5q-45 0 -63.5 -37t-18.5 -106t18.5 -107t62.5 -38z" />
    <glyph glyph-name="ampersand" unicode="&#x26;" horiz-adv-x="678" 
d="M248 -12q-50 0 -91.5 13.5t-71.5 38t-46.5 59t-16.5 76.5q0 35 11.5 63.5t33 53t51.5 46t67 42.5q-28 36 -45 72t-17 80q0 40 14.5 72t39.5 54.5t58 34.5t70 12q31 0 60 -9t51 -26.5t35 -43t13 -58.5q0 -34 -13.5 -60t-36 -47.5t-52.5 -40t-64 -36.5l174 -208
q19 31 31.5 65t20.5 69l-79 20v41h213v-40l-69 -20q-11 -45 -31 -91t-49 -88l60 -72l84 -19v-41h-154l-53 63q-39 -35 -88.5 -55t-109.5 -20zM124 186q0 -29 10 -54.5t28.5 -44t45.5 -29t61 -10.5q43 0 78.5 15t64.5 41l-196 237q-46 -31 -69 -67.5t-23 -87.5zM374 564
q0 42 -20 63.5t-54 21.5q-39 0 -62.5 -28.5t-23.5 -76.5q0 -36 15 -64.5t39 -58.5q27 15 46.5 29.5t33 31t20 36.5t6.5 46z" />
    <glyph glyph-name="quotesingle" unicode="'" horiz-adv-x="214" 
d="M55 693h104l-23 -205h-60z" />
    <glyph glyph-name="parenleft" unicode="(" horiz-adv-x="311" 
d="M266 -142q-38 32 -78.5 73t-73.5 95t-54.5 122t-21.5 154q0 78 21.5 145.5t54.5 123t73.5 99.5t78.5 76l32 -30q-32 -36 -61 -79.5t-51 -94t-35 -106t-13 -114.5q0 -78 13 -142.5t35 -117.5t51 -95.5t61 -78.5l-32 -30v0z" />
    <glyph glyph-name="parenright" unicode=")" horiz-adv-x="311" 
d="M13 -112q32 36 61 79.5t51 94t35 106t13 114.5q0 78 -13 142.5t-35 117.5t-51 95.5t-61 78.5l32 30q38 -32 78.5 -73t73.5 -95t54.5 -122t21.5 -154q0 -78 -21.5 -145.5t-54.5 -123t-73.5 -99.5t-78.5 -76z" />
    <glyph glyph-name="asterisk" unicode="*" horiz-adv-x="364" 
d="M163 509l-93 -72l-36 59l112 46l-112 47l36 59l93 -73l-19 118h75l-19 -118l94 73l36 -59l-112 -47l112 -46l-36 -59l-94 72l19 -115h-75z" />
    <glyph glyph-name="plus" unicode="+" horiz-adv-x="526" 
d="M58 371h172v179h66v-179h172v-62h-172v-179h-66v179h-172v62z" />
    <glyph glyph-name="comma" unicode="," horiz-adv-x="221" 
d="M48 -104q8 49 12.5 97t4.5 108h104q-8 -57 -22 -107t-39 -98h-60v0z" />
    <glyph glyph-name="hyphen" unicode="-" horiz-adv-x="302" 
d="M41 326h220v-78h-220v78z" />
    <glyph glyph-name="period" unicode="." horiz-adv-x="221" 
d="M109 -15q-26 0 -45 18t-19 45t19 45t45 18t45 -18t19 -45t-19 -45t-45 -18z" />
    <glyph glyph-name="slash" unicode="/" horiz-adv-x="334" 
d="M244 733h65l-240 -853h-65z" />
    <glyph glyph-name="zero" unicode="0" horiz-adv-x="626" 
d="M313 -13q-59 0 -110 21t-88 64.5t-58 110t-21 158.5q0 94 22 163t60 113.5t88.5 66t107.5 21.5q56 0 106 -20.5t87.5 -64t59.5 -111t22 -161.5q0 -93 -21 -161t-58.5 -112.5t-88 -66t-108.5 -21.5zM313 42q91 0 133 72.5t42 226.5q0 150 -41.5 229.5t-132.5 79.5
t-134 -76.5t-43 -225.5t42.5 -227.5t133.5 -78.5z" />
    <glyph glyph-name="one" unicode="1" horiz-adv-x="378" 
d="M43 41l103 17v543l-113 -11v41l187 71h26v-644l103 -17v-41h-306v41z" />
    <glyph glyph-name="two" unicode="2" horiz-adv-x="514" 
d="M11 49l172 174q35 36 65 69t51.5 66.5t33.5 67.5t12 72q0 63 -36.5 99.5t-120.5 36.5q-43 0 -78 -9.5t-70 -22.5v48q36 21 86.5 38t103.5 17q48 0 88 -12t68.5 -36.5t44 -61.5t15.5 -87q0 -39 -15 -77.5t-43 -77.5t-69 -80.5t-93 -87.5l-116 -102v-2h268l45 95h46
l-12 -176h-446v49z" />
    <glyph glyph-name="three" unicode="3" horiz-adv-x="493" 
d="M214 -11q-60 0 -108.5 13.5t-82.5 32.5v48q37 -13 77 -21t85 -8q76 0 122.5 35t46.5 103q0 78 -40.5 109t-126.5 31h-44v60h36q74 0 112.5 31t38.5 93q0 61 -32.5 92.5t-104.5 31.5q-45 0 -76.5 -6t-64.5 -17v47q35 17 79 29t92 12q96 0 150 -44t54 -127
q0 -63 -36.5 -105.5t-94.5 -59.5v-4q32 -6 61 -18.5t50.5 -33.5t34.5 -52t13 -74q0 -93 -64.5 -145.5t-176.5 -52.5z" />
    <glyph glyph-name="four" unicode="4" horiz-adv-x="570" 
d="M238 41l94 17v141h-313v60l328 434h81v-429h112v-65h-112v-141l94 -17v-41h-284v41zM332 264v306h-4l-228 -303v-3h232z" />
    <glyph glyph-name="five" unicode="5" horiz-adv-x="504" 
d="M200 -11q-57 0 -99.5 14.5t-77.5 34.5v47q38 -14 74.5 -22.5t79.5 -8.5q80 0 129.5 38.5t49.5 114.5q0 74 -44 115.5t-135 41.5q-29 0 -59 -4.5t-53 -8.5l26 342h351l-9 -83h-287l-15 -190q17 4 39 7t51 3q57 0 101.5 -15.5t74.5 -43.5t46 -68t16 -88q0 -52 -18 -93.5
t-51.5 -71t-81.5 -45.5t-108 -16z" />
    <glyph glyph-name="six" unicode="6" horiz-adv-x="564" 
d="M292 -13q-59 0 -106 22t-80 64t-50.5 102t-17.5 137q0 107 27 182t71.5 122t101.5 68t118 21q47 0 81.5 -9.5t57.5 -24.5v-49q-22 9 -55 14.5t-70 5.5q-42 0 -81 -12.5t-70 -43t-52 -83t-27 -133.5q33 20 79.5 37.5t104.5 17.5q43 0 81 -14t66 -40.5t44 -65.5t16 -88
q0 -48 -16 -90t-47 -73t-75 -49t-101 -18zM291 42q72 0 105.5 45.5t33.5 120.5q0 41 -10.5 70t-29.5 47.5t-44.5 27t-55.5 8.5q-49 0 -85.5 -11t-65.5 -30v-16q0 -53 7 -100.5t24.5 -83.5t46.5 -57t74 -21z" />
    <glyph glyph-name="seven" unicode="7" 
d="M416 607v4h-321l-29 -76h-47l9 158h446v-71l-272 -622h-110z" />
    <glyph glyph-name="eight" unicode="8" horiz-adv-x="565" 
d="M284 -13q-118 0 -184 48t-66 135q0 35 13 63t35 50.5t49.5 39t56.5 27.5q-65 31 -95 74.5t-30 103.5q0 36 15 68.5t43 56.5t67.5 38t89.5 14q49 0 89.5 -11t70 -32.5t45.5 -52.5t16 -71q0 -33 -11 -58.5t-29.5 -45t-41.5 -34.5t-47 -26q76 -31 118.5 -76t42.5 -114
q0 -42 -15.5 -78t-46.5 -62.5t-77.5 -41.5t-107.5 -15zM281 42q81 0 118.5 33.5t37.5 90.5q0 32 -12.5 54.5t-37 40.5t-61.5 34t-86 34q-23 -12 -44 -27t-36.5 -34t-24.5 -42t-9 -51q0 -64 37 -98.5t118 -34.5zM315 394q37 19 65.5 52.5t28.5 86.5q0 32 -10 54t-27 36
t-41 20.5t-51 6.5q-58 0 -93 -29.5t-35 -77.5q0 -30 10 -51.5t30 -38.5t50.5 -31t72.5 -28z" />
    <glyph glyph-name="nine" unicode="9" horiz-adv-x="564" 
d="M200 -13q-43 0 -76 9.5t-56 24.5v49q22 -9 54 -14.5t64 -5.5q49 0 90.5 12.5t72 43t50 83t24.5 133.5q-32 -20 -78.5 -37.5t-105.5 -17.5q-43 0 -80.5 14t-65.5 40.5t-44 65t-16 88.5q0 49 16 91t47 73t75 48.5t101 17.5q60 0 107 -23t79.5 -65.5t50 -102.5t17.5 -134
q0 -105 -24 -179.5t-67 -122t-103 -69.5t-132 -22zM274 332q49 0 85 10.5t66 29.5v16q0 53 -7 100.5t-24.5 83.5t-46.5 57t-74 21q-71 0 -105 -45.5t-34 -120.5q0 -41 10.5 -70t29.5 -47t44.5 -26.5t55.5 -8.5z" />
    <glyph glyph-name="colon" unicode=":" horiz-adv-x="228" 
d="M114 281q-26 0 -45 18t-19 45t19 45t45 18t45 -18t19 -45t-19 -45t-45 -18zM114 -15q-26 0 -45 18t-19 45t19 45t45 18t45 -18t19 -45t-19 -45t-45 -18z" />
    <glyph glyph-name="semicolon" unicode=";" horiz-adv-x="228" 
d="M47 -104q8 49 12.5 97t4.5 108h104q-8 -57 -22 -107t-39 -98h-60zM114 281q-26 0 -45 18t-19 45t19 45t45 18t45 -18t19 -45t-19 -45t-45 -18z" />
    <glyph glyph-name="less" unicode="&#x3c;" horiz-adv-x="506" 
d="M61 314v51l374 175v-71l-294 -129l294 -130v-71z" />
    <glyph glyph-name="equal" unicode="=" horiz-adv-x="516" 
d="M61 426h394v-62h-394v62zM61 256h394v-62h-394v62z" />
    <glyph glyph-name="greater" unicode="&#x3e;" horiz-adv-x="506" 
d="M71 210l294 129l-294 130v71l374 -175v-51l-374 -175v71z" />
    <glyph glyph-name="question" unicode="?" horiz-adv-x="408" 
d="M136 188q-6 14 -12.5 35.5t-6.5 48.5q0 22 6.5 39t18.5 32t30 30t42 33q17 13 29.5 26t21 27t12.5 30.5t4 38.5q0 61 -36.5 87.5t-90.5 26.5q-21 0 -37.5 -1.5t-31.5 -4t-29.5 -6.5t-31.5 -9v48q37 17 74 26.5t85 9.5q39 0 74 -9t61.5 -29.5t42 -54t15.5 -82.5
q0 -32 -7.5 -56t-23 -44.5t-39 -39t-54.5 -38.5q-15 -10 -29 -19t-24.5 -19t-17 -23t-6.5 -31q0 -26 10 -72h-49zM161 -13q-25 0 -41.5 17.5t-16.5 40.5q0 24 16.5 41t41.5 17q24 0 41.5 -17t17.5 -41q0 -23 -17.5 -40.5t-41.5 -17.5z" />
    <glyph glyph-name="at" unicode="@" horiz-adv-x="886" 
d="M445 -155q-98 0 -173 25t-126 72t-77.5 115t-26.5 154q0 94 32 179t90.5 149.5t140.5 102.5t183 38q82 0 148.5 -24t113.5 -69t73 -110.5t26 -147.5q0 -65 -19 -120.5t-52 -96.5t-78.5 -64t-98.5 -23q-48 0 -73 18.5t-31 46.5h-6q-27 -27 -56 -42t-66 -15q-25 0 -48 9.5
t-41 28.5t-28.5 47.5t-10.5 67.5q0 58 16 111.5t46 95t73 66.5t96 25q22 0 38 -3t29 -8t23.5 -11.5t21.5 -13.5l25 27h46l-67 -339q-6 -31 0.5 -44.5t26.5 -13.5q37 0 68 18t53.5 50.5t35.5 78t13 101.5q0 143 -75.5 223.5t-223.5 80.5q-91 0 -161.5 -33.5t-118.5 -90.5
t-73 -133t-25 -161q0 -315 337 -315q65 0 124 10t107 27v-45q-45 -20 -103.5 -32t-127.5 -12zM405 91q29 0 52 13t41 29l48 257q-8 18 -25.5 30t-49.5 12q-36 0 -61.5 -21.5t-42 -56t-24.5 -78.5t-8 -90q0 -51 17.5 -73t52.5 -22z" />
    <glyph glyph-name="A" unicode="A" horiz-adv-x="651" 
d="M-3 42l69 18l222 633h82l215 -633l69 -18v-42h-256v41l79 19l-53 164h-233l-55 -164l80 -19v-41h-219v42zM209 275h199l-94 294h-5z" />
    <glyph glyph-name="B" unicode="B" horiz-adv-x="605" 
d="M20 41l89 19v574l-88 18v41h283q121 0 180.5 -41t59.5 -129q0 -26 -7.5 -51t-24 -46.5t-42 -37.5t-62.5 -23v-5q94 -14 133 -56.5t39 -118.5q0 -39 -15.5 -73t-47 -58.5t-78 -39t-109.5 -14.5h-310v41zM315 56q78 0 118 30.5t40 105.5q0 77 -39 109t-115 32h-110v-277
h106zM298 384q30 0 55.5 5.5t44 19.5t29 37t10.5 58q0 42 -9.5 68t-27.5 40.5t-44 19.5t-60 5h-87v-253h89z" />
    <glyph glyph-name="C" unicode="C" horiz-adv-x="603" 
d="M351 -12q-72 0 -131.5 19.5t-102 61.5t-66 108.5t-23.5 160.5q0 103 28.5 173.5t76 113.5t108.5 61.5t126 18.5q63 0 111 -7.5t80 -18.5l5 -169h-46l-41 114q-19 8 -52 16.5t-69 8.5q-112 0 -166.5 -76.5t-54.5 -214.5q0 -152 54 -232.5t177 -80.5q36 0 64.5 8t50.5 20
l41 124h48l-6 -174q-38 -16 -88 -25.5t-124 -9.5z" />
    <glyph glyph-name="D" unicode="D" horiz-adv-x="671" 
d="M20 41l89 19v573l-88 19v41h276q94 0 160 -22t107.5 -64t60.5 -103t19 -140q0 -176 -80.5 -270t-255.5 -94h-288v41zM310 55q57 0 99.5 14.5t71 48.5t42.5 90.5t14 140.5q0 96 -17 153t-49.5 87.5t-80 39.5t-107.5 9h-74v-583h101z" />
    <glyph glyph-name="E" unicode="E" horiz-adv-x="585" 
d="M20 41l89 19v573l-88 19v41h514l11 -172h-48l-43 117h-246v-255h132l27 95h43v-242h-43l-27 96h-132v-277h256l54 145h48l-13 -200h-534v41z" />
    <glyph glyph-name="F" unicode="F" horiz-adv-x="580" 
d="M20 41l89 18v574l-88 19v41h515l11 -178h-48l-43 123h-247v-268h134l26 94h43v-243h-44l-25 98h-134v-259l96 -19v-41h-285v41z" />
    <glyph glyph-name="G" unicode="G" horiz-adv-x="659" 
d="M373 -13q-81 0 -145 19.5t-108.5 62t-68 109t-23.5 160.5q0 103 29.5 173.5t78 113.5t110.5 61.5t127 18.5q68 0 117 -7.5t81 -17.5l8 -171h-46l-42 113q-23 12 -54.5 19.5t-73.5 7.5q-115 0 -172 -76.5t-57 -214.5q0 -152 54 -232.5t178 -80.5q37 0 63.5 5.5t46.5 12.5
v194l-92 17v41h266v-41l-74 -17v-239q-88 -31 -203 -31z" />
    <glyph glyph-name="H" unicode="H" horiz-adv-x="724" 
d="M20 41l88 18v574l-88 19v41h275v-41l-87 -19v-253h310v253l-89 19v41h275v-41l-86 -19v-574l86 -18v-41h-275v41l89 18v270h-310v-270l87 -18v-41h-275v41z" />
    <glyph glyph-name="I" unicode="I" horiz-adv-x="315" 
d="M20 41l88 18v575l-88 18v41h275v-41l-87 -18v-575l87 -18v-41h-275v41z" />
    <glyph glyph-name="J" unicode="J" horiz-adv-x="403" 
d="M126 -10q-43 0 -70 8t-46 17v56q25 -8 46 -12.5t57 -4.5q21 0 38.5 4.5t30 16.5t19.5 32.5t7 52.5v473l-88 19v41h275v-41l-87 -19v-483q0 -78 -47.5 -119t-134.5 -41z" />
    <glyph glyph-name="K" unicode="K" horiz-adv-x="651" 
d="M20 41l88 18v575l-88 18v41h279v-41l-91 -18v-575l91 -18v-41h-279v41zM248 328v22l231 284l-64 18v41h215v-41l-67 -18l-225 -265l225 -309l75 -19v-41h-155z" />
    <glyph glyph-name="L" unicode="L" horiz-adv-x="554" 
d="M20 41l88 18v575l-88 18v41h284v-41l-96 -18v-579h234l49 164h47l-13 -219h-505v41z" />
    <glyph glyph-name="M" unicode="M" horiz-adv-x="864" 
d="M20 40l88 19v575l-88 18v41h234l170 -508h4l173 508h243v-41l-96 -18v-574l96 -19v-41h-270v41l76 19v561h-3l-206 -587h-61l-199 587h-3v-561l78 -19v-41h-236v40z" />
    <glyph glyph-name="N" unicode="N" horiz-adv-x="707" 
d="M20 39l89 20v574l-89 19v41h222l302 -516h5v455l-88 20v41h236v-40l-79 -20v-633h-79l-356 608h-4v-548l89 -20v-40h-248v39z" />
    <glyph glyph-name="O" unicode="O" horiz-adv-x="682" 
d="M340 -12q-65 0 -122 23.5t-99 69t-66.5 112.5t-24.5 154q0 93 27.5 160.5t72 111.5t101 65t114.5 21q64 0 121 -23t99 -68t66.5 -111.5t24.5 -153.5q0 -93 -27.5 -161t-71.5 -112.5t-100.5 -66t-114.5 -21.5zM342 45q52 0 91 22t64.5 61t38 92.5t12.5 116.5
q0 152 -51.5 232t-157.5 80q-53 0 -91.5 -22t-64 -61.5t-37.5 -93t-12 -116.5q0 -69 11 -126.5t35.5 -98.5t64 -63.5t97.5 -22.5z" />
    <glyph glyph-name="P" unicode="P" horiz-adv-x="553" 
d="M20 41l88 19v574l-88 18v41h264q73 0 123.5 -13.5t81.5 -38t44.5 -60t13.5 -80.5q0 -53 -18 -91t-49 -62.5t-71 -36t-85 -11.5q-9 0 -20 1t-20.5 1.5t-16 1.5t-7.5 1v43q2 0 15 -1t34 -1q66 0 100 38t34 110q0 76 -33.5 108t-105.5 32h-96v-574l105 -19v-41h-293v41z" />
    <glyph glyph-name="Q" unicode="Q" horiz-adv-x="682" 
d="M260 -4q-39 12 -80 36t-75 65t-55.5 102t-21.5 148q0 93 27.5 160.5t72 111.5t101 65t114.5 21q64 0 121 -23t99 -68t66.5 -111.5t24.5 -153.5q0 -75 -17.5 -132.5t-48 -98.5t-71 -67t-86.5 -38v-2l255 -52l-24 -87zM342 45q52 0 91 22t64.5 61t38 92.5t12.5 116.5
q0 152 -51.5 232t-157.5 80q-53 0 -91.5 -22t-64 -61.5t-37.5 -93t-12 -116.5q0 -69 11 -126.5t35.5 -98.5t64 -63.5t97.5 -22.5z" />
    <glyph glyph-name="R" unicode="R" horiz-adv-x="636" 
d="M20 41l90 19v573l-87 19v41h290q124 0 182 -49t58 -138q0 -38 -12 -66t-32 -48.5t-45.5 -34t-52.5 -22.5v-4l159 -272l71 -19v-40h-149l-176 311h-106v-251l86 -19v-41h-276v41zM311 362q40 0 66.5 12t42.5 31.5t23 45.5t7 53q0 69 -32.5 99.5t-107.5 30.5h-100v-272h101
z" />
    <glyph glyph-name="S" unicode="S" horiz-adv-x="519" 
d="M248 -12q-61 0 -109.5 10t-85.5 24l-7 158h48l32 -102q28 -15 58 -23.5t74 -8.5q35 0 61.5 10t44 26.5t26.5 38.5t9 47q0 27 -8.5 47t-25 36t-39.5 28.5t-53 24.5l-84 36q-58 24 -94.5 66t-36.5 117q0 37 13 70.5t40 58.5t68 39.5t97 14.5q60 0 101 -7.5t70 -17.5l7 -148
h-47l-27 89q-14 8 -39.5 17t-72.5 9q-26 0 -49 -6t-40 -19t-27 -32t-10 -45q0 -45 25.5 -72t78.5 -49l84 -35q33 -14 62 -30t50.5 -38t34.5 -52t13 -73q0 -41 -13.5 -78.5t-43 -66.5t-75.5 -46.5t-110 -17.5z" />
    <glyph glyph-name="T" unicode="T" horiz-adv-x="593" 
d="M155 41l91 18v579h-151l-38 -143h-48l11 198h553l11 -198h-48l-38 143h-151v-579l91 -18v-41h-283v41z" />
    <glyph glyph-name="U" unicode="U" horiz-adv-x="675" 
d="M343 -13q-64 0 -112 16t-80 45.5t-48 70.5t-16 92v423l-86 18v41h275v-41l-88 -18v-406q0 -93 44 -135t126 -42q83 0 127 42t44 136v404l-88 18v42h233v-41l-76 -18v-414q0 -108 -66.5 -170.5t-188.5 -62.5z" />
    <glyph glyph-name="V" unicode="V" horiz-adv-x="642" 
d="M65 633l-63 19v41h249v-41l-80 -19l164 -505h5l165 505l-79 19v41h214v-41l-64 -19l-216 -633h-78z" />
    <glyph glyph-name="W" unicode="W" horiz-adv-x="936" 
d="M64 633l-60 19v41h235v-41l-75 -19l126 -486h5l153 546h61l154 -546h4l123 486l-75 19v41h217v-41l-70 -19l-170 -633h-81l-144 522h-4l-149 -522h-81z" />
    <glyph glyph-name="X" unicode="X" horiz-adv-x="671" 
d="M20 41l74 19l189 293l-177 281l-75 18v41h263v-41l-71 -18l129 -222l130 222l-76 18v41h224v-41l-75 -18l-169 -275l191 -300l74 -18v-41h-258v41l73 18l-151 243l-148 -242l76 -20v-40h-223v41z" />
    <glyph glyph-name="Y" unicode="Y" horiz-adv-x="608" 
d="M173 41l88 19v247l-200 326l-61 19v41h238v-41l-69 -19l161 -269h4l146 269l-74 19v41h202v-41l-60 -19l-187 -328v-245l86 -19v-41h-274v41z" />
    <glyph glyph-name="Z" unicode="Z" horiz-adv-x="530" 
d="M11 46l384 586v4h-273l-43 -132h-49l10 189h476v-46l-385 -586v-4h297l44 132h48l-10 -189h-499v46z" />
    <glyph glyph-name="bracketleft" unicode="[" horiz-adv-x="314" 
d="M64 733h217v-41l-127 -18v-735l127 -18v-41h-217v853z" />
    <glyph glyph-name="backslash" unicode="\" horiz-adv-x="334" 
d="M25 733h65l240 -853h-65z" />
    <glyph glyph-name="bracketright" unicode="]" horiz-adv-x="314" 
d="M33 -79l127 18v735l-127 18v41h217v-853h-217v41z" />
    <glyph glyph-name="asciicircum" unicode="^" horiz-adv-x="394" 
d="M168 693h58l146 -240h-54l-121 157l-121 -157h-54z" />
    <glyph glyph-name="underscore" unicode="_" horiz-adv-x="310" 
d="M-10 -68h330v-52h-330v52z" />
    <glyph glyph-name="grave" unicode="`" 
d="M127 658l45 72l172 -128l-20 -34z" />
    <glyph glyph-name="a" unicode="a" horiz-adv-x="473" 
d="M172 -13q-69 0 -112.5 37t-43.5 103q0 33 11.5 56t32 39t49.5 26t64 17l131 27v54q0 30 -3.5 50.5t-15.5 33.5t-35 18.5t-61 5.5q-15 0 -33 -1t-35.5 -2.5t-33.5 -3.5t-28 -4v43q15 6 35 13t43 12t48 8.5t49 3.5q84 0 123 -36.5t39 -114.5v-295q0 -24 12.5 -31t35.5 -7
h25v-34q-9 -5 -31.5 -10t-49.5 -5q-30 0 -49.5 12t-24.5 41h-6q-20 -22 -53 -39t-83 -17zM205 49q31 0 58 12t41 25v147l-102 -8q-53 -5 -72.5 -27.5t-19.5 -60.5q0 -40 23 -64t72 -24z" />
    <glyph glyph-name="b" unicode="b" horiz-adv-x="541" 
d="M248 -12q-60 0 -107 11.5t-79 25.5v643l-76 16v38l155 23l12 -5v-270h5q31 22 66.5 37.5t88.5 15.5q36 0 72 -11t64 -38.5t45.5 -75.5t17.5 -122q0 -71 -19 -125t-53.5 -90t-83.5 -54.5t-108 -18.5zM259 41q35 0 64 11t50 36t32.5 66.5t11.5 103.5q0 54 -10 91t-29.5 60
t-47.5 33t-64 10q-35 0 -65.5 -8.5t-47.5 -16.5v-355q16 -11 38.5 -21t67.5 -10z" />
    <glyph glyph-name="c" unicode="c" horiz-adv-x="452" 
d="M273 -12q-60 0 -106 18.5t-77.5 53t-48 83.5t-16.5 109q0 73 21.5 124.5t58 84t85.5 47.5t104 15q36 0 70.5 -5.5t62.5 -14.5v-129h-52l-20 85q-12 4 -26.5 6.5t-45.5 2.5q-75 0 -119 -50.5t-44 -154.5q0 -59 14 -99t38.5 -64.5t57 -35t69.5 -10.5q52 0 86 8.5t52 17.5
v-46q-25 -17 -64 -31.5t-100 -14.5z" />
    <glyph glyph-name="d" unicode="d" horiz-adv-x="566" 
d="M247 -12q-36 0 -74.5 12t-70 41.5t-52 79t-20.5 123.5q0 71 19 123.5t53.5 87t83 51.5t107.5 17q30 0 52 -4t43 -10v159l-82 16v38l162 23l12 -5v-677l75 -16v-34l-150 -23l-11 5v52h-6q-20 -26 -55 -42.5t-86 -16.5zM275 58q35 0 65.5 10t47.5 19v350q-8 6 -17.5 11.5
t-21.5 10t-28.5 7.5t-38.5 3q-35 0 -64 -10t-50 -35t-32.5 -66t-11.5 -102q0 -107 40 -152.5t111 -45.5z" />
    <glyph glyph-name="e" unicode="e" horiz-adv-x="493" 
d="M275 -12q-66 0 -113 20.5t-77.5 56.5t-45 86t-14.5 110q0 61 18.5 110t50.5 82.5t74.5 51.5t91.5 18q56 0 95.5 -19t65 -53.5t37 -83.5t11.5 -109h-349q3 -103 48.5 -154t125.5 -51q55 0 88.5 8.5t61.5 18.5v-45q-24 -14 -64.5 -30.5t-104.5 -16.5zM365 316
q0 80 -27.5 116.5t-83.5 36.5q-60 0 -94.5 -38.5t-39.5 -122.5z" />
    <glyph glyph-name="f" unicode="f" horiz-adv-x="311" 
d="M20 34l74 16v404h-71v35l71 25v58q0 48 13.5 81.5t36.5 54.5t53.5 30.5t65.5 9.5q39 0 62.5 -7.5t37.5 -15.5v-45q-14 3 -31 5.5t-42 2.5t-44 -5.5t-32.5 -19.5t-20.5 -37.5t-7 -59.5v-53h125v-59h-125v-404l88 -16v-34h-254v34z" />
    <glyph glyph-name="g" unicode="g" horiz-adv-x="500" 
d="M217 -206q-57 0 -96.5 11t-64.5 29t-36.5 40t-11.5 43q0 39 28 69t70 48v5q-24 9 -39 26.5t-15 42.5q0 29 16.5 55.5t48.5 52.5q-33 20 -52.5 52.5t-19.5 80.5q0 42 15.5 74.5t42.5 54.5t62.5 33.5t76.5 11.5q55 0 99 -18l150 21v-68l-95 6q20 -20 31 -44.5t11 -59.5
q0 -42 -15.5 -74.5t-42.5 -54.5t-63 -33t-76 -11q-24 0 -47 3t-43 10q-14 -14 -21 -29t-7 -28t9 -22t29 -9h171q31 0 59 -6t49 -20.5t33.5 -38.5t12.5 -61q0 -39 -17.5 -74t-51 -61t-84 -41.5t-116.5 -15.5zM225 -149q47 0 81 9t56 24t32.5 35t10.5 42q0 35 -22.5 50
t-65.5 15h-167q-26 -12 -40.5 -36.5t-14.5 -54.5q0 -37 30.5 -60.5t99.5 -23.5zM241 238q48 0 77 28.5t29 87.5q0 63 -30.5 90.5t-75.5 27.5q-48 0 -76.5 -29t-28.5 -87q0 -63 30 -90.5t75 -27.5z" />
    <glyph glyph-name="h" unicode="h" horiz-adv-x="580" 
d="M-50 34l75 16v618l-75 16v38l156 23l11 -6v-267h6q38 22 79 36.5t88 14.5q72 0 108 -30.5t36 -106.5v-336l75 -16v-34h-240v34l73 16v312q0 53 -26.5 72t-80.5 19q-32 0 -60.5 -7t-57.5 -17v-379l73 -16v-34h-240v34z" />
    <glyph glyph-name="i" unicode="i" horiz-adv-x="269" 
d="M15 34l74 16v393l-80 16v38l161 24l11 -6v-465l75 -16v-34h-241v34zM131 605q-23 0 -40 17t-17 39q0 23 17 39.5t40 16.5q24 0 40.5 -16.5t16.5 -39.5q0 -22 -16.5 -39t-40.5 -17z" />
    <glyph glyph-name="j" unicode="j" horiz-adv-x="261" 
d="M34 -197q-19 0 -37.5 4t-36.5 11v42q11 -2 23 -2.5t22 -0.5q18 0 34.5 4t29 15t19.5 29.5t7 48.5v489l-80 16v38l161 24l11 -6v-571q0 -68 -39.5 -104.5t-113.5 -36.5zM137 605q-23 0 -40 17t-17 39q0 23 17 39.5t40 16.5q24 0 40.5 -16.5t16.5 -39.5q0 -22 -16.5 -39
t-40.5 -17z" />
    <glyph glyph-name="k" unicode="k" horiz-adv-x="529" 
d="M14 34l75 15v619l-75 16v38l155 23l12 -6v-690l77 -15v-34h-244v34zM214 257v14l151 191l-60 15v36h202v-36l-73 -15l-141 -166l171 -246l65 -16v-34h-136z" />
    <glyph glyph-name="l" unicode="l" horiz-adv-x="269" 
d="M14 34l75 16v618l-81 16v38l161 23l12 -6v-689l75 -16v-34h-242v34z" />
    <glyph glyph-name="m" unicode="m" horiz-adv-x="878" 
d="M14 34l75 16v393l-75 16v38l151 24l11 -6v-44h6q38 22 77.5 37t92.5 15q88 0 119 -57h6q37 23 82 40t96 17q69 0 104 -34t35 -108v-331l74 -16v-34h-239v34l73 16v306q0 56 -26.5 76.5t-80.5 20.5q-29 0 -57.5 -7t-54.5 -16q2 -8 3 -20t1 -29v-331l73 -16v-34h-238v34
l74 16v306q0 56 -26 76.5t-76 20.5q-35 0 -59.5 -6.5t-53.5 -16.5v-380l73 -16v-34h-240v34z" />
    <glyph glyph-name="n" unicode="n" horiz-adv-x="582" 
d="M14 34l75 16v393l-75 16v38l151 24l11 -6v-45h6q38 22 81.5 37.5t90.5 15.5q72 0 108 -30.5t36 -106.5v-336l75 -16v-34h-240v34l73 16v312q0 53 -26.5 71.5t-80.5 18.5q-32 0 -60.5 -6.5t-57.5 -16.5v-379l73 -16v-34h-240v34z" />
    <glyph glyph-name="o" unicode="o" horiz-adv-x="541" 
d="M272 -13q-56 0 -101.5 19t-77.5 53.5t-50 84t-18 109.5t19.5 110t52.5 85.5t77.5 55t94.5 19.5q55 0 100.5 -19t78 -53.5t50.5 -83.5t18 -109t-19.5 -110t-52.5 -86t-77.5 -55.5t-94.5 -19.5zM273 42q28 0 54.5 10.5t47 34.5t33 64t12.5 99q0 61 -13 103t-34.5 67.5
t-49 36.5t-55.5 11t-54.5 -10.5t-47 -34.5t-33 -64t-12.5 -99q0 -61 13 -102.5t34 -67t48.5 -37t56.5 -11.5z" />
    <glyph glyph-name="p" unicode="p" horiz-adv-x="565" 
d="M8 -165l74 14v594l-75 16v38l150 24l11 -6v-48h6q31 23 69 39.5t91 16.5q36 0 71.5 -11t63.5 -38.5t45.5 -75.5t17.5 -122q0 -71 -19 -125t-53.5 -90t-83 -54.5t-107.5 -18.5q-30 0 -52 2t-43 7v-146l87 -16v-34h-253v34zM280 41q35 0 64 11t50 36t32.5 66.5t11.5 103.5
q0 54 -10 91t-29.5 60t-47.5 33t-64 10q-35 0 -65.5 -8.5t-47.5 -16.5v-357q16 -10 38.5 -19.5t67.5 -9.5z" />
    <glyph glyph-name="q" unicode="q" horiz-adv-x="552" 
d="M293 -166l87 16v193h-6q-29 -23 -61 -39.5t-83 -16.5q-36 0 -73 11t-67 39.5t-49 77t-19 123.5q0 71 19 124t53 88.5t82 53.5t105 18q52 0 99.5 -8t91.5 -23v-643l74 -14v-34h-253v34zM267 57q35 0 65.5 10t47.5 19v350q-8 6 -17 11.5t-21.5 10t-30 7.5t-41.5 3
q-33 0 -61 -10t-49 -35t-32.5 -66t-11.5 -102q0 -107 40 -152.5t111 -45.5z" />
    <glyph glyph-name="r" unicode="r" horiz-adv-x="350" 
d="M14 34l75 16v393l-75 16v38l151 24l11 -6v-65h6q11 13 25 26t31 23.5t36 17t40 6.5q7 0 15.5 -1t12.5 -3v-80q-10 2 -21 2.5t-18 0.5q-36 0 -66.5 -9t-55.5 -26v-357l82 -16v-34h-249v34z" />
    <glyph glyph-name="s" unicode="s" horiz-adv-x="418" 
d="M193 -13q-42 0 -83.5 8.5t-75.5 19.5l-8 138h48l27 -89q14 -8 39 -15t60 -7q48 0 78.5 19t30.5 59q0 19 -5 33t-16.5 24t-30 18t-45.5 17l-55 18q-60 20 -92.5 53.5t-32.5 90.5q0 30 11.5 57t35 47t58 32t80.5 12q43 0 79.5 -5.5t62.5 -13.5v-130h-45l-24 78
q-13 8 -32 12.5t-50 4.5q-42 0 -69.5 -16t-27.5 -56q0 -33 21.5 -52t77.5 -36l55 -18q70 -23 98.5 -57t28.5 -88q0 -33 -12.5 -61.5t-37.5 -50t-62.5 -34t-86.5 -12.5z" />
    <glyph glyph-name="t" unicode="t" horiz-adv-x="342" 
d="M217 -9q-66 0 -98.5 27t-32.5 97v339h-73v35l80 24l16 120h69v-120h134v-59h-134v-320q0 -43 16.5 -63t63.5 -20q17 0 33 2t31 5v-37q-17 -11 -45 -20.5t-60 -9.5z" />
    <glyph glyph-name="u" unicode="u" horiz-adv-x="582" 
d="M226 -10q-78 0 -112 40.5t-34 109.5v310l-76 16v38l156 16l11 -6v-351q0 -54 19.5 -80.5t79.5 -26.5q47 0 75 9.5t51 19.5v365l-73 16v38l154 16l11 -6v-451l75 -16v-34l-150 -23l-11 5v56h-6q-32 -29 -74 -45t-96 -16z" />
    <glyph glyph-name="v" unicode="v" horiz-adv-x="529" 
d="M54 462l-56 15v36h220v-36l-63 -12l127 -363h4l129 363l-63 12v36h179v-36l-56 -15l-173 -462h-73z" />
    <glyph glyph-name="w" unicode="w" horiz-adv-x="773" 
d="M51 462l-53 15v36h212v-36l-64 -15l97 -337h4l125 388h61l123 -388h4l98 337l-63 15v36h180v-36l-53 -15l-143 -462h-69l-116 381h-3l-130 -381h-68z" />
    <glyph glyph-name="x" unicode="x" horiz-adv-x="529" 
d="M9 34l61 15l143 204l-141 209l-59 15v36h222v-36l-59 -13l105 -162h2l103 162l-63 13v36h186v-36l-58 -15l-137 -196l145 -217l61 -15v-34h-225v34l63 13l-110 166h-2l-111 -166l64 -13v-34h-190v34z" />
    <glyph glyph-name="y" unicode="y" horiz-adv-x="526" 
d="M122 -199q-21 0 -42.5 5.5t-34.5 13.5v52q17 -4 28 -6.5t25 -2.5q44 0 68.5 18t43.5 62l30 71l-186 448l-56 15v36h225v-36l-68 -14l129 -333h4l114 332l-65 15v36h191v-36l-56 -15l-203 -538q-11 -31 -24.5 -54t-30.5 -38.5t-39.5 -23t-52.5 -7.5z" />
    <glyph glyph-name="z" unicode="z" horiz-adv-x="472" 
d="M27 48l299 411v4h-204l-30 -111h-47l8 161h381v-46l-299 -413v-4h216l37 122h48l-13 -172h-396v48z" />
    <glyph glyph-name="braceleft" unicode="{" horiz-adv-x="368" 
d="M335 -120q-65 2 -107.5 12t-67 27t-34.5 40t-10 51q0 21 5 47t10.5 52t10.5 49.5t5 40.5q0 14 -3.5 26t-16 21.5t-36 16.5t-63.5 12v63q40 5 63.5 12t36 16.5t16 21.5t3.5 26q0 16 -5 40t-10.5 50t-10.5 52t-5 47q0 28 10 51t34.5 40t67 27t107.5 12v-41
q-35 -6 -58.5 -11.5t-38 -14t-21 -22t-6.5 -35.5q0 -18 3.5 -39.5t8 -45t8.5 -47.5t4 -46q0 -19 -3.5 -36.5t-18 -33t-43 -29t-77.5 -23.5v-5q49 -11 77.5 -24t43 -28.5t18 -33t3.5 -36.5q0 -22 -4 -46t-8.5 -47.5t-8 -45t-3.5 -39.5q0 -22 6.5 -35.5t21 -22t38 -14
t58.5 -11.5v-41v0z" />
    <glyph glyph-name="bar" unicode="|" horiz-adv-x="214" 
d="M76 733h62v-853h-62v853z" />
    <glyph glyph-name="braceright" unicode="}" horiz-adv-x="368" 
d="M33 -79q35 6 58.5 11.5t38 14t21 22t6.5 35.5q0 18 -4 39.5t-8.5 45t-8 47.5t-3.5 46q0 19 3.5 36.5t18 33t42.5 28.5t78 24v5q-50 10 -78 23.5t-42.5 29t-18 33t-3.5 36.5q0 22 3.5 46t8 47.5t8.5 45t4 39.5q0 22 -6.5 35.5t-21 22t-38 14t-58.5 11.5v41
q65 -2 107.5 -12t67 -27t34.5 -40t10 -51q0 -21 -5 -47t-10.5 -52t-10.5 -50t-5 -40q0 -14 3.5 -26t16 -21.5t36 -17t63.5 -11.5v-63q-40 -5 -63.5 -12t-36 -16.5t-16 -21.5t-3.5 -26q0 -17 5 -40.5t10.5 -49.5t10.5 -52t5 -47q0 -28 -10 -51t-34.5 -40t-67 -27t-107.5 -12
v41z" />
    <glyph glyph-name="asciitilde" unicode="~" horiz-adv-x="400" 
d="M20 254q23 57 49.5 83.5t66.5 26.5q20 0 38.5 -7.5t35 -16t31.5 -16t28 -7.5q19 0 35.5 12.5t34.5 43.5l41 -19q-23 -57 -49.5 -83.5t-66.5 -26.5q-20 0 -38.5 7.5t-35 16t-31.5 16t-28 7.5q-19 0 -35.5 -12.5t-34.5 -43.5z" />
    <glyph glyph-name="Zcaron" horiz-adv-x="530" 
d="M11 46l384 586v4h-273l-43 -132h-49l10 189h476v-46l-385 -586v-4h297l44 132h48l-10 -189h-499v46zM412 838l-119 -98h-46l-119 98l17 31l125 -55l125 55z" />
    <glyph glyph-name="Zcaron" unicode="&#x17d;" horiz-adv-x="530" 
d="M11 46l384 586v4h-273l-43 -132h-49l10 189h476v-46l-385 -586v-4h297l44 132h48l-10 -189h-499v46zM412 838l-119 -98h-46l-119 98l17 31l125 -55l125 55z" />
    <glyph glyph-name="zcaron" horiz-adv-x="472" 
d="M27 48l299 411v4h-204l-30 -111h-47l8 161h381v-46l-299 -413v-4h216l37 122h48l-13 -172h-396v48zM101 697l21 29l117 -74l117 74l21 -29l-115 -121h-46z" />
    <glyph glyph-name="zcaron" unicode="&#x17e;" horiz-adv-x="472" 
d="M27 48l299 411v4h-204l-30 -111h-47l8 161h381v-46l-299 -413v-4h216l37 122h48l-13 -172h-396v48zM101 697l21 29l117 -74l117 74l21 -29l-115 -121h-46z" />
    <glyph glyph-name="uni00A0" unicode="&#xa0;" horiz-adv-x="190" 
 />
    <glyph glyph-name="exclamdown" unicode="&#xa1;" horiz-adv-x="249" 
d="M99 383h55l25 -503h-105zM125 470q-25 0 -42 17t-17 41q0 23 17 40.5t42 17.5t41.5 -17.5t16.5 -40.5q0 -24 -16.5 -41t-41.5 -17z" />
    <glyph glyph-name="cent" unicode="&#xa2;" horiz-adv-x="452" 
d="M198 -119l12 113q-91 18 -138 85.5t-47 172.5q0 68 19 117t51.5 82t76 50t93.5 21l7 64h57l-7 -64q29 -2 55.5 -7t49.5 -12v-129h-52l-20 85q-8 2 -16.5 4t-22.5 4l-43 -412q6 -1 12.5 -1h13.5q52 0 86 8.5t52 17.5v-46q-25 -17 -64 -31.5t-100 -14.5h-7l-11 -107h-57z
M120 263q0 -84 27 -129.5t71 -64.5l41 398q-65 -8 -102 -58t-37 -146z" />
    <glyph glyph-name="sterling" unicode="&#xa3;" horiz-adv-x="534" 
d="M65 318v59h67v102q0 61 19 104t49.5 70t69.5 39.5t78 12.5q29 0 50.5 -3t38.5 -9t30.5 -14t27.5 -18v-48q-29 11 -55.5 16t-64.5 5q-26 0 -52 -6t-46.5 -23t-34 -48t-15.5 -82l-4 -98h182v-59h-184l-2 -62q-1 -35 -6.5 -60t-15 -44t-22.5 -34.5t-29 -30.5v-2h355l-10 -85
h-452v53q23 14 40.5 30.5t29 37.5t17.5 48t6 63v86h-67z" />
    <glyph glyph-name="yen" unicode="&#xa5;" horiz-adv-x="580" 
d="M77 372h145l-167 261l-51 19v41h228v-41l-69 -19l152 -249h4l139 249l-74 19v41h192v-41l-50 -19l-156 -261h147v-52h-171v-78h171v-52h-171v-130l89 -19v-41h-276v41l89 19v130h-171v52h171v78h-171v52z" />
    <glyph glyph-name="brokenbar" unicode="&#xa6;" horiz-adv-x="214" 
d="M76 279h62v-399h-62v399zM76 733h62v-362h-62v362z" />
    <glyph glyph-name="section" unicode="&#xa7;" horiz-adv-x="493" 
d="M239 -132q-53 0 -91.5 9t-73.5 21l-8 131h48l28 -82q17 -8 40 -16t61 -8q21 0 40.5 5t34 14.5t23.5 25t9 36.5q0 36 -24 60.5t-75 44.5l-81 32q-68 27 -106.5 62t-38.5 94q0 49 31.5 82t85.5 51q-65 42 -65 125q0 33 12.5 60.5t36 47.5t58.5 31t80 11q48 0 83 -6.5
t60 -14.5v-121h-45l-24 70q-12 7 -30.5 12t-52.5 5q-20 0 -38 -4.5t-31.5 -13.5t-22 -23.5t-8.5 -35.5q0 -35 18 -55.5t69 -40.5l81 -32q34 -14 61 -28t45.5 -32t28.5 -40.5t10 -52.5q0 -50 -30 -84.5t-84 -53.5q36 -23 58 -55t22 -74q0 -32 -12.5 -60t-37 -50t-61 -34.5
t-84.5 -12.5zM202 400q-37 -8 -64 -30t-27 -56q0 -20 7 -34t21 -25.5t35 -21.5t49 -21l69 -27q37 7 63.5 29.5t26.5 57.5q0 19 -7 33.5t-21 26t-35 21.5t-49 21z" />
    <glyph glyph-name="dieresis" unicode="&#xa8;" 
d="M161 602q-22 0 -38 16.5t-16 37.5q0 23 16 38.5t38 15.5q23 0 39 -15.5t16 -38.5q0 -21 -16 -37.5t-39 -16.5zM327 602q-23 0 -39 16.5t-16 37.5q0 23 16 38.5t39 15.5t38.5 -15.5t15.5 -38.5q0 -21 -15.5 -37.5t-38.5 -16.5z" />
    <glyph glyph-name="copyright" unicode="&#xa9;" horiz-adv-x="776" 
d="M387 -14q-75 0 -140 28t-112.5 77t-74.5 114t-27 139t27 139t74.5 113t112.5 76t140 28t140 -28t113 -76t75.5 -113t27.5 -139t-27.5 -139t-75.5 -114t-113 -77t-140 -28zM387 27q67 0 123 25t96 68t62 101t22 123t-22 122.5t-62 100.5t-96 68t-123 25q-68 0 -123.5 -25
t-95.5 -68t-62 -100.5t-22 -122.5t22 -123t62 -101t95.5 -68t123.5 -25zM396 157q-40 0 -74 11.5t-58.5 35t-38 58t-13.5 80.5q0 51 15.5 87.5t42 60t61 35t73.5 11.5q34 0 62 -5t46 -10l5 -100h-35l-26 63q-11 5 -24.5 8.5t-33.5 3.5q-54 0 -76.5 -39t-22.5 -105
q0 -72 22.5 -113.5t81.5 -41.5q19 0 32.5 1.5t20.5 6.5l28 75h37l-7 -104q-20 -7 -49.5 -13t-68.5 -6z" />
    <glyph glyph-name="ordfeminine" unicode="&#xaa;" horiz-adv-x="455" 
d="M171 220q-62 0 -101 34t-39 93q0 30 11 51.5t30.5 36.5t46 24.5t58.5 15.5l113 22v46q0 27 -4 45t-15.5 28.5t-31.5 15t-53 4.5q-27 0 -61.5 -3.5t-55.5 -6.5v43q27 12 70.5 23t87.5 11q151 0 151 -136v-261q0 -22 11 -28t32 -6h22v-34q-8 -4 -26 -9.5t-47 -5.5
q-27 0 -46.5 11t-24.5 37h-5q-19 -20 -48.5 -35.5t-74.5 -15.5zM201 280q28 0 52 9t37 20v132l-87 -6q-43 -3 -63.5 -24t-20.5 -56t21 -55t61 -20z" />
    <glyph glyph-name="guillemotleft" unicode="&#xab;" horiz-adv-x="412" 
d="M203 238v29l106 183h60l-81 -197l81 -198h-60zM41 238v29l106 183h60l-81 -197l81 -198h-60z" />
    <glyph glyph-name="registered" unicode="&#xae;" horiz-adv-x="433" 
d="M216 314q-41 0 -77 15.5t-62 42.5t-41 62.5t-15 76.5t15 76.5t41 62t62 42t77 15.5t77 -15.5t62.5 -42t41.5 -62t15 -76.5t-15 -76.5t-41.5 -62.5t-62.5 -42.5t-77 -15.5zM216 347q35 0 63.5 12.5t49 35t32 52t11.5 64.5q0 34 -11.5 63.5t-32 52t-49 35.5t-63.5 13
t-63.5 -13t-49 -35.5t-31.5 -52t-11 -63.5q0 -35 11 -64.5t31.5 -52t49 -35t63.5 -12.5zM129 439l22 6v135l-22 6v21h88q35 0 55.5 -13t20.5 -39q0 -21 -12 -30.5t-26 -14.5v-3l41 -63l16 -5v-19h-51l-45 75h-20v-50l21 -6v-19h-88v19zM216 522q20 0 25.5 8.5t5.5 22.5
q0 16 -6.5 22t-24.5 6h-20v-59h20z" />
    <glyph glyph-name="macron" unicode="&#xaf;" 
d="M122 667h244v-62h-244v62z" />
    <glyph glyph-name="degree" unicode="&#xb0;" horiz-adv-x="336" 
d="M168 430q-30 0 -55 11t-43.5 29.5t-29 43t-10.5 52.5t10.5 52.5t29 43t43.5 29.5t55 11t55 -11t43.5 -29.5t29 -43t10.5 -52.5t-10.5 -52.5t-29 -43t-43.5 -29.5t-55 -11zM168 472q41 0 63 28t22 66t-22 66t-63 28t-63 -28t-22 -66t22 -66t63 -28z" />
    <glyph glyph-name="acute" unicode="&#xb4;" 
d="M144 602l172 128l45 -72l-197 -90z" />
    <glyph glyph-name="paragraph" unicode="&#xb6;" horiz-adv-x="567" 
d="M308 335q-12 -2 -24.5 -3t-25.5 -1q-40 0 -77 11t-65 33.5t-44.5 57.5t-16.5 83q0 40 12.5 72.5t40.5 56t74 36t112 12.5h282v-41l-78 -18v-754h-62v760h-66v-760h-62v455z" />
    <glyph glyph-name="periodcentered" unicode="&#xb7;" horiz-adv-x="218" 
d="M109 261q-26 0 -45 18t-19 45t19 45t45 18t45 -18t19 -45t-19 -45t-45 -18z" />
    <glyph glyph-name="cedilla" unicode="&#xb8;" 
d="M200 -177q60 8 81.5 20t21.5 31q0 17 -17.5 25t-64.5 8v93h46v-48q113 -4 113 -72q0 -38 -41.5 -63t-138.5 -30v36z" />
    <glyph glyph-name="ordmasculine" unicode="&#xba;" horiz-adv-x="498" 
d="M250 220q-50 0 -91 17t-70 48.5t-45 76t-16 98.5t17.5 99t47 77t69.5 49.5t85 17.5q50 0 91 -17t70.5 -48t45.5 -75.5t16 -98.5t-17.5 -99t-47.5 -77.5t-70 -50t-85 -17.5zM251 271q25 0 48.5 9t41 30.5t28 57.5t10.5 89q0 55 -11 92.5t-29.5 60t-42.5 32.5t-49 10
q-26 0 -49 -9t-41 -30.5t-28.5 -57.5t-10.5 -89q0 -55 11 -92t29.5 -60t42.5 -33t50 -10z" />
    <glyph glyph-name="guillemotright" unicode="&#xbb;" horiz-adv-x="412" 
d="M286 252l-81 198h60l106 -183v-29l-106 -183h-60zM124 252l-81 198h60l106 -183v-29l-106 -183h-60z" />
    <glyph glyph-name="onequarter" unicode="&#xbc;" horiz-adv-x="806" 
d="M49 282v34l61 10v303l-67 -6v33l117 47h27v-377l61 -10v-34h-199zM605 713h69l-480 -753h-69zM578 0v34l55 10v76h-188v41l199 255h64v-250h62v-46h-62v-76l54 -10v-34h-184zM504 166h129v165h-3l-126 -164v-1z" />
    <glyph glyph-name="onehalf" unicode="&#xbd;" horiz-adv-x="826" 
d="M49 282v34l61 10v303l-67 -6v33l117 47h27v-377l61 -10v-34h-199zM586 713h69l-480 -753h-69zM504 0v39l103 101q41 40 66.5 75.5t25.5 76.5q0 36 -20.5 56t-67.5 20q-26 0 -48 -5.5t-42 -12.5v39q23 13 54.5 23.5t66.5 10.5q63 0 100 -30.5t37 -90.5q0 -48 -34.5 -93
t-97.5 -96l-67 -55v-1h148l26 53h38l-8 -110h-280z" />
    <glyph glyph-name="threequarters" unicode="&#xbe;" horiz-adv-x="828" 
d="M156 275q-39 0 -69 9t-50 20v37q21 -7 45.5 -11.5t51.5 -4.5q45 0 70.5 18.5t25.5 56.5q0 43 -22.5 59.5t-70.5 16.5h-31v43h26q85 0 85 69q0 33 -18.5 50.5t-59.5 17.5q-27 0 -46 -3t-38 -9v36q20 11 48.5 18t59.5 7q61 0 95.5 -26.5t34.5 -77.5q0 -38 -22.5 -62.5
t-58.5 -35.5v-2q19 -3 37 -11t31.5 -20.5t21.5 -31t8 -43.5q0 -56 -41 -88t-113 -32zM630 710h69l-480 -753h-69zM600 -3v34l55 10v76h-188v41l199 255h64v-250h62v-46h-62v-76l54 -10v-34h-184zM526 163h129v165h-3l-126 -164v-1z" />
    <glyph glyph-name="questiondown" unicode="&#xbf;" horiz-adv-x="408" 
d="M225 -132q-39 0 -74 9t-61.5 29.5t-42 54t-15.5 82.5q0 32 7.5 56t23 44.5t39 39t54.5 38.5q15 10 29 19t24.5 19t17 23t6.5 31q0 26 -10 72h49q6 -14 12.5 -35.5t6.5 -48.5q0 -22 -6.5 -39t-18.5 -32t-30 -30t-42 -33q-35 -27 -51 -53t-16 -69q0 -31 9.5 -52.5t27 -35
t40.5 -20t50 -6.5q21 0 37.5 1.5t31.5 4t29.5 6.5t31.5 9v-48q-37 -17 -74 -26.5t-85 -9.5zM247 470q-24 0 -41.5 17t-17.5 41q0 23 17.5 40.5t41.5 17.5q25 0 41.5 -17.5t16.5 -40.5q0 -24 -16.5 -41t-41.5 -17z" />
    <glyph glyph-name="Agrave" unicode="&#xc0;" horiz-adv-x="651" 
d="M-3 42l69 18l222 633h82l215 -633l69 -18v-42h-256v41l79 19l-53 164h-233l-55 -164l80 -19v-41h-219v42zM209 275h199l-94 294h-5zM197 794l36 76l186 -106l-16 -36z" />
    <glyph glyph-name="Aacute" unicode="&#xc1;" horiz-adv-x="651" 
d="M-3 42l69 18l222 633h82l215 -633l69 -18v-42h-256v41l79 19l-53 164h-233l-55 -164l80 -19v-41h-219v42zM209 275h199l-94 294h-5zM249 728l-16 36l186 106l36 -76z" />
    <glyph glyph-name="Acircumflex" unicode="&#xc2;" horiz-adv-x="651" 
d="M-3 42l69 18l222 633h82l215 -633l69 -18v-42h-256v41l79 19l-53 164h-233l-55 -164l80 -19v-41h-219v42zM209 275h199l-94 294h-5zM186 763l119 98h46l119 -98l-17 -31l-125 55l-125 -55z" />
    <glyph glyph-name="Atilde" unicode="&#xc3;" horiz-adv-x="651" 
d="M-3 42l69 18l222 633h82l215 -633l69 -18v-42h-256v41l79 19l-53 164h-233l-55 -164l80 -19v-41h-219v42zM209 275h199l-94 294h-5zM178 754q18 45 42 69t56 24q16 0 31 -5.5t28.5 -11.5t25.5 -11.5t23 -5.5q15 0 27.5 9t26.5 32l40 -18q-18 -45 -42 -69t-56 -24
q-16 0 -31 5.5t-28.5 11.5t-26 11.5t-22.5 5.5q-15 0 -27.5 -9t-26.5 -32z" />
    <glyph glyph-name="Adieresis" unicode="&#xc4;" horiz-adv-x="651" 
d="M-3 42l69 18l222 633h82l215 -633l69 -18v-42h-256v41l79 19l-53 164h-233l-55 -164l80 -19v-41h-219v42zM209 275h199l-94 294h-5zM245 737q-22 0 -38 16.5t-16 37.5q0 23 16 38.5t38 15.5q23 0 39 -15.5t16 -38.5q0 -21 -16 -37.5t-39 -16.5zM411 737q-23 0 -39 16.5
t-16 37.5q0 23 16 38.5t39 15.5t38.5 -15.5t15.5 -38.5q0 -21 -15.5 -37.5t-38.5 -16.5z" />
    <glyph glyph-name="Aring" unicode="&#xc5;" horiz-adv-x="651" 
d="M-3 42l69 18l222 633h82l215 -633l69 -18v-42h-256v41l79 19l-53 164h-233l-55 -164l80 -19v-41h-219v42zM209 275h199l-94 294h-5zM328 723q-40 0 -66.5 26t-26.5 62q0 37 26.5 63t66.5 26t66.5 -26t26.5 -63q0 -36 -26.5 -62t-66.5 -26zM328 762q22 0 35.5 13.5
t13.5 35.5t-13.5 36t-35.5 14t-35.5 -14t-13.5 -36t13.5 -35.5t35.5 -13.5z" />
    <glyph glyph-name="AE" unicode="&#xc6;" horiz-adv-x="916" 
d="M-3 42l62 18l334 582l-67 10v41h543l11 -172h-48l-43 117h-238v-255h124l27 95h43v-242h-43l-27 96h-124v-277h248l54 145h48l-13 -200h-524v41l89 19v164h-231l-93 -164l79 -19v-41h-211v42zM450 629l-199 -354h202v354h-3z" />
    <glyph glyph-name="Ccedilla" unicode="&#xc7;" horiz-adv-x="603" 
d="M253 -177q60 8 81.5 20t21.5 31q0 17 -17.5 25t-64.5 8v87q-56 9 -101.5 33.5t-77.5 66.5t-49.5 102.5t-17.5 141.5q0 103 28.5 173.5t76 113.5t108.5 61.5t126 18.5q63 0 111 -7.5t80 -18.5l5 -169h-46l-41 114q-19 8 -52 16.5t-69 8.5q-112 0 -166.5 -76.5
t-54.5 -214.5q0 -152 54 -232.5t177 -80.5q36 0 64.5 8t50.5 20l41 124h48l-6 -174q-38 -16 -88 -25.5t-124 -9.5h-15.5t-15.5 1v-37q113 -4 113 -72q0 -38 -41.5 -63t-138.5 -30v36z" />
    <glyph glyph-name="Egrave" unicode="&#xc8;" horiz-adv-x="585" 
d="M20 41l89 19v573l-88 19v41h514l11 -172h-48l-43 117h-246v-255h132l27 95h43v-242h-43l-27 96h-132v-277h256l54 145h48l-13 -200h-534v41zM178 794l36 76l186 -106l-16 -36z" />
    <glyph glyph-name="Eacute" unicode="&#xc9;" horiz-adv-x="585" 
d="M20 41l89 19v573l-88 19v41h514l11 -172h-48l-43 117h-246v-255h132l27 95h43v-242h-43l-27 96h-132v-277h256l54 145h48l-13 -200h-534v41zM230 728l-16 36l186 106l36 -76z" />
    <glyph glyph-name="Ecircumflex" unicode="&#xca;" horiz-adv-x="585" 
d="M20 41l89 19v573l-88 19v41h514l11 -172h-48l-43 117h-246v-255h132l27 95h43v-242h-43l-27 96h-132v-277h256l54 145h48l-13 -200h-534v41zM167 763l119 98h46l119 -98l-17 -31l-125 55l-125 -55z" />
    <glyph glyph-name="Edieresis" unicode="&#xcb;" horiz-adv-x="585" 
d="M20 41l89 19v573l-88 19v41h514l11 -172h-48l-43 117h-246v-255h132l27 95h43v-242h-43l-27 96h-132v-277h256l54 145h48l-13 -200h-534v41zM226 737q-22 0 -38 16.5t-16 37.5q0 23 16 38.5t38 15.5q23 0 39 -15.5t16 -38.5q0 -21 -16 -37.5t-39 -16.5zM392 737
q-23 0 -39 16.5t-16 37.5q0 23 16 38.5t39 15.5t38.5 -15.5t15.5 -38.5q0 -21 -15.5 -37.5t-38.5 -16.5z" />
    <glyph glyph-name="Igrave" unicode="&#xcc;" horiz-adv-x="315" 
d="M20 41l88 18v575l-88 18v41h275v-41l-87 -18v-575l87 -18v-41h-275v41zM26 794l36 76l186 -106l-16 -36z" />
    <glyph glyph-name="Iacute" unicode="&#xcd;" horiz-adv-x="315" 
d="M20 41l88 18v575l-88 18v41h275v-41l-87 -18v-575l87 -18v-41h-275v41zM71 728l-16 36l186 106l36 -76z" />
    <glyph glyph-name="Icircumflex" unicode="&#xce;" horiz-adv-x="315" 
d="M20 41l88 18v575l-88 18v41h275v-41l-87 -18v-575l87 -18v-41h-275v41zM15 763l119 98h46l119 -98l-17 -31l-125 55l-125 -55z" />
    <glyph glyph-name="Idieresis" unicode="&#xcf;" horiz-adv-x="315" 
d="M20 41l88 18v575l-88 18v41h275v-41l-87 -18v-575l87 -18v-41h-275v41zM74 737q-22 0 -38 16.5t-16 37.5q0 23 16 38.5t38 15.5q23 0 39 -15.5t16 -38.5q0 -21 -16 -37.5t-39 -16.5zM240 737q-23 0 -39 16.5t-16 37.5q0 23 16 38.5t39 15.5t38.5 -15.5t15.5 -38.5
q0 -21 -15.5 -37.5t-38.5 -16.5z" />
    <glyph glyph-name="Eth" unicode="&#xd0;" horiz-adv-x="671" 
d="M28 378h81v255l-88 19v41h276q94 0 160 -22t107.5 -64t60.5 -103t19 -140q0 -176 -80.5 -270t-255.5 -94h-288v41l89 19v259h-81v59zM310 55q57 0 99.5 14.5t71 48.5t42.5 90.5t14 140.5q0 96 -17 153t-49.5 87.5t-80 39.5t-107.5 9h-74v-260h179v-59h-179v-264h101z" />
    <glyph glyph-name="Ntilde" unicode="&#xd1;" horiz-adv-x="707" 
d="M20 39l89 20v574l-89 19v41h222l302 -516h5v455l-88 20v41h236v-40l-79 -20v-633h-79l-356 608h-4v-548l89 -20v-40h-248v39zM230 754q18 45 42 69t56 24q16 0 31 -5.5t28.5 -11.5t25.5 -11.5t23 -5.5q15 0 27.5 9t26.5 32l40 -18q-18 -45 -42 -69t-56 -24q-16 0 -31 5.5
t-28.5 11.5t-26 11.5t-22.5 5.5q-15 0 -27.5 -9t-26.5 -32z" />
    <glyph glyph-name="Ograve" unicode="&#xd2;" horiz-adv-x="682" 
d="M340 -12q-65 0 -122 23.5t-99 69t-66.5 112.5t-24.5 154q0 93 27.5 160.5t72 111.5t101 65t114.5 21q64 0 121 -23t99 -68t66.5 -111.5t24.5 -153.5q0 -93 -27.5 -161t-71.5 -112.5t-100.5 -66t-114.5 -21.5zM342 45q52 0 91 22t64.5 61t38 92.5t12.5 116.5
q0 152 -51.5 232t-157.5 80q-53 0 -91.5 -22t-64 -61.5t-37.5 -93t-12 -116.5q0 -69 11 -126.5t35.5 -98.5t64 -63.5t97.5 -22.5zM210 794l36 76l186 -106l-16 -36z" />
    <glyph glyph-name="Oacute" unicode="&#xd3;" horiz-adv-x="682" 
d="M340 -12q-65 0 -122 23.5t-99 69t-66.5 112.5t-24.5 154q0 93 27.5 160.5t72 111.5t101 65t114.5 21q64 0 121 -23t99 -68t66.5 -111.5t24.5 -153.5q0 -93 -27.5 -161t-71.5 -112.5t-100.5 -66t-114.5 -21.5zM342 45q52 0 91 22t64.5 61t38 92.5t12.5 116.5
q0 152 -51.5 232t-157.5 80q-53 0 -91.5 -22t-64 -61.5t-37.5 -93t-12 -116.5q0 -69 11 -126.5t35.5 -98.5t64 -63.5t97.5 -22.5zM262 728l-16 36l186 106l36 -76z" />
    <glyph glyph-name="Ocircumflex" unicode="&#xd4;" horiz-adv-x="682" 
d="M340 -12q-65 0 -122 23.5t-99 69t-66.5 112.5t-24.5 154q0 93 27.5 160.5t72 111.5t101 65t114.5 21q64 0 121 -23t99 -68t66.5 -111.5t24.5 -153.5q0 -93 -27.5 -161t-71.5 -112.5t-100.5 -66t-114.5 -21.5zM342 45q52 0 91 22t64.5 61t38 92.5t12.5 116.5
q0 152 -51.5 232t-157.5 80q-53 0 -91.5 -22t-64 -61.5t-37.5 -93t-12 -116.5q0 -69 11 -126.5t35.5 -98.5t64 -63.5t97.5 -22.5zM199 763l119 98h46l119 -98l-17 -31l-125 55l-125 -55z" />
    <glyph glyph-name="Otilde" unicode="&#xd5;" horiz-adv-x="682" 
d="M340 -12q-65 0 -122 23.5t-99 69t-66.5 112.5t-24.5 154q0 93 27.5 160.5t72 111.5t101 65t114.5 21q64 0 121 -23t99 -68t66.5 -111.5t24.5 -153.5q0 -93 -27.5 -161t-71.5 -112.5t-100.5 -66t-114.5 -21.5zM342 45q52 0 91 22t64.5 61t38 92.5t12.5 116.5
q0 152 -51.5 232t-157.5 80q-53 0 -91.5 -22t-64 -61.5t-37.5 -93t-12 -116.5q0 -69 11 -126.5t35.5 -98.5t64 -63.5t97.5 -22.5zM191 754q18 45 42 69t56 24q16 0 31 -5.5t28.5 -11.5t25.5 -11.5t23 -5.5q15 0 27.5 9t26.5 32l40 -18q-18 -45 -42 -69t-56 -24
q-16 0 -31 5.5t-28.5 11.5t-26 11.5t-22.5 5.5q-15 0 -27.5 -9t-26.5 -32z" />
    <glyph glyph-name="Odieresis" unicode="&#xd6;" horiz-adv-x="682" 
d="M340 -12q-65 0 -122 23.5t-99 69t-66.5 112.5t-24.5 154q0 93 27.5 160.5t72 111.5t101 65t114.5 21q64 0 121 -23t99 -68t66.5 -111.5t24.5 -153.5q0 -93 -27.5 -161t-71.5 -112.5t-100.5 -66t-114.5 -21.5zM342 45q52 0 91 22t64.5 61t38 92.5t12.5 116.5
q0 152 -51.5 232t-157.5 80q-53 0 -91.5 -22t-64 -61.5t-37.5 -93t-12 -116.5q0 -69 11 -126.5t35.5 -98.5t64 -63.5t97.5 -22.5zM258 737q-22 0 -38 16.5t-16 37.5q0 23 16 38.5t38 15.5q23 0 39 -15.5t16 -38.5q0 -21 -16 -37.5t-39 -16.5zM424 737q-23 0 -39 16.5
t-16 37.5q0 23 16 38.5t39 15.5t38.5 -15.5t15.5 -38.5q0 -21 -15.5 -37.5t-38.5 -16.5z" />
    <glyph glyph-name="multiply" unicode="&#xd7;" horiz-adv-x="526" 
d="M71 191l148 148l-148 149l44 44l148 -149l148 148l44 -44l-148 -148l149 -148l-44 -44l-149 148l-148 -148z" />
    <glyph glyph-name="Oslash" unicode="&#xd8;" horiz-adv-x="682" 
d="M340 -12q-56 0 -105.5 17t-90.5 51l-66 -83l-44 34l71 89q-36 45 -56.5 107.5t-20.5 143.5q0 93 27.5 160.5t72 111.5t101 65t114.5 21q56 0 106 -17.5t90 -51.5l60 74l44 -34l-65 -80q35 -45 55.5 -106.5t20.5 -140.5q0 -93 -27.5 -161t-71.5 -112.5t-100.5 -66
t-114.5 -21.5zM134 356q0 -57 6.5 -105t20.5 -86l331 412q-52 72 -153 72q-53 0 -91.5 -22t-64 -61.5t-37.5 -93t-12 -116.5zM342 45q52 0 91 22t64.5 61t38 92.5t12.5 116.5q0 115 -28 187l-330 -411q24 -33 61 -50.5t91 -17.5z" />
    <glyph glyph-name="Ugrave" unicode="&#xd9;" horiz-adv-x="675" 
d="M343 -13q-64 0 -112 16t-80 45.5t-48 70.5t-16 92v423l-86 18v41h275v-41l-88 -18v-406q0 -93 44 -135t126 -42q83 0 127 42t44 136v404l-88 18v42h233v-41l-76 -18v-414q0 -108 -66.5 -170.5t-188.5 -62.5zM231 794l36 76l186 -106l-16 -36z" />
    <glyph glyph-name="Uacute" unicode="&#xda;" horiz-adv-x="675" 
d="M343 -13q-64 0 -112 16t-80 45.5t-48 70.5t-16 92v423l-86 18v41h275v-41l-88 -18v-406q0 -93 44 -135t126 -42q83 0 127 42t44 136v404l-88 18v42h233v-41l-76 -18v-414q0 -108 -66.5 -170.5t-188.5 -62.5zM283 728l-16 36l186 106l36 -76z" />
    <glyph glyph-name="Ucircumflex" unicode="&#xdb;" horiz-adv-x="675" 
d="M343 -13q-64 0 -112 16t-80 45.5t-48 70.5t-16 92v423l-86 18v41h275v-41l-88 -18v-406q0 -93 44 -135t126 -42q83 0 127 42t44 136v404l-88 18v42h233v-41l-76 -18v-414q0 -108 -66.5 -170.5t-188.5 -62.5zM220 763l119 98h46l119 -98l-17 -31l-125 55l-125 -55z" />
    <glyph glyph-name="Udieresis" unicode="&#xdc;" horiz-adv-x="675" 
d="M343 -13q-64 0 -112 16t-80 45.5t-48 70.5t-16 92v423l-86 18v41h275v-41l-88 -18v-406q0 -93 44 -135t126 -42q83 0 127 42t44 136v404l-88 18v42h233v-41l-76 -18v-414q0 -108 -66.5 -170.5t-188.5 -62.5zM279 737q-22 0 -38 16.5t-16 37.5q0 23 16 38.5t38 15.5
q23 0 39 -15.5t16 -38.5q0 -21 -16 -37.5t-39 -16.5zM445 737q-23 0 -39 16.5t-16 37.5q0 23 16 38.5t39 15.5t38.5 -15.5t15.5 -38.5q0 -21 -15.5 -37.5t-38.5 -16.5z" />
    <glyph glyph-name="Yacute" unicode="&#xdd;" horiz-adv-x="608" 
d="M173 41l88 19v247l-200 326l-61 19v41h238v-41l-69 -19l161 -269h4l146 269l-74 19v41h202v-41l-60 -19l-187 -328v-245l86 -19v-41h-274v41zM244 728l-16 36l186 106l36 -76z" />
    <glyph glyph-name="Thorn" unicode="&#xde;" horiz-adv-x="569" 
d="M20 41l88 19v573l-88 19v41h275v-41l-87 -19v-81h90q70 0 117.5 -13.5t76.5 -37.5t42 -58t13 -75q0 -49 -18 -84.5t-49 -59t-71 -34.5t-85 -11q-9 0 -20 1t-20.5 1.5t-16 1.5t-7.5 1v43q2 0 15 -1t34 -1q66 0 100 35t34 101q0 70 -31.5 101t-103.5 31h-100v-433l105 -19
v-41h-293v41z" />
    <glyph glyph-name="germandbls" unicode="&#xdf;" horiz-adv-x="597" 
d="M399 -13q-38 0 -73 7t-62 17l-7 118h48l25 -70q12 -6 30 -11.5t41 -5.5q42 0 67.5 18t25.5 54q0 17 -7 30.5t-18.5 24.5t-26 20t-30.5 18l-44 25q-18 10 -35 21t-30.5 25.5t-21.5 32.5t-8 43q0 27 11 50t28 43.5t36 39t36 37.5t28 38.5t11 42.5q0 41 -24 64.5t-73 23.5
q-39 0 -66 -13t-43.5 -35t-23.5 -51.5t-7 -62.5v-531h-166v34l74 16v404h-71v35l71 25v29q0 43 17 80.5t47.5 65t73 43.5t93.5 16q84 0 136 -35.5t52 -98.5q0 -26 -12 -48t-29.5 -42t-38 -38t-38 -35t-29.5 -33.5t-12 -33.5q0 -23 12 -37.5t46 -33.5l44 -25l44 -26t39 -29.5
t27.5 -39t10.5 -54.5q0 -31 -11.5 -58.5t-34 -48.5t-56 -33t-76.5 -12z" />
    <glyph glyph-name="agrave" unicode="&#xe0;" horiz-adv-x="473" 
d="M172 -13q-69 0 -112.5 37t-43.5 103q0 33 11.5 56t32 39t49.5 26t64 17l131 27v54q0 30 -3.5 50.5t-15.5 33.5t-35 18.5t-61 5.5q-15 0 -33 -1t-35.5 -2.5t-33.5 -3.5t-28 -4v43q15 6 35 13t43 12t48 8.5t49 3.5q84 0 123 -36.5t39 -114.5v-295q0 -24 12.5 -31t35.5 -7
h25v-34q-9 -5 -31.5 -10t-49.5 -5q-30 0 -49.5 12t-24.5 41h-6q-20 -22 -53 -39t-83 -17zM205 49q31 0 58 12t41 25v147l-102 -8q-53 -5 -72.5 -27.5t-19.5 -60.5q0 -40 23 -64t72 -24zM112 658l45 72l172 -128l-20 -34z" />
    <glyph glyph-name="aacute" unicode="&#xe1;" horiz-adv-x="473" 
d="M172 -13q-69 0 -112.5 37t-43.5 103q0 33 11.5 56t32 39t49.5 26t64 17l131 27v54q0 30 -3.5 50.5t-15.5 33.5t-35 18.5t-61 5.5q-15 0 -33 -1t-35.5 -2.5t-33.5 -3.5t-28 -4v43q15 6 35 13t43 12t48 8.5t49 3.5q84 0 123 -36.5t39 -114.5v-295q0 -24 12.5 -31t35.5 -7
h25v-34q-9 -5 -31.5 -10t-49.5 -5q-30 0 -49.5 12t-24.5 41h-6q-20 -22 -53 -39t-83 -17zM205 49q31 0 58 12t41 25v147l-102 -8q-53 -5 -72.5 -27.5t-19.5 -60.5q0 -40 23 -64t72 -24zM135 602l172 128l45 -72l-197 -90z" />
    <glyph glyph-name="acircumflex" unicode="&#xe2;" horiz-adv-x="473" 
d="M172 -13q-69 0 -112.5 37t-43.5 103q0 33 11.5 56t32 39t49.5 26t64 17l131 27v54q0 30 -3.5 50.5t-15.5 33.5t-35 18.5t-61 5.5q-15 0 -33 -1t-35.5 -2.5t-33.5 -3.5t-28 -4v43q15 6 35 13t43 12t48 8.5t49 3.5q84 0 123 -36.5t39 -114.5v-295q0 -24 12.5 -31t35.5 -7
h25v-34q-9 -5 -31.5 -10t-49.5 -5q-30 0 -49.5 12t-24.5 41h-6q-20 -22 -53 -39t-83 -17zM205 49q31 0 58 12t41 25v147l-102 -8q-53 -5 -72.5 -27.5t-19.5 -60.5q0 -40 23 -64t72 -24zM96 602l115 121h46l115 -121l-21 -29l-117 74l-117 -74z" />
    <glyph glyph-name="atilde" unicode="&#xe3;" horiz-adv-x="473" 
d="M172 -13q-69 0 -112.5 37t-43.5 103q0 33 11.5 56t32 39t49.5 26t64 17l131 27v54q0 30 -3.5 50.5t-15.5 33.5t-35 18.5t-61 5.5q-15 0 -33 -1t-35.5 -2.5t-33.5 -3.5t-28 -4v43q15 6 35 13t43 12t48 8.5t49 3.5q84 0 123 -36.5t39 -114.5v-295q0 -24 12.5 -31t35.5 -7
h25v-34q-9 -5 -31.5 -10t-49.5 -5q-30 0 -49.5 12t-24.5 41h-6q-20 -22 -53 -39t-83 -17zM205 49q31 0 58 12t41 25v147l-102 -8q-53 -5 -72.5 -27.5t-19.5 -60.5q0 -40 23 -64t72 -24zM84 613q18 45 42 69t56 24q16 0 31 -5.5t28.5 -11.5t25.5 -11.5t23 -5.5q15 0 27.5 9
t26.5 32l40 -18q-18 -45 -42 -69t-56 -24q-16 0 -31 5.5t-28.5 11.5t-26 11.5t-22.5 5.5q-15 0 -27.5 -9t-26.5 -32z" />
    <glyph glyph-name="adieresis" unicode="&#xe4;" horiz-adv-x="473" 
d="M172 -13q-69 0 -112.5 37t-43.5 103q0 33 11.5 56t32 39t49.5 26t64 17l131 27v54q0 30 -3.5 50.5t-15.5 33.5t-35 18.5t-61 5.5q-15 0 -33 -1t-35.5 -2.5t-33.5 -3.5t-28 -4v43q15 6 35 13t43 12t48 8.5t49 3.5q84 0 123 -36.5t39 -114.5v-295q0 -24 12.5 -31t35.5 -7
h25v-34q-9 -5 -31.5 -10t-49.5 -5q-30 0 -49.5 12t-24.5 41h-6q-20 -22 -53 -39t-83 -17zM205 49q31 0 58 12t41 25v147l-102 -8q-53 -5 -72.5 -27.5t-19.5 -60.5q0 -40 23 -64t72 -24zM151 602q-22 0 -38 16.5t-16 37.5q0 23 16 38.5t38 15.5q23 0 39 -15.5t16 -38.5
q0 -21 -16 -37.5t-39 -16.5zM317 602q-23 0 -39 16.5t-16 37.5q0 23 16 38.5t39 15.5t38.5 -15.5t15.5 -38.5q0 -21 -15.5 -37.5t-38.5 -16.5z" />
    <glyph glyph-name="aring" unicode="&#xe5;" horiz-adv-x="473" 
d="M172 -13q-69 0 -112.5 37t-43.5 103q0 33 11.5 56t32 39t49.5 26t64 17l131 27v54q0 30 -3.5 50.5t-15.5 33.5t-35 18.5t-61 5.5q-15 0 -33 -1t-35.5 -2.5t-33.5 -3.5t-28 -4v43q15 6 35 13t43 12t48 8.5t49 3.5q84 0 123 -36.5t39 -114.5v-295q0 -24 12.5 -31t35.5 -7
h25v-34q-9 -5 -31.5 -10t-49.5 -5q-30 0 -49.5 12t-24.5 41h-6q-20 -22 -53 -39t-83 -17zM205 49q31 0 58 12t41 25v147l-102 -8q-53 -5 -72.5 -27.5t-19.5 -60.5q0 -40 23 -64t72 -24zM234 573q-40 0 -66.5 26t-26.5 62q0 37 26.5 63t66.5 26t66.5 -26t26.5 -63
q0 -36 -26.5 -62t-66.5 -26zM234 612q22 0 35.5 13.5t13.5 35.5t-13.5 36t-35.5 14t-35.5 -14t-13.5 -36t13.5 -35.5t35.5 -13.5z" />
    <glyph glyph-name="ae" unicode="&#xe6;" horiz-adv-x="760" 
d="M172 -13q-69 0 -112.5 37t-43.5 103q0 33 11 57.5t31.5 42t49.5 28.5t65 18l131 24v49q0 30 -3.5 50.5t-15.5 33.5t-35 18.5t-61 5.5q-15 0 -33 -1t-35.5 -2.5t-33.5 -3.5t-28 -4v43q15 6 35 13t43 12t48 8.5t49 3.5q106 0 137 -71q60 71 160 71q56 0 95 -19.5
t63.5 -54.5t35.5 -85t11 -110h-340q3 -103 46 -152t123 -49q27 0 48 2.5t38.5 6t31.5 8.5l28 10v-45q-12 -7 -27.5 -15.5t-35.5 -15.5t-45 -11.5t-57 -4.5q-71 0 -119 23t-77 64q-27 -35 -73.5 -61.5t-104.5 -26.5zM330 109q-14 28 -20.5 61t-8.5 71l-99 -8
q-53 -4 -72.5 -31t-19.5 -65q0 -40 23 -64t72 -24q29 0 60.5 14t64.5 46zM632 312q0 80 -25.5 118.5t-81.5 38.5q-119 0 -129 -165z" />
    <glyph glyph-name="ccedilla" unicode="&#xe7;" horiz-adv-x="452" 
d="M172 -177q60 8 81.5 20t21.5 31q0 17 -17.5 25t-64.5 8v91q-82 22 -125 88t-43 166q0 73 21.5 124.5t58 84t85.5 47.5t104 15q36 0 70.5 -5.5t62.5 -14.5v-129h-52l-20 85q-12 4 -26.5 6.5t-45.5 2.5q-75 0 -119 -50.5t-44 -154.5q0 -59 14 -99t38.5 -64.5t57 -35
t69.5 -10.5q52 0 86 8.5t52 17.5v-46q-25 -17 -64 -31.5t-100 -14.5q-9 0 -17.5 0.5t-16.5 1.5v-38q113 -4 113 -72q0 -38 -41.5 -63t-138.5 -30v36z" />
    <glyph glyph-name="egrave" unicode="&#xe8;" horiz-adv-x="493" 
d="M275 -12q-66 0 -113 20.5t-77.5 56.5t-45 86t-14.5 110q0 61 18.5 110t50.5 82.5t74.5 51.5t91.5 18q56 0 95.5 -19t65 -53.5t37 -83.5t11.5 -109h-349q3 -103 48.5 -154t125.5 -51q55 0 88.5 8.5t61.5 18.5v-45q-24 -14 -64.5 -30.5t-104.5 -16.5zM365 316
q0 80 -27.5 116.5t-83.5 36.5q-60 0 -94.5 -38.5t-39.5 -122.5zM137 658l45 72l172 -128l-20 -34z" />
    <glyph glyph-name="eacute" unicode="&#xe9;" horiz-adv-x="493" 
d="M275 -12q-66 0 -113 20.5t-77.5 56.5t-45 86t-14.5 110q0 61 18.5 110t50.5 82.5t74.5 51.5t91.5 18q56 0 95.5 -19t65 -53.5t37 -83.5t11.5 -109h-349q3 -103 48.5 -154t125.5 -51q55 0 88.5 8.5t61.5 18.5v-45q-24 -14 -64.5 -30.5t-104.5 -16.5zM365 316
q0 80 -27.5 116.5t-83.5 36.5q-60 0 -94.5 -38.5t-39.5 -122.5zM160 602l172 128l45 -72l-197 -90z" />
    <glyph glyph-name="ecircumflex" unicode="&#xea;" horiz-adv-x="493" 
d="M275 -12q-66 0 -113 20.5t-77.5 56.5t-45 86t-14.5 110q0 61 18.5 110t50.5 82.5t74.5 51.5t91.5 18q56 0 95.5 -19t65 -53.5t37 -83.5t11.5 -109h-349q3 -103 48.5 -154t125.5 -51q55 0 88.5 8.5t61.5 18.5v-45q-24 -14 -64.5 -30.5t-104.5 -16.5zM365 316
q0 80 -27.5 116.5t-83.5 36.5q-60 0 -94.5 -38.5t-39.5 -122.5zM121 602l115 121h46l115 -121l-21 -29l-117 74l-117 -74z" />
    <glyph glyph-name="edieresis" unicode="&#xeb;" horiz-adv-x="493" 
d="M275 -12q-66 0 -113 20.5t-77.5 56.5t-45 86t-14.5 110q0 61 18.5 110t50.5 82.5t74.5 51.5t91.5 18q56 0 95.5 -19t65 -53.5t37 -83.5t11.5 -109h-349q3 -103 48.5 -154t125.5 -51q55 0 88.5 8.5t61.5 18.5v-45q-24 -14 -64.5 -30.5t-104.5 -16.5zM365 316
q0 80 -27.5 116.5t-83.5 36.5q-60 0 -94.5 -38.5t-39.5 -122.5zM176 602q-22 0 -38 16.5t-16 37.5q0 23 16 38.5t38 15.5q23 0 39 -15.5t16 -38.5q0 -21 -16 -37.5t-39 -16.5zM342 602q-23 0 -39 16.5t-16 37.5q0 23 16 38.5t39 15.5t38.5 -15.5t15.5 -38.5
q0 -21 -15.5 -37.5t-38.5 -16.5z" />
    <glyph glyph-name="igrave" unicode="&#xec;" horiz-adv-x="269" 
d="M15 34l74 16v393l-80 16v38l161 24l11 -6v-465l75 -16v-34h-241v34zM10 658l45 72l172 -128l-20 -34z" />
    <glyph glyph-name="iacute" unicode="&#xed;" horiz-adv-x="269" 
d="M15 34l74 16v393l-80 16v38l161 24l11 -6v-465l75 -16v-34h-241v34zM33 602l172 128l45 -72l-197 -90z" />
    <glyph glyph-name="icircumflex" unicode="&#xee;" horiz-adv-x="269" 
d="M15 34l74 16v393l-80 16v38l161 24l11 -6v-465l75 -16v-34h-241v34zM-6 602l115 121h46l115 -121l-21 -29l-117 74l-117 -74z" />
    <glyph glyph-name="idieresis" unicode="&#xef;" horiz-adv-x="269" 
d="M15 34l74 16v393l-80 16v38l161 24l11 -6v-465l75 -16v-34h-241v34zM49 602q-22 0 -38 16.5t-16 37.5q0 23 16 38.5t38 15.5q23 0 39 -15.5t16 -38.5q0 -21 -16 -37.5t-39 -16.5zM215 602q-23 0 -39 16.5t-16 37.5q0 23 16 38.5t39 15.5t38.5 -15.5t15.5 -38.5
q0 -21 -15.5 -37.5t-38.5 -16.5z" />
    <glyph glyph-name="eth" unicode="&#xf0;" horiz-adv-x="539" 
d="M373 492q-20 33 -45 62t-56 57l-133 -58l-19 45l109 47q-44 32 -98 64l23 39q38 -16 74 -34t68 -39l120 52l19 -45l-92 -40q75 -60 121 -145.5t46 -208.5q0 -75 -19 -131t-51.5 -94t-76.5 -57t-94 -19q-56 0 -101 19t-76.5 53.5t-49 84t-17.5 109.5t17.5 110t48.5 85.5
t73.5 55t91.5 19.5q36 0 63 -8.5t48 -22.5h6zM414 270q0 90 -19 156q-21 17 -52.5 29t-73.5 12q-32 0 -59 -10t-47 -34t-31 -64t-11 -99q0 -61 12.5 -102.5t33 -67t47.5 -37t56 -11.5q28 0 54 9.5t46 35t32 70t12 113.5z" />
    <glyph glyph-name="ntilde" unicode="&#xf1;" horiz-adv-x="582" 
d="M14 34l75 16v393l-75 16v38l151 24l11 -6v-45h6q38 22 81.5 37.5t90.5 15.5q72 0 108 -30.5t36 -106.5v-336l75 -16v-34h-240v34l73 16v312q0 53 -26.5 71.5t-80.5 18.5q-32 0 -60.5 -6.5t-57.5 -16.5v-379l73 -16v-34h-240v34zM143 613q18 45 42 69t56 24q16 0 31 -5.5
t28.5 -11.5t25.5 -11.5t23 -5.5q15 0 27.5 9t26.5 32l40 -18q-18 -45 -42 -69t-56 -24q-16 0 -31 5.5t-28.5 11.5t-26 11.5t-22.5 5.5q-15 0 -27.5 -9t-26.5 -32z" />
    <glyph glyph-name="ograve" unicode="&#xf2;" horiz-adv-x="541" 
d="M272 -13q-56 0 -101.5 19t-77.5 53.5t-50 84t-18 109.5t19.5 110t52.5 85.5t77.5 55t94.5 19.5q55 0 100.5 -19t78 -53.5t50.5 -83.5t18 -109t-19.5 -110t-52.5 -86t-77.5 -55.5t-94.5 -19.5zM273 42q28 0 54.5 10.5t47 34.5t33 64t12.5 99q0 61 -13 103t-34.5 67.5
t-49 36.5t-55.5 11t-54.5 -10.5t-47 -34.5t-33 -64t-12.5 -99q0 -61 13 -102.5t34 -67t48.5 -37t56.5 -11.5zM148 658l45 72l172 -128l-20 -34z" />
    <glyph glyph-name="oacute" unicode="&#xf3;" horiz-adv-x="541" 
d="M272 -13q-56 0 -101.5 19t-77.5 53.5t-50 84t-18 109.5t19.5 110t52.5 85.5t77.5 55t94.5 19.5q55 0 100.5 -19t78 -53.5t50.5 -83.5t18 -109t-19.5 -110t-52.5 -86t-77.5 -55.5t-94.5 -19.5zM273 42q28 0 54.5 10.5t47 34.5t33 64t12.5 99q0 61 -13 103t-34.5 67.5
t-49 36.5t-55.5 11t-54.5 -10.5t-47 -34.5t-33 -64t-12.5 -99q0 -61 13 -102.5t34 -67t48.5 -37t56.5 -11.5zM171 602l172 128l45 -72l-197 -90z" />
    <glyph glyph-name="ocircumflex" unicode="&#xf4;" horiz-adv-x="541" 
d="M272 -13q-56 0 -101.5 19t-77.5 53.5t-50 84t-18 109.5t19.5 110t52.5 85.5t77.5 55t94.5 19.5q55 0 100.5 -19t78 -53.5t50.5 -83.5t18 -109t-19.5 -110t-52.5 -86t-77.5 -55.5t-94.5 -19.5zM273 42q28 0 54.5 10.5t47 34.5t33 64t12.5 99q0 61 -13 103t-34.5 67.5
t-49 36.5t-55.5 11t-54.5 -10.5t-47 -34.5t-33 -64t-12.5 -99q0 -61 13 -102.5t34 -67t48.5 -37t56.5 -11.5zM132 602l115 121h46l115 -121l-21 -29l-117 74l-117 -74z" />
    <glyph glyph-name="otilde" unicode="&#xf5;" horiz-adv-x="541" 
d="M272 -13q-56 0 -101.5 19t-77.5 53.5t-50 84t-18 109.5t19.5 110t52.5 85.5t77.5 55t94.5 19.5q55 0 100.5 -19t78 -53.5t50.5 -83.5t18 -109t-19.5 -110t-52.5 -86t-77.5 -55.5t-94.5 -19.5zM273 42q28 0 54.5 10.5t47 34.5t33 64t12.5 99q0 61 -13 103t-34.5 67.5
t-49 36.5t-55.5 11t-54.5 -10.5t-47 -34.5t-33 -64t-12.5 -99q0 -61 13 -102.5t34 -67t48.5 -37t56.5 -11.5zM120 613q18 45 42 69t56 24q16 0 31 -5.5t28.5 -11.5t25.5 -11.5t23 -5.5q15 0 27.5 9t26.5 32l40 -18q-18 -45 -42 -69t-56 -24q-16 0 -31 5.5t-28.5 11.5
t-26 11.5t-22.5 5.5q-15 0 -27.5 -9t-26.5 -32z" />
    <glyph glyph-name="odieresis" unicode="&#xf6;" horiz-adv-x="541" 
d="M272 -13q-56 0 -101.5 19t-77.5 53.5t-50 84t-18 109.5t19.5 110t52.5 85.5t77.5 55t94.5 19.5q55 0 100.5 -19t78 -53.5t50.5 -83.5t18 -109t-19.5 -110t-52.5 -86t-77.5 -55.5t-94.5 -19.5zM273 42q28 0 54.5 10.5t47 34.5t33 64t12.5 99q0 61 -13 103t-34.5 67.5
t-49 36.5t-55.5 11t-54.5 -10.5t-47 -34.5t-33 -64t-12.5 -99q0 -61 13 -102.5t34 -67t48.5 -37t56.5 -11.5zM187 602q-22 0 -38 16.5t-16 37.5q0 23 16 38.5t38 15.5q23 0 39 -15.5t16 -38.5q0 -21 -16 -37.5t-39 -16.5zM353 602q-23 0 -39 16.5t-16 37.5q0 23 16 38.5
t39 15.5t38.5 -15.5t15.5 -38.5q0 -21 -15.5 -37.5t-38.5 -16.5z" />
    <glyph glyph-name="divide" unicode="&#xf7;" horiz-adv-x="526" 
d="M58 371h410v-62h-410v62zM262 115q-26 0 -44 18.5t-18 42.5q0 26 18 44t44 18t44.5 -18t18.5 -44q0 -24 -18.5 -42.5t-44.5 -18.5zM262 442q-26 0 -44 18.5t-18 42.5q0 26 18 44t44 18t44.5 -18t18.5 -44q0 -24 -18.5 -42.5t-44.5 -18.5z" />
    <glyph glyph-name="oslash" unicode="&#xf8;" horiz-adv-x="541" 
d="M272 -13q-49 0 -89.5 14.5t-71.5 40.5l-58 -65l-42 34l63 71q-23 34 -36 77t-13 94q0 60 19.5 110t52.5 85.5t77.5 55t94.5 19.5q45 0 83.5 -13t69.5 -36l54 61l41 -34l-57 -65q26 -34 41 -79t15 -99q0 -60 -19.5 -110t-52.5 -86t-77.5 -55.5t-94.5 -19.5zM273 42
q28 0 54.5 10.5t47 34.5t33 64t12.5 99q0 74 -18 121l-243 -274q21 -29 50 -42t64 -13zM121 260q0 -33 3.5 -60t9.5 -50l241 271q-21 25 -48 36t-59 11q-28 0 -54.5 -10.5t-47 -34.5t-33 -64t-12.5 -99z" />
    <glyph glyph-name="ugrave" unicode="&#xf9;" horiz-adv-x="582" 
d="M226 -10q-78 0 -112 40.5t-34 109.5v310l-76 16v38l156 16l11 -6v-351q0 -54 19.5 -80.5t79.5 -26.5q47 0 75 9.5t51 19.5v365l-73 16v38l154 16l11 -6v-451l75 -16v-34l-150 -23l-11 5v56h-6q-32 -29 -74 -45t-96 -16zM160 658l45 72l172 -128l-20 -34z" />
    <glyph glyph-name="uacute" unicode="&#xfa;" horiz-adv-x="582" 
d="M226 -10q-78 0 -112 40.5t-34 109.5v310l-76 16v38l156 16l11 -6v-351q0 -54 19.5 -80.5t79.5 -26.5q47 0 75 9.5t51 19.5v365l-73 16v38l154 16l11 -6v-451l75 -16v-34l-150 -23l-11 5v56h-6q-32 -29 -74 -45t-96 -16zM183 602l172 128l45 -72l-197 -90z" />
    <glyph glyph-name="ucircumflex" unicode="&#xfb;" horiz-adv-x="582" 
d="M226 -10q-78 0 -112 40.5t-34 109.5v310l-76 16v38l156 16l11 -6v-351q0 -54 19.5 -80.5t79.5 -26.5q47 0 75 9.5t51 19.5v365l-73 16v38l154 16l11 -6v-451l75 -16v-34l-150 -23l-11 5v56h-6q-32 -29 -74 -45t-96 -16zM144 602l115 121h46l115 -121l-21 -29l-117 74
l-117 -74z" />
    <glyph glyph-name="udieresis" unicode="&#xfc;" horiz-adv-x="582" 
d="M226 -10q-78 0 -112 40.5t-34 109.5v310l-76 16v38l156 16l11 -6v-351q0 -54 19.5 -80.5t79.5 -26.5q47 0 75 9.5t51 19.5v365l-73 16v38l154 16l11 -6v-451l75 -16v-34l-150 -23l-11 5v56h-6q-32 -29 -74 -45t-96 -16zM199 602q-22 0 -38 16.5t-16 37.5q0 23 16 38.5
t38 15.5q23 0 39 -15.5t16 -38.5q0 -21 -16 -37.5t-39 -16.5zM365 602q-23 0 -39 16.5t-16 37.5q0 23 16 38.5t39 15.5t38.5 -15.5t15.5 -38.5q0 -21 -15.5 -37.5t-38.5 -16.5z" />
    <glyph glyph-name="yacute" unicode="&#xfd;" horiz-adv-x="526" 
d="M122 -199q-21 0 -42.5 5.5t-34.5 13.5v52q17 -4 28 -6.5t25 -2.5q44 0 68.5 18t43.5 62l30 71l-186 448l-56 15v36h225v-36l-68 -14l129 -333h4l114 332l-65 15v36h191v-36l-56 -15l-203 -538q-11 -31 -24.5 -54t-30.5 -38.5t-39.5 -23t-52.5 -7.5zM186 602l172 128
l45 -72l-197 -90z" />
    <glyph glyph-name="thorn" unicode="&#xfe;" horiz-adv-x="550" 
d="M-4 -165l74 14v819l-76 16v38l155 23l12 -5v-270h5q30 22 66.5 37.5t89.5 15.5q36 0 71.5 -11t63.5 -38.5t45.5 -75.5t17.5 -122q0 -71 -19 -125t-53.5 -90t-83 -54.5t-107.5 -18.5q-30 0 -52 2t-43 7v-146l87 -16v-34h-253v34zM268 41q35 0 64 11t49.5 36t32 66.5
t11.5 103.5q0 54 -10 91t-29.5 60t-47 33t-63.5 10q-35 0 -66 -8.5t-48 -16.5v-355q17 -11 39.5 -21t67.5 -10z" />
    <glyph glyph-name="ydieresis" unicode="&#xff;" horiz-adv-x="526" 
d="M122 -199q-21 0 -42.5 5.5t-34.5 13.5v52q17 -4 28 -6.5t25 -2.5q44 0 68.5 18t43.5 62l30 71l-186 448l-56 15v36h225v-36l-68 -14l129 -333h4l114 332l-65 15v36h191v-36l-56 -15l-203 -538q-11 -31 -24.5 -54t-30.5 -38.5t-39.5 -23t-52.5 -7.5zM202 602
q-22 0 -38 16.5t-16 37.5q0 23 16 38.5t38 15.5q23 0 39 -15.5t16 -38.5q0 -21 -16 -37.5t-39 -16.5zM368 602q-23 0 -39 16.5t-16 37.5q0 23 16 38.5t39 15.5t38.5 -15.5t15.5 -38.5q0 -21 -15.5 -37.5t-38.5 -16.5z" />
    <glyph glyph-name="Amacron" unicode="&#x100;" horiz-adv-x="651" 
d="M-3 42l69 18l222 633h82l215 -633l69 -18v-42h-256v41l79 19l-53 164h-233l-55 -164l80 -19v-41h-219v42zM209 275h199l-94 294h-5zM206 817h244v-62h-244v62z" />
    <glyph glyph-name="amacron" unicode="&#x101;" horiz-adv-x="473" 
d="M172 -13q-69 0 -112.5 37t-43.5 103q0 33 11.5 56t32 39t49.5 26t64 17l131 27v54q0 30 -3.5 50.5t-15.5 33.5t-35 18.5t-61 5.5q-15 0 -33 -1t-35.5 -2.5t-33.5 -3.5t-28 -4v43q15 6 35 13t43 12t48 8.5t49 3.5q84 0 123 -36.5t39 -114.5v-295q0 -24 12.5 -31t35.5 -7
h25v-34q-9 -5 -31.5 -10t-49.5 -5q-30 0 -49.5 12t-24.5 41h-6q-20 -22 -53 -39t-83 -17zM205 49q31 0 58 12t41 25v147l-102 -8q-53 -5 -72.5 -27.5t-19.5 -60.5q0 -40 23 -64t72 -24zM112 667h244v-62h-244v62z" />
    <glyph glyph-name="Abreve" unicode="&#x102;" horiz-adv-x="651" 
d="M-3 42l69 18l222 633h82l215 -633l69 -18v-42h-256v41l79 19l-53 164h-233l-55 -164l80 -19v-41h-219v42zM209 275h199l-94 294h-5zM329 736q-57 0 -91 33t-39 81h57q7 -21 25 -33.5t48 -12.5t47.5 12.5t24.5 33.5h57q-5 -48 -39 -81t-90 -33z" />
    <glyph glyph-name="abreve" unicode="&#x103;" horiz-adv-x="473" 
d="M172 -13q-69 0 -112.5 37t-43.5 103q0 33 11.5 56t32 39t49.5 26t64 17l131 27v54q0 30 -3.5 50.5t-15.5 33.5t-35 18.5t-61 5.5q-15 0 -33 -1t-35.5 -2.5t-33.5 -3.5t-28 -4v43q15 6 35 13t43 12t48 8.5t49 3.5q84 0 123 -36.5t39 -114.5v-295q0 -24 12.5 -31t35.5 -7
h25v-34q-9 -5 -31.5 -10t-49.5 -5q-30 0 -49.5 12t-24.5 41h-6q-20 -22 -53 -39t-83 -17zM205 49q31 0 58 12t41 25v147l-102 -8q-53 -5 -72.5 -27.5t-19.5 -60.5q0 -40 23 -64t72 -24zM228 581q-27 0 -51 9.5t-41.5 26t-28 39.5t-11.5 51h57q13 -61 75 -61t75 61h57
q-1 -28 -11.5 -51t-28 -39.5t-41.5 -26t-51 -9.5z" />
    <glyph glyph-name="Aogonek" unicode="&#x104;" horiz-adv-x="651" 
d="M550 -201q-55 0 -79 22.5t-24 57.5q0 20 7.5 37t19 32t26 28t28.5 24h-130v41l79 19l-53 164h-233l-55 -164l80 -19v-41h-219v42l69 18l222 633h82l215 -633l69 -18v-42h-71q-23 -28 -39 -55.5t-16 -55.5q0 -42 49 -42q8 0 16 0.5t14 1.5v-42q-12 -4 -25 -6t-32 -2z
M209 275h199l-94 294h-5z" />
    <glyph glyph-name="aogonek" unicode="&#x105;" horiz-adv-x="473" 
d="M393 -201q-55 0 -79 22.5t-24 57.5q0 19 7.5 36t20 30.5t28 24.5t31.5 20q-54 5 -63 53h-6q-20 -22 -53 -39t-83 -17q-69 0 -112.5 37t-43.5 103q0 33 11.5 56t32 39t49.5 26t64 17l131 27v54q0 30 -3.5 50.5t-15.5 33.5t-35 18.5t-61 5.5q-15 0 -33 -1t-35.5 -2.5
t-33.5 -3.5t-28 -4v43q15 6 35 13t43 12t48 8.5t49 3.5q84 0 123 -36.5t39 -114.5v-295q0 -24 12.5 -31t35.5 -7h25v-34q-47 -16 -72.5 -49t-25.5 -67q0 -42 49 -42q8 0 16 0.5t14 1.5v-42q-12 -4 -25 -6t-32 -2zM205 49q31 0 58 12t41 25v147l-102 -8q-53 -5 -72.5 -27.5
t-19.5 -60.5q0 -40 23 -64t72 -24z" />
    <glyph glyph-name="Cacute" unicode="&#x106;" horiz-adv-x="603" 
d="M351 -12q-72 0 -131.5 19.5t-102 61.5t-66 108.5t-23.5 160.5q0 103 28.5 173.5t76 113.5t108.5 61.5t126 18.5q63 0 111 -7.5t80 -18.5l5 -169h-46l-41 114q-19 8 -52 16.5t-69 8.5q-112 0 -166.5 -76.5t-54.5 -214.5q0 -152 54 -232.5t177 -80.5q36 0 64.5 8t50.5 20
l41 124h48l-6 -174q-38 -16 -88 -25.5t-124 -9.5zM260 728l-16 36l186 106l36 -76z" />
    <glyph glyph-name="cacute" unicode="&#x107;" horiz-adv-x="452" 
d="M273 -12q-60 0 -106 18.5t-77.5 53t-48 83.5t-16.5 109q0 73 21.5 124.5t58 84t85.5 47.5t104 15q36 0 70.5 -5.5t62.5 -14.5v-129h-52l-20 85q-12 4 -26.5 6.5t-45.5 2.5q-75 0 -119 -50.5t-44 -154.5q0 -59 14 -99t38.5 -64.5t57 -35t69.5 -10.5q52 0 86 8.5t52 17.5
v-46q-25 -17 -64 -31.5t-100 -14.5zM171 602l172 128l45 -72l-197 -90z" />
    <glyph glyph-name="Ccircumflex" unicode="&#x108;" horiz-adv-x="603" 
d="M351 -12q-72 0 -131.5 19.5t-102 61.5t-66 108.5t-23.5 160.5q0 103 28.5 173.5t76 113.5t108.5 61.5t126 18.5q63 0 111 -7.5t80 -18.5l5 -169h-46l-41 114q-19 8 -52 16.5t-69 8.5q-112 0 -166.5 -76.5t-54.5 -214.5q0 -152 54 -232.5t177 -80.5q36 0 64.5 8t50.5 20
l41 124h48l-6 -174q-38 -16 -88 -25.5t-124 -9.5zM214 763l119 98h46l119 -98l-17 -31l-125 55l-125 -55z" />
    <glyph glyph-name="ccircumflex" unicode="&#x109;" horiz-adv-x="452" 
d="M273 -12q-60 0 -106 18.5t-77.5 53t-48 83.5t-16.5 109q0 73 21.5 124.5t58 84t85.5 47.5t104 15q36 0 70.5 -5.5t62.5 -14.5v-129h-52l-20 85q-12 4 -26.5 6.5t-45.5 2.5q-75 0 -119 -50.5t-44 -154.5q0 -59 14 -99t38.5 -64.5t57 -35t69.5 -10.5q52 0 86 8.5t52 17.5
v-46q-25 -17 -64 -31.5t-100 -14.5zM134 602l115 121h46l115 -121l-21 -29l-117 74l-117 -74z" />
    <glyph glyph-name="Cdotaccent" unicode="&#x10a;" horiz-adv-x="603" 
d="M351 -12q-72 0 -131.5 19.5t-102 61.5t-66 108.5t-23.5 160.5q0 103 28.5 173.5t76 113.5t108.5 61.5t126 18.5q63 0 111 -7.5t80 -18.5l5 -169h-46l-41 114q-19 8 -52 16.5t-69 8.5q-112 0 -166.5 -76.5t-54.5 -214.5q0 -152 54 -232.5t177 -80.5q36 0 64.5 8t50.5 20
l41 124h48l-6 -174q-38 -16 -88 -25.5t-124 -9.5zM346 738q-23 0 -40 17t-17 39q0 23 17 39.5t40 16.5q24 0 40.5 -16.5t16.5 -39.5q0 -22 -16.5 -39t-40.5 -17z" />
    <glyph glyph-name="cdotaccent" unicode="&#x10b;" horiz-adv-x="452" 
d="M273 -12q-60 0 -106 18.5t-77.5 53t-48 83.5t-16.5 109q0 73 21.5 124.5t58 84t85.5 47.5t104 15q36 0 70.5 -5.5t62.5 -14.5v-129h-52l-20 85q-12 4 -26.5 6.5t-45.5 2.5q-75 0 -119 -50.5t-44 -154.5q0 -59 14 -99t38.5 -64.5t57 -35t69.5 -10.5q52 0 86 8.5t52 17.5
v-46q-25 -17 -64 -31.5t-100 -14.5zM273 605q-23 0 -40 17t-17 39q0 23 17 39.5t40 16.5q24 0 40.5 -16.5t16.5 -39.5q0 -22 -16.5 -39t-40.5 -17z" />
    <glyph glyph-name="Ccaron" unicode="&#x10c;" horiz-adv-x="603" 
d="M351 -12q-72 0 -131.5 19.5t-102 61.5t-66 108.5t-23.5 160.5q0 103 28.5 173.5t76 113.5t108.5 61.5t126 18.5q63 0 111 -7.5t80 -18.5l5 -169h-46l-41 114q-19 8 -52 16.5t-69 8.5q-112 0 -166.5 -76.5t-54.5 -214.5q0 -152 54 -232.5t177 -80.5q36 0 64.5 8t50.5 20
l41 124h48l-6 -174q-38 -16 -88 -25.5t-124 -9.5zM491 838l-119 -98h-46l-119 98l17 31l125 -55l125 55z" />
    <glyph glyph-name="ccaron" unicode="&#x10d;" horiz-adv-x="452" 
d="M273 -12q-60 0 -106 18.5t-77.5 53t-48 83.5t-16.5 109q0 73 21.5 124.5t58 84t85.5 47.5t104 15q36 0 70.5 -5.5t62.5 -14.5v-129h-52l-20 85q-12 4 -26.5 6.5t-45.5 2.5q-75 0 -119 -50.5t-44 -154.5q0 -59 14 -99t38.5 -64.5t57 -35t69.5 -10.5q52 0 86 8.5t52 17.5
v-46q-25 -17 -64 -31.5t-100 -14.5zM135 697l21 29l117 -74l117 74l21 -29l-115 -121h-46z" />
    <glyph glyph-name="Dcaron" unicode="&#x10e;" horiz-adv-x="671" 
d="M20 41l89 19v573l-88 19v41h276q94 0 160 -22t107.5 -64t60.5 -103t19 -140q0 -176 -80.5 -270t-255.5 -94h-288v41zM310 55q57 0 99.5 14.5t71 48.5t42.5 90.5t14 140.5q0 96 -17 153t-49.5 87.5t-80 39.5t-107.5 9h-74v-583h101zM468 838l-119 -98h-46l-119 98l17 31
l125 -55l125 55z" />
    <glyph glyph-name="dcaron" unicode="&#x10f;" horiz-adv-x="566" 
d="M247 -12q-36 0 -74.5 12t-70 41.5t-52 79t-20.5 123.5q0 71 19 123.5t53.5 87t83 51.5t107.5 17q30 0 52 -4t43 -10v159l-82 16v38l162 23l12 -5v-677l75 -16v-34l-150 -23l-11 5v52h-6q-20 -26 -55 -42.5t-86 -16.5zM275 58q35 0 65.5 10t47.5 19v350q-8 6 -17.5 11.5
t-21.5 10t-28.5 7.5t-38.5 3q-35 0 -64 -10t-50 -35t-32.5 -66t-11.5 -102q0 -107 40 -152.5t111 -45.5zM526 576l15 166l85 -16l-59 -157z" />
    <glyph glyph-name="Dcroat" unicode="&#x110;" horiz-adv-x="671" 
d="M28 378h81v255l-88 19v41h276q94 0 160 -22t107.5 -64t60.5 -103t19 -140q0 -176 -80.5 -270t-255.5 -94h-288v41l89 19v259h-81v59zM310 55q57 0 99.5 14.5t71 48.5t42.5 90.5t14 140.5q0 96 -17 153t-49.5 87.5t-80 39.5t-107.5 9h-74v-260h179v-59h-179v-264h101z" />
    <glyph glyph-name="dcroat" unicode="&#x111;" horiz-adv-x="566" 
d="M210 627h178v41l-82 16v38l162 23l12 -5v-113h72v-44h-72v-520l75 -16v-34l-150 -23l-11 5v52h-6q-20 -26 -55 -42.5t-86 -16.5q-36 0 -74.5 12t-70 41.5t-52 79t-20.5 123.5q0 71 19 123.5t53.5 87t83 51.5t107.5 17q30 0 52 -4t43 -10v74h-178v44zM275 58q35 0 65.5 10
t47.5 19v350q-8 6 -17.5 11.5t-21.5 10t-28.5 7.5t-38.5 3q-35 0 -64 -10t-50 -35t-32.5 -66t-11.5 -102q0 -107 40 -152.5t111 -45.5z" />
    <glyph glyph-name="Emacron" unicode="&#x112;" horiz-adv-x="585" 
d="M20 41l89 19v573l-88 19v41h514l11 -172h-48l-43 117h-246v-255h132l27 95h43v-242h-43l-27 96h-132v-277h256l54 145h48l-13 -200h-534v41zM187 817h244v-62h-244v62z" />
    <glyph glyph-name="emacron" unicode="&#x113;" horiz-adv-x="493" 
d="M275 -12q-66 0 -113 20.5t-77.5 56.5t-45 86t-14.5 110q0 61 18.5 110t50.5 82.5t74.5 51.5t91.5 18q56 0 95.5 -19t65 -53.5t37 -83.5t11.5 -109h-349q3 -103 48.5 -154t125.5 -51q55 0 88.5 8.5t61.5 18.5v-45q-24 -14 -64.5 -30.5t-104.5 -16.5zM365 316
q0 80 -27.5 116.5t-83.5 36.5q-60 0 -94.5 -38.5t-39.5 -122.5zM137 667h244v-62h-244v62z" />
    <glyph glyph-name="Ebreve" unicode="&#x114;" horiz-adv-x="585" 
d="M20 41l89 19v573l-88 19v41h514l11 -172h-48l-43 117h-246v-255h132l27 95h43v-242h-43l-27 96h-132v-277h256l54 145h48l-13 -200h-534v41zM310 736q-57 0 -91 33t-39 81h57q7 -21 25 -33.5t48 -12.5t47.5 12.5t24.5 33.5h57q-5 -48 -39 -81t-90 -33z" />
    <glyph glyph-name="ebreve" unicode="&#x115;" horiz-adv-x="493" 
d="M275 -12q-66 0 -113 20.5t-77.5 56.5t-45 86t-14.5 110q0 61 18.5 110t50.5 82.5t74.5 51.5t91.5 18q56 0 95.5 -19t65 -53.5t37 -83.5t11.5 -109h-349q3 -103 48.5 -154t125.5 -51q55 0 88.5 8.5t61.5 18.5v-45q-24 -14 -64.5 -30.5t-104.5 -16.5zM365 316
q0 80 -27.5 116.5t-83.5 36.5q-60 0 -94.5 -38.5t-39.5 -122.5zM259 581q-27 0 -51 9.5t-41.5 26t-28 39.5t-11.5 51h57q13 -61 75 -61t75 61h57q-1 -28 -11.5 -51t-28 -39.5t-41.5 -26t-51 -9.5z" />
    <glyph glyph-name="Edotaccent" unicode="&#x116;" horiz-adv-x="585" 
d="M20 41l89 19v573l-88 19v41h514l11 -172h-48l-43 117h-246v-255h132l27 95h43v-242h-43l-27 96h-132v-277h256l54 145h48l-13 -200h-534v41zM309 738q-23 0 -40 17t-17 39q0 23 17 39.5t40 16.5q24 0 40.5 -16.5t16.5 -39.5q0 -22 -16.5 -39t-40.5 -17z" />
    <glyph glyph-name="edotaccent" unicode="&#x117;" horiz-adv-x="493" 
d="M275 -12q-66 0 -113 20.5t-77.5 56.5t-45 86t-14.5 110q0 61 18.5 110t50.5 82.5t74.5 51.5t91.5 18q56 0 95.5 -19t65 -53.5t37 -83.5t11.5 -109h-349q3 -103 48.5 -154t125.5 -51q55 0 88.5 8.5t61.5 18.5v-45q-24 -14 -64.5 -30.5t-104.5 -16.5zM365 316
q0 80 -27.5 116.5t-83.5 36.5q-60 0 -94.5 -38.5t-39.5 -122.5zM259 605q-23 0 -40 17t-17 39q0 23 17 39.5t40 16.5q24 0 40.5 -16.5t16.5 -39.5q0 -22 -16.5 -39t-40.5 -17z" />
    <glyph glyph-name="Eogonek" unicode="&#x118;" horiz-adv-x="585" 
d="M20 41l89 19v573l-88 19v41h514l11 -172h-48l-43 117h-246v-255h132l27 95h43v-242h-43l-27 96h-132v-277h256l54 145h48l-13 -200h-64q-23 -28 -39 -55.5t-16 -55.5q0 -42 49 -42q8 0 16 0.5t14 1.5v-42q-12 -4 -25 -6t-32 -2q-55 0 -79 22.5t-24 57.5q0 20 7.5 37.5
t19.5 32.5t26.5 27.5t29.5 23.5h-417v41z" />
    <glyph glyph-name="eogonek" unicode="&#x119;" horiz-adv-x="493" 
d="M321 -201q-55 0 -79 22.5t-24 57.5q0 19 8 35t20.5 30t29 25.5t34.5 20.5q-8 -1 -17.5 -1.5t-17.5 -0.5q-66 0 -113 20.5t-77.5 56.5t-45 86t-14.5 110q0 61 18.5 110t50.5 82.5t74.5 51.5t91.5 18q56 0 95.5 -19t65 -53.5t37 -83.5t11.5 -109h-349q3 -103 48.5 -154
t125.5 -51q55 0 88.5 8.5t61.5 18.5v-45q-26 -14 -52 -30t-46.5 -34.5t-33.5 -39t-13 -42.5q0 -42 49 -42q8 0 16 0.5t14 1.5v-42q-12 -4 -25 -6t-32 -2zM365 316q0 80 -27.5 116.5t-83.5 36.5q-60 0 -94.5 -38.5t-39.5 -122.5z" />
    <glyph glyph-name="Ecaron" unicode="&#x11a;" horiz-adv-x="585" 
d="M20 41l89 19v573l-88 19v41h514l11 -172h-48l-43 117h-246v-255h132l27 95h43v-242h-43l-27 96h-132v-277h256l54 145h48l-13 -200h-534v41zM451 838l-119 -98h-46l-119 98l17 31l125 -55l125 55z" />
    <glyph glyph-name="ecaron" unicode="&#x11b;" horiz-adv-x="493" 
d="M275 -12q-66 0 -113 20.5t-77.5 56.5t-45 86t-14.5 110q0 61 18.5 110t50.5 82.5t74.5 51.5t91.5 18q56 0 95.5 -19t65 -53.5t37 -83.5t11.5 -109h-349q3 -103 48.5 -154t125.5 -51q55 0 88.5 8.5t61.5 18.5v-45q-24 -14 -64.5 -30.5t-104.5 -16.5zM365 316
q0 80 -27.5 116.5t-83.5 36.5q-60 0 -94.5 -38.5t-39.5 -122.5zM121 697l21 29l117 -74l117 74l21 -29l-115 -121h-46z" />
    <glyph glyph-name="Gcircumflex" unicode="&#x11c;" horiz-adv-x="659" 
d="M373 -13q-81 0 -145 19.5t-108.5 62t-68 109t-23.5 160.5q0 103 29.5 173.5t78 113.5t110.5 61.5t127 18.5q68 0 117 -7.5t81 -17.5l8 -171h-46l-42 113q-23 12 -54.5 19.5t-73.5 7.5q-115 0 -172 -76.5t-57 -214.5q0 -152 54 -232.5t178 -80.5q37 0 63.5 5.5t46.5 12.5
v194l-92 17v41h266v-41l-74 -17v-239q-88 -31 -203 -31zM219 763l119 98h46l119 -98l-17 -31l-125 55l-125 -55z" />
    <glyph glyph-name="gcircumflex" unicode="&#x11d;" horiz-adv-x="500" 
d="M217 -206q-57 0 -96.5 11t-64.5 29t-36.5 40t-11.5 43q0 39 28 69t70 48v5q-24 9 -39 26.5t-15 42.5q0 29 16.5 55.5t48.5 52.5q-33 20 -52.5 52.5t-19.5 80.5q0 42 15.5 74.5t42.5 54.5t62.5 33.5t76.5 11.5q55 0 99 -18l150 21v-68l-95 6q20 -20 31 -44.5t11 -59.5
q0 -42 -15.5 -74.5t-42.5 -54.5t-63 -33t-76 -11q-24 0 -47 3t-43 10q-14 -14 -21 -29t-7 -28t9 -22t29 -9h171q31 0 59 -6t49 -20.5t33.5 -38.5t12.5 -61q0 -39 -17.5 -74t-51 -61t-84 -41.5t-116.5 -15.5zM225 -149q47 0 81 9t56 24t32.5 35t10.5 42q0 35 -22.5 50
t-65.5 15h-167q-26 -12 -40.5 -36.5t-14.5 -54.5q0 -37 30.5 -60.5t99.5 -23.5zM241 238q48 0 77 28.5t29 87.5q0 63 -30.5 90.5t-75.5 27.5q-48 0 -76.5 -29t-28.5 -87q0 -63 30 -90.5t75 -27.5zM113 602l115 121h46l115 -121l-21 -29l-117 74l-117 -74z" />
    <glyph glyph-name="Gbreve" unicode="&#x11e;" horiz-adv-x="659" 
d="M373 -13q-81 0 -145 19.5t-108.5 62t-68 109t-23.5 160.5q0 103 29.5 173.5t78 113.5t110.5 61.5t127 18.5q68 0 117 -7.5t81 -17.5l8 -171h-46l-42 113q-23 12 -54.5 19.5t-73.5 7.5q-115 0 -172 -76.5t-57 -214.5q0 -152 54 -232.5t178 -80.5q37 0 63.5 5.5t46.5 12.5
v194l-92 17v41h266v-41l-74 -17v-239q-88 -31 -203 -31zM352 736q-57 0 -91 33t-39 81h57q7 -21 25 -33.5t48 -12.5t47.5 12.5t24.5 33.5h57q-5 -48 -39 -81t-90 -33z" />
    <glyph glyph-name="gbreve" unicode="&#x11f;" horiz-adv-x="500" 
d="M217 -206q-57 0 -96.5 11t-64.5 29t-36.5 40t-11.5 43q0 39 28 69t70 48v5q-24 9 -39 26.5t-15 42.5q0 29 16.5 55.5t48.5 52.5q-33 20 -52.5 52.5t-19.5 80.5q0 42 15.5 74.5t42.5 54.5t62.5 33.5t76.5 11.5q55 0 99 -18l150 21v-68l-95 6q20 -20 31 -44.5t11 -59.5
q0 -42 -15.5 -74.5t-42.5 -54.5t-63 -33t-76 -11q-24 0 -47 3t-43 10q-14 -14 -21 -29t-7 -28t9 -22t29 -9h171q31 0 59 -6t49 -20.5t33.5 -38.5t12.5 -61q0 -39 -17.5 -74t-51 -61t-84 -41.5t-116.5 -15.5zM225 -149q47 0 81 9t56 24t32.5 35t10.5 42q0 35 -22.5 50
t-65.5 15h-167q-26 -12 -40.5 -36.5t-14.5 -54.5q0 -37 30.5 -60.5t99.5 -23.5zM241 238q48 0 77 28.5t29 87.5q0 63 -30.5 90.5t-75.5 27.5q-48 0 -76.5 -29t-28.5 -87q0 -63 30 -90.5t75 -27.5zM251 581q-27 0 -51 9.5t-41.5 26t-28 39.5t-11.5 51h57q13 -61 75 -61t75 61
h57q-1 -28 -11.5 -51t-28 -39.5t-41.5 -26t-51 -9.5z" />
    <glyph glyph-name="Gdotaccent" unicode="&#x120;" horiz-adv-x="659" 
d="M373 -13q-81 0 -145 19.5t-108.5 62t-68 109t-23.5 160.5q0 103 29.5 173.5t78 113.5t110.5 61.5t127 18.5q68 0 117 -7.5t81 -17.5l8 -171h-46l-42 113q-23 12 -54.5 19.5t-73.5 7.5q-115 0 -172 -76.5t-57 -214.5q0 -152 54 -232.5t178 -80.5q37 0 63.5 5.5t46.5 12.5
v194l-92 17v41h266v-41l-74 -17v-239q-88 -31 -203 -31zM351 738q-23 0 -40 17t-17 39q0 23 17 39.5t40 16.5q24 0 40.5 -16.5t16.5 -39.5q0 -22 -16.5 -39t-40.5 -17z" />
    <glyph glyph-name="gdotaccent" unicode="&#x121;" horiz-adv-x="500" 
d="M217 -206q-57 0 -96.5 11t-64.5 29t-36.5 40t-11.5 43q0 39 28 69t70 48v5q-24 9 -39 26.5t-15 42.5q0 29 16.5 55.5t48.5 52.5q-33 20 -52.5 52.5t-19.5 80.5q0 42 15.5 74.5t42.5 54.5t62.5 33.5t76.5 11.5q55 0 99 -18l150 21v-68l-95 6q20 -20 31 -44.5t11 -59.5
q0 -42 -15.5 -74.5t-42.5 -54.5t-63 -33t-76 -11q-24 0 -47 3t-43 10q-14 -14 -21 -29t-7 -28t9 -22t29 -9h171q31 0 59 -6t49 -20.5t33.5 -38.5t12.5 -61q0 -39 -17.5 -74t-51 -61t-84 -41.5t-116.5 -15.5zM225 -149q47 0 81 9t56 24t32.5 35t10.5 42q0 35 -22.5 50
t-65.5 15h-167q-26 -12 -40.5 -36.5t-14.5 -54.5q0 -37 30.5 -60.5t99.5 -23.5zM241 238q48 0 77 28.5t29 87.5q0 63 -30.5 90.5t-75.5 27.5q-48 0 -76.5 -29t-28.5 -87q0 -63 30 -90.5t75 -27.5zM251 605q-23 0 -40 17t-17 39q0 23 17 39.5t40 16.5q24 0 40.5 -16.5
t16.5 -39.5q0 -22 -16.5 -39t-40.5 -17z" />
    <glyph glyph-name="Gcommaaccent" unicode="&#x122;" horiz-adv-x="659" 
d="M373 -13q-81 0 -145 19.5t-108.5 62t-68 109t-23.5 160.5q0 103 29.5 173.5t78 113.5t110.5 61.5t127 18.5q68 0 117 -7.5t81 -17.5l8 -171h-46l-42 113q-23 12 -54.5 19.5t-73.5 7.5q-115 0 -172 -76.5t-57 -214.5q0 -152 54 -232.5t178 -80.5q37 0 63.5 5.5t46.5 12.5
v194l-92 17v41h266v-41l-74 -17v-239q-88 -31 -203 -31zM291 -182q8 27 11.5 63.5t3.5 76.5h94q-5 -39 -17.5 -76.5t-34.5 -63.5h-57z" />
    <glyph glyph-name="gcommaaccent" unicode="&#x123;" horiz-adv-x="500" 
d="M217 -206q-57 0 -96.5 11t-64.5 29t-36.5 40t-11.5 43q0 39 28 69t70 48v5q-24 9 -39 26.5t-15 42.5q0 29 16.5 55.5t48.5 52.5q-33 20 -52.5 52.5t-19.5 80.5q0 42 15.5 74.5t42.5 54.5t62.5 33.5t76.5 11.5q55 0 99 -18l150 21v-68l-95 6q20 -20 31 -44.5t11 -59.5
q0 -42 -15.5 -74.5t-42.5 -54.5t-63 -33t-76 -11q-24 0 -47 3t-43 10q-14 -14 -21 -29t-7 -28t9 -22t29 -9h171q31 0 59 -6t49 -20.5t33.5 -38.5t12.5 -61q0 -39 -17.5 -74t-51 -61t-84 -41.5t-116.5 -15.5zM225 -149q47 0 81 9t56 24t32.5 35t10.5 42q0 35 -22.5 50
t-65.5 15h-167q-26 -12 -40.5 -36.5t-14.5 -54.5q0 -37 30.5 -60.5t99.5 -23.5zM241 238q48 0 77 28.5t29 87.5q0 63 -30.5 90.5t-75.5 27.5q-48 0 -76.5 -29t-28.5 -87q0 -63 30 -90.5t75 -27.5zM313 746q-8 -27 -11.5 -63.5t-3.5 -76.5h-94q5 39 17.5 76.5t34.5 63.5h57z
" />
    <glyph glyph-name="Hcircumflex" unicode="&#x124;" horiz-adv-x="724" 
d="M20 41l88 18v574l-88 19v41h275v-41l-87 -19v-253h310v253l-89 19v41h275v-41l-86 -19v-574l86 -18v-41h-275v41l89 18v270h-310v-270l87 -18v-41h-275v41zM220 763l119 98h46l119 -98l-17 -31l-125 55l-125 -55z" />
    <glyph glyph-name="hcircumflex" unicode="&#x125;" horiz-adv-x="580" 
d="M14 34l75 16v618l-75 16v38l156 23l11 -6v-267h6q38 22 79 36.5t88 14.5q72 0 108 -30.5t36 -106.5v-336l75 -16v-34h-240v34l73 16v312q0 53 -26.5 72t-80.5 19q-32 0 -60.5 -7t-57.5 -17v-379l73 -16v-34h-240v34zM151 823l119 98h46l119 -98l-17 -31l-125 55l-125 -55
z" />
    <glyph glyph-name="Hbar" unicode="&#x126;" horiz-adv-x="724" 
d="M20 535h88v98l-88 19v41h275v-41l-87 -19v-98h310v98l-89 19v41h275v-41l-86 -19v-98h86v-48h-86v-428l86 -18v-41h-275v41l89 18v270h-310v-270l87 -18v-41h-275v41l88 18v428h-88v48zM518 380v107h-310v-107h310z" />
    <glyph glyph-name="hbar" unicode="&#x127;" horiz-adv-x="580" 
d="M6 627h83v41l-75 16v38l156 23l11 -6v-112h167v-44h-167v-111h6q38 22 79 36.5t88 14.5q72 0 108 -30.5t36 -106.5v-336l75 -16v-34h-240v34l73 16v312q0 53 -26.5 72t-80.5 19q-32 0 -60.5 -7t-57.5 -17v-379l73 -16v-34h-240v34l75 16v533h-83v44z" />
    <glyph glyph-name="Itilde" unicode="&#x128;" horiz-adv-x="315" 
d="M20 41l88 18v575l-88 18v41h275v-41l-87 -18v-575l87 -18v-41h-275v41zM7 754q18 45 42 69t56 24q16 0 31 -5.5t28.5 -11.5t25.5 -11.5t23 -5.5q15 0 27.5 9t26.5 32l40 -18q-18 -45 -42 -69t-56 -24q-16 0 -31 5.5t-28.5 11.5t-26 11.5t-22.5 5.5q-15 0 -27.5 -9
t-26.5 -32z" />
    <glyph glyph-name="itilde" unicode="&#x129;" horiz-adv-x="269" 
d="M15 34l74 16v393l-80 16v38l161 24l11 -6v-465l75 -16v-34h-241v34zM-18 613q18 45 42 69t56 24q16 0 31 -5.5t28.5 -11.5t25.5 -11.5t23 -5.5q15 0 27.5 9t26.5 32l40 -18q-18 -45 -42 -69t-56 -24q-16 0 -31 5.5t-28.5 11.5t-26 11.5t-22.5 5.5q-15 0 -27.5 -9
t-26.5 -32z" />
    <glyph glyph-name="Imacron" unicode="&#x12a;" horiz-adv-x="315" 
d="M20 41l88 18v575l-88 18v41h275v-41l-87 -18v-575l87 -18v-41h-275v41zM35 817h244v-62h-244v62z" />
    <glyph glyph-name="imacron" unicode="&#x12b;" horiz-adv-x="269" 
d="M15 34l74 16v393l-80 16v38l161 24l11 -6v-465l75 -16v-34h-241v34zM6 667h229v-62h-229v62z" />
    <glyph glyph-name="Ibreve" unicode="&#x12c;" horiz-adv-x="315" 
d="M20 41l88 18v575l-88 18v41h275v-41l-87 -18v-575l87 -18v-41h-275v41zM158 736q-57 0 -91 33t-39 81h57q7 -21 25 -33.5t48 -12.5t47.5 12.5t24.5 33.5h57q-5 -48 -39 -81t-90 -33z" />
    <glyph glyph-name="ibreve" unicode="&#x12d;" horiz-adv-x="269" 
d="M15 34l74 16v393l-80 16v38l161 24l11 -6v-465l75 -16v-34h-241v34zM132 581q-27 0 -51 9.5t-41.5 26t-28 39.5t-11.5 51h57q13 -61 75 -61t75 61h57q-1 -28 -11.5 -51t-28 -39.5t-41.5 -26t-51 -9.5z" />
    <glyph glyph-name="Iogonek" unicode="&#x12e;" horiz-adv-x="315" 
d="M20 41l88 18v575l-88 18v41h275v-41l-87 -18v-575l87 -18v-41h-80q-23 -28 -35 -55.5t-12 -55.5q0 -42 49 -42q8 0 16 0.5t14 1.5v-42q-12 -4 -25 -6t-32 -2q-55 0 -79 22.5t-24 57.5q0 19 6.5 36.5t16.5 32.5t22.5 28t25.5 24h-138v41z" />
    <glyph glyph-name="iogonek" unicode="&#x12f;" horiz-adv-x="269" 
d="M15 34l74 16v393l-80 16v38l161 24l11 -6v-465l75 -16v-34h-68q-23 -28 -39 -55.5t-16 -55.5q0 -42 49 -42q8 0 16 0.5t14 1.5v-42q-12 -4 -25 -6t-32 -2q-55 0 -79 22.5t-24 57.5q0 21 8.5 39t21 33t27 27t26.5 22h-120v34zM131 605q-23 0 -40 17t-17 39q0 23 17 39.5
t40 16.5q24 0 40.5 -16.5t16.5 -39.5q0 -22 -16.5 -39t-40.5 -17z" />
    <glyph glyph-name="Idotaccent" unicode="&#x130;" horiz-adv-x="315" 
d="M20 41l88 18v575l-88 18v41h275v-41l-87 -18v-575l87 -18v-41h-275v41zM157 738q-23 0 -40 17t-17 39q0 23 17 39.5t40 16.5q24 0 40.5 -16.5t16.5 -39.5q0 -22 -16.5 -39t-40.5 -17z" />
    <glyph glyph-name="dotlessi" unicode="&#x131;" horiz-adv-x="269" 
d="M15 34l74 16v393l-80 16v38l161 24l11 -6v-465l75 -16v-34h-241v34z" />
    <glyph glyph-name="IJ" unicode="&#x132;" horiz-adv-x="708" 
d="M20 41l88 18v575l-88 18v41h275v-41l-87 -18v-575l87 -18v-41h-275v41zM431 -10q-39 0 -64.5 7t-42.5 15v57q22 -6 42.5 -10.5t51.5 -4.5q21 0 38.5 4.5t30 16.5t19.5 32.5t7 52.5v473l-88 19v41h275v-41l-87 -19v-483q0 -78 -47.5 -119t-134.5 -41z" />
    <glyph glyph-name="ij" unicode="&#x133;" horiz-adv-x="530" 
d="M15 34l74 16v393l-80 16v38l161 24l11 -6v-465l75 -16v-34h-241v34zM131 605q-23 0 -40 17t-17 39q0 23 17 39.5t40 16.5q24 0 40.5 -16.5t16.5 -39.5q0 -22 -16.5 -39t-40.5 -17zM303 -197q-19 0 -37.5 4t-36.5 11v42q11 -2 23 -2.5t22 -0.5q18 0 34.5 4t29 15
t19.5 29.5t7 48.5v489l-80 16v38l161 24l11 -6v-571q0 -68 -39.5 -104.5t-113.5 -36.5zM406 605q-23 0 -40 17t-17 39q0 23 17 39.5t40 16.5q24 0 40.5 -16.5t16.5 -39.5q0 -22 -16.5 -39t-40.5 -17z" />
    <glyph glyph-name="Jcircumflex" unicode="&#x134;" horiz-adv-x="403" 
d="M126 -10q-43 0 -70 8t-46 17v56q25 -8 46 -12.5t57 -4.5q21 0 38.5 4.5t30 16.5t19.5 32.5t7 52.5v473l-88 19v41h275v-41l-87 -19v-483q0 -78 -47.5 -119t-134.5 -41zM114 763l119 98h46l119 -98l-17 -31l-125 55l-125 -55z" />
    <glyph glyph-name="jcircumflex" unicode="&#x135;" horiz-adv-x="261" 
d="M34 -197q-19 0 -37.5 4t-36.5 11v42q11 -2 23 -2.5t22 -0.5q18 0 34.5 4t29 15t19.5 29.5t7 48.5v489l-80 16v38l161 24l11 -6v-571q0 -68 -39.5 -104.5t-113.5 -36.5zM-7 602l115 121h46l115 -121l-21 -29l-117 74l-117 -74z" />
    <glyph glyph-name="Kcommaaccent" unicode="&#x136;" horiz-adv-x="651" 
d="M20 41l88 18v575l-88 18v41h279v-41l-91 -18v-575l91 -18v-41h-279v41zM248 328v22l231 284l-64 18v41h215v-41l-67 -18l-225 -265l225 -309l75 -19v-41h-155zM287 -182q8 27 11.5 63.5t3.5 76.5h94q-5 -39 -17.5 -76.5t-34.5 -63.5h-57z" />
    <glyph glyph-name="kcommaaccent" unicode="&#x137;" horiz-adv-x="529" 
d="M14 34l75 15v619l-75 16v38l155 23l12 -6v-690l77 -15v-34h-244v34zM214 257v14l151 191l-60 15v36h202v-36l-73 -15l-141 -166l171 -246l65 -16v-34h-136zM217 -182q8 27 11.5 63.5t3.5 76.5h94q-5 -39 -17.5 -76.5t-34.5 -63.5h-57z" />
    <glyph glyph-name="Lacute" unicode="&#x139;" horiz-adv-x="554" 
d="M20 41l88 18v575l-88 18v41h284v-41l-96 -18v-579h234l49 164h47l-13 -219h-505v41zM70 728l-16 36l186 106l36 -76z" />
    <glyph glyph-name="lacute" unicode="&#x13a;" horiz-adv-x="269" 
d="M14 34l75 16v618l-81 16v38l161 23l12 -6v-689l75 -16v-34h-242v34zM53 778l-16 36l186 106l36 -76z" />
    <glyph glyph-name="Lcommaaccent" unicode="&#x13b;" horiz-adv-x="554" 
d="M20 41l88 18v575l-88 18v41h284v-41l-96 -18v-579h234l49 164h47l-13 -219h-505v41zM227 -182q8 27 11.5 63.5t3.5 76.5h94q-5 -39 -17.5 -76.5t-34.5 -63.5h-57z" />
    <glyph glyph-name="lcommaaccent" unicode="&#x13c;" horiz-adv-x="269" 
d="M14 34l75 16v618l-81 16v38l161 23l12 -6v-689l75 -16v-34h-242v34zM72 -182q8 27 11.5 63.5t3.5 76.5h94q-5 -39 -17.5 -76.5t-34.5 -63.5h-57z" />
    <glyph glyph-name="Lcaron" unicode="&#x13d;" horiz-adv-x="554" 
d="M365 552l14 166l95 -16l-59 -157zM20 41l88 18v575l-88 18v41h284v-41l-96 -18v-579h234l49 164h47l-13 -219h-505v41z" />
    <glyph glyph-name="lcaron" unicode="&#x13e;" horiz-adv-x="269" 
d="M14 34l75 16v618l-81 16v38l161 23l12 -6v-689l75 -16v-34h-242v34zM227 576l15 166l85 -16l-59 -157z" />
    <glyph glyph-name="Ldot" unicode="&#x13f;" horiz-adv-x="554" 
d="M20 41l88 18v575l-88 18v41h284v-41l-96 -18v-579h234l49 164h47l-13 -219h-505v41zM449 314q-26 0 -45 18t-19 45t19 45t45 18t45 -18t19 -45t-19 -45t-45 -18z" />
    <glyph glyph-name="ldot" unicode="&#x140;" horiz-adv-x="294" 
d="M14 34l75 16v618l-81 16v38l161 23l12 -6v-689l75 -16v-34h-242v34zM282 298q-23 0 -40.5 16t-17.5 41q0 24 17.5 40t40.5 16q24 0 41 -16t17 -40q0 -25 -17 -41t-41 -16z" />
    <glyph glyph-name="Lslash" unicode="&#x141;" horiz-adv-x="554" 
d="M28 282l80 33v319l-88 18v41h284v-41l-96 -18v-277l200 85v-62l-200 -85v-240h234l49 164h47l-13 -219h-505v41l88 18v194l-80 -33v62z" />
    <glyph glyph-name="lslash" unicode="&#x142;" horiz-adv-x="269" 
d="M7 343l82 50v275l-81 16v38l161 23l12 -6v-289l85 53v-62l-85 -53v-338l75 -16v-34h-242v34l75 16v281l-82 -50v62z" />
    <glyph glyph-name="Nacute" unicode="&#x143;" horiz-adv-x="707" 
d="M20 39l89 20v574l-89 19v41h222l302 -516h5v455l-88 20v41h236v-40l-79 -20v-633h-79l-356 608h-4v-548l89 -20v-40h-248v39zM301 728l-16 36l186 106l36 -76z" />
    <glyph glyph-name="nacute" unicode="&#x144;" horiz-adv-x="582" 
d="M14 34l75 16v393l-75 16v38l151 24l11 -6v-45h6q38 22 81.5 37.5t90.5 15.5q72 0 108 -30.5t36 -106.5v-336l75 -16v-34h-240v34l73 16v312q0 53 -26.5 71.5t-80.5 18.5q-32 0 -60.5 -6.5t-57.5 -16.5v-379l73 -16v-34h-240v34zM194 602l172 128l45 -72l-197 -90z" />
    <glyph glyph-name="Ncommaaccent" unicode="&#x145;" horiz-adv-x="707" 
d="M20 39l89 20v574l-89 19v41h222l302 -516h5v455l-88 20v41h236v-40l-79 -20v-633h-79l-356 608h-4v-548l89 -20v-40h-248v39zM310 -182q8 27 11.5 63.5t3.5 76.5h94q-5 -39 -17.5 -76.5t-34.5 -63.5h-57z" />
    <glyph glyph-name="ncommaaccent" unicode="&#x146;" horiz-adv-x="582" 
d="M14 34l75 16v393l-75 16v38l151 24l11 -6v-45h6q38 22 81.5 37.5t90.5 15.5q72 0 108 -30.5t36 -106.5v-336l75 -16v-34h-240v34l73 16v312q0 53 -26.5 71.5t-80.5 18.5q-32 0 -60.5 -6.5t-57.5 -16.5v-379l73 -16v-34h-240v34zM233 -182q8 27 11.5 63.5t3.5 76.5h94
q-5 -39 -17.5 -76.5t-34.5 -63.5h-57z" />
    <glyph glyph-name="Ncaron" unicode="&#x147;" horiz-adv-x="707" 
d="M20 39l89 20v574l-89 19v41h222l302 -516h5v455l-88 20v41h236v-40l-79 -20v-633h-79l-356 608h-4v-548l89 -20v-40h-248v39zM522 838l-119 -98h-46l-119 98l17 31l125 -55l125 55z" />
    <glyph glyph-name="ncaron" unicode="&#x148;" horiz-adv-x="582" 
d="M14 34l75 16v393l-75 16v38l151 24l11 -6v-45h6q38 22 81.5 37.5t90.5 15.5q72 0 108 -30.5t36 -106.5v-336l75 -16v-34h-240v34l73 16v312q0 53 -26.5 71.5t-80.5 18.5q-32 0 -60.5 -6.5t-57.5 -16.5v-379l73 -16v-34h-240v34zM155 697l21 29l117 -74l117 74l21 -29
l-115 -121h-46z" />
    <glyph glyph-name="napostrophe" unicode="&#x149;" horiz-adv-x="612" 
d="M44 34l75 16v393l-75 16v38l151 24l11 -6v-45h6q38 22 81.5 37.5t90.5 15.5q72 0 108 -30.5t36 -106.5v-336l75 -16v-34h-240v34l73 16v312q0 53 -26.5 71.5t-80.5 18.5q-32 0 -60.5 -6.5t-57.5 -16.5v-379l73 -16v-34h-240v34zM-56 488q8 49 14 99t6 106h101
q-9 -57 -23.5 -107t-39.5 -98h-58z" />
    <glyph glyph-name="Eng" unicode="&#x14a;" horiz-adv-x="707" 
d="M467 -177q-34 0 -56.5 5t-40.5 13v46q14 -3 29.5 -5t32.5 -2q27 0 48 4t36 15.5t23.5 32t9.5 52.5l-366 624h-4v-548l89 -20v-40h-248v39l89 20v574l-89 19v41h222l302 -516h5v455l-88 20v41h236v-40l-79 -20v-663q0 -71 -38.5 -109t-112.5 -38z" />
    <glyph glyph-name="eng" unicode="&#x14b;" horiz-adv-x="565" 
d="M498 -56q0 -68 -40 -104.5t-106 -36.5q-22 0 -38.5 3.5t-34.5 10.5v42q9 -1 18 -1.5t19 -0.5q18 0 34.5 4t29 15t19.5 29.5t7 48.5v408q0 53 -26.5 71.5t-80.5 18.5q-32 0 -60.5 -6.5t-57.5 -16.5v-379l73 -16v-34h-240v34l75 16v393l-75 16v38l151 24l11 -6v-45h6
q38 22 81.5 37.5t90.5 15.5q72 0 108 -30.5t36 -106.5v-442z" />
    <glyph glyph-name="Omacron" unicode="&#x14c;" horiz-adv-x="682" 
d="M340 -12q-65 0 -122 23.5t-99 69t-66.5 112.5t-24.5 154q0 93 27.5 160.5t72 111.5t101 65t114.5 21q64 0 121 -23t99 -68t66.5 -111.5t24.5 -153.5q0 -93 -27.5 -161t-71.5 -112.5t-100.5 -66t-114.5 -21.5zM342 45q52 0 91 22t64.5 61t38 92.5t12.5 116.5
q0 152 -51.5 232t-157.5 80q-53 0 -91.5 -22t-64 -61.5t-37.5 -93t-12 -116.5q0 -69 11 -126.5t35.5 -98.5t64 -63.5t97.5 -22.5zM219 817h244v-62h-244v62z" />
    <glyph glyph-name="omacron" unicode="&#x14d;" horiz-adv-x="541" 
d="M272 -13q-56 0 -101.5 19t-77.5 53.5t-50 84t-18 109.5t19.5 110t52.5 85.5t77.5 55t94.5 19.5q55 0 100.5 -19t78 -53.5t50.5 -83.5t18 -109t-19.5 -110t-52.5 -86t-77.5 -55.5t-94.5 -19.5zM273 42q28 0 54.5 10.5t47 34.5t33 64t12.5 99q0 61 -13 103t-34.5 67.5
t-49 36.5t-55.5 11t-54.5 -10.5t-47 -34.5t-33 -64t-12.5 -99q0 -61 13 -102.5t34 -67t48.5 -37t56.5 -11.5zM148 667h244v-62h-244v62z" />
    <glyph glyph-name="Obreve" unicode="&#x14e;" horiz-adv-x="682" 
d="M340 -12q-65 0 -122 23.5t-99 69t-66.5 112.5t-24.5 154q0 93 27.5 160.5t72 111.5t101 65t114.5 21q64 0 121 -23t99 -68t66.5 -111.5t24.5 -153.5q0 -93 -27.5 -161t-71.5 -112.5t-100.5 -66t-114.5 -21.5zM342 45q52 0 91 22t64.5 61t38 92.5t12.5 116.5
q0 152 -51.5 232t-157.5 80q-53 0 -91.5 -22t-64 -61.5t-37.5 -93t-12 -116.5q0 -69 11 -126.5t35.5 -98.5t64 -63.5t97.5 -22.5zM342 736q-57 0 -91 33t-39 81h57q7 -21 25 -33.5t48 -12.5t47.5 12.5t24.5 33.5h57q-5 -48 -39 -81t-90 -33z" />
    <glyph glyph-name="obreve" unicode="&#x14f;" horiz-adv-x="541" 
d="M272 -13q-56 0 -101.5 19t-77.5 53.5t-50 84t-18 109.5t19.5 110t52.5 85.5t77.5 55t94.5 19.5q55 0 100.5 -19t78 -53.5t50.5 -83.5t18 -109t-19.5 -110t-52.5 -86t-77.5 -55.5t-94.5 -19.5zM273 42q28 0 54.5 10.5t47 34.5t33 64t12.5 99q0 61 -13 103t-34.5 67.5
t-49 36.5t-55.5 11t-54.5 -10.5t-47 -34.5t-33 -64t-12.5 -99q0 -61 13 -102.5t34 -67t48.5 -37t56.5 -11.5zM270 581q-27 0 -51 9.5t-41.5 26t-28 39.5t-11.5 51h57q13 -61 75 -61t75 61h57q-1 -28 -11.5 -51t-28 -39.5t-41.5 -26t-51 -9.5z" />
    <glyph glyph-name="Ohungarumlaut" unicode="&#x150;" horiz-adv-x="682" 
d="M340 -12q-65 0 -122 23.5t-99 69t-66.5 112.5t-24.5 154q0 93 27.5 160.5t72 111.5t101 65t114.5 21q64 0 121 -23t99 -68t66.5 -111.5t24.5 -153.5q0 -93 -27.5 -161t-71.5 -112.5t-100.5 -66t-114.5 -21.5zM342 45q52 0 91 22t64.5 61t38 92.5t12.5 116.5
q0 152 -51.5 232t-157.5 80q-53 0 -91.5 -22t-64 -61.5t-37.5 -93t-12 -116.5q0 -69 11 -126.5t35.5 -98.5t64 -63.5t97.5 -22.5zM394 756l88 126l65 -47l-123 -102zM234 756l88 126l65 -47l-123 -102z" />
    <glyph glyph-name="ohungarumlaut" unicode="&#x151;" horiz-adv-x="541" 
d="M272 -13q-56 0 -101.5 19t-77.5 53.5t-50 84t-18 109.5t19.5 110t52.5 85.5t77.5 55t94.5 19.5q55 0 100.5 -19t78 -53.5t50.5 -83.5t18 -109t-19.5 -110t-52.5 -86t-77.5 -55.5t-94.5 -19.5zM273 42q28 0 54.5 10.5t47 34.5t33 64t12.5 99q0 61 -13 103t-34.5 67.5
t-49 36.5t-55.5 11t-54.5 -10.5t-47 -34.5t-33 -64t-12.5 -99q0 -61 13 -102.5t34 -67t48.5 -37t56.5 -11.5zM315 586l97 154l65 -47l-129 -127zM155 586l97 154l65 -47l-129 -127z" />
    <glyph glyph-name="OE" unicode="&#x152;" horiz-adv-x="910" 
d="M387 0q-96 0 -164 22t-111.5 64t-64 103t-20.5 140q0 175 85 269.5t264 94.5h487l11 -172h-48l-43 117h-236v-255h122l27 95h43v-242h-43l-27 96h-122v-277h246l54 145h48l-13 -200h-495zM447 55v583h-73q-59 0 -103.5 -14.5t-75 -48.5t-46 -90.5t-15.5 -140.5
q0 -96 18.5 -153t53 -87.5t84 -39.5t111.5 -9h46z" />
    <glyph glyph-name="oe" unicode="&#x153;" horiz-adv-x="888" 
d="M272 -13q-56 0 -101.5 19t-77.5 53.5t-50 84t-18 109.5t19.5 110t52.5 85.5t77.5 55t94.5 19.5q68 0 118.5 -28.5t80.5 -79.5q29 52 77 80t110 28q56 0 95.5 -19t65 -53.5t37 -83.5t11.5 -109h-349q3 -103 48.5 -154t125.5 -51q55 0 88.5 8.5t61.5 18.5v-45
q-24 -14 -64.5 -30.5t-104.5 -16.5q-80 0 -129.5 29t-75.5 80q-32 -52 -81.5 -81t-111.5 -29zM273 42q28 0 54.5 10.5t47 34.5t33 64t12.5 99q0 61 -13 103t-34.5 67.5t-49 36.5t-55.5 11t-54.5 -10.5t-47 -34.5t-33 -64t-12.5 -99q0 -61 13 -102.5t34 -67t48.5 -37
t56.5 -11.5zM760 316q0 80 -27.5 116.5t-83.5 36.5q-60 0 -94.5 -38.5t-39.5 -122.5z" />
    <glyph glyph-name="Racute" unicode="&#x154;" horiz-adv-x="636" 
d="M20 41l90 19v573l-87 19v41h290q124 0 182 -49t58 -138q0 -38 -12 -66t-32 -48.5t-45.5 -34t-52.5 -22.5v-4l159 -272l71 -19v-40h-149l-176 311h-106v-251l86 -19v-41h-276v41zM311 362q40 0 66.5 12t42.5 31.5t23 45.5t7 53q0 69 -32.5 99.5t-107.5 30.5h-100v-272h101
zM226 728l-16 36l186 106l36 -76z" />
    <glyph glyph-name="racute" unicode="&#x155;" horiz-adv-x="350" 
d="M14 34l75 16v393l-75 16v38l151 24l11 -6v-65h6q11 13 25 26t31 23.5t36 17t40 6.5q7 0 15.5 -1t12.5 -3v-80q-10 2 -21 2.5t-18 0.5q-36 0 -66.5 -9t-55.5 -26v-357l82 -16v-34h-249v34zM103 602l172 128l45 -72l-197 -90z" />
    <glyph glyph-name="Rcommaaccent" unicode="&#x156;" horiz-adv-x="636" 
d="M20 41l90 19v573l-87 19v41h290q124 0 182 -49t58 -138q0 -38 -12 -66t-32 -48.5t-45.5 -34t-52.5 -22.5v-4l159 -272l71 -19v-40h-149l-176 311h-106v-251l86 -19v-41h-276v41zM311 362q40 0 66.5 12t42.5 31.5t23 45.5t7 53q0 69 -32.5 99.5t-107.5 30.5h-100v-272h101
zM277 -182q8 27 11.5 63.5t3.5 76.5h94q-5 -39 -17.5 -76.5t-34.5 -63.5h-57z" />
    <glyph glyph-name="rcommaaccent" unicode="&#x157;" horiz-adv-x="350" 
d="M14 34l75 16v393l-75 16v38l151 24l11 -6v-65h6q11 13 25 26t31 23.5t36 17t40 6.5q7 0 15.5 -1t12.5 -3v-80q-10 2 -21 2.5t-18 0.5q-36 0 -66.5 -9t-55.5 -26v-357l82 -16v-34h-249v34zM76 -182q8 27 11.5 63.5t3.5 76.5h94q-5 -39 -17.5 -76.5t-34.5 -63.5h-57z" />
    <glyph glyph-name="Rcaron" unicode="&#x158;" horiz-adv-x="636" 
d="M20 41l90 19v573l-87 19v41h290q124 0 182 -49t58 -138q0 -38 -12 -66t-32 -48.5t-45.5 -34t-52.5 -22.5v-4l159 -272l71 -19v-40h-149l-176 311h-106v-251l86 -19v-41h-276v41zM311 362q40 0 66.5 12t42.5 31.5t23 45.5t7 53q0 69 -32.5 99.5t-107.5 30.5h-100v-272h101
zM447 838l-119 -98h-46l-119 98l17 31l125 -55l125 55z" />
    <glyph glyph-name="rcaron" unicode="&#x159;" horiz-adv-x="350" 
d="M14 34l75 16v393l-75 16v38l151 24l11 -6v-65h6q11 13 25 26t31 23.5t36 17t40 6.5q7 0 15.5 -1t12.5 -3v-80q-10 2 -21 2.5t-18 0.5q-36 0 -66.5 -9t-55.5 -26v-357l82 -16v-34h-249v34zM64 697l21 29l117 -74l117 74l21 -29l-115 -121h-46z" />
    <glyph glyph-name="Sacute" unicode="&#x15a;" horiz-adv-x="519" 
d="M248 -12q-61 0 -109.5 10t-85.5 24l-7 158h48l32 -102q28 -15 58 -23.5t74 -8.5q35 0 61.5 10t44 26.5t26.5 38.5t9 47q0 27 -8.5 47t-25 36t-39.5 28.5t-53 24.5l-84 36q-58 24 -94.5 66t-36.5 117q0 37 13 70.5t40 58.5t68 39.5t97 14.5q60 0 101 -7.5t70 -17.5l7 -148
h-47l-27 89q-14 8 -39.5 17t-72.5 9q-26 0 -49 -6t-40 -19t-27 -32t-10 -45q0 -45 25.5 -72t78.5 -49l84 -35q33 -14 62 -30t50.5 -38t34.5 -52t13 -73q0 -41 -13.5 -78.5t-43 -66.5t-75.5 -46.5t-110 -17.5zM194 728l-16 36l186 106l36 -76z" />
    <glyph glyph-name="sacute" unicode="&#x15b;" horiz-adv-x="418" 
d="M193 -13q-42 0 -83.5 8.5t-75.5 19.5l-8 138h48l27 -89q14 -8 39 -15t60 -7q48 0 78.5 19t30.5 59q0 19 -5 33t-16.5 24t-30 18t-45.5 17l-55 18q-60 20 -92.5 53.5t-32.5 90.5q0 30 11.5 57t35 47t58 32t80.5 12q43 0 79.5 -5.5t62.5 -13.5v-130h-45l-24 78
q-13 8 -32 12.5t-50 4.5q-42 0 -69.5 -16t-27.5 -56q0 -33 21.5 -52t77.5 -36l55 -18q70 -23 98.5 -57t28.5 -88q0 -33 -12.5 -61.5t-37.5 -50t-62.5 -34t-86.5 -12.5zM114 602l172 128l45 -72l-197 -90z" />
    <glyph glyph-name="Scircumflex" unicode="&#x15c;" horiz-adv-x="519" 
d="M248 -12q-61 0 -109.5 10t-85.5 24l-7 158h48l32 -102q28 -15 58 -23.5t74 -8.5q35 0 61.5 10t44 26.5t26.5 38.5t9 47q0 27 -8.5 47t-25 36t-39.5 28.5t-53 24.5l-84 36q-58 24 -94.5 66t-36.5 117q0 37 13 70.5t40 58.5t68 39.5t97 14.5q60 0 101 -7.5t70 -17.5l7 -148
h-47l-27 89q-14 8 -39.5 17t-72.5 9q-26 0 -49 -6t-40 -19t-27 -32t-10 -45q0 -45 25.5 -72t78.5 -49l84 -35q33 -14 62 -30t50.5 -38t34.5 -52t13 -73q0 -41 -13.5 -78.5t-43 -66.5t-75.5 -46.5t-110 -17.5zM131 763l119 98h46l119 -98l-17 -31l-125 55l-125 -55z" />
    <glyph glyph-name="scircumflex" unicode="&#x15d;" horiz-adv-x="418" 
d="M193 -13q-42 0 -83.5 8.5t-75.5 19.5l-8 138h48l27 -89q14 -8 39 -15t60 -7q48 0 78.5 19t30.5 59q0 19 -5 33t-16.5 24t-30 18t-45.5 17l-55 18q-60 20 -92.5 53.5t-32.5 90.5q0 30 11.5 57t35 47t58 32t80.5 12q43 0 79.5 -5.5t62.5 -13.5v-130h-45l-24 78
q-13 8 -32 12.5t-50 4.5q-42 0 -69.5 -16t-27.5 -56q0 -33 21.5 -52t77.5 -36l55 -18q70 -23 98.5 -57t28.5 -88q0 -33 -12.5 -61.5t-37.5 -50t-62.5 -34t-86.5 -12.5zM75 602l115 121h46l115 -121l-21 -29l-117 74l-117 -74z" />
    <glyph glyph-name="Scedilla" unicode="&#x15e;" horiz-adv-x="519" 
d="M189 -177q60 8 81.5 20t21.5 31q0 17 -17.5 25t-64.5 8v82q-48 3 -87 12t-70 21l-7 158h48l32 -102q28 -15 58 -23.5t74 -8.5q35 0 61.5 10t44 26.5t26.5 38.5t9 47q0 27 -8.5 47t-25 36t-39.5 28.5t-53 24.5l-84 36q-58 24 -94.5 66t-36.5 117q0 37 13 70.5t40 58.5
t68 39.5t97 14.5q60 0 101 -7.5t70 -17.5l7 -148h-47l-27 89q-14 8 -39.5 17t-72.5 9q-26 0 -49 -6t-40 -19t-27 -32t-10 -45q0 -45 25.5 -72t78.5 -49l84 -35q33 -14 62 -30t50.5 -38t34.5 -52t13 -73q0 -40 -13 -77.5t-41.5 -66t-73 -46.5t-106.5 -19v-36q113 -4 113 -72
q0 -38 -41.5 -63t-138.5 -30v36z" />
    <glyph glyph-name="scedilla" unicode="&#x15f;" horiz-adv-x="418" 
d="M126 -177q60 8 81.5 20t21.5 31q0 17 -17.5 25t-64.5 8v83q-31 3 -60 10t-53 15l-8 138h48l27 -89q14 -8 39 -15t60 -7q48 0 78.5 19t30.5 59q0 19 -5 33t-16.5 24t-30 18t-45.5 17l-55 18q-60 20 -92.5 53.5t-32.5 90.5q0 30 11.5 57t35 47t58 32t80.5 12
q43 0 79.5 -5.5t62.5 -13.5v-130h-45l-24 78q-13 8 -32 12.5t-50 4.5q-42 0 -69.5 -16t-27.5 -56q0 -33 21.5 -52t77.5 -36l55 -18q70 -23 98.5 -57t28.5 -88q0 -33 -12.5 -61.5t-37.5 -50t-62.5 -34t-86.5 -12.5v-35q113 -4 113 -72q0 -38 -41.5 -63t-138.5 -30v36z" />
    <glyph glyph-name="Scaron" unicode="&#x160;" horiz-adv-x="519" 
d="M248 -12q-61 0 -109.5 10t-85.5 24l-7 158h48l32 -102q28 -15 58 -23.5t74 -8.5q35 0 61.5 10t44 26.5t26.5 38.5t9 47q0 27 -8.5 47t-25 36t-39.5 28.5t-53 24.5l-84 36q-58 24 -94.5 66t-36.5 117q0 37 13 70.5t40 58.5t68 39.5t97 14.5q60 0 101 -7.5t70 -17.5l7 -148
h-47l-27 89q-14 8 -39.5 17t-72.5 9q-26 0 -49 -6t-40 -19t-27 -32t-10 -45q0 -45 25.5 -72t78.5 -49l84 -35q33 -14 62 -30t50.5 -38t34.5 -52t13 -73q0 -41 -13.5 -78.5t-43 -66.5t-75.5 -46.5t-110 -17.5zM415 838l-119 -98h-46l-119 98l17 31l125 -55l125 55z" />
    <glyph glyph-name="scaron" unicode="&#x161;" horiz-adv-x="418" 
d="M193 -13q-42 0 -83.5 8.5t-75.5 19.5l-8 138h48l27 -89q14 -8 39 -15t60 -7q48 0 78.5 19t30.5 59q0 19 -5 33t-16.5 24t-30 18t-45.5 17l-55 18q-60 20 -92.5 53.5t-32.5 90.5q0 30 11.5 57t35 47t58 32t80.5 12q43 0 79.5 -5.5t62.5 -13.5v-130h-45l-24 78
q-13 8 -32 12.5t-50 4.5q-42 0 -69.5 -16t-27.5 -56q0 -33 21.5 -52t77.5 -36l55 -18q70 -23 98.5 -57t28.5 -88q0 -33 -12.5 -61.5t-37.5 -50t-62.5 -34t-86.5 -12.5zM75 697l21 29l117 -74l117 74l21 -29l-115 -121h-46z" />
    <glyph glyph-name="Tcommaaccent" unicode="&#x162;" horiz-adv-x="593" 
d="M155 41l91 18v579h-151l-38 -143h-48l11 198h553l11 -198h-48l-38 143h-151v-579l91 -18v-41h-283v41zM236 -182q8 27 11.5 63.5t3.5 76.5h94q-5 -39 -17.5 -76.5t-34.5 -63.5h-57z" />
    <glyph glyph-name="tcommaaccent" unicode="&#x163;" horiz-adv-x="342" 
d="M217 -9q-66 0 -98.5 27t-32.5 97v339h-73v35l80 24l16 120h69v-120h134v-59h-134v-320q0 -43 16.5 -63t63.5 -20q17 0 33 2t31 5v-37q-17 -11 -45 -20.5t-60 -9.5zM136 -182q8 27 11.5 63.5t3.5 76.5h94q-5 -39 -17.5 -76.5t-34.5 -63.5h-57z" />
    <glyph glyph-name="Tcaron" unicode="&#x164;" horiz-adv-x="593" 
d="M155 41l91 18v579h-151l-38 -143h-48l11 198h553l11 -198h-48l-38 143h-151v-579l91 -18v-41h-283v41zM438 838l-119 -98h-46l-119 98l17 31l125 -55l125 55z" />
    <glyph glyph-name="tcaron" unicode="&#x165;" horiz-adv-x="342" 
d="M217 -9q-66 0 -98.5 27t-32.5 97v339h-73v35l80 24l16 120h69v-120h134v-59h-134v-320q0 -43 16.5 -63t63.5 -20q17 0 33 2t31 5v-37q-17 -11 -45 -20.5t-60 -9.5zM236 576l15 166l85 -16l-59 -157z" />
    <glyph glyph-name="Tbar" unicode="&#x166;" horiz-adv-x="593" 
d="M100 418h146v220h-151l-38 -143h-48l11 198h553l11 -198h-48l-38 143h-151v-220h146v-48h-146v-311l91 -18v-41h-283v41l91 18v311h-146v48z" />
    <glyph glyph-name="tbar" unicode="&#x167;" horiz-adv-x="342" 
d="M13 350h73v104h-73v35l80 24l16 120h69v-120h134v-59h-134v-104h134v-44h-134v-172q0 -43 16.5 -63t63.5 -20q17 0 33 2t31 5v-37q-17 -11 -45 -20.5t-60 -9.5q-66 0 -98.5 27t-32.5 97v191h-73v44z" />
    <glyph glyph-name="Utilde" unicode="&#x168;" horiz-adv-x="675" 
d="M343 -13q-64 0 -112 16t-80 45.5t-48 70.5t-16 92v423l-86 18v41h275v-41l-88 -18v-406q0 -93 44 -135t126 -42q83 0 127 42t44 136v404l-88 18v42h233v-41l-76 -18v-414q0 -108 -66.5 -170.5t-188.5 -62.5zM212 754q18 45 42 69t56 24q16 0 31 -5.5t28.5 -11.5
t25.5 -11.5t23 -5.5q15 0 27.5 9t26.5 32l40 -18q-18 -45 -42 -69t-56 -24q-16 0 -31 5.5t-28.5 11.5t-26 11.5t-22.5 5.5q-15 0 -27.5 -9t-26.5 -32z" />
    <glyph glyph-name="utilde" unicode="&#x169;" horiz-adv-x="582" 
d="M226 -10q-78 0 -112 40.5t-34 109.5v310l-76 16v38l156 16l11 -6v-351q0 -54 19.5 -80.5t79.5 -26.5q47 0 75 9.5t51 19.5v365l-73 16v38l154 16l11 -6v-451l75 -16v-34l-150 -23l-11 5v56h-6q-32 -29 -74 -45t-96 -16zM132 613q18 45 42 69t56 24q16 0 31 -5.5
t28.5 -11.5t25.5 -11.5t23 -5.5q15 0 27.5 9t26.5 32l40 -18q-18 -45 -42 -69t-56 -24q-16 0 -31 5.5t-28.5 11.5t-26 11.5t-22.5 5.5q-15 0 -27.5 -9t-26.5 -32z" />
    <glyph glyph-name="Umacron" unicode="&#x16a;" horiz-adv-x="675" 
d="M343 -13q-64 0 -112 16t-80 45.5t-48 70.5t-16 92v423l-86 18v41h275v-41l-88 -18v-406q0 -93 44 -135t126 -42q83 0 127 42t44 136v404l-88 18v42h233v-41l-76 -18v-414q0 -108 -66.5 -170.5t-188.5 -62.5zM240 817h244v-62h-244v62z" />
    <glyph glyph-name="umacron" unicode="&#x16b;" horiz-adv-x="582" 
d="M226 -10q-78 0 -112 40.5t-34 109.5v310l-76 16v38l156 16l11 -6v-351q0 -54 19.5 -80.5t79.5 -26.5q47 0 75 9.5t51 19.5v365l-73 16v38l154 16l11 -6v-451l75 -16v-34l-150 -23l-11 5v56h-6q-32 -29 -74 -45t-96 -16zM160 667h244v-62h-244v62z" />
    <glyph glyph-name="Ubreve" unicode="&#x16c;" horiz-adv-x="675" 
d="M343 -13q-64 0 -112 16t-80 45.5t-48 70.5t-16 92v423l-86 18v41h275v-41l-88 -18v-406q0 -93 44 -135t126 -42q83 0 127 42t44 136v404l-88 18v42h233v-41l-76 -18v-414q0 -108 -66.5 -170.5t-188.5 -62.5zM363 736q-57 0 -91 33t-39 81h57q7 -21 25 -33.5t48 -12.5
t47.5 12.5t24.5 33.5h57q-5 -48 -39 -81t-90 -33z" />
    <glyph glyph-name="ubreve" unicode="&#x16d;" horiz-adv-x="582" 
d="M226 -10q-78 0 -112 40.5t-34 109.5v310l-76 16v38l156 16l11 -6v-351q0 -54 19.5 -80.5t79.5 -26.5q47 0 75 9.5t51 19.5v365l-73 16v38l154 16l11 -6v-451l75 -16v-34l-150 -23l-11 5v56h-6q-32 -29 -74 -45t-96 -16zM282 581q-27 0 -51 9.5t-41.5 26t-28 39.5
t-11.5 51h57q13 -61 75 -61t75 61h57q-1 -28 -11.5 -51t-28 -39.5t-41.5 -26t-51 -9.5z" />
    <glyph glyph-name="Uring" unicode="&#x16e;" horiz-adv-x="675" 
d="M343 -13q-64 0 -112 16t-80 45.5t-48 70.5t-16 92v423l-86 18v41h275v-41l-88 -18v-406q0 -93 44 -135t126 -42q83 0 127 42t44 136v404l-88 18v42h233v-41l-76 -18v-414q0 -108 -66.5 -170.5t-188.5 -62.5zM362 703q-40 0 -66.5 26t-26.5 62q0 37 26.5 63t66.5 26
t66.5 -26t26.5 -63q0 -36 -26.5 -62t-66.5 -26zM362 742q22 0 35.5 13.5t13.5 35.5t-13.5 36t-35.5 14t-35.5 -14t-13.5 -36t13.5 -35.5t35.5 -13.5z" />
    <glyph glyph-name="uring" unicode="&#x16f;" horiz-adv-x="582" 
d="M226 -10q-78 0 -112 40.5t-34 109.5v310l-76 16v38l156 16l11 -6v-351q0 -54 19.5 -80.5t79.5 -26.5q47 0 75 9.5t51 19.5v365l-73 16v38l154 16l11 -6v-451l75 -16v-34l-150 -23l-11 5v56h-6q-32 -29 -74 -45t-96 -16zM273 573q-40 0 -66.5 26t-26.5 62q0 37 26.5 63
t66.5 26t66.5 -26t26.5 -63q0 -36 -26.5 -62t-66.5 -26zM273 612q22 0 35.5 13.5t13.5 35.5t-13.5 36t-35.5 14t-35.5 -14t-13.5 -36t13.5 -35.5t35.5 -13.5z" />
    <glyph glyph-name="Uhungarumlaut" unicode="&#x170;" horiz-adv-x="675" 
d="M343 -13q-64 0 -112 16t-80 45.5t-48 70.5t-16 92v423l-86 18v41h275v-41l-88 -18v-406q0 -93 44 -135t126 -42q83 0 127 42t44 136v404l-88 18v42h233v-41l-76 -18v-414q0 -108 -66.5 -170.5t-188.5 -62.5zM415 756l88 126l65 -47l-123 -102zM255 756l88 126l65 -47
l-123 -102z" />
    <glyph glyph-name="uhungarumlaut" unicode="&#x171;" horiz-adv-x="582" 
d="M226 -10q-78 0 -112 40.5t-34 109.5v310l-76 16v38l156 16l11 -6v-351q0 -54 19.5 -80.5t79.5 -26.5q47 0 75 9.5t51 19.5v365l-73 16v38l154 16l11 -6v-451l75 -16v-34l-150 -23l-11 5v56h-6q-32 -29 -74 -45t-96 -16zM327 586l97 154l65 -47l-129 -127zM167 586l97 154
l65 -47l-129 -127z" />
    <glyph glyph-name="Uogonek" unicode="&#x172;" horiz-adv-x="675" 
d="M397 -201q-55 0 -79 22.5t-24 57.5q0 18 7 34t18 29.5t24.5 25t27.5 20.5q-6 -1 -14 -1h-14q-64 0 -112 16t-80 45.5t-48 70.5t-16 92v423l-86 18v41h275v-41l-88 -18v-406q0 -93 44 -135t126 -42q83 0 127 42t44 136v404l-88 18v42h233v-41l-76 -18v-414
q0 -65 -25 -114.5t-72 -78.5q-21 -14 -43.5 -26.5t-41 -27.5t-30 -35.5t-11.5 -48.5q0 -42 49 -42q8 0 16 0.5t14 1.5v-42q-12 -4 -25 -6t-32 -2z" />
    <glyph glyph-name="uogonek" unicode="&#x173;" horiz-adv-x="582" 
d="M424 -201q-55 0 -79 22.5t-24 57.5q0 20 7.5 36.5t19 31t26 26t28.5 20.5v58h-6q-32 -29 -74 -45t-96 -16q-78 0 -112 40.5t-34 109.5v310l-76 16v38l156 16l11 -6v-351q0 -54 19.5 -80.5t79.5 -26.5q47 0 75 9.5t51 19.5v365l-73 16v38l154 16l11 -6v-451l75 -16v-34
l-105 -16q-24 -26 -40 -53.5t-16 -54.5q0 -42 49 -42q8 0 16 0.5t14 1.5v-42q-12 -4 -25 -6t-32 -2z" />
    <glyph glyph-name="Wcircumflex" unicode="&#x174;" horiz-adv-x="936" 
d="M64 633l-60 19v41h235v-41l-75 -19l126 -486h5l153 546h61l154 -546h4l123 486l-75 19v41h217v-41l-70 -19l-170 -633h-81l-144 522h-4l-149 -522h-81zM334 763l119 98h46l119 -98l-17 -31l-125 55l-125 -55z" />
    <glyph glyph-name="wcircumflex" unicode="&#x175;" horiz-adv-x="773" 
d="M51 462l-53 15v36h212v-36l-64 -15l97 -337h4l125 388h61l123 -388h4l98 337l-63 15v36h180v-36l-53 -15l-143 -462h-69l-116 381h-3l-130 -381h-68zM263 602l115 121h46l115 -121l-21 -29l-117 74l-117 -74z" />
    <glyph glyph-name="Ycircumflex" unicode="&#x176;" horiz-adv-x="608" 
d="M173 41l88 19v247l-200 326l-61 19v41h238v-41l-69 -19l161 -269h4l146 269l-74 19v41h202v-41l-60 -19l-187 -328v-245l86 -19v-41h-274v41zM181 763l119 98h46l119 -98l-17 -31l-125 55l-125 -55z" />
    <glyph glyph-name="ycircumflex" unicode="&#x177;" horiz-adv-x="526" 
d="M122 -199q-21 0 -42.5 5.5t-34.5 13.5v52q17 -4 28 -6.5t25 -2.5q44 0 68.5 18t43.5 62l30 71l-186 448l-56 15v36h225v-36l-68 -14l129 -333h4l114 332l-65 15v36h191v-36l-56 -15l-203 -538q-11 -31 -24.5 -54t-30.5 -38.5t-39.5 -23t-52.5 -7.5zM147 602l115 121h46
l115 -121l-21 -29l-117 74l-117 -74z" />
    <glyph glyph-name="Ydieresis" unicode="&#x178;" horiz-adv-x="608" 
d="M173 41l88 19v247l-200 326l-61 19v41h238v-41l-69 -19l161 -269h4l146 269l-74 19v41h202v-41l-60 -19l-187 -328v-245l86 -19v-41h-274v41zM240 737q-22 0 -38 16.5t-16 37.5q0 23 16 38.5t38 15.5q23 0 39 -15.5t16 -38.5q0 -21 -16 -37.5t-39 -16.5zM406 737
q-23 0 -39 16.5t-16 37.5q0 23 16 38.5t39 15.5t38.5 -15.5t15.5 -38.5q0 -21 -15.5 -37.5t-38.5 -16.5z" />
    <glyph glyph-name="Zacute" unicode="&#x179;" horiz-adv-x="530" 
d="M11 46l384 586v4h-273l-43 -132h-49l10 189h476v-46l-385 -586v-4h297l44 132h48l-10 -189h-499v46zM191 728l-16 36l186 106l36 -76z" />
    <glyph glyph-name="zacute" unicode="&#x17a;" horiz-adv-x="472" 
d="M27 48l299 411v4h-204l-30 -111h-47l8 161h381v-46l-299 -413v-4h216l37 122h48l-13 -172h-396v48zM140 602l172 128l45 -72l-197 -90z" />
    <glyph glyph-name="Zdotaccent" unicode="&#x17b;" horiz-adv-x="530" 
d="M11 46l384 586v4h-273l-43 -132h-49l10 189h476v-46l-385 -586v-4h297l44 132h48l-10 -189h-499v46zM270 738q-23 0 -40 17t-17 39q0 23 17 39.5t40 16.5q24 0 40.5 -16.5t16.5 -39.5q0 -22 -16.5 -39t-40.5 -17z" />
    <glyph glyph-name="zdotaccent" unicode="&#x17c;" horiz-adv-x="472" 
d="M27 48l299 411v4h-204l-30 -111h-47l8 161h381v-46l-299 -413v-4h216l37 122h48l-13 -172h-396v48zM239 605q-23 0 -40 17t-17 39q0 23 17 39.5t40 16.5q24 0 40.5 -16.5t16.5 -39.5q0 -22 -16.5 -39t-40.5 -17z" />
    <glyph glyph-name="florin" unicode="&#x192;" horiz-adv-x="391" 
d="M30 419h93l22 125q8 43 24.5 73.5t39 49.5t50.5 27.5t58 8.5q32 0 51 -6t33 -13v-47q-17 3 -30.5 4.5t-33.5 1.5q-44 0 -68 -25t-36 -93l-20 -106h119v-59h-129l-74 -411q-13 -72 -50.5 -102t-94.5 -30q-29 0 -47.5 6.5t-27.5 11.5v46q9 -2 22.5 -3t29.5 -1q32 0 52 19
t29 69l70 395h-82v59z" />
    <glyph glyph-name="Aringacute" unicode="&#x1fa;" horiz-adv-x="651" 
d="M-3 42l69 18l222 633h82l215 -633l69 -18v-42h-256v41l79 19l-53 164h-233l-55 -164l80 -19v-41h-219v42zM209 275h199l-94 294h-5zM325 709q-40 0 -66.5 26t-26.5 62q0 37 26.5 63t66.5 26t66.5 -26t26.5 -63q0 -36 -26.5 -62t-66.5 -26zM325 748q22 0 35.5 13.5
t13.5 35.5t-13.5 36t-35.5 14t-35.5 -14t-13.5 -36t13.5 -35.5t35.5 -13.5zM230 891l-16 36l186 106l36 -76z" />
    <glyph glyph-name="aringacute" unicode="&#x1fb;" horiz-adv-x="473" 
d="M172 -13q-69 0 -112.5 37t-43.5 103q0 33 11.5 56t32 39t49.5 26t64 17l131 27v54q0 30 -3.5 50.5t-15.5 33.5t-35 18.5t-61 5.5q-15 0 -33 -1t-35.5 -2.5t-33.5 -3.5t-28 -4v43q15 6 35 13t43 12t48 8.5t49 3.5q84 0 123 -36.5t39 -114.5v-295q0 -24 12.5 -31t35.5 -7
h25v-34q-9 -5 -31.5 -10t-49.5 -5q-30 0 -49.5 12t-24.5 41h-6q-20 -22 -53 -39t-83 -17zM205 49q31 0 58 12t41 25v147l-102 -8q-53 -5 -72.5 -27.5t-19.5 -60.5q0 -40 23 -64t72 -24zM234 553q-40 0 -66.5 26t-26.5 62q0 37 26.5 63t66.5 26t66.5 -26t26.5 -63
q0 -36 -26.5 -62t-66.5 -26zM234 592q22 0 35.5 13.5t13.5 35.5t-13.5 36t-35.5 14t-35.5 -14t-13.5 -36t13.5 -35.5t35.5 -13.5zM144 745l-16 36l186 106l36 -76z" />
    <glyph glyph-name="AEacute" unicode="&#x1fc;" horiz-adv-x="916" 
d="M-3 42l62 18l334 582l-67 10v41h543l11 -172h-48l-43 117h-238v-255h124l27 95h43v-242h-43l-27 96h-124v-277h248l54 145h48l-13 -200h-524v41l89 19v164h-231l-93 -164l79 -19v-41h-211v42zM450 629l-199 -354h202v354h-3zM532 728l-16 36l186 106l36 -76z" />
    <glyph glyph-name="aeacute" unicode="&#x1fd;" horiz-adv-x="760" 
d="M172 -13q-69 0 -112.5 37t-43.5 103q0 33 11 57.5t31.5 42t49.5 28.5t65 18l131 24v49q0 30 -3.5 50.5t-15.5 33.5t-35 18.5t-61 5.5q-15 0 -33 -1t-35.5 -2.5t-33.5 -3.5t-28 -4v43q15 6 35 13t43 12t48 8.5t49 3.5q106 0 137 -71q60 71 160 71q56 0 95 -19.5
t63.5 -54.5t35.5 -85t11 -110h-340q3 -103 46 -152t123 -49q27 0 48 2.5t38.5 6t31.5 8.5l28 10v-45q-12 -7 -27.5 -15.5t-35.5 -15.5t-45 -11.5t-57 -4.5q-71 0 -119 23t-77 64q-27 -35 -73.5 -61.5t-104.5 -26.5zM330 109q-14 28 -20.5 61t-8.5 71l-99 -8
q-53 -4 -72.5 -31t-19.5 -65q0 -40 23 -64t72 -24q29 0 60.5 14t64.5 46zM632 312q0 80 -25.5 118.5t-81.5 38.5q-119 0 -129 -165zM325 602l172 128l45 -72l-197 -90z" />
    <glyph glyph-name="Oslashacute" unicode="&#x1fe;" horiz-adv-x="682" 
d="M340 -12q-56 0 -105.5 17t-90.5 51l-66 -83l-44 34l71 89q-36 45 -56.5 107.5t-20.5 143.5q0 93 27.5 160.5t72 111.5t101 65t114.5 21q56 0 106 -17.5t90 -51.5l60 74l44 -34l-65 -80q35 -45 55.5 -106.5t20.5 -140.5q0 -93 -27.5 -161t-71.5 -112.5t-100.5 -66
t-114.5 -21.5zM134 356q0 -57 6.5 -105t20.5 -86l331 412q-52 72 -153 72q-53 0 -91.5 -22t-64 -61.5t-37.5 -93t-12 -116.5zM342 45q52 0 91 22t64.5 61t38 92.5t12.5 116.5q0 115 -28 187l-330 -411q24 -33 61 -50.5t91 -17.5zM262 728l-16 36l186 106l36 -76z" />
    <glyph glyph-name="oslashacute" unicode="&#x1ff;" horiz-adv-x="541" 
d="M272 -13q-49 0 -89.5 14.5t-71.5 40.5l-58 -65l-42 34l63 71q-23 34 -36 77t-13 94q0 60 19.5 110t52.5 85.5t77.5 55t94.5 19.5q45 0 83.5 -13t69.5 -36l54 61l41 -34l-57 -65q26 -34 41 -79t15 -99q0 -60 -19.5 -110t-52.5 -86t-77.5 -55.5t-94.5 -19.5zM273 42
q28 0 54.5 10.5t47 34.5t33 64t12.5 99q0 74 -18 121l-243 -274q21 -29 50 -42t64 -13zM121 260q0 -33 3.5 -60t9.5 -50l241 271q-21 25 -48 36t-59 11q-28 0 -54.5 -10.5t-47 -34.5t-33 -64t-12.5 -99zM169 602l172 128l45 -72l-197 -90z" />
    <glyph glyph-name="Scommaaccent" unicode="&#x218;" horiz-adv-x="519" 
d="M248 -12q-61 0 -109.5 10t-85.5 24l-7 158h48l32 -102q28 -15 58 -23.5t74 -8.5q35 0 61.5 10t44 26.5t26.5 38.5t9 47q0 27 -8.5 47t-25 36t-39.5 28.5t-53 24.5l-84 36q-58 24 -94.5 66t-36.5 117q0 37 13 70.5t40 58.5t68 39.5t97 14.5q60 0 101 -7.5t70 -17.5l7 -148
h-47l-27 89q-14 8 -39.5 17t-72.5 9q-26 0 -49 -6t-40 -19t-27 -32t-10 -45q0 -45 25.5 -72t78.5 -49l84 -35q33 -14 62 -30t50.5 -38t34.5 -52t13 -73q0 -41 -13.5 -78.5t-43 -66.5t-75.5 -46.5t-110 -17.5zM213 -182q8 27 11.5 63.5t3.5 76.5h94q-5 -39 -17.5 -76.5
t-34.5 -63.5h-57z" />
    <glyph glyph-name="scommaaccent" unicode="&#x219;" horiz-adv-x="418" 
d="M193 -13q-42 0 -83.5 8.5t-75.5 19.5l-8 138h48l27 -89q14 -8 39 -15t60 -7q48 0 78.5 19t30.5 59q0 19 -5 33t-16.5 24t-30 18t-45.5 17l-55 18q-60 20 -92.5 53.5t-32.5 90.5q0 30 11.5 57t35 47t58 32t80.5 12q43 0 79.5 -5.5t62.5 -13.5v-130h-45l-24 78
q-13 8 -32 12.5t-50 4.5q-42 0 -69.5 -16t-27.5 -56q0 -33 21.5 -52t77.5 -36l55 -18q70 -23 98.5 -57t28.5 -88q0 -33 -12.5 -61.5t-37.5 -50t-62.5 -34t-86.5 -12.5zM144 -182q8 27 11.5 63.5t3.5 76.5h94q-5 -39 -17.5 -76.5t-34.5 -63.5h-57z" />
    <glyph glyph-name="uni0237" unicode="&#x237;" horiz-adv-x="261" 
d="M34 -197q-19 0 -37.5 4t-36.5 11v42q11 -2 23 -2.5t22 -0.5q18 0 34.5 4t29 15t19.5 29.5t7 48.5v489l-80 16v38l161 24l11 -6v-571q0 -68 -39.5 -104.5t-113.5 -36.5z" />
    <glyph glyph-name="circumflex" unicode="&#x2c6;" 
d="M106 602l115 121h46l115 -121l-21 -29l-117 74l-117 -74z" />
    <glyph glyph-name="caron" unicode="&#x2c7;" 
d="M106 697l21 29l117 -74l117 74l21 -29l-115 -121h-46z" />
    <glyph glyph-name="breve" unicode="&#x2d8;" 
d="M269 581q-27 0 -51 9.5t-41.5 26t-28 39.5t-11.5 51h57q13 -61 75 -61t75 61h57q-1 -28 -11.5 -51t-28 -39.5t-41.5 -26t-51 -9.5z" />
    <glyph glyph-name="dotaccent" unicode="&#x2d9;" 
d="M244 605q-23 0 -40 17t-17 39q0 23 17 39.5t40 16.5q24 0 40.5 -16.5t16.5 -39.5q0 -22 -16.5 -39t-40.5 -17z" />
    <glyph glyph-name="ring" unicode="&#x2da;" 
d="M244 573q-40 0 -66.5 26t-26.5 62q0 37 26.5 63t66.5 26t66.5 -26t26.5 -63q0 -36 -26.5 -62t-66.5 -26zM244 612q22 0 35.5 13.5t13.5 35.5t-13.5 36t-35.5 14t-35.5 -14t-13.5 -36t13.5 -35.5t35.5 -13.5z" />
    <glyph glyph-name="ogonek" unicode="&#x2db;" 
d="M248 -201q-55 0 -79 22.5t-24 57.5q0 22 9 40t22.5 33t30 27t31.5 21h43q-23 -28 -39 -55.5t-16 -55.5q0 -42 49 -42q8 0 16 0.5t14 1.5v-42q-12 -4 -25 -6t-32 -2z" />
    <glyph glyph-name="tilde" unicode="&#x2dc;" 
d="M94 613q18 45 42 69t56 24q16 0 31 -5.5t28.5 -11.5t25.5 -11.5t23 -5.5q15 0 27.5 9t26.5 32l40 -18q-18 -45 -42 -69t-56 -24q-16 0 -31 5.5t-28.5 11.5t-26 11.5t-22.5 5.5q-15 0 -27.5 -9t-26.5 -32z" />
    <glyph glyph-name="hungarumlaut" unicode="&#x2dd;" 
d="M276 586l97 154l65 -47l-129 -127zM116 586l97 154l65 -47l-129 -127z" />
    <glyph glyph-name="uni10A0" unicode="&#x10a0;" horiz-adv-x="575" 
d="M302 744v-50q0 -61 116.5 -175.5t116.5 -225.5v-87q0 -69 -57.5 -147.5t-195.5 -78.5q-119 0 -180.5 75t-61.5 141v104q0 38 22 98h110q-27 -69 -27 -101v-96q0 -86 35 -125t102 -39q94 0 121 48.5t28 140.5v67q0 105 -111 224t-111 227h93z" />
    <glyph glyph-name="uni10A1" unicode="&#x10a1;" horiz-adv-x="575" 
d="M193 767v-38q128 0 154 -55t-19 -123q77 -9 142 -73.5t65 -182.5v-76q0 -100 -67.5 -169.5t-178.5 -69.5q-131 0 -190 69.5t-59 170.5v76q0 117 68.5 187.5t165.5 70.5q20 43 -9 89.5t-106 47.5h-71l24 76h81zM145 296v-76q0 -104 33 -143.5t111 -39.5q79 0 110.5 39.5
t31.5 142.5v77q0 106 -36.5 155t-105.5 49q-77 0 -110.5 -49t-33.5 -155z" />
    <glyph glyph-name="uni10A2" unicode="&#x10a2;" horiz-adv-x="597" 
d="M284 748q75 0 127 -35t52 -80q0 -40 -31 -62.5t-100 -48.5v-23q77 -5 151 -63t74 -170v-66q0 -96 -75.5 -157.5t-186.5 -62.5q-106 1 -180.5 62.5t-74.5 158.5v65q0 99 58 150t136 83q54 27 95 57t41 80q0 26 -22.5 41.5t-63.5 15.5q-43 0 -73 -27l-27 -69h-80l16 90
q80 61 164 61zM453 199v66q0 96 -46.5 140t-94.5 45q-70 0 -118.5 -39t-48.5 -146v-65q0 -89 33.5 -126t113.5 -37q93 0 127 37t34 125z" />
    <glyph glyph-name="uni10A3" unicode="&#x10a3;" horiz-adv-x="863" 
d="M651 -14h-121q0 67 -73.5 91.5t-193.5 73.5l-133 -156l-62 57l157 124q-75 48 -130 126t-55 168v57q0 105 56 161.5t155 56.5q74 0 138 -61q62 64 186 64q110 0 179 -66.5t69 -201.5v-40q0 -102 -66 -170.5t-170 -68.5q-118 0 -188 71t-70 169v39q0 108 35 169
q-45 39 -112 39q-59 0 -83 -38t-24 -122v-58q0 -102 52.5 -174.5t113.5 -99.5q77 -40 208 -85.5t132 -124.5zM719 440v40q0 118 -32 165t-107 47q-83 0 -114 -41.5t-31 -170.5v-39q0 -94 28.5 -140t120.5 -46q75 0 105 46t30 139z" />
    <glyph glyph-name="uni10A4" unicode="&#x10a4;" horiz-adv-x="575" 
d="M525 195q0 -123 -58.5 -169t-181.5 -46q-109 0 -177 45.5t-68 148.5v28q0 84 83 154h57q-35 -85 -35 -134v-48q0 -72 33.5 -104.5t107.5 -32.5t106.5 28t32.5 130v377q0 72 -28 96t-104 24q-64 0 -95 -17.5t-31 -73.5q12 -54 69 -67v-80q-139 8 -149 144q0 65 52.5 107.5
t163.5 42.5q99 0 160.5 -44t61.5 -133v-376z" />
    <glyph glyph-name="uni10A5" unicode="&#x10a5;" horiz-adv-x="585" 
d="M431 267q0 88 -42 114.5t-78 27.5h-48v52h52q50 0 77.5 21.5t27.5 88.5q0 64 -25.5 92.5t-108.5 28.5q-80 0 -108.5 -24t-28.5 -50q0 -47 39 -47v-76q-122 0 -124 119q2 46 52.5 90t169.5 44t178.5 -45.5t59.5 -120.5q0 -102 -145 -147q156 -65 156 -178v-84
q0 -83 -58.5 -138t-183.5 -55q-123 0 -188 50t-65 131v48q0 63 69 149h55q-20 -58 -20 -131v-49q0 -62 37 -102t114 -40q74 0 105 36.5t31 100.5v94z" />
    <glyph glyph-name="uni10A6" unicode="&#x10a6;" horiz-adv-x="575" 
d="M40 610q0 69 44.5 103.5t121.5 34.5q99 0 135.5 -41.5t36.5 -95.5q0 -46 -47 -94q47 -7 73 -20l72 137l72 -45l-113 -110q40 -31 70 -76t30 -120v-57q0 -117 -64 -181.5t-182 -64.5q-108 0 -178.5 65t-70.5 183v53q0 61 21.5 104t83.5 91q-105 51 -105 134zM431 227v55
q0 104 -38.5 144.5t-103.5 41.5q-73 -2 -108.5 -47.5t-35.5 -138.5v-55q0 -102 38 -146t106 -44q73 0 107.5 44t34.5 146zM295 600q9 91 -87 92q-92 -1 -82 -82q11 -98 84 -98q85 0 85 88z" />
    <glyph glyph-name="uni10A7" unicode="&#x10a7;" horiz-adv-x="900" 
d="M45 278v161q0 162 71.5 235.5t177.5 73.5q117 0 183 -78q61 74 146 74q121 0 176.5 -65t55.5 -189v-177q0 -147 -154 -264l110 -2v-56h-195l1 58q134 71 134 266v175q0 121 -29.5 159.5t-103.5 38.5q-78 0 -116 -69q38 -67 38 -160v-181q0 -131 -63.5 -214.5
t-182.5 -83.5q-111 0 -180 83.5t-69 214.5zM150 439v-160q0 -131 36.5 -186.5t107.5 -55.5q75 0 108.5 56.5t33.5 184.5v181q0 147 -42 190t-100 43q-72 0 -108 -49t-36 -204z" />
    <glyph glyph-name="uni10A8" unicode="&#x10a8;" horiz-adv-x="585" 
d="M294 748q111 0 178.5 -68.5t67.5 -210.5v-149q0 -204 -130 -291l94 12v-51h-157v47q89 11 89 284v148q0 133 -31.5 178t-110.5 45q-72 0 -108.5 -45t-36.5 -178v-149q0 -85 24.5 -160.5t62.5 -75.5v-94h-31q-84 46 -122 125t-38 206v150q0 141 68.5 209t180.5 68z" />
    <glyph glyph-name="uni10A9" unicode="&#x10a9;" horiz-adv-x="578" 
d="M501 620q0 -98 -156 -139q193 -54 193 -182v-121q0 -92 -66 -145t-179 -53q-111 0 -182 51t-71 150v50q0 58 67 163h61q-23 -98 -23 -163v-49q0 -74 37.5 -109.5t109.5 -35.5q74 0 106.5 32t32.5 119v103q0 90 -52.5 127.5t-106.5 37.5l-41 -3l-6 52h55q130 0 130 100
q0 60 -91 60v83q58 0 120 -34t62 -94z" />
    <glyph glyph-name="uni10AA" unicode="&#x10aa;" horiz-adv-x="943" 
d="M903 515v-50q0 -132 -118 -229h-81q96 69 96 228v46q5 171 -79 171q-99 0 -99 -90v-147h31v-41h-127v41h32v145q0 103 -79 103q-84 0 -84 -103v-145h36v-41h-129l-1 41h33v145q0 92 -95 92q-100 0 -95 -146v-47q0 -144 102.5 -210.5t279.5 -127t184 -163.5h-120
q0 88 -266 174l-151 -129l-52 75l152 76q-72 28 -152.5 106.5t-80.5 200.5v46q0 114 57.5 158t138.5 44q95 0 128 -71q28 81 115 81q76 0 107 -81q33 71 135 71q78 0 130 -42.5t52 -180.5z" />
    <glyph glyph-name="uni10AB" unicode="&#x10ab;" horiz-adv-x="585" 
d="M144 310v-84q0 -95 46.5 -142t126.5 -47q76 0 97.5 38t21.5 110v287q-62 29 -121 29q-79 0 -125 -40.5t-46 -150.5zM436 603q0 25 -25.5 57t-95.5 32q-80 0 -106 -16l-31 -77h-84l9 93q92 56 199 56q110 0 171.5 -52.5t61.5 -114.5v-395q0 -86 -56.5 -146t-176.5 -60
q-147 0 -204.5 60.5t-57.5 175.5v95q0 104 72 173.5t214 69.5q54 0 110 -16v65z" />
    <glyph glyph-name="uni10AC" unicode="&#x10ac;" horiz-adv-x="587" 
d="M150 499q81 55 169 55q111 0 169.5 -52.5t57.5 -162.5v-88q0 -136 -72 -203.5t-210 -67.5q-76 0 -145 49.5t-69 147.5v443q0 120 184 120q57 0 156 -18l13 50h65l4 -94q-120 13 -223 13q-99 -2 -99 -71v-121zM441 251v89q0 68 -39 106.5t-128 38.5q-53 0 -124 -30v-277
q0 -61 30.5 -101t94.5 -40q96 0 131 45.5t35 168.5z" />
    <glyph glyph-name="uni10AD" unicode="&#x10ad;" horiz-adv-x="833" 
d="M788 483v-162q0 -199 -144 -296l108 2v-42h-190v52q123 18 123 284v162q0 129 -21.5 168.5t-106.5 39.5q-102 0 -102 -212v-148h36v-55h-139v55h31v148q0 212 -110 212q-75 0 -99.5 -40t-24.5 -168v-161q0 -118 38 -183.5t79 -65.5v-88h-36q-88 44 -136.5 115.5
t-48.5 221.5v161q0 138 58.5 201.5t169.5 63.5q115 0 148 -139q29 139 150 139q113 0 165 -63.5t52 -201.5z" />
    <glyph glyph-name="uni10AE" unicode="&#x10ae;" horiz-adv-x="575" 
d="M167 366q-23 -79 -23 -145v-34q0 -71 37.5 -110.5t114.5 -39.5q84 0 109.5 32.5t25.5 122.5v57q0 178 -158 178h-59v50h105q85 0 85 74q0 59 -117 73.5t-117 88.5v35h105v-35q0 -39 118.5 -57.5t118.5 -93.5q0 -89 -181 -112q204 -50 204 -200v-58q0 -109 -63 -160.5
t-173 -51.5q-127 0 -193 55t-66 140v46q0 65 80 145h47z" />
    <glyph glyph-name="uni10AF" unicode="&#x10af;" horiz-adv-x="585" 
d="M168 356q-24 -63 -24 -150v-30q0 -80 35.5 -109.5t113.5 -29.5q83 0 110.5 37t27.5 125v478q-91 1 -216 1l-92 1q217 -31 217 -126q0 -117 -196 -117h-101v71q58 -18 120 -18q79 0 79 65q0 63 -67 78.5t-126 5.5l-1 81q159 -6 294 -0.5t135 35.5h58v-538
q0 -134 -55 -185.5t-185 -50.5q-115 0 -185 45t-70 142v38q0 90 82 151h46z" />
    <glyph glyph-name="uni10B0" unicode="&#x10b0;" horiz-adv-x="808" 
d="M768 336v-62q0 -184 -130 -242l111 -14v-33h-201v61q116 32 116 234v58q10 162 -117 162q-105 0 -105 -159v-101h29v-32h-124v32h24v101q0 159 -110 159q-71 0 -94 -38t-23 -131v-68q0 -95 31 -139.5t81 -44.5v-94h-33q-54 12 -118.5 80.5t-64.5 200.5v66q0 270 216 331
q210 50 210 80h120q0 -100 -259 -121q-193 -42 -218 -142q48 74 153 74q114 0 147 -99q28 99 155 99q96 0 150 -62t54 -156z" />
    <glyph glyph-name="uni10B1" unicode="&#x10b1;" horiz-adv-x="605" 
d="M565 281v-49q0 -133 -73 -192.5t-183 -59.5q-129 0 -188.5 58.5t-59.5 151.5v414q0 101 -34 101l-70 -15v53h78q128 0 128 -131v-431q0 -55 26 -99.5t120 -44.5q71 0 110.5 35.5t39.5 160.5v48q0 113 -85 160t-63 125l38 85l75 -34l-35 -69q-21 -47 77.5 -107.5
t98.5 -159.5z" />
    <glyph glyph-name="uni10B2" unicode="&#x10b2;" horiz-adv-x="667" 
d="M372 311h-88l29 382l-30 55h78l-9 -39q275 -73 275 -315v-100q0 -164 -80 -239t-212 -75q-139 0 -217 77t-78 238v99q0 209 167 280l-127 -37l-23 58h149h40v-59q-102 -27 -102 -226v-100q0 -162 44 -217.5t150 -55.5q96 0 140.5 56t44.5 217v101q0 221 -171 233z" />
    <glyph glyph-name="uni10B3" unicode="&#x10b3;" horiz-adv-x="575" 
d="M435 579q0 114 -67 114q-57 0 -57 -102v-65h30v-38h-113v38h30v64q0 103 -45 103q-29 0 -54 -16.5t-51 -16.5q-34 0 -58.5 18t-24.5 56v19h80l-1 -19q0 -25 27 -25q21 0 36 19.5t51 19.5q45 0 67 -65q28 65 96 65q87 0 120.5 -45t33.5 -129v-365q0 -102 -50 -167
t-196 -62q-123 0 -186.5 56t-63.5 151v66q0 71 86 155h51q-33 -87 -33 -162v-57q0 -82 34 -117t106 -35q93 0 122.5 34.5t29.5 137.5v370z" />
    <glyph glyph-name="uni10B4" unicode="&#x10b4;" horiz-adv-x="810" 
d="M30 470v50q0 106 60.5 167t174.5 61q113 0 167 -64q75 59 139 59q111 0 155 -50.5t44 -108.5v-60q0 -105 -131 -155q122 -49 120 -144v-71q0 -85 -76 -129.5t-204 -44.5q-140 0 -208 44.5t-69 88.5q1 57 82 103h17v-92q0 -37 52.5 -62t135.5 -25q91 0 128.5 35.5
t37.5 81.5v71q0 126 -77 126h-52v40h52q88 0 88 134v59q0 52 -21.5 77t-84.5 25q-61 0 -103 -27q36 -28 36 -139v-50q0 -99 -63.5 -156t-163.5 -57q-111 0 -173.5 57t-62.5 156zM134 520v-50q0 -90 33 -123.5t98 -33.5q74 0 99.5 33.5t25.5 123.5v50q0 109 -27 140.5
t-98 31.5q-82 0 -106.5 -31.5t-24.5 -140.5z" />
    <glyph glyph-name="uni10B5" unicode="&#x10b5;" horiz-adv-x="585" 
d="M535 169q0 -85 -61.5 -137t-186.5 -52q-124 0 -185.5 42.5t-61.5 128.5v47q0 56 80 124h58q-33 -58 -33 -121v-50q0 -46 39.5 -80t102.5 -34q76 0 112 24t36 108v411q-78 31 -165 31q-36 0 -65.5 -13t-29.5 -71q0 -52 34 -52h37v-73h-29q-44 0 -85 26t-41 94
q0 84 51.5 112t107.5 28q90 0 185 -37v82l-103 -8l-32 44h235v-574z" />
    <glyph glyph-name="uni10B6" unicode="&#x10b6;" horiz-adv-x="762" 
d="M385 639q41 109 135 109q100 0 151 -40.5t51 -146.5v-59q0 -139 -109 -248h-68q74 100 74 234v73q0 79 -17.5 105t-86.5 26q-33 0 -63.5 -23.5t-30.5 -137.5v-91h35v-48h-135v48h34v91q0 106 -33.5 133.5t-78.5 27.5q-59 0 -79 -29t-20 -109v-61q0 -161 74.5 -226
t214.5 -126t139 -153h-125q0 45 -50 91t-144 94l-147 -144l-57 75l173 92q-74 42 -128 106.5t-54 191.5v65q0 97 51.5 143t151.5 46q95 0 142 -109z" />
    <glyph glyph-name="uni10B7" unicode="&#x10b7;" horiz-adv-x="585" 
d="M535 742v-530q0 -113 -59.5 -172.5t-182.5 -59.5q-128 0 -190.5 49t-62.5 150v37q0 51 62 121h51q-9 -53 -9 -120v-39q0 -78 32.5 -109.5t116.5 -31.5q92 0 117.5 42t25.5 133v248q-80 -70 -172 -68q-85 0 -137.5 45.5t-52.5 137.5v38q0 69 73 130h89q-61 -65 -61 -129
v-39q0 -64 24.5 -94.5t93.5 -30.5q70 0 143 81v211h99z" />
    <glyph glyph-name="uni10B8" unicode="&#x10b8;" horiz-adv-x="595" 
d="M445 469q-62 32 -112 32q-104 0 -141 -53t-37 -163v-45q0 -98 36 -150.5t117 -52.5q72 0 104.5 22.5t32.5 126.5v283zM164 693q-45 0 -61 -31l-14 -70h-72l-7 85q85 71 185 71q52 0 79 -64q76 64 151 64q63 0 91.5 -35.5t28.5 -117.5v-405q0 -112 -68 -161t-171 -49
q-120 0 -187.5 57t-67.5 198v51q0 138 74.5 203t197.5 65q65 0 122 -13v97q0 55 -73 55q-46 0 -86 -41v-20h36v-32h-126v33h37v10q0 50 -69 50z" />
    <glyph glyph-name="uni10B9" unicode="&#x10b9;" horiz-adv-x="586" 
d="M319 -13q121 119 121 284v91q0 67 -45 95t-103 28q-66 0 -139 -29l2 -459h-100l-5 569q0 95 49 138.5t145 43.5q76 0 117.5 -23.5t41.5 -74.5q0 -35 -41 -64l-22 2v51q0 54 -89 54q-56 0 -78.5 -30.5t-22.5 -98.5v-67q93 56 177 56q119 0 169 -53.5t50 -143.5v-90
q0 -151 -153 -279h-74z" />
    <glyph glyph-name="uni10BA" unicode="&#x10ba;" horiz-adv-x="611" 
d="M566 291v-72q0 -125 -70.5 -182t-173.5 -57q-147 0 -212 74t-65 227v157q0 178 72 227l-72 -2v76l98 -43l8 41h49v-60q-49 -36 -50 -214v-195q0 -132 35.5 -181.5t128.5 -49.5q68 0 108.5 29.5t40.5 152.5v70q0 78 -25 123t-76 45h-68v52h90q49 0 49 80q0 66 -53.5 79
t-53.5 75h73q0 -55 69 -74.5t69 -90.5q0 -83 -115 -100q144 -26 144 -187z" />
    <glyph glyph-name="uni10BB" unicode="&#x10bb;" horiz-adv-x="585" 
d="M436 471q-68 29 -124 29q-103 0 -135.5 -49t-32.5 -155v-49q0 -92 36.5 -151t121.5 -59q63 -1 98.5 22.5t35.5 125.5v286zM295 688l1 55h85q62 0 108 -46t46 -129v-378q0 -106 -58.5 -158t-185.5 -52q-137 0 -194 69.5t-57 201.5v56q0 121 71.5 184t223.5 63
q44 0 101 -19v55q0 69 -21 91t-45 22z" />
    <glyph glyph-name="uni10BC" unicode="&#x10bc;" horiz-adv-x="595" 
d="M150 179q0 -87 32.5 -114.5t104.5 -27.5q87 0 120 45t33 142v67q0 94 -42 144t-116 50q-70 0 -132 -35v-271zM431 693q-69 0 -69 -50v-10h37v-33h-126v32h36v20q-40 41 -86 41q-73 0 -73 -55v-137q57 52 142 52q103 0 177.5 -54.5t74.5 -171.5v-79q0 -131 -67.5 -199.5
t-187.5 -68.5q-103 0 -171 49t-68 181v385q0 82 28.5 117.5t91.5 35.5q75 0 151 -64q27 64 79 64q100 0 185 -71l-7 -85h-72l-14 70q-16 31 -61 31z" />
    <glyph glyph-name="uni10BD" unicode="&#x10bd;" horiz-adv-x="575" 
d="M260 535v23q-43 44 -73 44q-43 0 -43 -59q-1 -58 38 -59q35 1 78 51zM172 356q-28 -70 -28 -139v-38q0 -86 37 -114t102 -28q80 0 114 31.5t34 120.5v32q0 81 -72 134.5t-71 110.5l12 73q-23 -17 -54 -55.5t-68 -38.5q-128 0 -128 97q0 98 128 98q39 0 69 -33t53 -45
q8 93 -23 156l-80 -16l-53 36l127 14h38q108 -100 45 -182l151 71l15 -53l-166 -34v-19l160 -54l-16 -57l-144 93l5 -44q1 -54 88.5 -109t87.5 -143v-40q0 -108 -68.5 -154.5t-175.5 -46.5q-118 0 -184.5 45.5t-66.5 152.5v39q0 74 74 139h58z" />
    <glyph glyph-name="uni10BE" unicode="&#x10be;" horiz-adv-x="614" 
d="M312 553q70 0 109 -15l81 137l72 -46l-114 -110q56 -33 75 -86t19 -130v-47q0 -147 -73.5 -211.5t-204.5 -64.5q-101 0 -158 54t-57 156v462q0 50 -17 51l-74 -15l1 55h90q46 0 73 -29.5t27 -110.5v-102q86 52 151 52zM295 485q-72 0 -134 -24v-272q0 -83 30 -117.5
t85 -34.5q84 0 129.5 33.5t45.5 185.5v49q0 102 -44 141t-112 39z" />
    <glyph glyph-name="uni10BF" unicode="&#x10bf;" horiz-adv-x="690" 
d="M677 224q0 -115 -133 -115q-146 0 -250 281q-105 -40 -146 -117q190 -26 192 -166q-4 -134 -141 -138q-166 4 -171 107v32l116 1v-33q4 -48 49 -52q48 4 52 84q0 76 -48 104q-70 23 -109 11l-26 24q62 134 216 192q-74 246 -133 246q-41 0 -41 -48l11 -63l-75 -4l-5 67
q0 99 112 99q141 0 232 -259q182 64 182 135q0 74 -70 54l-63 -41l-22 89l78 29q139 0 139 -125q0 -100 -224 -187q71 -262 155 -262q48 0 48 44l-7 75l53 20z" />
    <glyph glyph-name="uni10C0" unicode="&#x10c0;" horiz-adv-x="570" 
d="M149 323l-9 -140v-34q-1 -47 36.5 -79.5t112.5 -32.5q85 0 111 35.5t26 84.5v26q0 129 -130 129h-22v-33h-42v92h43v-22h21q103 -5 103 74q0 84 -99 79h-32v-29h-46v91h44v-28h36q72 -5 72 60q1 93 -218 93v55q325 0 328 -129q0 -60 -130 -94q156 -24 156 -93
q0 -70 -162 -97q182 -54 182 -150v-25q0 -69 -60 -122.5t-181 -53.5q-106 0 -180 45.5t-74 117.5v33q0 62 67 147h47z" />
    <glyph glyph-name="uni10C1" unicode="&#x10c1;" horiz-adv-x="586" 
d="M162 748q-12 -45 -12 -118v-434q0 -92 26 -125.5t113 -33.5q99 0 125.5 33.5t26.5 93.5q0 136 -109 136h-18v-32h-44v88h45v-21h17q82 -5 82 81q0 91 -77 86h-31v-29h-45v88h43v-27h35q51 -4 51 59q0 54 -52 75q-37 19 -37 77h47q0 -38 70 -59q82 -23 82 -81
q0 -53 -130 -85q156 -23 156 -99q0 -78 -163 -103q183 -52 183 -165q0 -67 -60.5 -120t-196.5 -53q-130 0 -184.5 53t-54.5 158v376q0 89 61 181h51z" />
    <glyph glyph-name="uni10C2" unicode="&#x10c2;" horiz-adv-x="565" 
d="M283 748q111 0 179 -62.5t68 -197.5v-108q0 -251 -473 -448v106q369 62 369 341v109q0 120 -31.5 162t-111.5 42q-71 0 -107.5 -42t-36.5 -162v-108q0 -280 369 -343v-105q-473 197 -473 448v108q0 136 68.5 198t179.5 62z" />
    <glyph glyph-name="uni10C3" unicode="&#x10c3;" horiz-adv-x="575" 
d="M431 303q0 88 -42 121t-78 34h-48v56h52q50 0 93 55t43 121l-274 -7v-90h-95v144l453 11q0 -223 -157 -257q157 -86 157 -198v-119q0 -84 -58 -139t-183 -55t-189.5 50t-64.5 164v40q0 74 69 160h55q-20 -58 -20 -145v-46q0 -83 37 -124.5t115 -41.5q72 0 103.5 38
t31.5 98v130z" />
    <glyph glyph-name="uni10C4" unicode="&#x10c4;" horiz-adv-x="575" 
d="M167 349q-23 -56 -23 -127v-53q0 -58 37.5 -95t114.5 -37q84 0 109.5 39.5t25.5 105.5v80q0 138 -157 138h-61v51h106q66 0 66 52q0 62 -117.5 74t-117.5 81q1 85 237 85v-51q-143 0 -144 -37q0 -35 124 -60t124 -84q0 -68 -160 -86q204 -41 204 -169v-82
q0 -85 -63 -139.5t-173 -54.5q-126 0 -192.5 49.5t-66.5 141.5v49q0 73 80 129h47z" />
    <glyph glyph-name="uni10C5" unicode="&#x10c5;" horiz-adv-x="603" 
d="M593 468q-166 -27 -315 -27q-110 0 -174 45.5t-64 115.5q0 72 62.5 109t188.5 37q137 0 192.5 -49.5t55.5 -106.5v-421q0 -94 -55.5 -142.5t-171.5 -48.5q-145 0 -208.5 53t-63.5 154q0 79 64 129.5t174 50.5q149 0 315 -71v-62q-158 84 -300 83q-68 0 -108.5 -31
t-40.5 -98q0 -73 36 -112t135 -39q69 0 94.5 30.5t25.5 129.5v367q0 62 -25.5 95t-116.5 33q-79 0 -114 -20t-35 -71q0 -60 40.5 -86.5t108.5 -26.5q140 0 300 12v-32z" />
    <glyph glyph-name="uni10D0" unicode="&#x10d0;" horiz-adv-x="471" 
d="M248 551v-41q0 -45 94 -122.5t94 -193.5q0 -91 -53.5 -149t-151.5 -58q-87 0 -141.5 63t-54.5 134q0 63 20 107h100q-25 -51 -25 -104q0 -69 26.5 -107t74.5 -38q65 0 87.5 33t22.5 121q0 110 -88 190.5t-88 164.5h83z" />
    <glyph glyph-name="uni10D1" unicode="&#x10d1;" horiz-adv-x="481" 
d="M35 255q0 115 52.5 191t141.5 76q17 53 -9 88.5t-96 36.5h-65l21 126h74v-88q117 0 141 -43.5t-18 -122.5q70 -9 119.5 -79t49.5 -185q0 -118 -60.5 -193t-144.5 -75q-100 0 -153 75t-53 193zM131 255q0 -110 29 -161.5t81 -51.5q55 0 82.5 51.5t27.5 161.5
q0 96 -27.5 154t-82.5 58q-70 0 -90 -58t-20 -154z" />
    <glyph glyph-name="uni10D2" unicode="&#x10d2;" horiz-adv-x="500" 
d="M236 530q69 0 116.5 -37t47.5 -90q0 -40 -33 -72.5t-95 -58.5v-18q69 -6 136 -73t67 -164q0 -94 -68 -158.5t-161 -65.5q-96 1 -158.5 65.5t-62.5 158.5t43 148t114 86q49 25 91 65.5t42 83.5q0 34 -20.5 52.5t-58.5 18.5t-75 -26l-34 -90h-63l23 116q46 37 82.5 48
t66.5 11zM380 22q0 95 -37 142.5t-89 48.5q-74 0 -103.5 -43t-29.5 -148q0 -81 25 -127t98 -46q76 0 106 46t30 127z" />
    <glyph glyph-name="uni10D3" unicode="&#x10d3;" horiz-adv-x="745" 
d="M573 -197h-101q0 63 -72 86.5t-161 69.5l-109 -131l-56 54l130 101q-69 45 -119 118.5t-50 185.5q0 108 55.5 167.5t137.5 59.5q57 0 116 -79q55 89 160 89q91 0 148.5 -82t57.5 -178q0 -109 -55 -183t-140 -74q-99 0 -157.5 76.5t-58.5 181.5q0 89 22 136q-41 56 -92 56
q-45 0 -71.5 -47t-26.5 -123q0 -122 48 -191t103 -95q51 -37 170.5 -80t120.5 -118zM615 263q0 87 -24 145.5t-82 58.5q-68 0 -91 -53.5t-23 -148.5q0 -88 21 -145.5t96 -57.5q59 0 81 57.5t22 143.5z" />
    <glyph glyph-name="uni10D4" unicode="&#x10d4;" horiz-adv-x="476" 
d="M436 19q0 -117 -47 -171t-142 -54q-103 0 -162.5 53t-59.5 161q0 59 83 127h54q-31 -42 -41 -124q0 -70 27.5 -116t99.5 -46q51 0 72 41.5t21 128.5v327q0 60 -19.5 90.5t-77.5 30.5q-60 0 -83 -19.5t-23 -64.5q10 -52 62 -64v-77q-124 8 -134 138q0 62 42 103t146 41
q84 0 133 -56.5t49 -141.5v-307z" />
    <glyph glyph-name="uni10D5" unicode="&#x10d5;" horiz-adv-x="471" 
d="M341 34q0 65 -28 101.5t-61 37.5h-44v44h48q45 0 60 32t15 96q0 58 -18 90t-84 32q-59 0 -85.5 -26t-26.5 -70q0 -46 42 -46v-73q-111 0 -112 115q1 63 41.5 110t140.5 47t148.5 -48.5t48.5 -120.5q0 -98 -113 -160q123 -82 123 -171v-35q0 -80 -47.5 -137.5
t-152.5 -57.5q-104 0 -157.5 57.5t-53.5 135.5q0 71 63 154h50q-18 -56 -18 -130q0 -64 28 -113t90 -49q57 0 80 41t23 98v46z" />
    <glyph glyph-name="uni10D6" unicode="&#x10d6;" horiz-adv-x="481" 
d="M25 610q0 69 45 103.5t96 34.5q71 0 109 -41.5t38 -95.5q0 -56 -33 -104q43 -7 66 -20l60 101l54 -48l-85 -71q37 -31 54 -86t17 -128q0 -119 -53 -193.5t-152 -74.5q-89 0 -147.5 75t-58.5 193q0 57 15 110t61 101q-86 51 -86 144zM351 255q0 101 -25 151.5t-85 51.5
q-66 -2 -88 -57.5t-22 -145.5q0 -105 29 -159t81 -54q58 0 84 54t26 159zM237 600q-10 93 -69 93q-65 -1 -65 -83q10 -108 67 -108q67 0 67 98z" />
    <glyph glyph-name="uni10D7" unicode="&#x10d7;" horiz-adv-x="758" 
d="M35 257q0 121 59.5 194t146.5 73q99 0 147 -83q55 73 124 73q101 0 156 -60t55 -173q0 -104 -122 -238l82 -9v-39h-160l1 48q105 80 105 238q0 105 -32 140.5t-90 35.5q-62 0 -96 -52q35 -69 35 -150q0 -113 -52.5 -190.5t-152.5 -77.5q-91 0 -148.5 77.5t-57.5 192.5z
M131 256q0 -105 27.5 -159.5t82.5 -54.5q60 0 85 55t25 158q0 113 -33 162.5t-77 49.5q-56 0 -83 -49.5t-27 -161.5z" />
    <glyph glyph-name="uni10D8" unicode="&#x10d8;" horiz-adv-x="481" 
d="M241 524q92 0 148.5 -68t56.5 -179q0 -156 -99 -235l86 -7v-35h-143v61q61 8 61 215q0 88 -23 139.5t-87 51.5q-56 0 -83.5 -51.5t-27.5 -131.5q0 -79 12 -134.5t47 -55.5v-94h-29q-70 42 -97.5 109.5t-27.5 168.5q0 111 57 178.5t149 67.5z" />
    <glyph glyph-name="uni10D9" unicode="&#x10d9;" horiz-adv-x="461" 
d="M402 363q0 -113 -110 -153q134 -71 134 -174v-33q0 -97 -53 -153t-142 -56q-90 0 -148 54t-58 161q0 65 60 147h54q-19 -76 -19 -149q0 -86 27 -122t83 -36q54 0 77.5 35.5t23.5 128.5v34q0 68 -28 106t-73 38l-37 -3l-5 43h49q84 0 84 118q0 86 -85 86v89
q65 0 115.5 -52t50.5 -109z" />
    <glyph glyph-name="uni10DA" unicode="&#x10da;" horiz-adv-x="806" 
d="M771 323q0 -115 -108 -225h-75q89 83 89 215q0 144 -74 144q-75 0 -75 -82v-100h29v-39h-111v39h29v99q0 93 -71 93q-74 0 -74 -93v-99h33v-39h-113l-1 39h31v99q0 83 -72 83q-78 0 -78 -143q0 -134 89 -196.5t243.5 -119.5t161.5 -192h-103q0 121 -235 203l-140 -123
l-49 71l142 72q-67 26 -135.5 100t-68.5 180q0 104 50 154.5t120 50.5q69 0 99 -70q26 80 100 80q66 0 95 -80q29 70 104 70q68 0 118 -49t50 -142z" />
    <glyph glyph-name="uni10DB" unicode="&#x10db;" horiz-adv-x="496" 
d="M130 255q0 -104 32 -152t104 -48q42 0 63.5 28.5t21.5 101.5v257q-32 29 -85 29q-72 0 -104 -50.5t-32 -165.5zM351 573q0 55 -15.5 87.5t-69.5 32.5q-64 0 -97 -16l-28 -108h-77l8 123q93 56 182 56q91 0 141.5 -52.5t50.5 -144.5v-358q0 -76 -46 -141t-146 -65
q-125 0 -172 70.5t-47 195.5q0 112 55.5 191.5t185.5 79.5q49 0 75 -16v65z" />
    <glyph glyph-name="uni10DC" unicode="&#x10dc;" horiz-adv-x="497" 
d="M141 469q55 55 133 55q101 0 144.5 -62.5t42.5 -186.5q0 -133 -59.5 -210.5t-176.5 -77.5q-60 0 -117.5 54.5t-57.5 142.5v398q0 149 157 149h22q21 0 111 -18l13 60h59l3 -104q-109 13 -194 13q-80 -2 -80 -100v-113zM366 275q0 75 -26 128t-105 53q-49 0 -94 -26v-259
q0 -59 22.5 -91.5t72.5 -32.5q78 0 104 53t26 175z" />
    <glyph glyph-name="uni10DD" unicode="&#x10dd;" horiz-adv-x="713" 
d="M678 286q0 -147 -112 -234l99 -21v-31h-174v61q93 43 93 222q0 89 -14.5 136.5t-83.5 47.5q-99 0 -99 -143v-65h33v-41h-118v41h29v65q0 143 -107 143q-59 0 -76.5 -48t-17.5 -136q0 -83 25.5 -135.5t63.5 -52.5v-95h-34q-72 34 -111 105t-39 174q0 113 48.5 179
t140.5 66q107 0 136 -118q27 118 138 118q95 0 137.5 -66t42.5 -172z" />
    <glyph glyph-name="uni10DE" unicode="&#x10de;" horiz-adv-x="481" 
d="M151 346q-21 -69 -21 -139q0 -86 28.5 -125.5t89.5 -39.5q68 0 85.5 42.5t17.5 140.5q0 197 -123 197h-55v45h96q40 0 40 95q0 88 -79 97.5t-79 73.5v15h96v-15q0 -39 79.5 -57.5t79.5 -103.5q0 -109 -126 -132q166 -50 166 -210q0 -120 -52 -181.5t-143 -61.5
q-106 0 -161 55t-55 133q0 101 73 171h43z" />
    <glyph glyph-name="uni10DF" unicode="&#x10df;" horiz-adv-x="476" 
d="M141 95q-21 -70 -21 -135q0 -45 27 -78t89 -33q66 0 85.5 45t19.5 128v427q-63 -30 -176 -29l-64 1q177 -30 177 -121q0 -111 -158 -111h-92v68q53 -18 109 -18q52 0 52 63q0 60 -51 74.5t-105 5.5l-1 77q125 -6 238 14.5t113 58.5h53v-494q0 -128 -44.5 -186.5
t-153.5 -57.5q-96 0 -154.5 52t-58.5 116q0 65 75 133h41z" />
    <glyph glyph-name="uni10E0" unicode="&#x10e0;" horiz-adv-x="698" 
d="M663 274q0 -149 -99 -227l101 -14v-33h-183v61q86 32 86 219t-87 187q-102 0 -102 -156v-56h27v-32h-105v32h23v56q0 156 -107 156q-35 0 -61 -46.5t-26 -139.5q0 -78 18.5 -132.5t65.5 -54.5v-94h-31q-50 12 -99 90.5t-49 185.5q0 296 179 357q192 60 192 115h91
q0 -85 -246 -153q-130 -45 -152 -145q52 74 119 74q106 0 135 -122q26 122 142 122q80 0 124 -72t44 -178z" />
    <glyph glyph-name="uni10E1" unicode="&#x10e1;" horiz-adv-x="514" 
d="M479 271q0 -126 -59.5 -205t-167.5 -79q-89 0 -136.5 58t-47.5 151v404q0 105 -30 105l-63 -15v53h70q114 0 114 -135v-426q0 -52 18 -96t75 -44q73 0 102.5 55t29.5 174q0 100 -57 127t-37 105l34 84l67 -34l-31 -68q-20 -47 49.5 -87t69.5 -127z" />
    <glyph glyph-name="uni10E2" unicode="&#x10e2;" horiz-adv-x="564" 
d="M314 107h-74l22 387l-28 138h74l-8 -120q249 -147 249 -386q0 -131 -69 -231.5t-184 -100.5q-122 0 -201.5 103t-79.5 236q0 196 147 340l-120 -62l-21 64l140 22h39v-33q-87 -128 -87 -303q0 -157 47.5 -234.5t138.5 -77.5q80 0 116 78.5t36 224.5q0 209 -151 322z" />
    <glyph glyph-name="uni10E3" unicode="&#x10e3;" horiz-adv-x="479" 
d="M344 356q0 111 -47 111q-56 0 -56 -99v-65h36v-38h-112v38h36v63q0 101 -45 101q-16 0 -39 -19.5t-47 -19.5q-31 0 -53 22t-22 60v39h85l-13 -39q0 -25 25 -25q19 0 32.5 19.5t36.5 19.5q40 0 61 -73q26 73 88 73q68 0 98.5 -45t30.5 -129v-337q0 -92 -40 -157t-164 -62
q-103 0 -155 66t-52 168q0 79 78 162h46q-29 -85 -29 -169q0 -82 25.5 -127t81.5 -45q75 0 94.5 34.5t19.5 129.5v343z" />
    <glyph glyph-name="uni10E4" unicode="&#x10e4;" horiz-adv-x="708" 
d="M35 303q0 85 50 153t145 68t133 -71q80 51 127 51q99 0 141 -48.5t42 -105.5q0 -122 -100 -170q92 -66 90 -158v-29q0 -101 -61.5 -150t-175.5 -49q-101 0 -176.5 44t-76.5 106q1 45 74 89h16v-79q0 -44 56.5 -74.5t116.5 -30.5q68 0 100 41t32 103v29q0 141 -51 141h-47
v38h47q61 0 61 147q0 46 -21.5 72.5t-76.5 26.5q-35 0 -97 -22q36 -40 36 -126q0 -99 -52.5 -163t-135.5 -64q-92 0 -144 64t-52 167zM130 299q0 -84 25 -128t75 -44q59 0 77 44t18 128t-19.5 126t-75.5 42q-66 0 -83 -42t-17 -126z" />
    <glyph glyph-name="uni10E5" unicode="&#x10e5;" horiz-adv-x="476" 
d="M426 22q0 -98 -49 -163t-151 -65q-103 0 -152 53t-49 140q0 79 80 158h51q-36 -65 -36 -145q0 -82 29 -116.5t77 -34.5q58 0 84 45.5t26 127.5v406q-49 39 -106 39q-32 0 -58.5 -16.5t-26.5 -57.5q0 -63 40 -63h32v-76h-25q-49 0 -85 32.5t-36 92.5q0 75 46 110t95 35
q60 0 124 -47v232l-71 -48l-28 51l137 36h52v-726z" />
    <glyph glyph-name="uni10E6" unicode="&#x10e6;" horiz-adv-x="659" 
d="M327 421q28 103 121 103q83 0 129.5 -47.5t46.5 -120.5q0 -139 -90 -233h-63q59 95 59 203q0 70 -20.5 105.5t-65.5 35.5q-37 0 -63 -24t-26 -86v-86h32v-45h-114v45h31v86q0 54 -24 82t-70 28q-40 0 -59 -36t-19 -109q0 -134 58.5 -200.5t173.5 -138t114 -177.5h-105
q0 80 -46 133t-116 81l-125 -119l-51 71l149 70q-68 38 -107.5 108.5t-39.5 168.5q0 105 42.5 155t117.5 50q87 0 130 -103z" />
    <glyph glyph-name="uni10E7" unicode="&#x10e7;" horiz-adv-x="476" 
d="M436 511v-505q0 -97 -51.5 -154.5t-148.5 -57.5q-98 0 -154.5 47.5t-56.5 113.5q0 56 57 122h46q-8 -50 -8 -111q0 -54 30 -85.5t86 -31.5q65 0 85 41.5t20 115.5v168q-48 -66 -132 -64q-69 0 -111 52.5t-42 138.5q0 121 102 211h64q-74 -94 -74 -209q0 -62 17 -100
t71 -38q63 0 105 76v270h95z" />
    <glyph glyph-name="uni10E8" unicode="&#x10e8;" horiz-adv-x="504" 
d="M363 440q-37 32 -83 32q-95 0 -118.5 -63.5t-23.5 -153.5t24.5 -145t95.5 -55q56 0 80.5 27.5t24.5 84.5v273zM146 693q-41 0 -56 -31l-13 -100h-65l-7 115q78 71 151 71q45 0 71 -64q68 64 117 64q58 0 84 -35.5t26 -117.5v-385q0 -105 -57 -164t-141 -59
q-101 0 -157 63.5t-56 204.5q0 119 58 194t170 75q59 0 92 -13v127q0 55 -67 55q-22 0 -59 -41v-30h33v-32h-115v33h34v20q0 50 -43 50z" />
    <glyph glyph-name="uni10E9" unicode="&#x10e9;" horiz-adv-x="496" 
d="M274 -10q92 101 92 279q0 100 -31.5 143.5t-84.5 43.5q-60 0 -109 -29v-427h-91v567q0 94 39.5 137.5t116.5 43.5q69 0 107 -23.5t38 -84.5q0 -24 -38 -63l-20 2v60q0 54 -80 54q-42 0 -57 -30.5t-15 -97.5v-97q64 56 141 56q90 0 134.5 -68.5t44.5 -177.5
q0 -180 -119 -288h-68z" />
    <glyph glyph-name="uni10EA" unicode="&#x10ea;" horiz-adv-x="508" 
d="M473 12q0 -95 -59.5 -156.5t-144.5 -61.5q-125 0 -179.5 88t-54.5 216v75q0 173 66 260l-66 27v74l90 -71l7 40h46v-58q-58 -36 -48 -209v-150q0 -108 27.5 -172.5t103.5 -64.5q54 0 86 35.5t32 113.5q0 96 -23.5 140t-49.5 44h-62v50h82q25 0 25 98q0 64 -39 91.5
t-39 87.5h67q0 -54 53 -87.5t53 -102.5q0 -71 -85 -117q112 -25 112 -190z" />
    <glyph glyph-name="uni10EB" unicode="&#x10eb;" horiz-adv-x="491" 
d="M351 443q-37 28 -88 28q-85 0 -109 -58t-24 -150q0 -97 25.5 -152.5t96.5 -55.5q50 0 74.5 33t24.5 116v239zM227 688l1 55h78q56 0 98 -58t42 -141v-335q0 -99 -48 -160.5t-155 -61.5q-115 0 -161.5 75.5t-46.5 200.5q0 117 59.5 189t192.5 72q39 0 64 -17v59
q0 69 -17 103t-38 34z" />
    <glyph glyph-name="uni10EC" unicode="&#x10ec;" horiz-adv-x="480" 
d="M454 565h-63l-15 77q-10 50 -70 49q-28 1 -38 -38v-28h28v-34h-101v33h30v38q-31 30 -76 31q-30 -1 -34 -23.5t-4 -70.5q3 -77 11 -135q84 60 149 60q83 0 129 -45t46 -126q0 -29 -12 -82.5t-45 -112.5q-56 -116 -124 -219t-68 -133h-51q-40 304 -79.5 482.5t-41.5 305.5
q0 90 34 122t67 32q67 0 108 -56q21 56 78 56q71 0 143 -75zM351 344q1 59 -28 91t-67 32q-71 0 -126 -45q45 -260 68 -486q32 55 92.5 170.5t60.5 237.5z" />
    <glyph glyph-name="uni10ED" unicode="&#x10ed;" horiz-adv-x="481" 
d="M216 392v29q-29 55 -56 55q-39 0 -39 -74q-1 -72 35 -73q31 1 60 63zM156 156q-26 -88 -26 -164q0 -60 28 -101.5t79 -41.5q63 0 88.5 39.5t25.5 121.5q0 66 -55 151.5t-54 132.5l10 103q-20 -21 -43.5 -69t-56.5 -48q-117 0 -117 121q0 123 117 123q35 0 57.5 -41
t42.5 -57q35 179 -11 284l-78 -72l-48 45l121 69h34q117 -150 32 -316l136 89l14 -66l-150 -43v-23l145 -68l-15 -71l-130 116l5 -68q1 -42 70 -129.5t69 -164.5q0 -98 -57 -156t-146 -58q-97 0 -152.5 63t-55.5 138q0 79 67 161h54z" />
    <glyph glyph-name="uni10EE" unicode="&#x10ee;" horiz-adv-x="506" 
d="M269 524q64 0 80 -15l74 136l66 -46l-104 -109q51 -33 68.5 -95.5t17.5 -124.5q0 -135 -62 -209t-173 -74q-83 0 -129.5 58.5t-46.5 130.5v477q0 49 -16 50l-68 -15l1 55h83q41 0 66 -29.5t25 -135.5v-106q59 52 118 52zM253 454q-66 0 -102 -22v-257q0 -55 22 -94
t63 -39q68 0 104 43t36 178q0 96 -30 143.5t-93 47.5z" />
    <glyph glyph-name="uni10EF" unicode="&#x10ef;" horiz-adv-x="589" 
d="M569 129q0 -111 -121 -111q-126 0 -204 163q-73 -41 -111 -115q175 -25 177 -140q-4 -128 -130 -132q-138 4 -143 102v41h84v-41q5 -43 54 -47q52 4 56 78q0 55 -51 94q-63 22 -102 -3l-23 24q56 127 175 185q-50 194 -104 194q-28 0 -28 -46l9 -62l-77 -3l-5 64
q0 95 102 95q130 0 188 -196q143 57 143 155q0 41 -64 41l-58 -39l-20 66l71 28q128 0 128 -91q0 -125 -183 -209q47 -148 124 -148q44 0 44 43l-7 61l49 19z" />
    <glyph glyph-name="uni10F0" unicode="&#x10f0;" horiz-adv-x="481" 
d="M137 293q-7 -47 -7 -123q0 -63 28.5 -95.5t87.5 -32.5q69 0 87 37t18 99q0 161 -99 161h-17v-33h-39v92h40v-22h16q74 -5 74 74q0 84 -70 79h-27v-29h-42v91h40v-28h31q46 -5 46 60q0 79 -97 79q-133 0 -133 80h93q0 -40 63 -41q174 0 174 -95q0 -64 -98 -98
q122 -24 122 -93q0 -70 -128 -97q146 -54 146 -192q0 -69 -49.5 -124t-150.5 -55q-87 0 -149 45.5t-62 122.5q0 63 56 138h46z" />
    <glyph glyph-name="uni10F1" unicode="&#x10f1;" horiz-adv-x="501" 
d="M152 785q-12 -47 -12 -123v-452q0 -94 28.5 -131t67.5 -37q79 0 107 37t28 99q0 141 -79 141h-17v-33h-39v92h40v-22h16q74 -5 74 84q-5 90 -70 89h-27v-29h-42v91h40v-28h31q25 1 26 60q0 57 -27 79q-33 20 -33 80h43q0 -40 43 -61q74 -24 74 -85q0 -54 -98 -88
q122 -24 122 -103q0 -80 -128 -107q146 -54 146 -172q0 -69 -59.5 -124t-170.5 -55q-78 0 -132 55t-52 166l-2 389q0 93 56 188h46z" />
    <glyph glyph-name="uni10F2" unicode="&#x10f2;" horiz-adv-x="471" 
d="M236 524q92 0 148.5 -58t56.5 -149q0 -264 -391 -438v101q296 50 296 336q0 68 -23 109.5t-87 41.5q-56 0 -83.5 -41.5t-27.5 -101.5q0 -294 296 -345v-100q-391 174 -391 439q0 91 57 148.5t149 57.5z" />
    <glyph glyph-name="uni10F3" unicode="&#x10f3;" horiz-adv-x="476" 
d="M346 34q0 65 -28 101.5t-61 37.5h-44v44h48q45 0 65 67t20 173l-209 -16v-119h-69v187l373 20q0 -301 -123 -334q123 -82 123 -171v-35q0 -80 -47.5 -137.5t-152.5 -57.5q-104 0 -157.5 57.5t-53.5 135.5q0 71 63 154h50q-18 -56 -18 -130q0 -64 28 -113t90 -49
q57 0 80 41t23 98v46z" />
    <glyph glyph-name="uni10F4" unicode="&#x10f4;" horiz-adv-x="476" 
d="M146 153q-21 -69 -21 -139q0 -86 28.5 -125.5t89.5 -39.5q68 0 85.5 42.5t17.5 140.5q0 197 -123 197h-55v45h96q40 0 40 95q0 108 -97 123t-97 125q0 38 15.5 63t44 40t68.5 21.5t88 6.5v-55q-42 0 -67.5 -4t-40 -13.5t-19 -24.5t-4.5 -37q0 -69 103 -99.5t103 -135.5
q0 -109 -126 -132q166 -50 166 -210q0 -120 -52 -181.5t-143 -61.5q-106 0 -161 55t-55 133q0 101 73 171h43z" />
    <glyph glyph-name="uni10F5" unicode="&#x10f5;" horiz-adv-x="495" 
d="M490 477q-152 -33 -262 -33q-81 0 -139.5 45t-58.5 114q0 72 57 108.5t152 36.5q100 0 151 -49t51 -106v-407q0 -103 -51 -151t-131 -48q-95 0 -162 57.5t-67 157.5q0 78 58.5 128t139.5 50q110 0 262 -64v-61q-144 77 -249 76q-42 0 -79 -31t-37 -97q0 -72 42 -110
t94 -38q38 0 61.5 24.5t23.5 132.5v354q0 61 -23.5 94t-81.5 33q-52 0 -84 -20t-32 -71q0 -59 37 -85.5t79 -26.5q103 0 249 19v-32z" />
    <glyph glyph-name="uni10F6" unicode="&#x10f6;" horiz-adv-x="713" 
d="M678 286q0 -147 -112 -234l99 -21v-31h-174v61q93 43 93 222q0 89 -14.5 136.5t-83.5 47.5q-89 0 -89 -143v-490h33v-41h-138v41h29v490q0 143 -97 143q-59 0 -76.5 -48t-17.5 -136q0 -83 25.5 -135.5t63.5 -52.5v-95h-34q-72 34 -111 105t-39 174q0 113 48.5 179
t140.5 66q107 0 136 -118q27 118 138 118q95 0 137.5 -66t42.5 -172z" />
    <glyph glyph-name="uni10F7" unicode="&#x10f7;" horiz-adv-x="540" 
d="M395 176q115 -163 57 -272.5t-191 -110.5q-106 1 -168.5 65.5t-62.5 158.5q0 141 145 211.5t145 171.5q0 34 -10.5 52.5t-48.5 18.5t-75 -26l-34 -90h-63l23 116q46 37 82.5 48t66.5 11q49 0 91.5 -37t42.5 -112q0 -97 -135 -163.5t-135 -197.5q1 -79 26 -125t108 -46
q106 0 116 91t-30 236h50z" />
    <glyph glyph-name="uni10F8" unicode="&#x10f8;" horiz-adv-x="481" 
d="M135 511v-270q42 -76 105 -76q54 0 71 38t17 100q0 115 -74 209h64q102 -90 102 -211q0 -86 -52 -138.5t-101 -52.5q-84 -2 -132 64v-168q0 -84 15.5 -120.5t89.5 -36.5q68 0 92 31.5t24 85.5q0 61 -8 111h46q57 -66 57 -122q0 -66 -51.5 -113.5t-159.5 -47.5
q-103 0 -151.5 52.5t-48.5 159.5v505h95z" />
    <glyph glyph-name="uni10F9" unicode="&#x10f9;" horiz-adv-x="500" 
d="M264 -207q-69 0 -116.5 37t-47.5 90q0 40 33 72.5t95 58.5v18q-69 6 -136 73t-67 164q0 94 68 158.5t161 65.5q96 -1 158.5 -65.5t62.5 -158.5t-43 -148t-114 -86q-49 -25 -91 -65.5t-42 -83.5q0 -34 20.5 -52.5t58.5 -18.5t75 26l34 90h63l-23 -116q-46 -37 -82.5 -48
t-66.5 -11zM120 301q0 -95 37 -142.5t89 -48.5q74 0 103.5 43t29.5 148q0 81 -25 127t-98 46q-76 0 -106 -46t-30 -127z" />
    <glyph glyph-name="uni10FA" unicode="&#x10fa;" horiz-adv-x="471" 
d="M235 524q92 0 149 -47.5t57 -150.5q0 -90 -67 -155h-51q23 71 23 154q0 70 -23.5 106t-86.5 36q-61 0 -86 -41t-25 -96q0 -145 114 -210t142 -133l-71 -29q-36 84 -112 119l-111 -90l-34 68l124 39q-147 106 -147 233q0 87 59 142t146 55z" />
    <glyph glyph-name="uni10FB" unicode="&#x10fb;" horiz-adv-x="438" 
d="M119 281q-26 0 -45 18t-19 45t19 45t45 18t45 -18t19 -45t-19 -45t-45 -18zM119 -15q-26 0 -45 18t-19 45t19 45t45 18t45 -18t19 -45t-19 -45t-45 -18zM339 128q-26 0 -45 18t-19 45t19 45t45 18t45 -18t19 -45t-19 -45t-45 -18z" />
    <glyph glyph-name="uni10FC" unicode="&#x10fc;" horiz-adv-x="328" 
d="M87 600q27 27 64 27q69 0 108 -41.5t39 -116.5q0 -71 -39 -113.5t-108 -42.5q-58 0 -102 31.5t-44 83.5v233q0 88 115 88h15q13 0 72 -11l9 35h38l2 -71q-71 8 -126 8q-43 0 -43 -58v-52zM217 469q0 52 -12 83.5t-57 31.5q-41 0 -61 -21v-131q0 -35 10 -56t53 -21
q53 0 60 32.5t7 81.5z" />
    <glyph glyph-name="Wgrave" unicode="&#x1e80;" horiz-adv-x="936" 
d="M64 633l-60 19v41h235v-41l-75 -19l126 -486h5l153 546h61l154 -546h4l123 486l-75 19v41h217v-41l-70 -19l-170 -633h-81l-144 522h-4l-149 -522h-81zM345 794l36 76l186 -106l-16 -36z" />
    <glyph glyph-name="wgrave" unicode="&#x1e81;" horiz-adv-x="773" 
d="M51 462l-53 15v36h212v-36l-64 -15l97 -337h4l125 388h61l123 -388h4l98 337l-63 15v36h180v-36l-53 -15l-143 -462h-69l-116 381h-3l-130 -381h-68zM279 658l45 72l172 -128l-20 -34z" />
    <glyph glyph-name="Wacute" unicode="&#x1e82;" horiz-adv-x="936" 
d="M64 633l-60 19v41h235v-41l-75 -19l126 -486h5l153 546h61l154 -546h4l123 486l-75 19v41h217v-41l-70 -19l-170 -633h-81l-144 522h-4l-149 -522h-81zM397 728l-16 36l186 106l36 -76z" />
    <glyph glyph-name="wacute" unicode="&#x1e83;" horiz-adv-x="773" 
d="M51 462l-53 15v36h212v-36l-64 -15l97 -337h4l125 388h61l123 -388h4l98 337l-63 15v36h180v-36l-53 -15l-143 -462h-69l-116 381h-3l-130 -381h-68zM302 602l172 128l45 -72l-197 -90z" />
    <glyph glyph-name="Wdieresis" unicode="&#x1e84;" horiz-adv-x="936" 
d="M64 633l-60 19v41h235v-41l-75 -19l126 -486h5l153 546h61l154 -546h4l123 486l-75 19v41h217v-41l-70 -19l-170 -633h-81l-144 522h-4l-149 -522h-81zM393 737q-22 0 -38 16.5t-16 37.5q0 23 16 38.5t38 15.5q23 0 39 -15.5t16 -38.5q0 -21 -16 -37.5t-39 -16.5z
M559 737q-23 0 -39 16.5t-16 37.5q0 23 16 38.5t39 15.5t38.5 -15.5t15.5 -38.5q0 -21 -15.5 -37.5t-38.5 -16.5z" />
    <glyph glyph-name="wdieresis" unicode="&#x1e85;" horiz-adv-x="773" 
d="M51 462l-53 15v36h212v-36l-64 -15l97 -337h4l125 388h61l123 -388h4l98 337l-63 15v36h180v-36l-53 -15l-143 -462h-69l-116 381h-3l-130 -381h-68zM318 602q-22 0 -38 16.5t-16 37.5q0 23 16 38.5t38 15.5q23 0 39 -15.5t16 -38.5q0 -21 -16 -37.5t-39 -16.5zM484 602
q-23 0 -39 16.5t-16 37.5q0 23 16 38.5t39 15.5t38.5 -15.5t15.5 -38.5q0 -21 -15.5 -37.5t-38.5 -16.5z" />
    <glyph glyph-name="Ygrave" unicode="&#x1ef2;" horiz-adv-x="608" 
d="M173 41l88 19v247l-200 326l-61 19v41h238v-41l-69 -19l161 -269h4l146 269l-74 19v41h202v-41l-60 -19l-187 -328v-245l86 -19v-41h-274v41zM192 794l36 76l186 -106l-16 -36z" />
    <glyph glyph-name="ygrave" unicode="&#x1ef3;" horiz-adv-x="526" 
d="M122 -199q-21 0 -42.5 5.5t-34.5 13.5v52q17 -4 28 -6.5t25 -2.5q44 0 68.5 18t43.5 62l30 71l-186 448l-56 15v36h225v-36l-68 -14l129 -333h4l114 332l-65 15v36h191v-36l-56 -15l-203 -538q-11 -31 -24.5 -54t-30.5 -38.5t-39.5 -23t-52.5 -7.5zM163 658l45 72
l172 -128l-20 -34z" />
    <glyph glyph-name="uni2009" unicode="&#x2009;" horiz-adv-x="90" 
 />
    <glyph glyph-name="endash" unicode="&#x2013;" horiz-adv-x="392" 
d="M31 313h330v-52h-330v52z" />
    <glyph glyph-name="emdash" unicode="&#x2014;" horiz-adv-x="672" 
d="M31 313h610v-52h-610v52z" />
    <glyph glyph-name="quoteleft" unicode="&#x2018;" horiz-adv-x="214" 
d="M47 488q9 57 23.5 107t39.5 98h58q-8 -49 -14 -99t-6 -106h-101v0z" />
    <glyph glyph-name="quoteright" unicode="&#x2019;" horiz-adv-x="214" 
d="M46 488q8 49 14 99t6 106h101q-9 -57 -23.5 -107t-39.5 -98h-58v0z" />
    <glyph glyph-name="quotesinglbase" unicode="&#x201a;" horiz-adv-x="214" 
d="M46 -94q8 49 14 99t6 106h101q-9 -57 -23.5 -107t-39.5 -98h-58v0z" />
    <glyph glyph-name="quotedblleft" unicode="&#x201c;" horiz-adv-x="373" 
d="M206 488q9 57 23.5 107t39.5 98h58q-8 -49 -14 -99t-6 -106h-101zM47 488q9 57 23.5 107t39.5 98h58q-8 -49 -14 -99t-6 -106h-101z" />
    <glyph glyph-name="quotedblright" unicode="&#x201d;" horiz-adv-x="373" 
d="M205 488q8 49 14 99t6 106h101q-9 -57 -23.5 -107t-39.5 -98h-58zM46 488q8 49 14 99t6 106h101q-9 -57 -23.5 -107t-39.5 -98h-58z" />
    <glyph glyph-name="quotedblbase" unicode="&#x201e;" horiz-adv-x="373" 
d="M205 -94q8 49 14 99t6 106h101q-9 -57 -23.5 -107t-39.5 -98h-58zM46 -94q8 49 14 99t6 106h101q-9 -57 -23.5 -107t-39.5 -98h-58z" />
    <glyph glyph-name="dagger" unicode="&#x2020;" horiz-adv-x="404" 
d="M26 527l151 -22l-18 188h86l-18 -188l151 22v-86l-150 21l17 -116v-43l-24 -303h-38l-24 303v43l17 116l-150 -21v86z" />
    <glyph glyph-name="daggerdbl" unicode="&#x2021;" horiz-adv-x="416" 
d="M32 527l151 -22l-18 188h86l-18 -188l151 22v-86l-149 21l19 -101v-29l-19 -101l149 21v-86l-151 21l18 -187h-86l18 187l-151 -21v86l149 -21l-19 101v29l19 101l-149 -21v86z" />
    <glyph glyph-name="bullet" unicode="&#x2022;" horiz-adv-x="353" 
d="M175 192q-27 0 -50 10.5t-40.5 28t-27.5 41.5t-10 51q0 28 10 52t27.5 41.5t40.5 27.5t50 10q26 0 50 -10t42 -27.5t28.5 -41.5t10.5 -52q0 -27 -10.5 -51t-28.5 -41.5t-42 -28t-50 -10.5z" />
    <glyph glyph-name="ellipsis" unicode="&#x2026;" horiz-adv-x="689" 
d="M580 -15q-26 0 -45 18t-19 45t19 45t45 18t45 -18t19 -45t-19 -45t-45 -18zM109 -15q-26 0 -45 18t-19 45t19 45t45 18t45 -18t19 -45t-19 -45t-45 -18zM344 -15q-26 0 -45 18t-19 45t19 45t45 18t45 -18t19 -45t-19 -45t-45 -18z" />
    <glyph glyph-name="perthousand" unicode="&#x2030;" horiz-adv-x="1212" 
d="M193 323q-35 0 -65 12t-52.5 36t-35.5 59t-13 81q0 47 13.5 83.5t36.5 61t53.5 37t63.5 12.5t63 -12.5t53 -36.5t36.5 -59.5t13.5 -81.5q0 -47 -13 -82.5t-36 -60t-53.5 -37t-64.5 -12.5zM632 -12q-35 0 -65 12t-52.5 36t-35.5 59t-13 81q0 47 13.5 83.5t36.5 61t53.5 37
t63.5 12.5t63 -12.5t53 -36.5t36.5 -59.5t13.5 -81.5q0 -47 -13 -82.5t-36 -60t-53.5 -37t-64.5 -12.5zM1018 -12q-35 0 -65 12t-52.5 36t-35.5 59t-13 81q0 47 13.5 83.5t36.5 61t53.5 37t63.5 12.5t63 -12.5t53 -36.5t36.5 -59.5t13.5 -81.5q0 -47 -13 -82.5t-36 -60
t-53.5 -37t-64.5 -12.5zM614 713h69l-480 -753h-69zM632 35q44 0 62.5 35t18.5 106q0 70 -18 108.5t-62 38.5q-45 0 -63.5 -37t-18.5 -106t18.5 -107t62.5 -38zM1018 35q44 0 62.5 35t18.5 106q0 70 -18 108.5t-62 38.5q-45 0 -63.5 -37t-18.5 -106t18.5 -107t62.5 -38z
M193 370q44 0 62.5 35t18.5 106q0 70 -18 108.5t-62 38.5q-45 0 -63.5 -37t-18.5 -106t18.5 -107t62.5 -38z" />
    <glyph glyph-name="uni2032" unicode="&#x2032;" horiz-adv-x="214" 
d="M65 693h104l-64 -205h-60z" />
    <glyph glyph-name="uni2033" unicode="&#x2033;" horiz-adv-x="373" 
d="M224 693h104l-64 -205h-60zM65 693h104l-64 -205h-60z" />
    <glyph glyph-name="guilsinglleft" unicode="&#x2039;" horiz-adv-x="250" 
d="M41 238v29l106 183h60l-81 -197l81 -198h-60z" />
    <glyph glyph-name="guilsinglright" unicode="&#x203a;" horiz-adv-x="250" 
d="M124 252l-81 198h60l106 -183v-29l-106 -183h-60z" />
    <glyph glyph-name="fraction" unicode="&#x2044;" horiz-adv-x="217" 
d="M310 713h69l-480 -753h-69z" />
    <glyph glyph-name="Euro" unicode="&#x20ac;" horiz-adv-x="606" 
d="M385 -12q-57 0 -104.5 14.5t-83.5 46t-60 81t-33 118.5h-77v52h73q-1 9 -1 18.5v20.5v19.5t1 19.5h-73v52h78q11 77 39 129.5t67.5 85t88.5 46.5t101 14q50 0 85.5 -8t67.5 -18l5 -160h-43l-41 109q-18 10 -37.5 15.5t-48.5 5.5q-88 0 -133 -57t-56 -162h219v-52h-222
v-19v-30.5t1 -28.5h221v-52h-216q14 -104 61.5 -149t138.5 -45q53 0 96.5 12t63.5 20v-46q-25 -17 -68.5 -34.5t-109.5 -17.5z" />
    <glyph glyph-name="trademark" unicode="&#x2122;" horiz-adv-x="713" 
d="M314 442l35 7v210l-35 8v26h120l67 -182h3l69 182h122v-26l-39 -8v-209l39 -8v-26h-129v26l30 8v194h-3l-82 -215h-38l-80 215h-3v-194l32 -8v-26h-108v26zM84 442l36 7v212h-47l-18 -63h-34l4 95h251l5 -95h-35l-18 63h-47v-212l36 -7v-26h-133v26z" />
    <glyph glyph-name="onethird" unicode="&#x2153;" horiz-adv-x="817" 
d="M49 282v34l61 10v303l-67 -6v33l117 47h27v-377l61 -10v-34h-199zM596 713h69l-480 -753h-69zM627 -7q-39 0 -69 9t-50 20v37q21 -7 45.5 -11.5t51.5 -4.5q45 0 70.5 18.5t25.5 56.5q0 43 -22.5 59.5t-70.5 16.5h-31v43h26q85 0 85 69q0 33 -18.5 50.5t-59.5 17.5
q-27 0 -46 -3t-38 -9v36q20 11 48.5 18t59.5 7q61 0 95.5 -26.5t34.5 -77.5q0 -38 -22.5 -62.5t-58.5 -35.5v-2q19 -3 37 -11t31.5 -20.5t21.5 -31t8 -43.5q0 -56 -41 -88t-113 -32z" />
    <glyph glyph-name="twothirds" unicode="&#x2154;" horiz-adv-x="873" 
d="M24 282v39l103 101q41 40 66.5 75.5t25.5 76.5q0 36 -20.5 56t-67.5 20q-26 0 -48 -5.5t-42 -12.5v39q23 13 54.5 23.5t66.5 10.5q63 0 100 -30.5t37 -90.5q0 -48 -34.5 -93t-97.5 -96l-67 -55v-1h148l26 53h38l-8 -110h-280zM644 713h69l-480 -753h-69zM683 -7
q-39 0 -69 9t-50 20v37q21 -7 45.5 -11.5t51.5 -4.5q45 0 70.5 18.5t25.5 56.5q0 43 -22.5 59.5t-70.5 16.5h-31v43h26q85 0 85 69q0 33 -18.5 50.5t-59.5 17.5q-27 0 -46 -3t-38 -9v36q20 11 48.5 18t59.5 7q61 0 95.5 -26.5t34.5 -77.5q0 -38 -22.5 -62.5t-58.5 -35.5v-2
q19 -3 37 -11t31.5 -20.5t21.5 -31t8 -43.5q0 -56 -41 -88t-113 -32z" />
    <glyph glyph-name="oneeighth" unicode="&#x215b;" horiz-adv-x="851" 
d="M49 282v34l61 10v303l-67 -6v33l117 47h27v-377l61 -10v-34h-199zM596 713h69l-480 -753h-69zM657 -8q-77 0 -117.5 29.5t-40.5 81.5q0 40 27.5 66t64.5 40q-39 18 -57 43.5t-18 61.5q0 46 37 77.5t103 31.5q64 0 102 -26.5t38 -74.5q0 -38 -23.5 -61t-54.5 -37
q46 -17 71.5 -43t25.5 -68q0 -54 -40 -87.5t-118 -33.5zM677 242q20 11 36 29.5t16 47.5q0 34 -21 48t-50 14q-32 0 -51.5 -15.5t-19.5 -40.5q0 -33 21.5 -50.5t68.5 -32.5zM654 34q45 0 66 17.5t21 49.5q0 34 -28.5 52t-84.5 38q-26 -14 -43.5 -34.5t-17.5 -50.5
q0 -35 21 -53.5t66 -18.5z" />
    <glyph glyph-name="threeeighths" unicode="&#x215c;" horiz-adv-x="872" 
d="M156 275q-39 0 -69 9t-50 20v37q21 -7 45.5 -11.5t51.5 -4.5q45 0 70.5 18.5t25.5 56.5q0 43 -22.5 59.5t-70.5 16.5h-31v43h26q85 0 85 69q0 33 -18.5 50.5t-59.5 17.5q-27 0 -46 -3t-38 -9v36q20 11 48.5 18t59.5 7q61 0 95.5 -26.5t34.5 -77.5q0 -38 -22.5 -62.5
t-58.5 -35.5v-2q19 -3 37 -11t31.5 -20.5t21.5 -31t8 -43.5q0 -56 -41 -88t-113 -32zM623 713h69l-480 -753h-69zM678 -8q-77 0 -117.5 29.5t-40.5 81.5q0 40 27.5 66t64.5 40q-39 18 -57 43.5t-18 61.5q0 46 37 77.5t103 31.5q64 0 102 -26.5t38 -74.5q0 -38 -23.5 -61
t-54.5 -37q46 -17 71.5 -43t25.5 -68q0 -54 -40 -87.5t-118 -33.5zM698 242q20 11 36 29.5t16 47.5q0 34 -21 48t-50 14q-32 0 -51.5 -15.5t-19.5 -40.5q0 -33 21.5 -50.5t68.5 -32.5zM675 34q45 0 66 17.5t21 49.5q0 34 -28.5 52t-84.5 38q-26 -14 -43.5 -34.5t-17.5 -50.5
q0 -35 21 -53.5t66 -18.5z" />
    <glyph glyph-name="fiveeighths" unicode="&#x215d;" horiz-adv-x="854" 
d="M137 275q-38 0 -65 9t-47 21v37q22 -8 44 -12.5t48 -4.5q46 0 73.5 21t27.5 63q0 41 -26 62.5t-77 21.5q-18 0 -35.5 -2.5l-31.5 -4.5l16 212h219l-6 -60h-170l-8 -102q9 2 22.5 4t29.5 2q70 0 109 -34.5t39 -94.5q0 -62 -42.5 -100t-119.5 -38zM607 713h69l-480 -753
h-69zM660 -8q-77 0 -117.5 29.5t-40.5 81.5q0 40 27.5 66t64.5 40q-39 18 -57 43.5t-18 61.5q0 46 37 77.5t103 31.5q64 0 102 -26.5t38 -74.5q0 -38 -23.5 -61t-54.5 -37q46 -17 71.5 -43t25.5 -68q0 -54 -40 -87.5t-118 -33.5zM680 242q20 11 36 29.5t16 47.5q0 34 -21 48
t-50 14q-32 0 -51.5 -15.5t-19.5 -40.5q0 -33 21.5 -50.5t68.5 -32.5zM657 34q45 0 66 17.5t21 49.5q0 34 -28.5 52t-84.5 38q-26 -14 -43.5 -34.5t-17.5 -50.5q0 -35 21 -53.5t66 -18.5z" />
    <glyph glyph-name="seveneighths" unicode="&#x215e;" horiz-adv-x="823" 
d="M78 282l195 353v3h-183l-17 -46h-39l6 106h281v-51l-158 -365h-85zM563 713h69l-480 -753h-69zM629 -8q-77 0 -117.5 29.5t-40.5 81.5q0 40 27.5 66t64.5 40q-39 18 -57 43.5t-18 61.5q0 46 37 77.5t103 31.5q64 0 102 -26.5t38 -74.5q0 -38 -23.5 -61t-54.5 -37
q46 -17 71.5 -43t25.5 -68q0 -54 -40 -87.5t-118 -33.5zM649 242q20 11 36 29.5t16 47.5q0 34 -21 48t-50 14q-32 0 -51.5 -15.5t-19.5 -40.5q0 -33 21.5 -50.5t68.5 -32.5zM626 34q45 0 66 17.5t21 49.5q0 34 -28.5 52t-84.5 38q-26 -14 -43.5 -34.5t-17.5 -50.5
q0 -35 21 -53.5t66 -18.5z" />
    <glyph glyph-name="minus" unicode="&#x2212;" horiz-adv-x="526" 
d="M58 371h410v-62h-410v62z" />
    <glyph glyph-name="uni24C5" unicode="&#x24c5;" horiz-adv-x="788" 
d="M393 -14q-75 0 -140 28t-112.5 77t-74.5 114t-27 139t27 139t74.5 113t112.5 76t140 28t140 -28t113 -76t75.5 -113t27.5 -139t-27.5 -139t-75.5 -114t-113 -77t-140 -28zM393 27q67 0 123 25t96 68t62 101t22 123t-22 122.5t-62 100.5t-96 68t-123 25q-68 0 -123.5 -25
t-95.5 -68t-62 -100.5t-22 -122.5t22 -123t62 -101t95.5 -68t123.5 -25zM247 185l44 12v295l-44 9v31h147q81 0 118.5 -29t37.5 -79q0 -29 -9.5 -49.5t-26 -34t-38.5 -20t-46 -6.5q-28 0 -40 5v32q5 -1 10 -1h11q37 0 51 16.5t14 54.5t-17 54.5t-59 16.5h-35v-295l52 -12
v-31h-170v31z" />
    <glyph glyph-name="f_f" unicode="&#xfb00;" horiz-adv-x="609" 
d="M20 34l74 16v404h-71v35l71 25v62q0 43 13 74t35 50.5t50.5 28.5t60.5 9t54 -7t35 -14v-45q-11 2 -25 4t-37 2q-44 0 -69 -24t-25 -90v-51h206v59q0 48 13.5 81.5t36.5 54.5t53.5 30.5t65.5 9.5q39 0 62.5 -7.5t37.5 -15.5v-45q-14 3 -31 5.5t-42 2.5t-44 -5.5
t-32.5 -19.5t-20.5 -37.5t-7 -59.5v-53h125v-59h-125v-404l88 -16v-34h-250v34l70 16v404h-206v-404l69 -16v-34h-235v34z" />
    <glyph glyph-name="f_i" unicode="&#xfb01;" horiz-adv-x="572" 
d="M20 34l74 16v404h-71v35l71 25v79q0 40 12.5 69t33.5 48t49.5 28.5t60.5 9.5q28 0 46.5 -6.5t28.5 -13.5v-45q-9 2 -20.5 3.5t-29.5 1.5q-43 0 -66 -23t-23 -82v-70h287l11 -6v-457l75 -16v-34h-237v34l70 16v404h-206v-404l69 -16v-34h-235v34zM434 605q-23 0 -40 17
t-17 39q0 23 17 39.5t40 16.5q24 0 40.5 -16.5t16.5 -39.5q0 -22 -16.5 -39t-40.5 -17z" />
    <glyph glyph-name="f_l" unicode="&#xfb02;" horiz-adv-x="572" 
d="M322 34l70 16v621q-25 8 -46.5 12.5t-50.5 4.5q-54 0 -81.5 -24.5t-27.5 -92.5v-58h125v-59h-125v-404l69 -16v-34h-235v34l74 16v404h-71v35l71 25v69q0 45 15.5 76.5t41.5 51t58.5 28.5t67.5 9q43 0 79 -11t62 -22l54 32l12 -6v-691l75 -16v-34h-237v34z" />
    <glyph glyph-name="f_f_i" unicode="&#xfb03;" horiz-adv-x="870" 
d="M20 34l74 16v404h-71v35l71 25v62q0 43 13 74t35 50.5t50.5 28.5t60.5 9t54 -7t35 -14v-45q-11 2 -25 4t-37 2q-44 0 -69 -24t-25 -90v-51h206v80q0 40 12.5 69t33.5 48t49.5 28.5t60.5 9.5q28 0 46.5 -6.5t28.5 -13.5v-45q-9 2 -20.5 3.5t-29.5 1.5q-43 0 -66 -23
t-23 -82v-70h287l11 -6v-457l75 -16v-34h-237v34l70 16v404h-206v-404l69 -16v-34h-231v34l70 16v404h-206v-404l69 -16v-34h-235v34zM732 605q-23 0 -40 17t-17 39q0 23 17 39.5t40 16.5q24 0 40.5 -16.5t16.5 -39.5q0 -22 -16.5 -39t-40.5 -17z" />
    <glyph glyph-name="f_f_l" unicode="&#xfb04;" horiz-adv-x="870" 
d="M20 34l74 16v404h-71v35l71 25v62q0 43 13 74t35 50.5t50.5 28.5t60.5 9t54 -7t35 -14v-45q-11 2 -25 4t-37 2q-44 0 -69 -24t-25 -90v-51h206v70q0 45 15.5 76.5t41.5 51t58.5 28.5t67.5 9q43 0 79 -11t62 -22l54 32l12 -6v-691l75 -16v-34h-237v34l70 16v621
q-25 8 -46.5 12.5t-50.5 4.5q-54 0 -81.5 -24.5t-27.5 -92.5v-58h125v-59h-125v-404l69 -16v-34h-231v34l70 16v404h-206v-404l69 -16v-34h-235v34z" />
    <glyph glyph-name="space_uni0326" 
d="M181 -182q8 27 11.5 63.5t3.5 76.5h94q-5 -39 -17.5 -76.5t-34.5 -63.5h-57v0z" />
    <glyph glyph-name="caron.alt" 
d="M211 576l15 166l85 -16l-59 -157z" />
    <glyph glyph-name="space_uni0326.alt" 
d="M302 746q-8 -27 -11.5 -63.5t-3.5 -76.5h-94q5 39 17.5 76.5t34.5 63.5h57v0z" />
    <glyph glyph-name="acute.pl" 
d="M237 588l63 156l80 -47l-103 -128z" />
    <glyph glyph-name="grave.uc" 
d="M118 794l36 76l186 -106l-16 -36z" />
    <glyph glyph-name="dieresis.uc" 
d="M161 737q-22 0 -38 16.5t-16 37.5q0 23 16 38.5t38 15.5q23 0 39 -15.5t16 -38.5q0 -21 -16 -37.5t-39 -16.5zM327 737q-23 0 -39 16.5t-16 37.5q0 23 16 38.5t39 15.5t38.5 -15.5t15.5 -38.5q0 -21 -15.5 -37.5t-38.5 -16.5z" />
    <glyph glyph-name="macron.uc" 
d="M122 817h244v-62h-244v62z" />
    <glyph glyph-name="acute.uc" 
d="M164 728l-16 36l186 106l36 -76z" />
    <glyph glyph-name="circumflex.uc" 
d="M102 763l119 98h46l119 -98l-17 -31l-125 55l-125 -55z" />
    <glyph glyph-name="caron.uc" 
d="M386 838l-119 -98h-46l-119 98l17 31l125 -55l125 55z" />
    <glyph glyph-name="breve.uc" 
d="M269 736q-57 0 -91 33t-39 81h57q7 -21 25 -33.5t48 -12.5t47.5 12.5t24.5 33.5h57q-5 -48 -39 -81t-90 -33z" />
    <glyph glyph-name="dotaccent.uc" 
d="M244 738q-23 0 -40 17t-17 39q0 23 17 39.5t40 16.5q24 0 40.5 -16.5t16.5 -39.5q0 -22 -16.5 -39t-40.5 -17z" />
    <glyph glyph-name="ring.uc" 
d="M244 723q-40 0 -66.5 26t-26.5 62q0 37 26.5 63t66.5 26t66.5 -26t26.5 -63q0 -36 -26.5 -62t-66.5 -26zM244 762q22 0 35.5 13.5t13.5 35.5t-13.5 36t-35.5 14t-35.5 -14t-13.5 -36t13.5 -35.5t35.5 -13.5z" />
    <glyph glyph-name="tilde.uc" 
d="M94 754q18 45 42 69t56 24q16 0 31 -5.5t28.5 -11.5t25.5 -11.5t23 -5.5q15 0 27.5 9t26.5 32l40 -18q-18 -45 -42 -69t-56 -24q-16 0 -31 5.5t-28.5 11.5t-26 11.5t-22.5 5.5q-15 0 -27.5 -9t-26.5 -32z" />
    <glyph glyph-name="hungarumlaut.uc" 
d="M289 756l88 126l65 -47l-123 -102zM129 756l88 126l65 -47l-123 -102z" />
    <glyph glyph-name="acute.ucpl" 
d="M238 747l61 145l80 -46l-93 -118z" />
    <glyph glyph-name="Cacute.pl" horiz-adv-x="603" 
d="M351 -12q-72 0 -131.5 19.5t-102 61.5t-66 108.5t-23.5 160.5q0 103 28.5 173.5t76 113.5t108.5 61.5t126 18.5q63 0 111 -7.5t80 -18.5l5 -169h-46l-41 114q-19 8 -52 16.5t-69 8.5q-112 0 -166.5 -76.5t-54.5 -214.5q0 -152 54 -232.5t177 -80.5q36 0 64.5 8t50.5 20
l41 124h48l-6 -174q-38 -16 -88 -25.5t-124 -9.5zM313 747l61 145l80 -46l-93 -118z" />
    <glyph glyph-name="Nacute.pl" horiz-adv-x="707" 
d="M20 39l89 20v574l-89 19v41h222l302 -516h5v455l-88 20v41h236v-40l-79 -20v-633h-79l-356 608h-4v-548l89 -20v-40h-248v39zM334 747l61 145l80 -46l-93 -118z" />
    <glyph glyph-name="Oacute.pl" horiz-adv-x="682" 
d="M340 -12q-65 0 -122 23.5t-99 69t-66.5 112.5t-24.5 154q0 93 27.5 160.5t72 111.5t101 65t114.5 21q64 0 121 -23t99 -68t66.5 -111.5t24.5 -153.5q0 -93 -27.5 -161t-71.5 -112.5t-100.5 -66t-114.5 -21.5zM342 45q52 0 91 22t64.5 61t38 92.5t12.5 116.5
q0 152 -51.5 232t-157.5 80q-53 0 -91.5 -22t-64 -61.5t-37.5 -93t-12 -116.5q0 -69 11 -126.5t35.5 -98.5t64 -63.5t97.5 -22.5zM298 747l61 145l80 -46l-93 -118z" />
    <glyph glyph-name="Sacute.pl" horiz-adv-x="519" 
d="M248 -12q-61 0 -109.5 10t-85.5 24l-7 158h48l32 -102q28 -15 58 -23.5t74 -8.5q35 0 61.5 10t44 26.5t26.5 38.5t9 47q0 27 -8.5 47t-25 36t-39.5 28.5t-53 24.5l-84 36q-58 24 -94.5 66t-36.5 117q0 37 13 70.5t40 58.5t68 39.5t97 14.5q60 0 101 -7.5t70 -17.5l7 -148
h-47l-27 89q-14 8 -39.5 17t-72.5 9q-26 0 -49 -6t-40 -19t-27 -32t-10 -45q0 -45 25.5 -72t78.5 -49l84 -35q33 -14 62 -30t50.5 -38t34.5 -52t13 -73q0 -41 -13.5 -78.5t-43 -66.5t-75.5 -46.5t-110 -17.5zM238 747l61 145l80 -46l-93 -118z" />
    <glyph glyph-name="Zacute.pl" horiz-adv-x="530" 
d="M11 46l384 586v4h-273l-43 -132h-49l10 189h476v-46l-385 -586v-4h297l44 132h48l-10 -189h-499v46zM245 747l61 145l80 -46l-93 -118z" />
    <glyph glyph-name="cacute.pl" horiz-adv-x="452" 
d="M273 -12q-60 0 -106 18.5t-77.5 53t-48 83.5t-16.5 109q0 73 21.5 124.5t58 84t85.5 47.5t104 15q36 0 70.5 -5.5t62.5 -14.5v-129h-52l-20 85q-12 4 -26.5 6.5t-45.5 2.5q-75 0 -119 -50.5t-44 -154.5q0 -59 14 -99t38.5 -64.5t57 -35t69.5 -10.5q52 0 86 8.5t52 17.5
v-46q-25 -17 -64 -31.5t-100 -14.5zM239 588l63 156l80 -47l-103 -128z" />
    <glyph glyph-name="idotaccent" horiz-adv-x="269" 
d="M15 34l74 16v393l-80 16v38l161 24l11 -6v-465l75 -16v-34h-241v34zM131 605q-23 0 -40 17t-17 39q0 23 17 39.5t40 16.5q24 0 40.5 -16.5t16.5 -39.5q0 -22 -16.5 -39t-40.5 -17z" />
    <glyph glyph-name="nacute.pl" horiz-adv-x="582" 
d="M14 34l75 16v393l-75 16v38l151 24l11 -6v-45h6q38 22 81.5 37.5t90.5 15.5q72 0 108 -30.5t36 -106.5v-336l75 -16v-34h-240v34l73 16v312q0 53 -26.5 71.5t-80.5 18.5q-32 0 -60.5 -6.5t-57.5 -16.5v-379l73 -16v-34h-240v34zM249 588l63 156l80 -47l-103 -128z" />
    <glyph glyph-name="oacute.pl" horiz-adv-x="541" 
d="M272 -13q-56 0 -101.5 19t-77.5 53.5t-50 84t-18 109.5t19.5 110t52.5 85.5t77.5 55t94.5 19.5q55 0 100.5 -19t78 -53.5t50.5 -83.5t18 -109t-19.5 -110t-52.5 -86t-77.5 -55.5t-94.5 -19.5zM273 42q28 0 54.5 10.5t47 34.5t33 64t12.5 99q0 61 -13 103t-34.5 67.5
t-49 36.5t-55.5 11t-54.5 -10.5t-47 -34.5t-33 -64t-12.5 -99q0 -61 13 -102.5t34 -67t48.5 -37t56.5 -11.5zM237 588l63 156l80 -47l-103 -128z" />
    <glyph glyph-name="sacute.pl" horiz-adv-x="418" 
d="M193 -13q-42 0 -83.5 8.5t-75.5 19.5l-8 138h48l27 -89q14 -8 39 -15t60 -7q48 0 78.5 19t30.5 59q0 19 -5 33t-16.5 24t-30 18t-45.5 17l-55 18q-60 20 -92.5 53.5t-32.5 90.5q0 30 11.5 57t35 47t58 32t80.5 12q43 0 79.5 -5.5t62.5 -13.5v-130h-45l-24 78
q-13 8 -32 12.5t-50 4.5q-42 0 -69.5 -16t-27.5 -56q0 -33 21.5 -52t77.5 -36l55 -18q70 -23 98.5 -57t28.5 -88q0 -33 -12.5 -61.5t-37.5 -50t-62.5 -34t-86.5 -12.5zM178 588l63 156l80 -47l-103 -128z" />
    <glyph glyph-name="zacute.pl" horiz-adv-x="472" 
d="M27 48l299 411v4h-204l-30 -111h-47l8 161h381v-46l-299 -413v-4h216l37 122h48l-13 -172h-396v48zM214 588l63 156l80 -47l-103 -128z" />
    <glyph glyph-name="f_b" horiz-adv-x="871" 
d="M483 470h5q31 22 66.5 37.5t88.5 15.5q36 0 72 -11t64 -38.5t45.5 -75.5t17.5 -122q0 -71 -19 -125t-53.5 -90t-83.5 -54.5t-108 -18.5q-60 0 -107 11.5t-79 25.5v646q-25 8 -46.5 12.5t-50.5 4.5q-54 0 -81.5 -24.5t-27.5 -92.5v-58h125v-59h-125v-404l88 -16v-34h-254
v34l74 16v404h-71v35l71 25v69q0 45 15.5 76.5t41.5 51t58.5 28.5t67.5 9q43 0 79 -11t62 -22l53 32l12 -6v-271zM589 41q35 0 64 11t50 36t32.5 66.5t11.5 103.5q0 54 -10 91t-29.5 60t-47.5 33t-64 10q-35 0 -65.5 -8.5t-47.5 -16.5v-355q16 -11 38.5 -21t67.5 -10z" />
    <glyph glyph-name="f_f_b" horiz-adv-x="1169" 
d="M781 470h5q31 22 66.5 37.5t88.5 15.5q36 0 72 -11t64 -38.5t45.5 -75.5t17.5 -122q0 -71 -19 -125t-53.5 -90t-83.5 -54.5t-108 -18.5q-60 0 -107 11.5t-79 25.5v646q-25 8 -46.5 12.5t-50.5 4.5q-54 0 -81.5 -24.5t-27.5 -92.5v-58h125v-59h-125v-404l88 -16v-34h-250
v34l70 16v404h-206v-404l69 -16v-34h-235v34l74 16v404h-71v35l71 25v62q0 43 13 74t35 50.5t50.5 28.5t60.5 9t54 -7t35 -14v-45q-11 2 -25 4t-37 2q-44 0 -69 -24t-25 -90v-51h206v70q0 45 15.5 76.5t41.5 51t58.5 28.5t67.5 9q43 0 79 -11t62 -22l53 32l12 -6v-271z
M887 41q35 0 64 11t50 36t32.5 66.5t11.5 103.5q0 54 -10 91t-29.5 60t-47.5 33t-64 10q-35 0 -65.5 -8.5t-47.5 -16.5v-355q16 -11 38.5 -21t67.5 -10z" />
    <glyph glyph-name="f_f_h" horiz-adv-x="1181" 
d="M782 472h6q38 22 79 36.5t88 14.5q72 0 108 -30.5t36 -106.5v-336l75 -16v-34h-240v34l73 16v312q0 53 -26.5 72t-80.5 19q-32 0 -60.5 -7t-57.5 -17v-379l73 -16v-34h-235v34l70 16v621q-25 8 -46.5 12.5t-50.5 4.5q-54 0 -81.5 -24.5t-27.5 -92.5v-58h125v-59h-125
v-404l69 -16v-34h-231v34l70 16v404h-206v-404l69 -16v-34h-235v34l74 16v404h-71v35l71 25v62q0 43 13 74t35 50.5t50.5 28.5t60.5 9t54 -7t35 -14v-45q-11 2 -25 4t-37 2q-44 0 -69 -24t-25 -90v-51h206v70q0 45 15.5 76.5t41.5 51t58.5 28.5t67.5 9q43 0 79 -11t62 -22
l54 32l12 -6v-269z" />
    <glyph glyph-name="f_f_j" horiz-adv-x="856" 
d="M782 -56q0 -68 -39.5 -104.5t-113.5 -36.5q-19 0 -37.5 4t-36.5 11v42q11 -2 23 -2.5t22 -0.5q18 0 34.5 4t29 15t19.5 29.5t7 48.5v500h-206v-404l88 -16v-34h-250v34l70 16v404h-206v-404l69 -16v-34h-235v34l74 16v404h-71v35l71 25v62q0 43 13 74t35 50.5t50.5 28.5
t60.5 9t54 -7t35 -14v-45q-11 2 -25 4t-37 2q-44 0 -69 -24t-25 -90v-51h206v80q0 40 12.5 69t33.5 48t49.5 28.5t60.5 9.5q28 0 46.5 -6.5t28.5 -13.5v-45q-9 2 -20.5 3.5t-29.5 1.5q-43 0 -66 -23t-23 -82v-70h287l11 -6v-563zM732 605q-23 0 -40 17t-17 39q0 23 17 39.5
t40 16.5q24 0 40.5 -16.5t16.5 -39.5q0 -22 -16.5 -39t-40.5 -17z" />
    <glyph glyph-name="f_f_k" horiz-adv-x="1130" 
d="M782 49l77 -15v-34h-239v34l70 16v621q-25 8 -46.5 12.5t-50.5 4.5q-54 0 -81.5 -24.5t-27.5 -92.5v-58h125v-59h-125v-404l69 -16v-34h-231v34l70 16v404h-206v-404l69 -16v-34h-235v34l74 16v404h-71v35l71 25v62q0 43 13 74t35 50.5t50.5 28.5t60.5 9t54 -7t35 -14
v-45q-11 2 -25 4t-37 2q-44 0 -69 -24t-25 -90v-51h206v70q0 45 15.5 76.5t41.5 51t58.5 28.5t67.5 9q43 0 79 -11t62 -22l54 32l12 -6v-692zM815 257v14l151 191l-60 15v36h202v-36l-73 -15l-141 -166l171 -246l65 -16v-34h-136z" />
    <glyph glyph-name="f_h" horiz-adv-x="883" 
d="M484 472h6q38 22 79 36.5t88 14.5q72 0 108 -30.5t36 -106.5v-336l75 -16v-34h-240v34l73 16v312q0 53 -26.5 72t-80.5 19q-32 0 -60.5 -7t-57.5 -17v-379l73 -16v-34h-235v34l70 16v621q-25 8 -46.5 12.5t-50.5 4.5q-54 0 -81.5 -24.5t-27.5 -92.5v-58h125v-59h-125
v-404l69 -16v-34h-235v34l74 16v404h-71v35l71 25v69q0 45 15.5 76.5t41.5 51t58.5 28.5t67.5 9q43 0 79 -11t62 -22l54 32l12 -6v-269z" />
    <glyph glyph-name="f_j" horiz-adv-x="558" 
d="M484 -56q0 -68 -39.5 -104.5t-113.5 -36.5q-19 0 -37.5 4t-36.5 11v42q11 -2 23 -2.5t22 -0.5q18 0 34.5 4t29 15t19.5 29.5t7 48.5v500h-206v-404l88 -16v-34h-254v34l74 16v404h-71v35l71 25v79q0 40 12.5 69t33.5 48t49.5 28.5t60.5 9.5q28 0 46.5 -6.5t28.5 -13.5
v-45q-9 2 -20.5 3.5t-29.5 1.5q-43 0 -66 -23t-23 -82v-70h287l11 -6v-563zM434 605q-23 0 -40 17t-17 39q0 23 17 39.5t40 16.5q24 0 40.5 -16.5t16.5 -39.5q0 -22 -16.5 -39t-40.5 -17z" />
    <glyph glyph-name="f_k" horiz-adv-x="832" 
d="M484 49l77 -15v-34h-239v34l70 16v621q-25 8 -46.5 12.5t-50.5 4.5q-54 0 -81.5 -24.5t-27.5 -92.5v-58h125v-59h-125v-404l69 -16v-34h-235v34l74 16v404h-71v35l71 25v69q0 45 15.5 76.5t41.5 51t58.5 28.5t67.5 9q43 0 79 -11t62 -22l54 32l12 -6v-692zM517 257v14
l151 191l-60 15v36h202v-36l-73 -15l-141 -166l171 -246l65 -16v-34h-136z" />
    <glyph glyph-name="dollar.old" horiz-adv-x="490" 
d="M168 -108l11 99q-42 3 -75.5 10.5t-60.5 18.5l-7 143h46l31 -94q17 -8 34.5 -14t37.5 -9l29 253l-36 15q-27 11 -51.5 26t-43 35.5t-29.5 47.5t-11 62q0 36 12.5 67.5t38.5 54t65.5 35.5t93.5 13h1l8 64h57l-8 -68q37 -5 62.5 -12.5t44.5 -13.5l7 -125h-46l-26 82
q-8 3 -19.5 7t-28.5 7l-26 -224l24 -9q30 -12 58.5 -27.5t50 -36.5t34.5 -49.5t13 -67.5t-12.5 -73.5t-39.5 -60.5t-69 -42t-102 -17l-11 -97h-57zM373 157q0 48 -28 74t-77 46l-26 -234q68 2 99.5 32.5t31.5 81.5zM123 505q0 -44 26.5 -67t74.5 -43l1 -1l23 207h-3
q-53 0 -87.5 -24t-34.5 -72z" />
    <glyph glyph-name="Euro.old" horiz-adv-x="603" 
d="M27 229v50h74q-1 11 -1 21.5v21.5v19t1 18h-74v50h79q12 68 40.5 115t68 76t86.5 42t97 13q48 0 84.5 -7.5t68.5 -18.5l5 -158h-43l-41 109q-18 10 -38 15.5t-48 5.5q-82 0 -128 -50t-57 -142h215v-50h-219v-19q0 -17 0.5 -32t1.5 -29h217v-50h-211q16 -92 64 -134.5
t133 -42.5q51 0 94.5 12t63.5 20v-44q-25 -17 -69 -34.5t-107 -17.5q-54 0 -100 14.5t-82 44.5t-60.5 75t-34.5 107h-80z" />
    <glyph glyph-name="sterling.old" horiz-adv-x="520" 
d="M64 293v59h65v77q0 61 19 104t49 70t67.5 39.5t74.5 12.5q56 0 88 -12.5t54 -29.5v-47q-29 11 -54.5 16t-62.5 5q-26 0 -51 -7t-45 -25t-33 -49.5t-15 -80.5l-3 -73h177v-59h-179l-1 -36q-2 -38 -7.5 -64t-14.5 -46t-22 -35.5t-28 -30.5v-2h345l-10 -79h-438v47
q45 29 67.5 71t22.5 114v61h-65z" />
    <glyph glyph-name="yen.old" horiz-adv-x="567" 
d="M72 322h150l-167 261l-51 19v41h226v-41l-70 -19l145 -236h4l136 236l-71 19v41h189v-41l-50 -19l-156 -261h152v-50h-170v-65h170v-50h-170v-97l86 -19v-41h-271v41l88 19v97h-170v50h170v65h-170v50z" />
    <glyph glyph-name="zero.old" horiz-adv-x="598" 
d="M301 -13q-55 0 -103 18t-84 55t-57 94.5t-21 136.5q0 82 21.5 141t57.5 97.5t83.5 57t100.5 18.5q52 0 99.5 -17.5t84 -55t58 -95.5t21.5 -139q0 -80 -20.5 -139t-56 -97t-83 -56.5t-101.5 -18.5zM301 42q79 0 120.5 58.5t41.5 190.5q0 130 -42 194.5t-122 64.5
q-81 0 -122.5 -61.5t-41.5 -190.5q0 -130 42.5 -193t123.5 -63z" />
    <glyph glyph-name="one.old" horiz-adv-x="378" 
d="M43 38l103 17v449l-113 -11v38l187 71h26v-547l103 -17v-38h-306v38z" />
    <glyph glyph-name="two.old" horiz-adv-x="474" 
d="M10 45l161 140q72 63 112.5 119.5t40.5 111.5q0 58 -33 89t-110 31q-43 0 -78.5 -9t-69.5 -21v46q35 22 86 37.5t104 15.5q92 0 147.5 -44.5t55.5 -132.5q0 -39 -15 -73.5t-43 -67.5t-69 -67t-92 -73l-89 -68v-2h248l46 85h39l-12 -162h-429v45z" />
    <glyph glyph-name="three.old" horiz-adv-x="476" 
d="M204 -111q-60 0 -108.5 14t-82.5 33v45q38 -14 78 -22t84 -8q76 0 122.5 36.5t46.5 100.5q0 82 -40.5 113.5t-126.5 31.5h-44v57h36q74 0 112.5 34t38.5 96q0 61 -31.5 92t-103.5 31q-45 0 -77.5 -6.5t-65.5 -17.5v45q35 18 79 29.5t92 11.5q96 0 148 -44t52 -127
q0 -63 -33.5 -105.5t-98.5 -59.5v-4q35 -6 64.5 -19t50.5 -35t33 -52.5t12 -71.5q0 -45 -17 -81.5t-47.5 -62.5t-74.5 -40t-98 -14z" />
    <glyph glyph-name="four.old" horiz-adv-x="566" 
d="M325 89h-311v56l330 448h75v-443h112v-61h-112v-189h-94v189zM325 150v317h-4l-233 -314v-3h237z" />
    <glyph glyph-name="five.old" horiz-adv-x="481" 
d="M194 -111q-56 0 -97 13.5t-76 33.5v45q38 -14 73 -22.5t77 -8.5q39 0 71.5 10.5t56.5 31t37 50t13 67.5q0 81 -41.5 118t-132.5 37q-29 0 -59 -4.5t-53 -8.5l26 342h335l-8 -80h-272l-15 -193q17 4 39 7t51 3q114 0 170.5 -58t56.5 -155q0 -52 -18.5 -94t-51.5 -72
t-79.5 -46t-102.5 -16z" />
    <glyph glyph-name="six.old" horiz-adv-x="542" 
d="M280 -13q-57 0 -102.5 23t-77 65.5t-48 102.5t-16.5 134q0 105 27 179.5t71.5 122t101 69.5t115.5 22q45 0 80.5 -9.5t58.5 -24.5v-46q-21 9 -55.5 14.5t-69.5 5.5q-41 0 -80 -13t-70.5 -44.5t-53 -85t-27.5 -135.5q32 23 76.5 40.5t100.5 17.5q42 0 78.5 -14t63.5 -40.5
t42 -65.5t15 -88q0 -48 -15.5 -90t-44.5 -73t-72 -49t-98 -18zM279 40q69 0 101 46.5t32 121.5q0 41 -10 71t-28 49t-42.5 28t-53.5 9q-48 0 -82 -12.5t-63 -33.5v-15q0 -53 6.5 -101t23 -84t45 -57.5t71.5 -21.5z" />
    <glyph glyph-name="seven.old" horiz-adv-x="472" 
d="M395 509v4h-312l-29 -76h-42l9 156h432v-69l-258 -624h-105z" />
    <glyph glyph-name="eight.old" horiz-adv-x="558" 
d="M282 -13q-114 0 -179 48t-65 135q0 35 13.5 64t35 51.5t48 39t52.5 25.5q-63 31 -92 74.5t-29 103.5q0 36 14.5 68.5t41.5 56.5t65.5 38t86.5 14t87.5 -11t68 -32.5t44 -52.5t15.5 -71q0 -34 -10.5 -59.5t-28 -45t-40.5 -34t-47 -25.5q74 -31 115.5 -76t41.5 -114
q0 -42 -15 -78t-45 -62.5t-74.5 -41.5t-103.5 -15zM279 39q78 0 115 35t37 92q0 32 -12.5 54.5t-37 40.5t-60.5 34t-84 34q-52 -23 -83 -60.5t-31 -93.5q0 -64 39 -100t117 -36zM310 394q42 22 69 53.5t27 85.5q0 32 -11 54.5t-29 37t-41.5 21.5t-48.5 7q-57 0 -92 -31
t-35 -79q0 -30 10 -51.5t30 -38.5t50 -31t71 -28z" />
    <glyph glyph-name="nine.old" horiz-adv-x="542" 
d="M191 -113q-45 0 -80.5 9.5t-58.5 24.5v46q21 -9 55.5 -14.5t69.5 -5.5q45 0 84.5 13t70 44.5t50.5 85t26 135.5q-32 -23 -76.5 -40.5t-100.5 -17.5q-42 0 -78.5 14t-63.5 40.5t-42 65t-15 88.5q0 48 15.5 90t44.5 73t72 49t98 18q57 0 102.5 -23t77 -65.5t48 -102.5
t16.5 -134q0 -105 -24.5 -179.5t-67 -122t-100 -69.5t-123.5 -22zM264 227q48 0 82 12.5t63 33.5v15q0 53 -6.5 101t-23 84t-45 57.5t-71.5 21.5q-69 0 -101 -46.5t-32 -121.5q0 -41 10 -71t28 -49t42.5 -28t53.5 -9z" />
    <glyph glyph-name="percent.old" horiz-adv-x="789" 
d="M186 287q-33 0 -62 11t-50.5 32.5t-34 53.5t-12.5 74q0 44 13 77t35 55.5t51 33.5t61 11q31 0 60 -11t51 -33t35 -54t13 -75t-12.5 -75.5t-34.5 -54.5t-51 -33.5t-62 -11.5zM602 -9q-33 0 -62 11t-50.5 32.5t-34 53.5t-12.5 74q0 44 13 77t35 55.5t51 33.5t61 11
q31 0 60 -11t51 -33t35 -54t13 -75t-12.5 -75.5t-34.5 -54.5t-51 -33.5t-62 -11.5zM587 643h69l-460 -673h-69zM602 37q42 0 60.5 31t18.5 94t-18 97.5t-60 34.5q-43 0 -61.5 -33t-18.5 -95q0 -61 18.5 -95t60.5 -34zM186 333q42 0 60.5 31t18.5 94t-18 97.5t-60 34.5
q-43 0 -61.5 -33t-18.5 -95q0 -61 18.5 -95t60.5 -34z" />
    <glyph glyph-name="perthousand.old" horiz-adv-x="1148" 
d="M186 287q-33 0 -62 11t-50.5 32.5t-34 53.5t-12.5 74q0 44 13 77t35 55.5t51 33.5t61 11q31 0 60 -11t51 -33t35 -54t13 -75t-12.5 -75.5t-34.5 -54.5t-51 -33.5t-62 -11.5zM594 -9q-33 0 -62 11t-50.5 32.5t-34 53.5t-12.5 74q0 44 13 77t35 55.5t51 33.5t61 11
q31 0 60 -11t51 -33t35 -54t13 -75t-12.5 -75.5t-34.5 -54.5t-51 -33.5t-62 -11.5zM961 -9q-33 0 -62 11t-50.5 32.5t-34 53.5t-12.5 74q0 44 13 77t35 55.5t51 33.5t61 11q31 0 60 -11t51 -33t35 -54t13 -75t-12.5 -75.5t-34.5 -54.5t-51 -33.5t-62 -11.5zM583 643h69
l-460 -673h-69zM594 37q42 0 60.5 31t18.5 94t-18 97.5t-60 34.5q-43 0 -61.5 -33t-18.5 -95q0 -61 18.5 -95t60.5 -34zM961 37q42 0 60.5 31t18.5 94t-18 97.5t-60 34.5q-43 0 -61.5 -33t-18.5 -95q0 -61 18.5 -95t60.5 -34zM186 333q42 0 60.5 31t18.5 94t-18 97.5
t-60 34.5q-43 0 -61.5 -33t-18.5 -95q0 -61 18.5 -95t60.5 -34z" />
    <glyph glyph-name="plus.old" horiz-adv-x="526" 
d="M296 522v-179h172v-62h-172v-179h-66v179h-172v62h172v179h66z" />
    <glyph glyph-name="minus.old" horiz-adv-x="526" 
d="M58 343h410v-62h-410v62z" />
    <glyph glyph-name="multiply.old" horiz-adv-x="526" 
d="M71 163l148 148l-148 149l44 44l148 -149l148 148l44 -44l-148 -148l149 -148l-44 -44l-149 148l-148 -148z" />
    <glyph glyph-name="divide.old" horiz-adv-x="526" 
d="M58 343h410v-62h-410v62zM262 87q-26 0 -44 18.5t-18 42.5q0 26 18 44t44 18t44.5 -18t18.5 -44q0 -24 -18.5 -42.5t-44.5 -18.5zM262 414q-26 0 -44 18.5t-18 42.5q0 26 18 44t44 18t44.5 -18t18.5 -44q0 -24 -18.5 -42.5t-44.5 -18.5z" />
    <glyph glyph-name="equal.old" horiz-adv-x="516" 
d="M61 398h394v-62h-394v62zM61 228h394v-62h-394v62z" />
    <glyph glyph-name="less.old" horiz-adv-x="506" 
d="M435 512v-71l-294 -129l294 -130v-71l-374 175v51z" />
    <glyph glyph-name="greater.old" horiz-adv-x="506" 
d="M71 111v71l294 129l-294 130v71l374 -175v-51z" />
    <glyph glyph-name="numbersign.old" horiz-adv-x="507" 
d="M64 469h94l27 174h60l-27 -174h116l27 174h60l-27 -174h80v-84h-93l-18 -116h80v-84h-93l-29 -185h-60l29 185h-116l-29 -185h-60l29 185h-81v84h94l18 116h-81v84zM187 269h116l18 116h-116z" />
    <glyph glyph-name="zero.num" horiz-adv-x="416" 
d="M208 274q-37 0 -69 12.5t-55 39t-36.5 66.5t-13.5 95q0 57 14 98t38 67.5t55.5 39.5t67.5 13t67.5 -12.5t55 -38.5t37 -66.5t13.5 -96.5t-13.5 -97t-37 -67.5t-55.5 -39.5t-68 -13zM209 317q48 0 71 41t23 129t-22.5 131.5t-71.5 43.5q-95 0 -95 -171q0 -88 22.5 -131
t72.5 -43z" />
    <glyph glyph-name="one.num" horiz-adv-x="283" 
d="M46 282v34l61 10v303l-67 -6v33l117 47h27v-377l61 -10v-34h-199z" />
    <glyph glyph-name="two.num" horiz-adv-x="340" 
d="M21 282v39l103 101q41 40 66.5 75.5t25.5 76.5q0 36 -20.5 56t-67.5 20q-26 0 -48 -5.5t-42 -12.5v39q23 13 54.5 23.5t66.5 10.5q63 0 100 -30.5t37 -90.5q0 -48 -34.5 -93t-97.5 -96l-67 -55v-1h148l26 53h38l-8 -110h-280z" />
    <glyph glyph-name="three.num" horiz-adv-x="340" 
d="M153 275q-39 0 -69 9t-50 20v37q21 -7 45.5 -11.5t51.5 -4.5q45 0 70.5 18.5t25.5 56.5q0 43 -22.5 59.5t-70.5 16.5h-31v43h26q85 0 85 69q0 33 -18.5 50.5t-59.5 17.5q-27 0 -46 -3t-38 -9v36q20 11 48.5 18t59.5 7q61 0 95.5 -26.5t34.5 -77.5q0 -38 -22.5 -62.5
t-58.5 -35.5v-2q19 -3 37 -11t31.5 -20.5t21.5 -31t8 -43.5q0 -56 -41 -88t-113 -32z" />
    <glyph glyph-name="four.num" horiz-adv-x="384" 
d="M159 282v34l55 10v76h-188v41l199 255h64v-250h62v-46h-62v-76l54 -10v-34h-184zM85 448h129v165h-3l-126 -164v-1z" />
    <glyph glyph-name="five.num" horiz-adv-x="330" 
d="M134 275q-38 0 -65 9t-47 21v37q22 -8 44 -12.5t48 -4.5q46 0 73.5 21t27.5 63q0 41 -26 62.5t-77 21.5q-18 0 -35.5 -2.5l-31.5 -4.5l16 212h219l-6 -60h-170l-8 -102q9 2 22.5 4t29.5 2q70 0 109 -34.5t39 -94.5q0 -62 -42.5 -100t-119.5 -38z" />
    <glyph glyph-name="six.num" horiz-adv-x="384" 
d="M198 274q-77 0 -120 52.5t-43 145.5q0 63 16.5 107.5t44.5 72t63.5 40.5t73.5 13q32 0 55 -6t38 -16v-39q-14 6 -35 8.5t-44 2.5q-24 0 -47 -6.5t-41 -23t-30 -45t-15 -71.5q20 11 47.5 21t59.5 10q57 0 93 -33t36 -92q0 -29 -10 -55t-29.5 -45t-47.5 -30t-65 -11z
M197 317q38 0 57.5 24.5t19.5 67.5q0 46 -22.5 65t-55.5 19q-26 0 -46 -5.5t-36 -15.5v-12q0 -30 4 -56.5t13.5 -45.5t25.5 -30t40 -11z" />
    <glyph glyph-name="seven.num" horiz-adv-x="334" 
d="M75 282l195 353v3h-183l-17 -46h-39l6 106h281v-51l-158 -365h-85z" />
    <glyph glyph-name="eight.num" horiz-adv-x="382" 
d="M191 274q-77 0 -117.5 29.5t-40.5 81.5q0 40 27.5 66t64.5 40q-39 18 -57 43.5t-18 61.5q0 46 37 77.5t103 31.5q64 0 102 -26.5t38 -74.5q0 -38 -23.5 -61t-54.5 -37q46 -17 71.5 -43t25.5 -68q0 -54 -40 -87.5t-118 -33.5zM211 524q20 11 36 29.5t16 47.5q0 34 -21 48
t-50 14q-32 0 -51.5 -15.5t-19.5 -40.5q0 -33 21.5 -50.5t68.5 -32.5zM188 316q45 0 66 17.5t21 49.5q0 34 -28.5 52t-84.5 38q-26 -14 -43.5 -34.5t-17.5 -50.5q0 -35 21 -53.5t66 -18.5z" />
    <glyph glyph-name="nine.num" horiz-adv-x="381" 
d="M146 274q-30 0 -52.5 6.5t-38.5 15.5v39q14 -5 35 -8t42 -3q28 0 52 6.5t42 23t29 44.5t14 72q-19 -11 -47 -21t-61 -10q-57 0 -92.5 33.5t-35.5 92.5q0 29 10 54.5t29.5 44.5t48 30t65.5 11q76 0 118.5 -53.5t42.5 -143.5q0 -62 -14.5 -106t-41 -72.5t-63.5 -42
t-82 -13.5zM188 487q26 0 45 5t36 16v11q0 31 -4 57t-14 45t-25.5 30t-39.5 11q-38 0 -57 -24.5t-19 -67.5q0 -46 21.5 -64.5t56.5 -18.5z" />
    <glyph glyph-name="zero.den" horiz-adv-x="416" 
d="M208 -8q-37 0 -69 12.5t-55 39t-36.5 66.5t-13.5 95q0 57 14 98t38 67.5t55.5 39.5t67.5 13t67.5 -12.5t55 -38.5t37 -66.5t13.5 -96.5t-13.5 -97t-37 -67.5t-55.5 -39.5t-68 -13zM209 35q48 0 71 41t23 129t-22.5 131.5t-71.5 43.5q-95 0 -95 -171q0 -88 22.5 -131
t72.5 -43z" />
    <glyph glyph-name="one.den" horiz-adv-x="283" 
d="M46 0v34l61 10v303l-67 -6v33l117 47h27v-377l61 -10v-34h-199z" />
    <glyph glyph-name="two.den" horiz-adv-x="340" 
d="M21 0v39l103 101q41 40 66.5 75.5t25.5 76.5q0 36 -20.5 56t-67.5 20q-26 0 -48 -5.5t-42 -12.5v39q23 13 54.5 23.5t66.5 10.5q63 0 100 -30.5t37 -90.5q0 -48 -34.5 -93t-97.5 -96l-67 -55v-1h148l26 53h38l-8 -110h-280z" />
    <glyph glyph-name="three.den" horiz-adv-x="340" 
d="M153 -7q-39 0 -69 9t-50 20v37q21 -7 45.5 -11.5t51.5 -4.5q45 0 70.5 18.5t25.5 56.5q0 43 -22.5 59.5t-70.5 16.5h-31v43h26q85 0 85 69q0 33 -18.5 50.5t-59.5 17.5q-27 0 -46 -3t-38 -9v36q20 11 48.5 18t59.5 7q61 0 95.5 -26.5t34.5 -77.5q0 -38 -22.5 -62.5
t-58.5 -35.5v-2q19 -3 37 -11t31.5 -20.5t21.5 -31t8 -43.5q0 -56 -41 -88t-113 -32z" />
    <glyph glyph-name="four.den" horiz-adv-x="384" 
d="M159 0v34l55 10v76h-188v41l199 255h64v-250h62v-46h-62v-76l54 -10v-34h-184zM85 166h129v165h-3l-126 -164v-1z" />
    <glyph glyph-name="five.den" horiz-adv-x="330" 
d="M134 -7q-38 0 -65 9t-47 21v37q22 -8 44 -12.5t48 -4.5q46 0 73.5 21t27.5 63q0 41 -26 62.5t-77 21.5q-18 0 -35.5 -2.5l-31.5 -4.5l16 212h219l-6 -60h-170l-8 -102q9 2 22.5 4t29.5 2q70 0 109 -34.5t39 -94.5q0 -62 -42.5 -100t-119.5 -38z" />
    <glyph glyph-name="six.den" horiz-adv-x="384" 
d="M198 -8q-77 0 -120 52.5t-43 145.5q0 63 16.5 107.5t44.5 72t63.5 40.5t73.5 13q32 0 55 -6t38 -16v-39q-14 6 -35 8.5t-44 2.5q-24 0 -47 -6.5t-41 -23t-30 -45t-15 -71.5q20 11 47.5 21t59.5 10q57 0 93 -33t36 -92q0 -29 -10 -55t-29.5 -45t-47.5 -30t-65 -11zM197 35
q38 0 57.5 24.5t19.5 67.5q0 46 -22.5 65t-55.5 19q-26 0 -46 -5.5t-36 -15.5v-12q0 -30 4 -56.5t13.5 -45.5t25.5 -30t40 -11z" />
    <glyph glyph-name="seven.den" horiz-adv-x="334" 
d="M75 0l195 353v3h-183l-17 -46h-39l6 106h281v-51l-158 -365h-85z" />
    <glyph glyph-name="eight.den" horiz-adv-x="382" 
d="M191 -8q-77 0 -117.5 29.5t-40.5 81.5q0 40 27.5 66t64.5 40q-39 18 -57 43.5t-18 61.5q0 46 37 77.5t103 31.5q64 0 102 -26.5t38 -74.5q0 -38 -23.5 -61t-54.5 -37q46 -17 71.5 -43t25.5 -68q0 -54 -40 -87.5t-118 -33.5zM211 242q20 11 36 29.5t16 47.5q0 34 -21 48
t-50 14q-32 0 -51.5 -15.5t-19.5 -40.5q0 -33 21.5 -50.5t68.5 -32.5zM188 34q45 0 66 17.5t21 49.5q0 34 -28.5 52t-84.5 38q-26 -14 -43.5 -34.5t-17.5 -50.5q0 -35 21 -53.5t66 -18.5z" />
    <glyph glyph-name="nine.den" horiz-adv-x="381" 
d="M146 -8q-30 0 -52.5 6.5t-38.5 15.5v39q14 -5 35 -8t42 -3q28 0 52 6.5t42 23t29 44.5t14 72q-19 -11 -47 -21t-61 -10q-57 0 -92.5 33.5t-35.5 92.5q0 29 10 54.5t29.5 44.5t48 30t65.5 11q76 0 118.5 -53.5t42.5 -143.5q0 -62 -14.5 -106t-41 -72.5t-63.5 -42
t-82 -13.5zM188 205q26 0 45 5t36 16v11q0 31 -4 57t-14 45t-25.5 30t-39.5 11q-38 0 -57 -24.5t-19 -67.5q0 -46 21.5 -64.5t56.5 -18.5z" />
    <glyph glyph-name="zero.sub" horiz-adv-x="416" 
d="M208 -128q-37 0 -69 12.5t-55 39t-36.5 66.5t-13.5 95q0 57 14 98t38 67.5t55.5 39.5t67.5 13t67.5 -12.5t55 -38.5t37 -66.5t13.5 -96.5t-13.5 -97t-37 -67.5t-55.5 -39.5t-68 -13zM209 -85q48 0 71 41t23 129t-22.5 131.5t-71.5 43.5q-95 0 -95 -171q0 -88 22.5 -131
t72.5 -43z" />
    <glyph glyph-name="one.sub" horiz-adv-x="283" 
d="M46 -120v34l61 10v303l-67 -6v33l117 47h27v-377l61 -10v-34h-199z" />
    <glyph glyph-name="two.sub" horiz-adv-x="340" 
d="M21 -120v39l103 101q41 40 66.5 75.5t25.5 76.5q0 36 -20.5 56t-67.5 20q-26 0 -48 -5.5t-42 -12.5v39q23 13 54.5 23.5t66.5 10.5q63 0 100 -30.5t37 -90.5q0 -48 -34.5 -93t-97.5 -96l-67 -55v-1h148l26 53h38l-8 -110h-280z" />
    <glyph glyph-name="three.sub" horiz-adv-x="340" 
d="M153 -127q-39 0 -69 9t-50 20v37q21 -7 45.5 -11.5t51.5 -4.5q45 0 70.5 18.5t25.5 56.5q0 43 -22.5 59.5t-70.5 16.5h-31v43h26q85 0 85 69q0 33 -18.5 50.5t-59.5 17.5q-27 0 -46 -3t-38 -9v36q20 11 48.5 18t59.5 7q61 0 95.5 -26.5t34.5 -77.5q0 -38 -22.5 -62.5
t-58.5 -35.5v-2q19 -3 37 -11t31.5 -20.5t21.5 -31t8 -43.5q0 -56 -41 -88t-113 -32z" />
    <glyph glyph-name="four.sub" horiz-adv-x="384" 
d="M159 -120v34l55 10v76h-188v41l199 255h64v-250h62v-46h-62v-76l54 -10v-34h-184zM85 46h129v165h-3l-126 -164v-1z" />
    <glyph glyph-name="five.sub" horiz-adv-x="330" 
d="M134 -127q-38 0 -65 9t-47 21v37q22 -8 44 -12.5t48 -4.5q46 0 73.5 21t27.5 63q0 41 -26 62.5t-77 21.5q-18 0 -35.5 -2.5l-31.5 -4.5l16 212h219l-6 -60h-170l-8 -102q9 2 22.5 4t29.5 2q70 0 109 -34.5t39 -94.5q0 -62 -42.5 -100t-119.5 -38z" />
    <glyph glyph-name="six.sub" horiz-adv-x="384" 
d="M198 -128q-77 0 -120 52.5t-43 145.5q0 63 16.5 107.5t44.5 72t63.5 40.5t73.5 13q32 0 55 -6t38 -16v-39q-14 6 -35 8.5t-44 2.5q-24 0 -47 -6.5t-41 -23t-30 -45t-15 -71.5q20 11 47.5 21t59.5 10q57 0 93 -33t36 -92q0 -29 -10 -55t-29.5 -45t-47.5 -30t-65 -11z
M197 -85q38 0 57.5 24.5t19.5 67.5q0 46 -22.5 65t-55.5 19q-26 0 -46 -5.5t-36 -15.5v-12q0 -30 4 -56.5t13.5 -45.5t25.5 -30t40 -11z" />
    <glyph glyph-name="seven.sub" horiz-adv-x="334" 
d="M75 -120l195 353v3h-183l-17 -46h-39l6 106h281v-51l-158 -365h-85z" />
    <glyph glyph-name="eight.sub" horiz-adv-x="382" 
d="M191 -128q-77 0 -117.5 29.5t-40.5 81.5q0 40 27.5 66t64.5 40q-39 18 -57 43.5t-18 61.5q0 46 37 77.5t103 31.5q64 0 102 -26.5t38 -74.5q0 -38 -23.5 -61t-54.5 -37q46 -17 71.5 -43t25.5 -68q0 -54 -40 -87.5t-118 -33.5zM211 122q20 11 36 29.5t16 47.5q0 34 -21 48
t-50 14q-32 0 -51.5 -15.5t-19.5 -40.5q0 -33 21.5 -50.5t68.5 -32.5zM188 -86q45 0 66 17.5t21 49.5q0 34 -28.5 52t-84.5 38q-26 -14 -43.5 -34.5t-17.5 -50.5q0 -35 21 -53.5t66 -18.5z" />
    <glyph glyph-name="nine.sub" horiz-adv-x="381" 
d="M146 -128q-30 0 -52.5 6.5t-38.5 15.5v39q14 -5 35 -8t42 -3q28 0 52 6.5t42 23t29 44.5t14 72q-19 -11 -47 -21t-61 -10q-57 0 -92.5 33.5t-35.5 92.5q0 29 10 54.5t29.5 44.5t48 30t65.5 11q76 0 118.5 -53.5t42.5 -143.5q0 -62 -14.5 -106t-41 -72.5t-63.5 -42
t-82 -13.5zM188 85q26 0 45 5t36 16v11q0 31 -4 57t-14 45t-25.5 30t-39.5 11q-38 0 -57 -24.5t-19 -67.5q0 -46 21.5 -64.5t56.5 -18.5z" />
    <glyph glyph-name="zero.sup" horiz-adv-x="416" 
d="M208 314q-37 0 -69 12.5t-55 39t-36.5 66.5t-13.5 95q0 57 14 98t38 67.5t55.5 39.5t67.5 13t67.5 -12.5t55 -38.5t37 -66.5t13.5 -96.5t-13.5 -97t-37 -67.5t-55.5 -39.5t-68 -13zM209 357q48 0 71 41t23 129t-22.5 131.5t-71.5 43.5q-95 0 -95 -171q0 -88 22.5 -131
t72.5 -43z" />
    <glyph glyph-name="one.sup" horiz-adv-x="283" 
d="M46 322v34l61 10v303l-67 -6v33l117 47h27v-377l61 -10v-34h-199z" />
    <glyph glyph-name="two.sup" horiz-adv-x="340" 
d="M21 322v39l103 101q41 40 66.5 75.5t25.5 76.5q0 36 -20.5 56t-67.5 20q-26 0 -48 -5.5t-42 -12.5v39q23 13 54.5 23.5t66.5 10.5q63 0 100 -30.5t37 -90.5q0 -48 -34.5 -93t-97.5 -96l-67 -55v-1h148l26 53h38l-8 -110h-280z" />
    <glyph glyph-name="three.sup" horiz-adv-x="340" 
d="M153 315q-39 0 -69 9t-50 20v37q21 -7 45.5 -11.5t51.5 -4.5q45 0 70.5 18.5t25.5 56.5q0 43 -22.5 59.5t-70.5 16.5h-31v43h26q85 0 85 69q0 33 -18.5 50.5t-59.5 17.5q-27 0 -46 -3t-38 -9v36q20 11 48.5 18t59.5 7q61 0 95.5 -26.5t34.5 -77.5q0 -38 -22.5 -62.5
t-58.5 -35.5v-2q19 -3 37 -11t31.5 -20.5t21.5 -31t8 -43.5q0 -56 -41 -88t-113 -32z" />
    <glyph glyph-name="four.sup" horiz-adv-x="384" 
d="M159 322v34l55 10v76h-188v41l199 255h64v-250h62v-46h-62v-76l54 -10v-34h-184zM85 488h129v165h-3l-126 -164v-1z" />
    <glyph glyph-name="five.sup" horiz-adv-x="330" 
d="M134 315q-38 0 -65 9t-47 21v37q22 -8 44 -12.5t48 -4.5q46 0 73.5 21t27.5 63q0 41 -26 62.5t-77 21.5q-18 0 -35.5 -2.5l-31.5 -4.5l16 212h219l-6 -60h-170l-8 -102q9 2 22.5 4t29.5 2q70 0 109 -34.5t39 -94.5q0 -62 -42.5 -100t-119.5 -38z" />
    <glyph glyph-name="six.sup" horiz-adv-x="384" 
d="M198 314q-77 0 -120 52.5t-43 145.5q0 63 16.5 107.5t44.5 72t63.5 40.5t73.5 13q32 0 55 -6t38 -16v-39q-14 6 -35 8.5t-44 2.5q-24 0 -47 -6.5t-41 -23t-30 -45t-15 -71.5q20 11 47.5 21t59.5 10q57 0 93 -33t36 -92q0 -29 -10 -55t-29.5 -45t-47.5 -30t-65 -11z
M197 357q38 0 57.5 24.5t19.5 67.5q0 46 -22.5 65t-55.5 19q-26 0 -46 -5.5t-36 -15.5v-12q0 -30 4 -56.5t13.5 -45.5t25.5 -30t40 -11z" />
    <glyph glyph-name="seven.sup" horiz-adv-x="334" 
d="M75 322l195 353v3h-183l-17 -46h-39l6 106h281v-51l-158 -365h-85z" />
    <glyph glyph-name="eight.sup" horiz-adv-x="382" 
d="M191 314q-77 0 -117.5 29.5t-40.5 81.5q0 40 27.5 66t64.5 40q-39 18 -57 43.5t-18 61.5q0 46 37 77.5t103 31.5q64 0 102 -26.5t38 -74.5q0 -38 -23.5 -61t-54.5 -37q46 -17 71.5 -43t25.5 -68q0 -54 -40 -87.5t-118 -33.5zM211 564q20 11 36 29.5t16 47.5q0 34 -21 48
t-50 14q-32 0 -51.5 -15.5t-19.5 -40.5q0 -33 21.5 -50.5t68.5 -32.5zM188 356q45 0 66 17.5t21 49.5q0 34 -28.5 52t-84.5 38q-26 -14 -43.5 -34.5t-17.5 -50.5q0 -35 21 -53.5t66 -18.5z" />
    <glyph glyph-name="nine.sup" horiz-adv-x="381" 
d="M146 314q-30 0 -52.5 6.5t-38.5 15.5v39q14 -5 35 -8t42 -3q28 0 52 6.5t42 23t29 44.5t14 72q-19 -11 -47 -21t-61 -10q-57 0 -92.5 33.5t-35.5 92.5q0 29 10 54.5t29.5 44.5t48 30t65.5 11q76 0 118.5 -53.5t42.5 -143.5q0 -62 -14.5 -106t-41 -72.5t-63.5 -42
t-82 -13.5zM188 527q26 0 45 5t36 16v11q0 31 -4 57t-14 45t-25.5 30t-39.5 11q-38 0 -57 -24.5t-19 -67.5q0 -46 21.5 -64.5t56.5 -18.5z" />
    <glyph glyph-name="K.alt" horiz-adv-x="658" 
d="M20 41l88 18v575l-88 18v41h279v-41l-91 -18v-314l274 314l-67 18v41h215v-41l-67 -18l-211 -235l227 -339l75 -19v-41h-153l-219 327l-74 -70v-198l91 -18v-41h-279v41z" />
    <glyph glyph-name="P.alt" horiz-adv-x="553" 
d="M20 41l88 19v574l-88 18v41h257q73 0 123.5 -13.5t81.5 -39t44.5 -61t13.5 -80.5q0 -107 -60.5 -158t-176.5 -51q-52 0 -95 8v-238l105 -19v-41h-293v41zM208 346q15 -2 36.5 -3t44.5 -1q43 0 71 9.5t45 28.5t24 47t7 65q0 76 -33.5 109t-105.5 33h-89v-288z" />
    <glyph glyph-name="R.alt" horiz-adv-x="647" 
d="M419 342q31 -6 55.5 -16t40.5 -26.5t24.5 -40.5t8.5 -59v-90q0 -38 17 -50t47 -12h27v-39q-11 -7 -31 -12.5t-46 -5.5q-23 0 -43.5 5t-36 18.5t-25 37t-9.5 59.5v96q0 28 -5.5 48t-20.5 32.5t-41.5 18t-67.5 5.5h-103v-251l86 -19v-41h-276v41l90 19v573l-87 19v41h270
q136 0 196 -47.5t60 -136.5q0 -70 -36.5 -109t-93.5 -54v-4zM318 362q74 0 101.5 38.5t27.5 106.5q0 69 -32.5 98t-107.5 29h-97v-272h108z" />
    <glyph glyph-name="a.alt" horiz-adv-x="473" 
d="M189 465q-13 0 -28.5 -1.5t-31.5 -4.5l-21 -85h-54v121q15 5 35 10t43.5 9t49 6.5t49.5 2.5q88 0 126.5 -36.5t38.5 -114.5v-295q0 -24 12.5 -31t35.5 -7h25v-34q-9 -5 -31.5 -10t-49.5 -5q-30 0 -49.5 12t-24.5 41h-6q-20 -22 -53 -39t-83 -17q-69 0 -112.5 37
t-43.5 103q0 33 11.5 56t32 39t49.5 26t64 17l131 27v54q0 31 -3.5 53.5t-15.5 37t-35 21.5t-61 7zM205 49q31 0 58 12t41 25v147l-102 -8q-53 -5 -72.5 -27.5t-19.5 -60.5q0 -40 23 -64t72 -24z" />
    <glyph glyph-name="k.alt" horiz-adv-x="529" 
d="M14 34l75 15v621l-75 16v38l155 23l12 -6v-459l44 12l140 168l-60 15v36h202v-36l-73 -15l-140 -166l170 -246l65 -16v-34h-136l-170 245l-42 -3v-193l77 -15v-34h-244v34z" />
    <glyph glyph-name="Kcommaaccent.alt" horiz-adv-x="658" 
d="M20 41l88 18v575l-88 18v41h279v-41l-91 -18v-314l274 314l-67 18v41h215v-41l-67 -18l-211 -235l227 -339l75 -19v-41h-153l-219 327l-74 -70v-198l91 -18v-41h-279v41zM297 -182q8 27 11.5 63.5t3.5 76.5h94q-5 -39 -17.5 -76.5t-34.5 -63.5h-57z" />
    <glyph glyph-name="Racute.alt" horiz-adv-x="647" 
d="M419 342q31 -6 55.5 -16t40.5 -26.5t24.5 -40.5t8.5 -59v-90q0 -38 17 -50t47 -12h27v-39q-11 -7 -31 -12.5t-46 -5.5q-23 0 -43.5 5t-36 18.5t-25 37t-9.5 59.5v96q0 28 -5.5 48t-20.5 32.5t-41.5 18t-67.5 5.5h-103v-251l86 -19v-41h-276v41l90 19v573l-87 19v41h270
q136 0 196 -47.5t60 -136.5q0 -70 -36.5 -109t-93.5 -54v-4zM318 362q74 0 101.5 38.5t27.5 106.5q0 69 -32.5 98t-107.5 29h-97v-272h108zM232 728l-16 36l186 106l36 -76z" />
    <glyph glyph-name="Rcaron.alt" horiz-adv-x="647" 
d="M419 342q31 -6 55.5 -16t40.5 -26.5t24.5 -40.5t8.5 -59v-90q0 -38 17 -50t47 -12h27v-39q-11 -7 -31 -12.5t-46 -5.5q-23 0 -43.5 5t-36 18.5t-25 37t-9.5 59.5v96q0 28 -5.5 48t-20.5 32.5t-41.5 18t-67.5 5.5h-103v-251l86 -19v-41h-276v41l90 19v573l-87 19v41h270
q136 0 196 -47.5t60 -136.5q0 -70 -36.5 -109t-93.5 -54v-4zM318 362q74 0 101.5 38.5t27.5 106.5q0 69 -32.5 98t-107.5 29h-97v-272h108zM453 838l-119 -98h-46l-119 98l17 31l125 -55l125 55z" />
    <glyph glyph-name="Rcommaaccent.alt" horiz-adv-x="647" 
d="M419 342q31 -6 55.5 -16t40.5 -26.5t24.5 -40.5t8.5 -59v-90q0 -38 17 -50t47 -12h27v-39q-11 -7 -31 -12.5t-46 -5.5q-23 0 -43.5 5t-36 18.5t-25 37t-9.5 59.5v96q0 28 -5.5 48t-20.5 32.5t-41.5 18t-67.5 5.5h-103v-251l86 -19v-41h-276v41l90 19v573l-87 19v41h270
q136 0 196 -47.5t60 -136.5q0 -70 -36.5 -109t-93.5 -54v-4zM318 362q74 0 101.5 38.5t27.5 106.5q0 69 -32.5 98t-107.5 29h-97v-272h108zM282 -182q8 27 11.5 63.5t3.5 76.5h94q-5 -39 -17.5 -76.5t-34.5 -63.5h-57z" />
    <glyph glyph-name="Thorn.alt" horiz-adv-x="562" 
d="M20 41l88 19v573l-88 19v41h275v-41l-87 -19v-91h76q72 0 121 -13t79 -36.5t43 -56.5t13 -73q0 -97 -61 -145.5t-176 -48.5q-52 0 -95 8v-117l105 -19v-41h-293v41zM208 225q15 -2 36.5 -3t44.5 -1q43 0 71 8.5t45 26t24 42.5t7 58q0 69 -33.5 98t-105.5 29h-89v-258z
" />
    <glyph glyph-name="aacute.alt" horiz-adv-x="473" 
d="M189 465q-13 0 -28.5 -1.5t-31.5 -4.5l-21 -85h-54v121q15 5 35 10t43.5 9t49 6.5t49.5 2.5q88 0 126.5 -36.5t38.5 -114.5v-295q0 -24 12.5 -31t35.5 -7h25v-34q-9 -5 -31.5 -10t-49.5 -5q-30 0 -49.5 12t-24.5 41h-6q-20 -22 -53 -39t-83 -17q-69 0 -112.5 37
t-43.5 103q0 33 11.5 56t32 39t49.5 26t64 17l131 27v54q0 31 -3.5 53.5t-15.5 37t-35 21.5t-61 7zM205 49q31 0 58 12t41 25v147l-102 -8q-53 -5 -72.5 -27.5t-19.5 -60.5q0 -40 23 -64t72 -24zM125 602l172 128l45 -72l-197 -90z" />
    <glyph glyph-name="abreve.alt" horiz-adv-x="473" 
d="M189 465q-13 0 -28.5 -1.5t-31.5 -4.5l-21 -85h-54v121q15 5 35 10t43.5 9t49 6.5t49.5 2.5q88 0 126.5 -36.5t38.5 -114.5v-295q0 -24 12.5 -31t35.5 -7h25v-34q-9 -5 -31.5 -10t-49.5 -5q-30 0 -49.5 12t-24.5 41h-6q-20 -22 -53 -39t-83 -17q-69 0 -112.5 37
t-43.5 103q0 33 11.5 56t32 39t49.5 26t64 17l131 27v54q0 31 -3.5 53.5t-15.5 37t-35 21.5t-61 7zM205 49q31 0 58 12t41 25v147l-102 -8q-53 -5 -72.5 -27.5t-19.5 -60.5q0 -40 23 -64t72 -24zM219 581q-27 0 -51 9.5t-41.5 26t-28 39.5t-11.5 51h57q13 -61 75 -61t75 61
h57q-1 -28 -11.5 -51t-28 -39.5t-41.5 -26t-51 -9.5z" />
    <glyph glyph-name="acircumflex.alt" horiz-adv-x="473" 
d="M189 465q-13 0 -28.5 -1.5t-31.5 -4.5l-21 -85h-54v121q15 5 35 10t43.5 9t49 6.5t49.5 2.5q88 0 126.5 -36.5t38.5 -114.5v-295q0 -24 12.5 -31t35.5 -7h25v-34q-9 -5 -31.5 -10t-49.5 -5q-30 0 -49.5 12t-24.5 41h-6q-20 -22 -53 -39t-83 -17q-69 0 -112.5 37
t-43.5 103q0 33 11.5 56t32 39t49.5 26t64 17l131 27v54q0 31 -3.5 53.5t-15.5 37t-35 21.5t-61 7zM205 49q31 0 58 12t41 25v147l-102 -8q-53 -5 -72.5 -27.5t-19.5 -60.5q0 -40 23 -64t72 -24zM86 602l115 121h46l115 -121l-21 -29l-117 74l-117 -74z" />
    <glyph glyph-name="adieresis.alt" horiz-adv-x="473" 
d="M189 465q-13 0 -28.5 -1.5t-31.5 -4.5l-21 -85h-54v121q15 5 35 10t43.5 9t49 6.5t49.5 2.5q88 0 126.5 -36.5t38.5 -114.5v-295q0 -24 12.5 -31t35.5 -7h25v-34q-9 -5 -31.5 -10t-49.5 -5q-30 0 -49.5 12t-24.5 41h-6q-20 -22 -53 -39t-83 -17q-69 0 -112.5 37
t-43.5 103q0 33 11.5 56t32 39t49.5 26t64 17l131 27v54q0 31 -3.5 53.5t-15.5 37t-35 21.5t-61 7zM205 49q31 0 58 12t41 25v147l-102 -8q-53 -5 -72.5 -27.5t-19.5 -60.5q0 -40 23 -64t72 -24zM141 602q-22 0 -38 16.5t-16 37.5q0 23 16 38.5t38 15.5q23 0 39 -15.5
t16 -38.5q0 -21 -16 -37.5t-39 -16.5zM307 602q-23 0 -39 16.5t-16 37.5q0 23 16 38.5t39 15.5t38.5 -15.5t15.5 -38.5q0 -21 -15.5 -37.5t-38.5 -16.5z" />
    <glyph glyph-name="agrave.alt" horiz-adv-x="473" 
d="M189 465q-13 0 -28.5 -1.5t-31.5 -4.5l-21 -85h-54v121q15 5 35 10t43.5 9t49 6.5t49.5 2.5q88 0 126.5 -36.5t38.5 -114.5v-295q0 -24 12.5 -31t35.5 -7h25v-34q-9 -5 -31.5 -10t-49.5 -5q-30 0 -49.5 12t-24.5 41h-6q-20 -22 -53 -39t-83 -17q-69 0 -112.5 37
t-43.5 103q0 33 11.5 56t32 39t49.5 26t64 17l131 27v54q0 31 -3.5 53.5t-15.5 37t-35 21.5t-61 7zM205 49q31 0 58 12t41 25v147l-102 -8q-53 -5 -72.5 -27.5t-19.5 -60.5q0 -40 23 -64t72 -24zM102 658l45 72l172 -128l-20 -34z" />
    </font>
</defs>
</svg>
